<svg id="Layer_1" data-name="Layer 1" xmlns="http://www.w3.org/2000/svg" viewBox="0 0 426.82 74.17"><defs><style>.cls-1{fill:#fff;}</style></defs><title>logo-white</title><path class="cls-1" d="M158.31,2.47c-12.08,0-21.53,8.66-21.53,19.39,0,10.91,9.45,19.57,21.53,19.57S180,32.77,180,21.86C180,11.13,170.39,2.47,158.31,2.47Zm0,33.33c-8.21,0-14.6-6.29-14.6-13.94s6.39-13.77,14.6-13.77,14.78,6.19,14.78,13.77S166.59,35.8,158.31,35.8Z" transform="translate(-2.59 -2.47)"/><path class="cls-1" d="M37.84,14.84a10.41,10.41,0,0,0-3.05-7.37c-2.46-2.53-6-3.88-11.08-3.88H2.59V40.3H9.16V26.19H22.77L31,40.3h7.57L29.4,25.35C34.45,23.55,37.84,19.79,37.84,14.84Zm-13,5.74H9.16V9.21H23.71c2.05,0,4.16.17,6,2a5.14,5.14,0,0,1,1.58,3.66C31.27,18,28.34,20.58,24.88,20.58Z" transform="translate(-2.59 -2.47)"/><polygon class="cls-1" points="110.33 37.83 128.09 1.13 120.94 1.13 107.68 29.8 107.34 29.8 94.08 1.13 86.57 1.13 104.34 37.83 110.33 37.83"/><polygon class="cls-1" points="54.55 21.48 69.27 21.48 69.27 15.85 54.55 15.85 54.55 6.74 79.06 6.74 79.06 1.13 47.98 1.13 47.98 37.83 80.47 37.83 80.47 32.22 54.55 32.22 54.55 21.48"/><polygon class="cls-1" points="219.37 32.22 195.84 32.22 195.84 1.13 189.27 1.13 189.27 37.83 219.37 37.83 219.37 32.22"/><rect class="cls-1" x="318.72" y="1.13" width="6.57" height="36.71"/><path class="cls-1" d="M247.53,41.43c9.74,0,17-5.12,17-14.17V3.6H258V27.26c0,5.51-4.57,8.54-10.44,8.54s-10.39-3-10.39-8.54V3.6h-6.57V27.26C230.57,36.31,237.84,41.43,247.53,41.43Z" transform="translate(-2.59 -2.47)"/><path class="cls-1" d="M361.31,2.47c-12.08,0-21.52,8.66-21.52,19.39,0,10.91,9.44,19.57,21.52,19.57S383,32.77,383,21.86C383,11.13,373.4,2.47,361.31,2.47Zm0,33.33c-8.21,0-14.6-6.29-14.6-13.94s6.39-13.77,14.6-13.77,14.79,6.19,14.79,13.77S369.58,35.8,361.31,35.8Z" transform="translate(-2.59 -2.47)"/><polygon class="cls-1" points="271.62 6.74 286.7 6.74 286.7 37.83 293.26 37.83 293.26 6.74 308.27 6.74 308.27 1.13 271.62 1.13 271.62 6.74"/><polygon class="cls-1" points="420.25 1.13 420.25 26.59 420.19 26.59 398.07 1.13 392.26 1.13 392.26 37.83 398.83 37.83 398.83 12.37 398.89 12.37 421.01 37.83 426.81 37.83 426.81 1.13 420.25 1.13"/><path class="cls-1" d="M279.34,61.8h-7.2V76.19h7.2a7.27,7.27,0,0,0,5.36-1.76A7.37,7.37,0,0,0,286.9,69a6.86,6.86,0,0,0-7.56-7.18Zm3.34,11.07A4.57,4.57,0,0,1,279.23,74h-4.5V64h4.5a4.57,4.57,0,0,1,3.54,1.22A5.2,5.2,0,0,1,284.22,69,5.41,5.41,0,0,1,282.68,72.87Z" transform="translate(-2.59 -2.47)"/><polygon class="cls-1" points="197.19 64.89 192.89 59.33 189.62 59.33 195.78 67.09 195.78 73.72 198.36 73.72 198.36 67.09 204.52 59.33 201.48 59.33 197.19 64.89"/><path class="cls-1" d="M116.25,68.26a3.18,3.18,0,0,0,1.91-2.94,3.09,3.09,0,0,0-1-2.27,5,5,0,0,0-3.61-1.26h-9.08V76.18h9.27A5.25,5.25,0,0,0,117.62,75,4.07,4.07,0,0,0,119,71.89,3.54,3.54,0,0,0,116.25,68.26ZM107,64h6.24a2.29,2.29,0,0,1,1.68.55,1.74,1.74,0,0,1,.53,1.23,2,2,0,0,1-.62,1.43,2.2,2.2,0,0,1-1.59.53H107Zm8.65,9.33a2.68,2.68,0,0,1-1.87.66H107V69.74h6.79a2.66,2.66,0,0,1,1.89.78,2,2,0,0,1,.6,1.36A2.08,2.08,0,0,1,115.68,73.33Z" transform="translate(-2.59 -2.47)"/><polygon class="cls-1" points="320.33 69.32 320.3 69.32 311.63 59.33 309.36 59.33 309.36 73.72 311.93 73.72 311.93 63.74 311.96 63.74 320.63 73.72 322.91 73.72 322.91 59.33 320.33 59.33 320.33 69.32"/><path class="cls-1" d="M298.79,61.36c-4.73,0-8.43,3.39-8.43,7.61s3.7,7.67,8.43,7.67,8.51-3.4,8.51-7.67S303.54,61.36,298.79,61.36Zm0,13.07a5.44,5.44,0,1,1,5.8-5.46A5.58,5.58,0,0,1,298.79,74.43Z" transform="translate(-2.59 -2.47)"/><polygon class="cls-1" points="173.38 61.53 179.29 61.53 179.29 73.72 181.87 73.72 181.87 61.53 187.75 61.53 187.75 59.33 173.38 59.33 173.38 61.53"/><polygon class="cls-1" points="216.85 59.33 214.27 59.33 214.27 73.72 226.06 73.72 226.06 71.51 216.85 71.51 216.85 59.33"/><path class="cls-1" d="M239.45,61.36c-4.74,0-8.44,3.39-8.44,7.61s3.7,7.67,8.44,7.67S248,73.24,248,69,244.18,61.36,239.45,61.36Zm0,13.07A5.44,5.44,0,1,1,245.24,69,5.58,5.58,0,0,1,239.45,74.43Z" transform="translate(-2.59 -2.47)"/><polygon class="cls-1" points="260.97 69.32 260.95 69.32 252.28 59.33 250 59.33 250 73.72 252.58 73.72 252.58 63.74 252.6 63.74 261.28 73.72 263.55 73.72 263.55 59.33 260.97 59.33 260.97 69.32"/><polygon class="cls-1" points="124.03 67.31 129.8 67.31 129.8 65.1 124.03 65.1 124.03 61.53 133.65 61.53 133.65 59.33 121.45 59.33 121.45 73.72 134.2 73.72 134.2 71.51 124.03 71.51 124.03 67.31"/><path class="cls-1" d="M169.6,71.08c0,2.16-1.79,3.35-4.09,3.35s-4.07-1.19-4.07-3.35V61.8h-2.58v9.28c0,3.55,2.86,5.56,6.65,5.56s6.67-2,6.67-5.56V61.8H169.6Z" transform="translate(-2.59 -2.47)"/><path class="cls-1" d="M146.2,61.8l-7,14.39h2.69l1.8-3.88h7.15l1.82,3.88h2.82l-7-14.39Zm-1.57,8.53,2.6-5.58h.13l2.58,5.58Z" transform="translate(-2.59 -2.47)"/></svg>