<?xml version="1.0" encoding="utf-8" ?><svg version="1.1" xmlns = 'http://www.w3.org/2000/svg'><defs><font id='web' horiz-adv-x="1000">
<font-face font-family="web" x-height="483" units-per-em="1000" cap-height="653" bbox="-118,-307,1539,1068" descent="-230" ascent="770" />
<missing-glyph horiz-adv-x="579" d="M 0 653 L 579 653 L 579 0 L 0 0 L 0 653 Z M 147 92 L 431 92 L 289 252 L 147 92 Z M 289 401 L 431 561 L 147 561 L 289 401 Z M 477 190 L 477 463 L 355 326 L 477 190 Z M 102 463 L 102 190 L 223 326 L 102 463 Z" /><glyph d="" unicode=" " horiz-adv-x="225" />
<glyph d="M 76 57 C 76 77 83 94 98 108 C 113 122 132 130 155 130 C 177 130 196 122 212 108 C 227 94 235 77 235 57 C 235 37 227 20 212 6 C 196 -8 177 -15 155 -15 C 132 -15 113 -8 98 6 C 83 20 76 37 76 57 Z M 119 210 L 94 495 L 94 653 L 216 653 L 216 495 L 191 210 L 119 210 Z" unicode="!" horiz-adv-x="311" />
<glyph d="M 88 378 L 63 542 L 63 653 L 175 653 L 175 542 L 150 378 L 88 378 Z M 352 378 L 327 542 L 327 653 L 439 653 L 439 542 L 414 378 L 352 378 Z" unicode="&#x22;" horiz-adv-x="502" />
<glyph d="M 679 666 L 645 473 L 850 473 L 850 393 L 631 393 L 597 199 L 791 199 L 791 119 L 583 119 L 544 -104 L 461 -104 L 500 119 L 323 119 L 284 -104 L 201 -104 L 240 119 L 37 119 L 37 199 L 254 199 L 288 393 L 96 393 L 96 473 L 302 473 L 336 666 L 419 666 L 385 473 L 562 473 L 596 666 L 679 666 Z M 337 199 L 514 199 L 548 393 L 371 393 L 337 199 Z" unicode="#" horiz-adv-x="889" />
<glyph d="M 385 733 L 385 629 C 412 625 438 620 463 614 C 487 607 510 599 531 591 C 551 583 570 574 587 565 C 603 555 618 546 630 538 L 566 464 C 549 478 526 492 496 506 C 466 520 429 529 385 535 L 385 375 C 413 373 442 369 474 364 C 506 359 535 350 561 337 C 587 323 609 305 627 281 C 645 257 654 225 654 186 C 654 150 646 119 632 93 C 618 67 598 45 574 29 C 550 13 521 1 489 -7 C 456 -15 421 -19 385 -20 L 385 -150 L 310 -150 L 310 -16 C 277 -12 247 -5 219 2 C 191 10 166 20 143 32 C 120 43 99 55 80 68 C 60 81 43 94 28 108 L 92 181 C 102 171 115 161 129 151 C 143 140 160 130 178 121 C 196 111 216 103 238 95 C 260 87 284 82 310 78 L 310 278 C 278 280 248 284 218 290 C 188 296 161 305 138 317 C 115 329 97 345 83 365 C 69 385 62 412 62 445 C 62 481 69 510 84 534 C 99 558 118 577 142 592 C 166 606 192 617 222 623 C 251 629 280 632 310 633 L 310 733 L 385 733 Z M 549 171 C 549 189 545 203 537 215 C 529 227 518 236 504 244 C 490 252 472 258 452 262 C 432 266 409 270 385 272 L 385 73 C 407 73 429 75 449 79 C 469 83 486 89 501 97 C 515 105 527 115 536 127 C 544 139 549 153 549 171 Z M 168 455 C 168 441 172 429 181 420 C 190 410 202 403 216 397 C 230 391 245 387 262 385 C 278 382 294 380 310 380 L 310 540 C 290 540 272 538 255 535 C 238 532 223 527 210 521 C 197 514 187 505 179 495 C 171 484 168 471 168 455 Z" unicode="$" horiz-adv-x="692" />
<glyph d="M 757 653 L 387 0 L 298 0 L 669 653 L 757 653 Z M 39 481 C 39 506 44 530 54 553 C 64 576 79 596 97 613 C 115 630 137 644 161 654 C 185 664 212 669 240 669 C 268 669 294 664 319 654 C 343 644 365 630 383 613 C 401 596 416 576 427 553 C 438 530 444 506 444 481 C 444 455 438 430 427 407 C 416 384 401 364 383 347 C 365 330 343 317 319 307 C 294 297 268 292 240 292 C 212 292 185 297 161 307 C 137 317 115 330 97 347 C 79 364 64 384 54 407 C 44 430 39 455 39 481 Z M 135 481 C 135 467 137 453 143 441 C 148 429 155 418 165 408 C 175 398 186 391 199 386 C 211 380 225 378 240 378 C 254 378 268 380 281 386 C 294 391 306 398 316 408 C 326 418 333 429 339 441 C 345 453 348 467 348 481 C 348 495 345 508 339 520 C 333 532 326 543 316 553 C 306 562 294 569 281 575 C 268 580 254 583 240 583 C 225 583 211 580 199 575 C 186 569 175 562 165 553 C 155 543 148 532 143 520 C 137 508 135 495 135 481 Z M 611 173 C 611 198 616 222 626 245 C 636 268 651 288 669 305 C 687 322 709 336 733 346 C 757 356 784 361 812 361 C 840 361 866 356 891 346 C 915 336 937 322 955 305 C 973 288 988 268 999 245 C 1010 222 1016 198 1016 173 C 1016 147 1010 122 999 99 C 988 76 973 56 955 39 C 937 22 915 9 891 -1 C 866 -11 840 -16 812 -16 C 784 -16 757 -11 733 -1 C 709 9 687 22 669 39 C 651 56 636 76 626 99 C 616 122 611 147 611 173 Z M 707 173 C 707 159 709 145 715 133 C 720 121 727 110 737 100 C 747 90 758 83 771 78 C 783 72 797 70 812 70 C 826 70 840 72 853 78 C 866 83 878 90 888 100 C 898 110 905 121 911 133 C 917 145 920 159 920 173 C 920 187 917 200 911 212 C 905 224 898 235 888 245 C 878 254 866 261 853 267 C 840 272 826 275 812 275 C 797 275 783 272 771 267 C 758 261 747 254 737 245 C 727 235 720 224 715 212 C 709 200 707 187 707 173 Z" unicode="%" horiz-adv-x="1055" />
<glyph d="M 517 487 C 503 497 485 507 463 517 C 440 527 415 533 388 533 C 364 533 346 526 333 514 C 319 502 313 487 313 471 C 313 458 317 444 326 430 C 334 416 345 402 357 388 C 369 374 381 362 393 350 C 405 338 416 329 424 321 L 543 202 C 580 239 616 287 652 345 L 742 299 C 719 265 697 234 675 207 C 653 180 631 156 610 135 L 747 0 L 600 0 L 531 67 C 488 35 448 14 410 2 C 372 -9 338 -15 308 -15 C 280 -15 253 -11 226 -3 C 199 4 175 15 154 31 C 132 47 115 67 102 91 C 88 115 82 143 82 177 C 82 203 86 226 94 247 C 102 267 112 285 126 301 C 140 317 156 330 174 342 C 192 354 212 364 234 372 C 222 388 214 403 209 419 C 203 434 201 450 201 468 C 201 493 206 516 216 536 C 226 556 240 574 258 588 C 275 602 295 613 318 621 C 340 629 364 633 390 633 C 430 633 465 626 495 613 C 525 600 551 587 573 575 L 517 487 Z M 296 300 C 284 295 273 290 261 284 C 249 278 238 270 228 261 C 218 251 209 240 203 228 C 197 215 194 200 194 183 C 194 165 197 150 205 138 C 212 126 222 116 234 108 C 246 100 259 94 274 90 C 288 86 303 85 318 85 C 337 85 359 88 384 96 C 408 104 435 117 463 135 L 336 261 L 296 300 Z" unicode="&#x26;" horiz-adv-x="777" />
<glyph d="M 88 378 L 63 542 L 63 653 L 175 653 L 175 542 L 150 378 L 88 378 Z" unicode="'" horiz-adv-x="238" />
<glyph d="M 369 628 C 337 610 308 589 282 564 C 256 538 233 510 215 479 C 197 447 182 413 172 377 C 162 341 157 303 157 264 C 157 224 162 186 172 150 C 182 114 197 80 215 49 C 233 17 256 -10 282 -35 C 308 -60 337 -81 369 -99 L 313 -167 C 271 -145 233 -120 200 -90 C 166 -60 138 -26 115 10 C 92 47 75 87 63 130 C 51 172 45 217 45 264 C 45 310 51 355 63 398 C 75 440 92 480 115 517 C 138 554 166 588 200 618 C 233 648 271 674 313 696 L 369 628 Z" unicode="(" horiz-adv-x="396" />
<glyph d="M 83 696 C 125 674 162 648 196 618 C 229 588 257 554 280 517 C 303 480 321 440 333 398 C 345 355 351 310 351 264 C 351 217 345 172 333 130 C 321 87 303 47 280 10 C 257 -26 229 -60 196 -90 C 162 -120 125 -145 83 -167 L 27 -99 C 59 -81 88 -60 114 -35 C 140 -10 162 17 180 49 C 198 80 213 114 223 150 C 233 186 239 224 239 264 C 239 303 233 341 223 377 C 213 413 198 447 180 479 C 162 510 140 538 114 564 C 88 589 59 610 27 628 L 83 696 Z" unicode=")" horiz-adv-x="396" />
<glyph d="M 119 295 L 214 438 L 52 498 L 77 573 L 242 527 L 250 700 L 330 700 L 339 528 L 502 573 L 527 499 L 365 438 L 460 295 L 398 248 L 289 382 L 181 248 L 119 295 Z" unicode="*" horiz-adv-x="579" />
<glyph d="M 90 305 L 328 305 L 328 504 L 429 504 L 429 305 L 666 305 L 666 213 L 429 213 L 429 14 L 328 14 L 328 213 L 90 213 L 90 305 Z" unicode="+" horiz-adv-x="757" />
<glyph d="M 37 -125 C 49 -121 63 -116 79 -109 C 94 -102 108 -94 122 -84 C 136 -74 147 -62 157 -50 C 166 -38 171 -25 171 -11 L 171 -3 C 167 -4 162 -5 158 -6 C 153 -7 148 -8 143 -8 C 120 -8 101 -1 86 12 C 71 25 64 41 64 61 C 64 80 71 96 86 110 C 101 123 120 130 143 130 C 157 130 170 127 183 121 C 196 115 208 108 218 98 C 228 88 237 76 243 62 C 249 48 252 33 252 17 C 252 -14 246 -41 234 -64 C 222 -87 207 -107 189 -124 C 171 -140 151 -154 129 -165 C 107 -175 87 -184 68 -191 L 37 -125 Z" unicode="," horiz-adv-x="310" />
<glyph d="M 67 306 L 324 306 L 324 204 L 67 204 L 67 306 Z" unicode="-" horiz-adv-x="391" />
<glyph d="M 63 57 C 63 77 70 94 85 108 C 100 122 119 130 142 130 C 164 130 183 122 199 108 C 214 94 222 77 222 57 C 222 37 214 20 199 6 C 183 -8 164 -15 142 -15 C 119 -15 100 -8 85 6 C 70 20 63 37 63 57 Z" unicode="." horiz-adv-x="286" />
<glyph d="M 146 -119 L 44 -119 L 387 653 L 489 653 L 146 -119 Z" unicode="/" horiz-adv-x="535" />
<glyph d="M 56 307 C 56 352 65 394 84 434 C 102 474 128 508 160 538 C 192 567 229 590 272 607 C 314 624 360 633 408 633 C 456 633 501 624 544 607 C 587 590 625 567 657 538 C 689 508 715 474 734 434 C 753 394 763 352 763 307 C 763 261 753 218 734 178 C 715 138 689 104 657 75 C 625 45 587 22 544 5 C 501 -11 456 -20 408 -20 C 360 -20 314 -11 272 5 C 229 22 192 45 160 75 C 128 104 102 138 84 178 C 65 218 56 261 56 307 Z M 168 307 C 168 275 174 246 187 218 C 199 190 216 166 238 146 C 260 126 285 110 314 98 C 343 86 374 80 408 80 C 441 80 472 86 502 98 C 531 110 557 126 579 146 C 601 166 618 190 631 218 C 644 246 651 275 651 307 C 651 337 644 366 631 394 C 618 422 601 446 579 466 C 557 486 531 503 502 515 C 472 527 441 533 408 533 C 374 533 343 527 314 515 C 285 503 260 486 238 466 C 216 446 199 422 187 394 C 174 366 168 337 168 307 Z" unicode="0" horiz-adv-x="818" />
<glyph d="M 19 533 L 210 613 L 322 613 L 322 0 L 210 0 L 210 512 L 43 443 L 19 533 Z" unicode="1" horiz-adv-x="433" />
<glyph d="M 70 522 C 88 536 107 549 127 563 C 147 576 168 588 190 598 C 212 608 237 617 264 623 C 290 629 320 633 354 633 C 386 633 417 629 449 623 C 480 616 508 606 532 592 C 556 578 576 560 591 538 C 606 516 614 490 614 460 C 614 423 604 393 585 369 C 566 345 543 326 516 311 C 488 295 459 283 429 274 C 398 264 371 256 348 250 C 324 243 302 235 282 227 C 261 219 243 209 227 197 C 211 185 199 170 190 154 C 181 138 177 118 177 96 L 177 90 L 601 90 L 601 0 L 65 0 L 65 86 C 65 124 72 158 88 187 C 104 215 125 240 151 261 C 177 282 206 300 240 314 C 274 328 308 339 344 349 C 354 351 367 355 385 360 C 403 364 420 371 438 379 C 455 387 470 398 483 411 C 495 423 502 439 502 457 C 502 471 497 482 489 492 C 481 502 470 510 456 516 C 442 522 427 526 410 529 C 392 531 375 533 357 533 C 331 533 308 530 288 526 C 268 521 249 515 231 507 C 213 499 197 489 181 478 C 165 467 150 456 136 444 L 70 522 Z" unicode="2" horiz-adv-x="677" />
<glyph d="M 341 368 L 464 368 C 473 368 482 369 492 373 C 501 376 509 381 517 388 C 525 394 531 402 536 411 C 540 420 543 431 543 443 C 543 459 538 473 529 485 C 519 497 507 506 493 513 C 479 520 463 525 445 528 C 427 531 411 533 395 533 C 371 533 349 530 327 525 C 305 519 285 512 265 503 C 245 494 226 484 209 472 C 191 460 175 447 161 435 L 93 503 C 111 519 131 534 153 550 C 175 566 198 580 224 592 C 250 604 277 614 306 622 C 334 629 365 633 397 633 C 423 633 452 630 482 624 C 512 618 540 608 566 594 C 592 580 613 563 630 541 C 646 519 655 493 655 462 C 655 446 652 431 648 417 C 643 403 637 391 630 381 C 623 370 615 361 607 354 C 599 347 591 342 584 339 C 595 336 608 331 622 325 C 636 319 649 310 661 298 C 673 286 684 272 692 255 C 700 237 705 216 705 192 C 705 158 696 127 679 101 C 661 75 638 53 608 35 C 578 17 542 3 502 -6 C 462 -15 419 -20 373 -20 C 304 -20 242 -9 187 10 C 132 30 81 63 35 107 L 103 185 C 135 154 173 129 216 109 C 259 89 311 80 373 80 C 403 80 432 82 459 88 C 485 93 509 101 529 111 C 549 121 564 133 576 148 C 587 162 593 179 593 199 C 593 215 588 229 580 239 C 571 249 560 257 548 263 C 535 269 521 273 507 275 C 492 277 479 278 468 278 L 341 278 L 341 368 Z" unicode="3" horiz-adv-x="760" />
<glyph d="M 750 137 L 627 137 L 627 0 L 515 0 L 515 137 L 34 137 L 34 215 L 528 613 L 627 613 L 627 227 L 750 227 L 750 137 Z M 201 227 L 515 227 L 515 469 L 504 469 L 201 231 L 201 227 Z" unicode="4" horiz-adv-x="795" />
<glyph d="M 616 513 L 210 513 L 210 358 C 224 366 239 374 253 382 C 267 389 283 395 299 400 C 315 404 332 408 351 411 C 370 413 391 415 415 415 C 449 415 482 410 515 402 C 548 394 578 381 604 365 C 630 349 651 328 667 303 C 683 277 691 248 691 214 C 691 170 681 134 662 104 C 643 74 618 50 587 32 C 556 14 521 0 482 -7 C 443 -15 404 -20 364 -20 C 322 -20 285 -16 251 -8 C 217 0 186 9 159 21 C 132 33 109 45 89 59 C 69 72 52 84 38 96 L 106 174 C 116 164 129 154 145 144 C 161 133 179 123 201 113 C 223 103 247 95 274 89 C 301 83 331 80 365 80 C 391 80 416 82 442 87 C 468 91 491 99 511 109 C 531 119 547 133 560 150 C 572 167 579 188 579 213 C 579 231 574 246 565 260 C 555 273 543 284 527 293 C 511 302 494 309 474 313 C 454 317 433 320 412 320 C 360 320 315 313 279 299 C 242 285 208 269 178 251 L 108 301 L 108 613 L 616 613 L 616 513 Z" unicode="5" horiz-adv-x="739" />
<glyph d="M 611 480 C 585 497 556 510 523 519 C 490 528 456 533 420 533 C 387 533 355 528 325 518 C 295 508 268 494 244 476 C 220 457 201 434 186 407 C 170 380 162 349 160 315 C 176 325 193 336 213 346 C 233 356 254 366 278 374 C 301 382 326 389 353 395 C 379 400 408 403 438 403 C 483 403 522 397 556 385 C 590 373 618 358 640 340 C 662 321 678 300 689 277 C 699 253 705 230 705 207 C 705 175 697 145 683 117 C 669 89 649 65 623 45 C 597 25 566 9 530 -2 C 494 -14 454 -20 412 -20 C 366 -20 322 -13 280 0 C 238 13 200 33 167 60 C 134 86 108 119 88 159 C 68 199 58 245 58 297 C 58 349 67 396 87 438 C 107 480 133 515 167 544 C 201 572 240 594 284 610 C 328 625 374 633 422 633 C 458 633 490 630 518 624 C 546 618 571 610 593 602 C 614 594 632 585 646 577 C 660 569 671 562 679 558 L 611 480 Z M 428 313 C 402 313 376 310 352 305 C 328 300 305 294 283 286 C 261 278 240 269 221 260 C 201 250 184 241 169 233 C 177 207 189 185 205 166 C 221 147 239 131 261 118 C 283 105 307 95 333 89 C 359 83 386 80 414 80 C 440 80 464 83 486 90 C 508 97 527 107 543 119 C 559 131 571 144 580 160 C 588 176 593 192 593 209 C 593 221 590 233 584 245 C 578 257 568 269 555 279 C 541 289 524 297 504 303 C 483 309 458 313 428 313 Z" unicode="6" horiz-adv-x="760" />
<glyph d="M 41 613 L 625 613 L 625 513 L 269 0 L 122 0 L 496 513 L 41 513 L 41 613 Z" unicode="7" horiz-adv-x="670" />
<glyph d="M 380 -22 C 338 -22 298 -17 259 -9 C 220 0 186 12 156 29 C 126 46 101 67 83 92 C 65 116 56 144 56 176 C 56 199 60 220 70 238 C 79 256 91 272 107 286 C 122 300 139 311 159 319 C 179 327 199 333 220 337 C 180 343 149 357 127 379 C 105 400 95 429 95 465 C 95 493 104 518 122 540 C 140 561 162 579 190 593 C 218 607 248 617 282 624 C 316 631 348 635 380 635 C 411 635 443 631 477 624 C 511 617 541 607 569 593 C 597 579 620 561 638 540 C 656 518 665 493 665 465 C 665 393 623 350 539 337 C 559 333 580 327 600 319 C 620 311 637 300 653 286 C 668 272 680 256 690 238 C 699 220 704 199 704 176 C 704 144 694 116 676 92 C 658 67 633 46 603 29 C 573 12 538 0 499 -9 C 460 -17 420 -22 380 -22 Z M 380 78 C 404 78 429 80 453 85 C 477 89 499 96 518 105 C 537 114 552 125 564 139 C 576 152 582 168 582 186 C 582 204 575 219 563 233 C 550 246 534 257 515 266 C 495 274 474 281 450 285 C 426 289 402 292 380 292 C 357 292 334 289 310 285 C 286 281 264 274 245 266 C 225 257 209 246 197 233 C 184 219 178 204 178 186 C 178 168 183 152 195 139 C 207 125 222 114 241 105 C 260 96 282 89 306 85 C 330 80 354 78 380 78 Z M 380 374 C 432 374 473 380 501 394 C 529 408 543 428 543 455 C 543 470 538 483 528 495 C 518 506 505 515 489 523 C 473 530 455 535 436 539 C 416 543 398 545 380 545 C 362 545 343 543 324 539 C 304 535 287 530 271 523 C 255 515 242 506 232 495 C 222 483 217 470 217 455 C 217 428 231 408 259 394 C 287 380 327 374 380 374 Z" unicode="8" horiz-adv-x="760" />
<glyph d="M 147 133 C 172 115 201 102 234 93 C 267 84 302 80 338 80 C 370 80 402 84 432 94 C 462 104 489 118 513 136 C 537 154 556 177 571 204 C 586 231 595 262 597 297 C 581 287 563 276 543 266 C 523 256 502 246 479 238 C 455 230 430 223 404 218 C 377 212 349 210 320 210 C 274 210 235 215 201 227 C 167 239 140 254 118 273 C 96 291 79 312 69 336 C 58 359 53 382 53 406 C 53 438 60 467 74 495 C 88 523 109 547 135 567 C 161 587 191 603 227 615 C 263 627 302 633 346 633 C 391 633 435 626 477 613 C 519 599 557 579 590 553 C 623 526 650 493 670 453 C 690 413 700 368 700 316 C 700 263 690 216 670 174 C 650 132 624 97 590 69 C 556 40 518 18 474 3 C 430 -12 384 -20 336 -20 C 300 -20 267 -17 239 -11 C 211 -5 186 2 165 10 C 143 18 125 27 111 35 C 97 43 86 50 79 55 L 147 133 Z M 330 300 C 356 300 381 302 405 307 C 429 312 453 318 475 326 C 497 334 517 342 536 352 C 555 361 572 370 588 379 C 580 404 569 426 553 445 C 537 464 518 480 496 493 C 474 506 451 516 425 523 C 399 529 372 533 344 533 C 318 533 294 529 272 522 C 250 515 231 506 215 494 C 199 482 186 468 178 452 C 169 436 165 420 165 404 C 165 392 168 379 174 367 C 180 355 189 344 203 334 C 216 324 233 315 254 309 C 274 303 300 300 330 300 Z" unicode="9" horiz-adv-x="758" />
<glyph d="M 82 57 C 82 77 89 94 104 108 C 119 122 138 130 161 130 C 183 130 202 122 218 108 C 233 94 241 77 241 57 C 241 37 233 20 218 6 C 202 -8 183 -15 161 -15 C 138 -15 119 -8 104 6 C 89 20 82 37 82 57 Z M 82 421 C 82 441 89 458 104 472 C 119 486 138 494 161 494 C 183 494 202 486 218 472 C 233 458 241 441 241 421 C 241 401 233 384 218 370 C 202 356 183 349 161 349 C 138 349 119 356 104 370 C 89 384 82 401 82 421 Z" unicode=":" horiz-adv-x="323" />
<glyph d="M 55 -125 C 67 -121 81 -116 97 -109 C 112 -102 126 -94 140 -84 C 154 -74 165 -62 175 -50 C 184 -38 189 -25 189 -11 L 189 -3 C 185 -4 180 -5 176 -6 C 171 -7 166 -8 161 -8 C 138 -8 119 -1 104 12 C 89 25 82 41 82 61 C 82 80 89 96 104 110 C 119 123 138 130 161 130 C 175 130 188 127 201 121 C 214 115 226 108 236 98 C 246 88 255 76 261 62 C 267 48 270 33 270 17 C 270 -14 264 -41 252 -64 C 240 -87 225 -107 207 -124 C 189 -140 169 -154 147 -165 C 125 -175 105 -184 86 -191 L 55 -125 Z M 82 421 C 82 441 89 458 104 472 C 119 486 138 494 161 494 C 183 494 202 486 218 472 C 233 458 241 441 241 421 C 241 401 233 384 218 370 C 202 356 183 349 161 349 C 138 349 119 356 104 370 C 89 384 82 401 82 421 Z" unicode=";" horiz-adv-x="336" />
<glyph d="M 666 390 L 220 265 L 220 253 L 666 128 L 666 24 L 90 209 L 90 309 L 666 495 L 666 390 Z" unicode="&#x3C;" horiz-adv-x="757" />
<glyph d="M 90 428 L 666 428 L 666 335 L 90 335 L 90 428 Z M 90 184 L 666 184 L 666 91 L 90 91 L 90 184 Z" unicode="=" horiz-adv-x="757" />
<glyph d="M 90 495 L 666 309 L 666 209 L 90 24 L 90 128 L 536 253 L 536 265 L 90 390 L 90 495 Z" unicode="&#x3E;" horiz-adv-x="757" />
<glyph d="M 46 549 C 62 567 78 583 96 598 C 113 613 132 626 153 637 C 174 648 198 657 224 663 C 250 669 280 672 314 672 C 342 672 368 669 394 663 C 419 657 441 648 460 636 C 479 624 494 607 506 587 C 517 567 523 542 523 513 C 523 485 518 462 509 444 C 499 425 487 409 473 395 C 456 379 437 364 417 352 C 396 340 376 327 358 314 C 340 301 324 286 311 270 C 298 254 291 234 291 210 L 191 210 C 189 246 196 276 212 300 C 227 324 245 345 267 363 C 289 380 311 395 335 409 C 359 423 379 437 395 453 C 403 461 410 469 415 479 C 420 488 423 498 423 510 C 423 534 412 552 390 564 C 368 576 341 582 311 582 C 287 582 266 579 248 575 C 229 570 212 563 197 555 C 181 546 167 536 154 524 C 141 512 128 499 116 485 L 46 549 Z M 181 57 C 181 77 188 94 203 108 C 218 122 237 130 260 130 C 282 130 301 122 317 108 C 332 94 340 77 340 57 C 340 37 332 20 317 6 C 301 -8 282 -15 260 -15 C 237 -15 218 -8 203 6 C 188 20 181 37 181 57 Z" unicode="?" horiz-adv-x="580" />
<glyph d="M 730 472 L 645 212 C 642 204 641 197 641 191 C 641 175 645 162 654 154 C 662 146 674 142 690 142 C 706 142 723 147 741 157 C 759 167 775 182 791 201 C 806 219 819 242 829 268 C 839 294 845 322 845 354 C 845 389 837 422 823 452 C 808 482 787 509 761 531 C 734 553 702 570 664 583 C 626 595 585 602 539 602 C 486 602 436 593 388 577 C 340 560 298 536 262 506 C 226 475 197 438 176 394 C 154 350 144 302 144 249 C 144 195 154 149 175 110 C 195 70 222 38 256 12 C 290 -14 328 -33 370 -46 C 412 -58 454 -65 498 -65 C 520 -65 544 -63 568 -60 C 592 -56 615 -52 637 -47 C 659 -42 679 -36 698 -30 C 717 -24 733 -17 746 -11 L 772 -79 C 759 -86 742 -93 722 -101 C 702 -109 679 -116 654 -123 C 629 -129 603 -135 575 -139 C 547 -143 520 -145 493 -145 C 441 -145 390 -137 338 -121 C 286 -105 238 -80 196 -48 C 153 -16 118 24 92 74 C 65 123 52 181 52 248 C 52 314 65 373 92 427 C 118 480 154 525 199 563 C 243 601 295 630 354 651 C 413 671 475 682 539 682 C 597 682 650 673 698 657 C 746 640 787 617 821 588 C 855 559 881 525 899 486 C 917 446 927 404 927 359 C 927 313 918 272 902 236 C 886 199 865 168 839 142 C 813 116 785 97 755 83 C 724 69 695 62 667 62 C 637 62 612 69 592 83 C 572 97 562 116 562 140 L 562 148 C 539 120 514 99 486 85 C 458 70 430 63 402 63 C 384 63 366 66 350 72 C 333 78 318 88 305 102 C 292 115 282 132 274 152 C 266 172 262 197 262 225 C 262 263 269 299 284 332 C 298 364 317 393 340 417 C 363 441 388 459 416 473 C 444 486 470 493 496 493 C 527 493 553 483 574 465 C 594 447 607 426 613 402 L 637 472 L 730 472 Z M 429 153 C 446 153 466 158 488 168 C 510 178 531 195 553 217 L 584 313 C 582 325 578 336 572 347 C 566 358 560 368 552 376 C 544 384 536 390 526 395 C 516 400 506 403 496 403 C 482 403 468 399 453 392 C 437 384 423 374 410 360 C 397 346 386 328 377 308 C 368 288 364 265 364 239 C 364 209 369 188 381 174 C 393 160 409 153 429 153 Z" unicode="@" horiz-adv-x="984" />
<glyph d="M 327 653 L 429 653 L 732 0 L 609 0 L 530 176 L 219 176 L 141 0 L 24 0 L 327 653 Z M 259 266 L 490 266 L 378 519 L 372 519 L 259 266 Z" unicode="A" horiz-adv-x="756" />
<glyph d="M 113 0 L 113 653 L 508 653 C 545 653 576 647 602 636 C 628 625 649 612 665 596 C 694 566 709 532 709 493 C 709 477 706 463 702 449 C 698 435 692 423 685 411 C 677 399 669 389 659 380 C 649 371 638 364 626 360 C 664 350 693 330 714 300 C 734 270 745 235 745 195 C 745 171 740 147 731 123 C 722 99 707 77 685 56 C 669 40 648 27 623 16 C 598 5 562 0 516 0 L 113 0 Z M 225 293 L 225 100 L 520 100 C 535 100 550 102 564 107 C 578 112 591 120 601 130 C 609 138 616 148 621 160 C 625 172 628 184 628 196 C 628 208 625 219 621 229 C 616 239 610 249 602 258 C 592 268 580 277 566 283 C 552 289 536 293 520 293 L 225 293 Z M 225 553 L 225 383 L 496 383 C 509 383 521 384 533 388 C 545 391 555 397 565 407 C 583 425 592 446 592 472 C 592 494 584 512 569 528 C 552 544 528 553 496 553 L 225 553 Z" unicode="B" horiz-adv-x="817" />
<glyph d="M 734 116 C 716 98 696 81 674 65 C 651 49 626 34 599 22 C 572 9 543 0 512 -8 C 480 -16 447 -20 412 -20 C 358 -20 309 -11 265 7 C 221 25 184 49 153 81 C 121 113 97 150 80 192 C 63 234 55 279 55 327 C 55 374 63 419 80 461 C 97 503 121 539 152 571 C 183 602 220 627 264 645 C 307 663 355 673 407 673 C 467 673 523 662 577 641 C 631 619 676 592 713 558 L 637 483 C 622 497 606 509 588 520 C 570 531 551 540 531 548 C 511 556 490 562 470 566 C 449 570 429 573 409 573 C 373 573 340 566 311 553 C 282 540 257 522 237 500 C 217 477 201 451 190 421 C 178 391 173 360 173 326 C 173 292 178 260 190 230 C 201 200 217 174 238 152 C 259 130 284 112 314 99 C 344 86 377 80 414 80 C 465 80 512 90 554 112 C 596 134 631 160 659 190 L 734 116 Z" unicode="C" horiz-adv-x="771" />
<glyph d="M 113 0 L 113 653 L 426 653 C 455 653 481 651 505 647 C 529 643 550 637 569 629 C 588 621 605 612 621 602 C 637 591 652 579 666 566 C 695 536 717 500 732 460 C 747 419 755 375 755 327 C 755 277 746 231 730 189 C 714 146 690 110 659 80 C 645 67 630 56 615 46 C 600 36 583 28 565 21 C 547 14 526 9 504 5 C 481 1 455 0 426 0 L 113 0 Z M 421 100 C 441 100 459 101 474 103 C 488 105 501 109 512 113 C 523 117 533 123 542 129 C 551 135 561 143 571 151 C 592 172 608 198 620 228 C 632 258 638 291 638 327 C 638 361 632 392 622 422 C 611 451 595 476 575 498 C 565 506 556 514 547 521 C 537 527 527 533 515 538 C 503 542 489 546 474 549 C 459 551 441 553 421 553 L 225 553 L 225 100 L 421 100 Z" unicode="D" horiz-adv-x="815" />
<glyph d="M 476 291 L 225 291 L 225 100 L 667 100 L 667 0 L 113 0 L 113 653 L 643 653 L 643 553 L 225 553 L 225 391 L 476 391 L 476 291 Z" unicode="E" horiz-adv-x="714" />
<glyph d="M 113 0 L 113 653 L 638 653 L 638 553 L 225 553 L 225 391 L 476 391 L 476 291 L 225 291 L 225 0 L 113 0 Z" unicode="F" horiz-adv-x="661" />
<glyph d="M 637 485 C 623 499 607 511 589 522 C 571 532 553 541 533 549 C 513 557 492 563 472 567 C 451 571 431 573 412 573 C 376 573 344 566 315 553 C 285 540 260 522 239 500 C 217 477 201 451 189 421 C 177 391 172 360 172 326 C 172 294 177 264 188 234 C 198 204 214 178 235 155 C 256 132 282 114 314 100 C 345 86 381 80 423 80 C 439 80 457 81 475 83 C 493 85 510 89 527 94 C 544 98 560 104 575 111 C 590 117 603 125 615 133 L 615 264 L 410 264 L 410 364 L 717 364 L 717 78 C 675 48 628 24 574 6 C 520 -11 468 -20 416 -20 C 364 -20 316 -11 272 7 C 228 25 190 49 158 81 C 126 113 100 150 82 192 C 64 234 55 279 55 327 C 55 375 64 420 82 462 C 100 504 126 540 158 572 C 190 603 227 628 271 646 C 314 664 361 673 411 673 C 463 673 515 662 568 642 C 621 622 670 593 715 555 L 637 485 Z" unicode="G" horiz-adv-x="805" />
<glyph d="M 113 0 L 113 653 L 225 653 L 225 406 L 580 406 L 580 653 L 692 653 L 692 0 L 580 0 L 580 306 L 225 306 L 225 0 L 113 0 Z" unicode="H" horiz-adv-x="805" />
<glyph d="M 113 0 L 113 653 L 225 653 L 225 0 L 113 0 Z" unicode="I" horiz-adv-x="338" />
<glyph d="M 548 653 L 548 232 C 548 192 541 156 527 125 C 513 93 495 67 471 45 C 447 23 418 7 385 -3 C 351 -14 315 -20 275 -20 C 233 -20 198 -14 169 -3 C 140 7 115 21 95 37 C 74 53 57 71 44 91 C 31 111 21 129 13 147 L 106 196 C 111 184 118 171 126 157 C 134 143 145 131 158 120 C 171 108 187 99 206 91 C 225 83 248 80 274 80 C 297 80 319 83 339 90 C 359 96 376 106 390 119 C 404 132 416 148 424 167 C 432 185 436 207 436 232 L 436 653 L 548 653 Z" unicode="J" horiz-adv-x="648" />
<glyph d="M 225 330 L 566 653 L 705 653 L 438 403 L 763 0 L 618 0 L 357 328 L 225 205 L 225 0 L 113 0 L 113 653 L 225 653 L 225 330 Z" unicode="K" horiz-adv-x="766" />
<glyph d="M 225 653 L 225 100 L 626 100 L 626 0 L 113 0 L 113 653 L 225 653 Z" unicode="L" horiz-adv-x="647" />
<glyph d="M 682 0 L 682 444 L 677 444 L 460 78 L 442 78 L 225 444 L 220 444 L 220 0 L 113 0 L 113 653 L 228 653 L 455 268 L 457 268 L 684 653 L 794 653 L 794 0 L 682 0 Z" unicode="M" horiz-adv-x="907" />
<glyph d="M 702 653 L 702 0 L 603 0 L 226 453 L 225 453 L 225 0 L 113 0 L 113 653 L 212 653 L 589 200 L 590 200 L 590 653 L 702 653 Z" unicode="N" horiz-adv-x="815" />
<glyph d="M 55 328 C 55 376 64 420 83 462 C 102 504 128 540 161 572 C 194 603 233 628 278 646 C 322 664 370 673 422 673 C 473 673 521 664 566 646 C 611 628 650 603 684 572 C 717 540 743 504 763 462 C 782 420 792 376 792 328 C 792 279 782 233 763 191 C 743 149 717 112 684 81 C 650 49 611 25 566 7 C 521 -11 473 -20 422 -20 C 370 -20 322 -11 278 7 C 233 25 194 49 161 81 C 128 112 102 149 83 191 C 64 233 55 279 55 328 Z M 173 328 C 173 294 179 262 192 232 C 204 202 222 175 245 153 C 267 130 294 112 324 99 C 354 86 386 80 422 80 C 457 80 490 86 521 99 C 551 112 578 130 601 153 C 623 175 641 202 654 232 C 667 262 674 294 674 328 C 674 362 667 393 654 423 C 641 453 623 479 601 501 C 578 523 551 540 521 553 C 490 566 457 573 422 573 C 386 573 354 566 324 553 C 294 540 267 523 245 501 C 222 479 204 453 192 423 C 179 393 173 362 173 328 Z" unicode="O" horiz-adv-x="846" />
<glyph d="M 113 0 L 113 653 L 473 653 C 519 653 557 646 587 634 C 617 622 642 605 662 584 C 679 564 692 544 701 522 C 709 500 714 477 714 453 C 714 425 708 399 698 375 C 687 351 672 330 654 312 C 634 293 610 278 582 267 C 553 256 517 251 473 251 L 225 251 L 225 0 L 113 0 Z M 225 553 L 225 351 L 473 351 C 487 351 503 352 521 355 C 539 358 556 367 572 383 C 592 401 602 424 602 452 C 602 476 593 498 575 518 C 559 534 542 543 524 547 C 506 551 489 553 473 553 L 225 553 Z" unicode="P" horiz-adv-x="750" />
<glyph d="M 55 328 C 55 376 64 420 83 462 C 102 504 128 540 161 572 C 194 603 233 628 278 646 C 322 664 370 673 422 673 C 473 673 521 664 566 646 C 611 628 650 603 684 572 C 717 540 743 504 763 462 C 782 420 792 376 792 328 C 792 265 776 208 746 157 C 715 106 674 65 623 35 L 707 -86 L 599 -121 L 520 -7 C 504 -11 488 -14 472 -16 C 456 -18 439 -20 422 -20 C 370 -20 322 -11 278 7 C 233 25 194 49 161 81 C 128 112 102 149 83 191 C 64 233 55 279 55 328 Z M 482 239 L 563 122 C 597 144 624 173 644 209 C 664 245 674 285 674 328 C 674 362 667 393 654 423 C 641 453 623 479 601 501 C 578 523 551 540 521 553 C 490 566 457 573 422 573 C 386 573 354 566 324 553 C 294 540 267 523 245 501 C 222 479 204 453 192 423 C 179 393 173 362 173 328 C 173 294 179 262 192 232 C 204 202 222 175 245 153 C 267 130 294 112 324 99 C 354 86 386 80 422 80 C 428 80 434 80 440 80 C 446 80 452 81 458 82 L 374 204 L 482 239 Z" unicode="Q" horiz-adv-x="846" />
<glyph d="M 113 0 L 113 653 L 473 653 C 517 653 554 647 584 635 C 614 623 640 606 662 584 C 678 566 691 546 700 524 C 709 502 714 478 714 453 C 714 409 700 370 674 338 C 648 306 613 282 570 266 L 726 0 L 597 0 L 457 251 L 225 251 L 225 0 L 113 0 Z M 225 553 L 225 351 L 493 351 C 507 351 521 353 535 359 C 548 364 560 371 570 381 C 580 390 587 401 593 413 C 599 425 602 439 602 453 C 602 477 593 498 575 518 C 559 534 543 543 525 547 C 507 551 490 553 473 553 L 225 553 Z" unicode="R" horiz-adv-x="783" />
<glyph d="M 575 500 C 565 508 553 516 539 525 C 525 534 508 542 488 550 C 468 558 445 564 420 569 C 395 573 368 576 338 576 C 318 576 300 574 282 571 C 264 567 248 562 235 555 C 221 547 211 538 203 526 C 195 514 191 499 191 482 C 191 464 196 450 207 440 C 218 430 233 422 251 417 C 269 412 290 409 314 407 C 338 405 362 403 387 401 C 416 399 448 395 483 391 C 518 387 551 378 581 365 C 611 351 637 332 657 306 C 677 280 688 244 688 199 C 688 159 680 126 665 98 C 649 70 628 47 602 30 C 576 12 545 0 510 -8 C 475 -16 438 -20 400 -20 C 356 -20 317 -16 281 -8 C 245 0 213 10 184 23 C 154 36 128 51 105 67 C 81 83 61 100 43 117 L 111 195 C 124 183 140 170 158 156 C 176 142 198 130 222 118 C 246 106 272 96 302 88 C 332 80 365 77 402 77 C 426 77 448 79 470 83 C 491 87 509 94 525 103 C 541 111 553 122 562 136 C 571 149 576 165 576 184 C 576 204 571 221 562 234 C 553 247 540 257 524 265 C 507 273 487 279 464 283 C 441 287 415 290 387 292 C 351 294 314 298 278 302 C 241 306 208 314 179 326 C 149 338 125 355 107 378 C 88 401 79 432 79 472 C 79 510 87 542 103 568 C 119 594 139 614 165 630 C 191 646 219 657 250 663 C 281 669 312 673 342 673 C 376 673 409 670 440 664 C 470 658 498 650 524 641 C 550 631 573 621 593 610 C 613 598 629 588 643 578 L 575 500 Z" unicode="S" horiz-adv-x="736" />
<glyph d="M 30 653 L 655 653 L 655 553 L 399 553 L 399 0 L 287 0 L 287 553 L 30 553 L 30 653 Z" unicode="T" horiz-adv-x="685" />
<glyph d="M 679 653 L 679 232 C 679 192 671 156 657 125 C 642 93 622 67 596 45 C 570 23 539 7 504 -3 C 468 -14 430 -20 389 -20 C 347 -20 309 -14 274 -3 C 238 7 208 23 182 45 C 156 67 136 93 122 125 C 107 156 100 192 100 232 L 100 653 L 212 653 L 212 232 C 212 207 216 185 225 167 C 234 148 247 132 263 119 C 279 106 297 96 319 90 C 341 83 364 80 389 80 C 413 80 436 83 458 90 C 480 96 499 106 515 119 C 531 132 543 148 553 167 C 562 185 567 207 567 232 L 567 653 L 679 653 Z" unicode="U" horiz-adv-x="779" />
<glyph d="M 730 653 L 427 0 L 325 0 L 22 653 L 150 653 L 376 143 L 382 143 L 608 653 L 730 653 Z" unicode="V" horiz-adv-x="752" />
<glyph d="M 160 653 L 306 173 L 312 173 L 467 653 L 547 653 L 702 173 L 708 173 L 854 653 L 971 653 L 762 0 L 650 0 L 507 437 L 501 437 L 358 0 L 246 0 L 37 653 L 160 653 Z" unicode="W" horiz-adv-x="1008" />
<glyph d="M 694 653 L 437 341 L 707 0 L 564 0 L 364 262 L 156 0 L 20 0 L 297 336 L 47 653 L 190 653 L 370 415 L 558 653 L 694 653 Z" unicode="X" horiz-adv-x="733" />
<glyph d="M 664 653 L 396 301 L 396 0 L 284 0 L 284 301 L 16 653 L 158 653 L 345 401 L 532 653 L 664 653 Z" unicode="Y" horiz-adv-x="680" />
<glyph d="M 616 0 L 51 0 L 51 70 L 453 553 L 71 553 L 71 653 L 616 653 L 616 583 L 214 100 L 616 100 L 616 0 Z" unicode="Z" horiz-adv-x="677" />
<glyph d="M 327 -154 L 89 -154 L 89 689 L 327 689 L 327 599 L 191 599 L 191 -64 L 327 -64 L 327 -154 Z" unicode="[" horiz-adv-x="368" />
<glyph d="M 57 653 L 159 653 L 502 -119 L 400 -119 L 57 653 Z" unicode="\" horiz-adv-x="538" />
<glyph d="M 279 689 L 279 -154 L 41 -154 L 41 -64 L 177 -64 L 177 599 L 41 599 L 41 689 L 279 689 Z" unicode="]" horiz-adv-x="368" />
<glyph d="M 105 213 L 325 613 L 435 613 L 652 213 L 537 213 L 384 505 L 376 505 L 221 213 L 105 213 Z" unicode="^" horiz-adv-x="757" />
<glyph d="M -6 -100 L 606 -100 L 606 -172 L -6 -172 L -6 -100 Z" unicode="_" horiz-adv-x="600" />
<glyph d="M 238 697 L 318 551 L 225 551 L 119 697 L 238 697 Z" unicode="`" horiz-adv-x="500" />
<glyph d="M 75 437 C 85 443 99 450 115 458 C 131 465 148 472 168 478 C 188 484 209 489 232 493 C 255 497 279 499 304 499 C 331 499 358 496 384 491 C 410 486 434 478 454 467 C 474 456 491 442 504 424 C 516 406 523 383 523 357 L 523 87 C 523 74 523 60 525 44 C 527 28 530 13 536 0 L 432 0 C 428 7 426 16 424 28 C 422 40 421 50 420 60 C 410 52 400 43 388 35 C 376 27 363 19 348 13 C 333 6 316 0 298 -3 C 280 -7 259 -10 236 -10 C 207 -10 181 -6 158 2 C 134 10 114 21 98 36 C 81 50 68 68 59 88 C 50 108 46 131 46 156 C 46 177 50 197 60 216 C 70 235 84 252 103 266 C 122 280 145 291 173 299 C 201 307 233 311 269 311 C 295 311 323 308 351 302 C 379 296 402 286 420 274 L 420 327 C 420 356 408 377 385 391 C 362 404 333 411 299 411 C 280 411 261 409 243 405 C 224 401 206 396 190 390 C 173 384 158 378 144 371 C 130 364 119 358 111 352 L 75 437 Z M 258 76 C 280 76 301 79 320 85 C 338 91 355 98 369 106 C 383 114 394 121 403 129 C 411 137 417 142 420 145 L 420 194 C 408 202 391 210 367 218 C 343 226 316 230 286 230 C 235 230 200 223 180 209 C 160 195 150 177 150 156 C 150 133 159 114 178 99 C 196 83 223 76 258 76 Z" unicode="a" horiz-adv-x="605" />
<glyph d="M 78 0 C 82 23 85 46 86 68 C 86 90 87 111 87 133 L 87 700 L 190 700 L 190 424 C 211 448 234 466 260 479 C 285 492 311 499 339 499 C 371 499 401 492 430 480 C 459 468 484 450 506 428 C 527 406 544 379 557 348 C 569 316 576 281 576 243 C 576 203 569 168 557 136 C 544 104 527 77 506 55 C 484 32 459 15 431 3 C 402 -9 371 -15 339 -15 C 319 -15 301 -12 284 -6 C 267 0 252 6 238 14 C 224 22 213 30 203 40 C 193 50 185 59 180 67 C 180 56 179 45 178 33 C 177 21 175 10 173 0 L 78 0 Z M 329 408 C 303 408 279 402 255 390 C 231 378 210 361 190 341 L 190 143 C 194 137 200 131 208 123 C 216 115 225 108 237 101 C 249 94 262 88 278 83 C 293 77 310 75 329 75 C 347 75 364 79 380 87 C 396 95 411 106 423 121 C 435 135 444 153 451 174 C 458 194 462 217 462 243 C 462 267 458 290 451 310 C 444 330 435 348 423 363 C 411 377 397 388 381 396 C 365 404 347 408 329 408 Z" unicode="b" horiz-adv-x="629" />
<glyph d="M 448 351 C 428 370 406 384 382 394 C 358 403 334 408 310 408 C 290 408 271 404 253 396 C 235 388 220 377 207 363 C 194 348 184 330 176 310 C 168 290 165 267 165 243 C 165 217 169 194 177 174 C 185 153 195 135 209 121 C 223 106 239 95 257 87 C 275 79 295 76 316 76 C 346 76 373 82 397 95 C 421 108 442 124 460 142 L 529 77 C 523 71 515 62 503 52 C 491 42 475 32 457 22 C 438 12 416 3 391 -4 C 365 -11 337 -15 306 -15 C 272 -15 239 -9 208 3 C 177 15 150 32 127 55 C 104 77 86 104 72 136 C 58 168 52 203 52 243 C 52 281 58 316 72 348 C 86 379 104 406 128 428 C 151 450 178 468 210 480 C 241 492 274 499 310 499 C 347 499 383 492 419 480 C 455 467 487 447 517 420 L 448 351 Z" unicode="c" horiz-adv-x="564" />
<glyph d="M 456 0 C 453 10 451 21 450 33 C 449 45 449 56 449 67 C 443 59 436 50 426 40 C 416 30 404 22 390 14 C 376 6 361 0 344 -6 C 327 -12 309 -15 290 -15 C 257 -15 226 -9 198 3 C 169 15 144 32 122 55 C 100 77 83 104 71 136 C 59 168 53 203 53 243 C 53 281 59 316 72 348 C 84 379 101 406 123 428 C 144 450 169 468 198 480 C 227 492 258 499 290 499 C 317 499 343 493 369 482 C 394 471 417 455 439 434 L 439 700 L 542 700 L 542 133 C 542 111 542 90 543 68 C 543 46 546 23 551 0 L 456 0 Z M 300 408 C 281 408 264 404 248 396 C 232 388 218 377 206 363 C 194 348 184 330 177 310 C 170 290 167 267 167 243 C 167 217 170 194 177 174 C 184 153 194 135 206 121 C 218 106 232 95 248 87 C 264 79 282 75 300 75 C 318 75 335 77 351 83 C 366 88 379 94 391 101 C 403 108 413 115 421 123 C 429 131 435 137 439 143 L 439 341 C 419 361 397 378 373 390 C 349 402 325 408 300 408 Z" unicode="d" horiz-adv-x="629" />
<glyph d="M 533 75 C 506 49 472 28 430 11 C 388 -6 343 -15 295 -15 C 256 -15 221 -8 191 5 C 161 18 135 36 115 59 C 94 82 78 109 68 140 C 57 170 52 203 52 238 C 52 274 58 308 70 340 C 82 372 100 399 122 423 C 144 446 170 464 201 478 C 232 492 266 499 304 499 C 332 499 361 494 390 485 C 419 475 445 461 469 441 C 492 421 511 395 525 363 C 539 331 547 292 547 248 C 547 243 547 238 547 234 C 547 229 546 224 546 219 L 156 219 C 158 199 162 180 169 163 C 176 145 186 130 198 117 C 210 104 226 94 244 87 C 262 79 282 76 306 76 C 336 76 365 82 393 94 C 421 106 444 122 464 142 L 533 75 Z M 299 413 C 261 413 231 402 209 380 C 186 358 170 332 162 300 L 433 300 C 433 319 429 336 421 350 C 413 364 402 375 390 385 C 377 394 363 401 347 406 C 331 410 315 413 299 413 Z" unicode="e" horiz-adv-x="597" />
<glyph d="M 126 483 L 126 571 C 126 597 130 619 139 637 C 147 655 158 669 172 680 C 185 691 200 699 217 704 C 233 708 250 711 266 711 C 275 711 285 710 296 709 C 306 707 316 705 326 703 C 336 701 345 698 353 696 C 361 693 367 690 372 688 L 353 602 C 347 606 336 610 322 614 C 308 618 296 620 286 620 C 268 620 254 615 244 607 C 234 598 229 586 229 571 L 229 483 L 356 483 L 356 402 L 229 402 L 229 0 L 126 0 L 126 402 L 37 402 L 37 483 L 126 483 Z" unicode="f" horiz-adv-x="368" />
<glyph d="M 439 59 C 395 9 345 -15 290 -15 C 258 -15 227 -9 198 3 C 169 15 144 32 123 54 C 101 76 84 103 72 135 C 59 166 53 201 53 240 C 53 279 59 315 71 347 C 83 379 100 406 122 428 C 144 450 169 468 198 480 C 226 492 257 499 290 499 C 309 499 327 495 344 489 C 361 483 376 475 390 466 C 404 457 416 448 426 438 C 436 428 443 419 449 411 C 449 423 449 435 450 447 C 451 459 453 472 456 484 L 551 484 C 546 460 543 438 543 416 C 542 394 542 372 542 351 L 542 -25 C 542 -53 536 -79 526 -103 C 516 -127 501 -149 481 -167 C 461 -185 435 -200 405 -211 C 375 -221 340 -227 300 -227 C 244 -227 199 -219 164 -203 C 129 -187 101 -169 79 -147 L 140 -85 C 156 -100 176 -113 201 -124 C 226 -135 259 -141 300 -141 C 346 -141 380 -130 404 -108 C 427 -86 439 -58 439 -25 L 439 59 Z M 300 75 C 325 75 349 81 373 93 C 397 105 419 121 439 142 L 439 340 C 435 344 429 351 421 359 C 413 367 403 374 391 381 C 379 388 366 394 351 400 C 335 405 318 408 300 408 C 282 408 264 404 248 396 C 232 388 218 376 206 362 C 194 347 184 329 177 309 C 170 288 167 265 167 240 C 167 214 170 192 177 172 C 184 152 194 134 206 120 C 218 105 232 94 248 86 C 264 78 281 75 300 75 Z" unicode="g" horiz-adv-x="629" />
<glyph d="M 86 0 L 86 700 L 189 700 L 189 424 C 204 442 223 459 247 475 C 270 491 298 499 330 499 C 358 499 385 494 409 486 C 433 477 453 465 470 450 C 487 435 500 417 510 396 C 519 374 524 351 524 327 L 524 0 L 420 0 L 420 327 C 420 349 410 368 392 384 C 374 400 350 408 320 408 C 305 408 291 405 279 401 C 266 396 254 390 243 383 C 232 375 222 367 213 358 C 204 349 196 340 189 331 L 189 0 L 86 0 Z" unicode="h" horiz-adv-x="604" />
<glyph d="M 86 0 L 86 483 L 189 483 L 189 0 L 86 0 Z M 72 640 C 72 656 78 670 90 682 C 102 694 118 700 137 700 C 155 700 171 694 184 682 C 196 670 203 656 203 640 C 203 623 196 609 184 598 C 171 586 155 581 137 581 C 118 581 102 586 90 598 C 78 609 72 623 72 640 Z" unicode="i" horiz-adv-x="275" />
<glyph d="M -7 -146 C 3 -143 14 -140 26 -136 C 37 -132 47 -127 56 -120 C 64 -113 71 -104 77 -92 C 83 -80 86 -65 86 -47 L 86 483 L 189 483 L 189 -47 C 189 -80 183 -108 173 -131 C 163 -154 149 -173 133 -187 C 117 -201 99 -211 79 -217 C 59 -223 41 -227 23 -227 L -7 -146 Z M 72 640 C 72 656 78 670 90 682 C 102 694 118 700 137 700 C 155 700 171 694 184 682 C 196 670 203 656 203 640 C 203 623 196 609 184 598 C 171 586 155 581 137 581 C 118 581 102 586 90 598 C 78 609 72 623 72 640 Z" unicode="j" horiz-adv-x="275" />
<glyph d="M 539 483 L 348 308 L 568 0 L 439 0 L 272 239 L 190 164 L 190 0 L 86 0 L 86 700 L 190 700 L 190 276 L 400 483 L 539 483 Z" unicode="k" horiz-adv-x="572" />
<glyph d="M 91 0 L 91 700 L 194 700 L 194 0 L 91 0 Z" unicode="l" horiz-adv-x="285" />
<glyph d="M 505 0 L 401 0 L 401 327 C 401 349 392 368 376 384 C 359 400 338 408 312 408 C 298 408 286 405 274 401 C 262 397 251 391 241 384 C 231 376 221 368 213 359 C 204 349 196 340 190 331 L 190 0 L 87 0 L 87 351 C 87 372 86 393 84 415 C 82 437 79 459 75 483 L 169 483 C 172 470 174 458 175 448 C 176 438 177 426 179 412 C 187 422 196 433 206 444 C 216 454 227 464 239 472 C 251 480 264 486 279 491 C 293 496 310 499 329 499 C 365 499 397 490 425 473 C 453 455 474 432 488 402 C 505 428 526 450 551 470 C 575 489 606 499 644 499 C 668 499 691 494 713 486 C 734 477 753 465 769 450 C 785 435 797 417 806 396 C 815 374 820 351 820 327 L 820 0 L 716 0 L 716 327 C 716 349 707 368 691 384 C 674 400 653 408 627 408 C 613 408 601 405 589 401 C 577 397 566 391 556 384 C 546 376 536 368 528 359 C 519 349 511 340 505 331 L 505 0 Z" unicode="m" horiz-adv-x="900" />
<glyph d="M 179 412 C 187 422 197 433 207 444 C 217 454 229 464 242 472 C 255 480 269 486 285 491 C 301 496 319 499 339 499 C 365 499 389 494 412 486 C 434 477 454 465 471 450 C 487 435 500 417 510 396 C 520 374 525 351 525 327 L 525 0 L 421 0 L 421 327 C 421 349 411 368 393 384 C 375 400 351 408 322 408 C 292 408 266 400 245 384 C 223 368 205 350 190 331 L 190 0 L 87 0 L 87 350 C 87 371 86 393 84 415 C 82 437 79 459 75 483 L 169 483 C 172 470 174 458 175 448 C 176 438 177 426 179 412 Z" unicode="n" horiz-adv-x="605" />
<glyph d="M 52 243 C 52 278 58 311 70 343 C 82 374 100 401 122 424 C 144 447 171 465 203 479 C 235 492 270 499 308 499 C 346 499 381 492 413 479 C 445 465 472 447 495 424 C 517 401 535 374 547 343 C 559 311 566 278 566 243 C 566 207 559 173 547 141 C 535 109 517 82 495 59 C 472 36 445 18 413 5 C 381 -8 346 -15 308 -15 C 270 -15 235 -8 203 5 C 171 18 144 36 122 59 C 100 82 82 109 70 141 C 58 173 52 207 52 243 Z M 159 243 C 159 219 162 197 169 177 C 175 156 185 138 198 122 C 210 106 226 94 245 85 C 263 75 284 71 308 71 C 332 71 353 75 372 85 C 390 94 406 106 419 122 C 432 138 442 156 449 177 C 456 197 460 219 460 243 C 460 265 456 287 449 307 C 442 327 432 345 419 361 C 406 377 390 389 372 399 C 353 408 332 413 308 413 C 284 413 263 408 245 399 C 226 389 210 377 198 361 C 185 345 175 327 169 307 C 162 287 159 265 159 243 Z" unicode="o" horiz-adv-x="618" />
<glyph d="M 173 483 C 175 471 177 459 178 449 C 179 439 180 428 180 416 C 185 424 193 432 203 442 C 213 452 224 461 238 469 C 252 477 267 484 284 490 C 301 496 319 499 339 499 C 371 499 402 492 431 480 C 459 468 484 450 506 428 C 527 406 544 379 557 347 C 569 315 576 279 576 240 C 576 201 569 166 557 135 C 544 103 527 76 506 54 C 484 32 459 15 430 3 C 401 -9 371 -15 339 -15 C 283 -15 234 9 190 59 L 190 -207 L 87 -207 L 87 351 C 87 372 86 393 86 415 C 85 437 82 459 78 483 L 173 483 Z M 329 75 C 347 75 365 78 381 86 C 397 94 411 105 423 120 C 435 134 444 152 451 172 C 458 192 462 214 462 240 C 462 265 458 288 451 309 C 444 329 435 347 423 362 C 411 376 396 388 380 396 C 364 404 347 408 329 408 C 310 408 293 405 278 400 C 262 394 249 388 237 381 C 225 374 216 367 208 359 C 200 351 194 344 190 340 L 190 142 C 210 121 231 105 255 93 C 279 81 303 75 329 75 Z" unicode="p" horiz-adv-x="629" />
<glyph d="M 551 483 C 546 459 543 437 543 415 C 542 393 542 372 542 351 L 542 -207 L 439 -207 L 439 59 C 395 9 345 -15 290 -15 C 258 -15 227 -9 198 3 C 169 15 144 32 123 54 C 101 76 84 103 72 135 C 59 166 53 201 53 240 C 53 279 59 315 71 347 C 83 379 100 406 122 428 C 144 450 169 468 198 480 C 226 492 257 499 290 499 C 309 499 327 496 344 490 C 361 484 376 477 390 469 C 404 461 416 452 426 442 C 436 432 443 424 449 416 C 449 428 449 439 450 449 C 451 459 453 471 456 483 L 551 483 Z M 300 75 C 325 75 349 81 373 93 C 397 105 419 121 439 142 L 439 340 C 435 344 429 351 421 359 C 413 367 403 374 391 381 C 379 388 366 394 351 400 C 335 405 318 408 300 408 C 282 408 264 404 248 396 C 232 388 218 376 206 362 C 194 347 184 329 177 309 C 170 288 167 265 167 240 C 167 214 170 192 177 172 C 184 152 194 134 206 120 C 218 105 232 94 248 86 C 264 78 281 75 300 75 Z" unicode="q" horiz-adv-x="629" />
<glyph d="M 295 398 C 283 398 273 395 263 390 C 253 385 243 379 235 371 C 227 363 219 355 211 345 C 203 335 196 326 190 316 L 190 0 L 87 0 L 87 351 C 87 372 86 393 84 415 C 82 437 78 459 74 483 L 169 483 C 172 469 174 456 175 444 C 176 432 177 418 179 402 C 187 414 195 425 204 437 C 213 449 223 459 234 468 C 245 477 258 484 272 490 C 286 496 301 499 319 499 C 333 499 346 497 358 494 C 370 490 380 485 387 479 L 356 383 C 352 385 348 387 343 389 C 337 391 332 392 326 394 C 320 395 314 396 309 397 C 303 397 299 398 295 398 Z" unicode="r" horiz-adv-x="402" />
<glyph d="M 441 366 C 433 370 422 375 409 381 C 396 387 382 392 366 397 C 350 402 333 406 315 410 C 297 413 279 415 262 415 C 236 415 213 410 193 401 C 173 392 164 378 164 359 C 164 347 168 337 176 330 C 184 322 195 317 207 313 C 219 309 231 307 245 306 C 259 304 271 303 282 303 C 303 301 327 299 354 297 C 380 294 405 288 429 278 C 452 268 472 253 488 233 C 504 213 512 185 512 151 C 512 122 506 97 494 76 C 482 55 466 38 446 24 C 426 10 402 0 375 -7 C 347 -13 318 -17 286 -17 C 258 -17 232 -14 208 -10 C 184 -5 162 0 142 8 C 122 15 104 23 88 32 C 72 40 58 49 46 57 L 85 135 C 96 128 109 121 123 113 C 137 105 152 98 169 92 C 185 85 203 79 223 75 C 242 71 263 69 285 69 C 321 69 350 75 374 87 C 397 99 409 117 409 141 C 409 155 404 166 396 174 C 388 182 377 188 365 192 C 353 196 339 199 324 201 C 309 203 295 204 282 205 C 256 206 231 208 205 211 C 179 214 155 220 134 230 C 112 240 95 254 81 272 C 67 290 61 315 61 347 C 61 376 67 400 79 420 C 91 440 106 456 125 468 C 144 480 165 488 189 493 C 213 498 236 501 260 501 C 282 501 305 499 327 495 C 349 491 370 487 390 481 C 409 475 426 469 442 463 C 458 456 470 450 480 445 L 441 366 Z" unicode="s" horiz-adv-x="557" />
<glyph d="M 27 483 L 117 483 L 117 626 L 220 626 L 220 483 L 347 483 L 347 402 L 220 402 L 220 120 C 220 104 225 91 235 83 C 245 75 259 71 277 71 C 287 71 299 71 315 73 C 330 75 341 77 347 79 L 357 -2 C 353 -4 347 -7 339 -9 C 331 -11 322 -13 313 -15 C 303 -16 294 -17 284 -18 C 274 -19 265 -20 257 -20 C 241 -20 224 -17 208 -13 C 191 -8 176 0 163 10 C 149 21 138 36 130 54 C 121 72 117 94 117 120 L 117 402 L 27 402 L 27 483 Z" unicode="t" horiz-adv-x="394" />
<glyph d="M 424 71 C 414 59 405 48 395 38 C 385 28 373 19 361 11 C 348 3 334 -3 318 -8 C 302 -12 285 -15 265 -15 C 239 -15 214 -10 192 -2 C 169 5 149 17 133 33 C 116 48 103 66 93 87 C 83 107 79 130 79 156 L 79 483 L 183 483 L 183 156 C 183 134 192 115 210 99 C 228 83 252 75 282 75 C 312 75 337 83 359 99 C 380 115 398 132 414 152 L 414 483 L 517 483 L 517 133 C 517 111 517 90 518 68 C 518 46 521 23 526 0 L 431 0 C 428 10 426 22 425 35 C 424 48 424 60 424 71 Z" unicode="u" horiz-adv-x="604" />
<glyph d="M 532 483 L 321 0 L 235 0 L 25 483 L 142 483 L 278 143 L 284 143 L 426 483 L 532 483 Z" unicode="v" horiz-adv-x="557" />
<glyph d="M 444 483 L 544 137 L 550 137 L 643 483 L 754 483 L 594 0 L 490 0 L 395 331 L 389 331 L 294 0 L 190 0 L 30 483 L 142 483 L 240 137 L 246 137 L 346 483 L 444 483 Z" unicode="w" horiz-adv-x="784" />
<glyph d="M 541 483 L 350 248 L 552 0 L 422 0 L 287 182 L 153 0 L 22 0 L 224 248 L 33 483 L 165 483 L 287 313 L 410 483 L 541 483 Z" unicode="x" horiz-adv-x="574" />
<glyph d="M 285 148 L 435 483 L 540 483 L 211 -207 L 104 -207 L 226 34 L 24 483 L 141 483 L 279 148 L 285 148 Z" unicode="y" horiz-adv-x="564" />
<glyph d="M 474 0 L 46 0 L 46 61 L 330 402 L 66 402 L 66 483 L 474 483 L 474 422 L 190 81 L 474 81 L 474 0 Z" unicode="z" horiz-adv-x="529" />
<glyph d="M 347 -154 C 305 -154 270 -152 243 -148 C 215 -144 194 -136 178 -124 C 162 -112 150 -95 144 -74 C 137 -53 134 -26 134 8 L 134 135 C 134 155 131 171 125 183 C 119 195 111 205 101 213 C 91 220 79 225 66 228 C 53 230 40 232 26 232 L 26 320 C 40 320 53 322 66 327 C 79 331 91 338 101 347 C 111 356 120 367 126 379 C 132 391 135 406 135 422 L 135 525 C 135 559 139 586 146 608 C 152 630 164 647 180 659 C 196 671 217 679 244 683 C 271 687 305 690 347 690 L 347 600 C 325 600 308 599 294 597 C 280 595 268 592 260 586 C 252 580 246 573 243 563 C 239 553 237 541 237 525 L 237 422 C 237 400 234 381 228 364 C 222 347 213 333 203 321 C 193 309 181 299 168 292 C 155 284 142 280 128 280 L 128 272 C 142 272 155 269 168 265 C 181 261 193 253 203 243 C 213 233 221 219 227 201 C 233 183 236 161 236 135 L 236 8 C 236 -7 237 -19 241 -29 C 244 -38 250 -45 259 -51 C 267 -56 279 -59 293 -61 C 307 -63 325 -64 347 -64 L 347 -154 Z" unicode="{" horiz-adv-x="388" />
<glyph d="M 129 905 L 224 905 L 224 -307 L 129 -307 L 129 905 Z" unicode="|" horiz-adv-x="350" />
<glyph d="M 41 -64 C 61 -64 78 -63 92 -61 C 106 -59 117 -56 126 -51 C 135 -45 142 -38 146 -29 C 150 -19 152 -7 152 8 L 152 135 C 152 161 155 183 161 201 C 167 219 175 233 185 243 C 195 253 206 261 219 265 C 232 269 246 272 260 272 L 260 280 C 246 280 232 284 219 292 C 206 299 194 309 184 321 C 174 333 166 347 160 364 C 154 381 151 400 151 422 L 151 525 C 150 541 148 553 144 563 C 140 573 133 580 125 586 C 116 592 105 595 91 597 C 77 599 61 600 41 600 L 41 690 C 81 690 115 687 143 683 C 170 679 192 671 208 659 C 224 647 235 630 242 608 C 248 586 252 559 253 525 L 253 422 C 253 406 256 391 262 379 C 268 367 276 356 286 347 C 296 338 308 331 321 327 C 334 322 348 320 362 320 L 362 232 C 348 232 334 230 321 228 C 308 225 297 220 287 213 C 277 205 269 195 263 183 C 257 171 254 155 254 135 L 254 8 C 254 -26 250 -53 244 -74 C 237 -95 226 -112 210 -124 C 194 -136 172 -144 145 -148 C 117 -152 83 -154 41 -154 L 41 -64 Z" unicode="}" horiz-adv-x="388" />
<glyph d="M 50 239 C 85 279 118 309 149 331 C 180 353 213 364 249 364 C 267 364 284 361 300 357 C 316 353 330 347 343 341 C 356 334 368 326 379 318 C 389 310 399 302 407 295 C 417 286 429 276 445 266 C 460 255 478 250 499 250 C 535 250 578 276 628 328 L 707 279 C 667 233 629 200 595 180 C 560 160 527 150 495 150 C 474 150 455 152 438 158 C 421 163 406 170 393 178 C 379 186 368 194 358 202 C 348 210 339 218 333 224 C 319 235 305 244 291 252 C 276 260 261 264 245 264 C 227 264 209 257 189 244 C 169 231 148 213 126 190 L 50 239 Z" unicode="~" horiz-adv-x="757" />
<glyph d="" unicode="" horiz-adv-x="225" />
<glyph d="M 210 423 C 210 403 202 385 187 371 C 172 357 153 350 131 350 C 108 350 89 357 74 371 C 58 385 51 403 51 423 C 51 443 58 460 74 474 C 89 488 108 495 131 495 C 153 495 172 488 187 474 C 202 460 210 443 210 423 Z M 167 270 L 192 -15 L 192 -173 L 70 -173 L 70 -15 L 95 270 L 167 270 Z" unicode="" horiz-adv-x="302" />
<glyph d="M 423 593 L 401 488 C 427 482 452 473 476 462 C 500 451 522 437 544 420 L 475 351 C 461 362 447 371 431 379 C 415 386 398 392 381 397 L 313 75 C 347 75 377 81 404 95 C 431 108 455 124 477 142 L 546 77 C 540 71 531 62 519 52 C 506 42 490 31 471 21 C 451 11 428 2 402 -5 C 375 -12 345 -16 313 -16 C 309 -16 306 -16 303 -16 C 299 -16 296 -15 293 -15 L 265 -150 L 190 -150 L 221 -2 C 195 6 170 17 148 32 C 126 47 107 65 91 86 C 75 107 62 131 53 157 C 43 183 39 212 39 243 C 39 281 46 316 60 348 C 74 379 93 406 117 428 C 141 450 170 468 202 480 C 234 492 269 499 307 499 C 310 499 313 499 317 499 C 321 499 324 498 328 498 L 348 593 L 423 593 Z M 152 243 C 152 206 160 175 177 149 C 193 123 215 103 241 91 L 309 408 L 307 408 C 285 408 265 404 246 396 C 227 388 211 377 197 363 C 183 348 172 330 164 310 C 156 290 152 267 152 243 Z" unicode="" horiz-adv-x="601" />
<glyph d="M 65 368 L 199 368 L 199 449 C 199 481 205 508 219 531 C 233 554 251 573 274 588 C 296 603 322 614 350 622 C 378 629 407 633 437 633 C 453 633 471 631 491 627 C 511 623 532 617 554 610 C 575 603 597 595 619 585 C 641 575 662 565 682 553 L 626 475 C 610 483 593 491 576 498 C 559 505 542 511 526 516 C 509 521 493 525 478 528 C 462 531 449 533 437 533 C 421 533 406 531 391 528 C 376 524 363 519 351 512 C 339 505 329 496 322 486 C 314 476 311 463 311 449 L 311 368 L 565 368 L 565 287 L 311 287 L 311 204 C 311 168 304 141 290 124 C 276 107 254 96 222 90 L 681 90 L 681 0 L 65 0 L 65 90 L 105 90 C 122 90 137 91 149 94 C 161 97 170 103 178 111 C 185 119 190 131 194 146 C 197 161 199 180 199 204 L 199 287 L 65 287 L 65 368 Z" unicode="" horiz-adv-x="745" />
<glyph d="M 98 258 C 98 284 101 310 109 334 C 117 358 128 381 142 403 L 61 479 L 133 551 L 213 476 C 235 492 260 504 287 513 C 313 522 342 527 372 527 C 402 527 430 522 457 513 C 484 504 509 492 533 476 L 614 551 L 686 479 L 604 403 C 618 381 629 358 637 334 C 645 310 649 284 649 258 C 649 230 645 204 637 180 C 629 156 618 133 604 112 L 686 37 L 614 -35 L 533 40 C 509 24 484 11 457 2 C 430 -6 402 -11 372 -11 C 342 -11 313 -6 287 2 C 260 11 235 23 213 39 L 133 -35 L 61 37 L 142 112 C 128 133 117 156 109 180 C 101 204 98 230 98 258 Z M 210 258 C 210 234 214 212 223 192 C 231 172 243 154 258 139 C 272 124 289 112 309 103 C 329 94 350 90 372 90 C 394 90 416 94 436 103 C 456 112 473 124 488 139 C 503 154 515 172 524 192 C 532 212 537 234 537 258 C 537 280 532 302 524 323 C 515 343 503 361 488 376 C 473 391 456 403 436 412 C 416 421 394 426 372 426 C 350 426 329 421 309 412 C 289 403 272 391 258 376 C 243 361 231 343 223 323 C 214 302 210 280 210 258 Z" unicode="" horiz-adv-x="746" />
<glyph d="M 68 416 L 245 416 L 91 613 L 233 613 L 412 381 L 590 613 L 722 613 L 568 416 L 747 416 L 747 346 L 513 346 L 463 281 L 463 271 L 747 271 L 747 201 L 463 201 L 463 0 L 351 0 L 351 201 L 68 201 L 68 271 L 351 271 L 351 281 L 300 346 L 68 346 L 68 416 Z" unicode="" horiz-adv-x="815" />
<glyph d="M 129 797 L 224 797 L 224 385 L 129 385 L 129 797 Z M 129 192 L 224 192 L 224 -228 L 129 -228 L 129 192 Z" unicode="" horiz-adv-x="350" />
<glyph d="M 656 226 C 656 200 651 177 642 157 C 632 137 620 119 605 104 C 588 87 567 72 542 60 C 544 56 547 53 549 49 C 551 45 553 42 555 39 C 563 21 568 2 568 -19 C 568 -48 561 -72 547 -92 C 533 -112 515 -128 493 -140 C 471 -152 446 -161 419 -167 C 392 -172 366 -175 341 -175 C 303 -175 265 -170 227 -161 C 189 -151 155 -138 126 -121 L 174 -44 C 195 -56 221 -65 251 -73 C 281 -81 311 -85 341 -85 C 351 -85 363 -84 377 -82 C 390 -80 402 -77 414 -73 C 426 -68 436 -62 444 -54 C 452 -46 456 -35 456 -22 C 456 -10 452 0 446 6 C 440 11 432 15 423 19 C 413 22 403 25 392 27 C 380 29 368 30 355 32 C 341 33 328 34 315 36 C 298 38 279 40 258 44 C 237 47 216 52 194 58 C 172 64 150 73 130 83 C 109 93 91 107 76 123 C 62 136 50 152 42 170 C 34 188 30 210 30 234 C 30 259 34 282 44 302 C 53 322 65 339 81 355 C 89 364 99 372 110 379 C 120 386 131 393 143 399 C 137 405 133 412 131 418 C 127 426 123 436 121 446 C 119 456 118 467 118 479 C 118 507 125 532 139 552 C 153 572 171 588 193 600 C 215 612 239 621 266 627 C 292 632 319 635 345 635 C 383 635 421 630 459 621 C 497 611 530 598 560 581 L 512 504 C 490 516 465 525 435 533 C 405 541 375 545 345 545 C 335 545 324 544 311 543 C 298 541 286 538 274 534 C 262 529 251 523 243 515 C 234 507 230 496 230 482 C 230 470 233 460 240 454 C 246 448 253 444 263 441 C 272 437 282 435 294 433 C 305 431 317 429 331 428 C 344 426 357 425 371 424 C 387 422 406 419 428 416 C 449 412 471 407 493 401 C 515 394 536 385 556 375 C 576 365 594 352 610 337 C 624 323 635 307 643 289 C 651 271 656 250 656 226 Z M 370 326 C 346 328 320 331 290 335 C 260 338 232 345 206 356 C 198 350 189 343 181 335 C 169 323 159 309 152 295 C 145 281 142 265 142 248 C 141 234 143 222 148 212 C 153 201 160 192 168 185 C 185 167 208 155 236 148 C 264 141 290 136 316 134 C 339 131 366 128 396 125 C 426 121 454 114 480 104 C 488 109 496 116 505 125 C 517 137 526 150 533 164 C 540 178 544 194 544 212 C 544 225 542 237 537 248 C 532 258 526 267 518 275 C 500 292 478 304 450 311 C 422 318 395 323 370 326 Z" unicode="" horiz-adv-x="689" />
<glyph d="M 82 617 C 82 632 87 645 99 657 C 111 668 125 674 143 674 C 160 674 175 668 187 657 C 199 645 205 632 205 617 C 205 601 199 587 187 577 C 175 566 160 561 143 561 C 125 561 111 566 99 577 C 87 587 82 601 82 617 Z M 294 617 C 294 632 299 645 311 657 C 323 668 337 674 355 674 C 372 674 387 668 399 657 C 411 645 417 632 417 617 C 417 601 411 587 399 577 C 387 566 372 561 355 561 C 337 561 323 566 311 577 C 299 587 294 601 294 617 Z" unicode="" horiz-adv-x="500" />
<glyph d="M 656 345 C 632 366 607 381 580 391 C 553 401 525 406 496 406 C 474 406 455 402 438 395 C 421 387 406 377 394 365 C 382 353 372 338 366 322 C 359 305 356 287 356 269 C 356 250 359 233 367 218 C 374 202 384 189 397 179 C 410 168 425 160 443 154 C 460 148 479 146 499 146 C 519 146 536 147 552 150 C 567 153 581 157 594 162 C 606 167 618 173 629 180 C 639 187 650 194 661 202 L 699 133 C 687 123 674 114 661 106 C 648 98 634 91 618 85 C 602 79 585 74 565 70 C 545 66 523 65 499 65 C 466 65 435 69 407 79 C 378 89 353 103 332 121 C 310 139 293 160 281 185 C 269 210 263 238 263 269 C 263 299 268 327 279 354 C 290 380 306 403 326 423 C 346 443 371 458 400 470 C 428 481 460 487 496 487 C 532 487 568 480 603 466 C 638 452 668 434 694 414 L 656 345 Z M 498 682 C 558 682 615 671 669 649 C 723 627 770 598 810 561 C 850 523 882 479 906 429 C 929 379 941 325 941 268 C 941 210 929 156 906 106 C 882 56 850 12 810 -25 C 770 -62 723 -91 669 -113 C 615 -134 558 -145 498 -145 C 436 -145 379 -134 325 -113 C 271 -91 223 -62 183 -25 C 142 12 110 56 87 106 C 63 156 52 210 52 268 C 52 325 63 379 87 429 C 110 479 142 523 183 561 C 223 598 271 627 325 649 C 379 671 436 682 498 682 Z M 498 611 C 448 611 402 601 358 583 C 314 565 275 540 242 509 C 209 478 183 442 164 400 C 144 358 135 314 135 268 C 135 220 144 176 164 135 C 183 93 209 57 242 26 C 275 -4 314 -29 358 -47 C 402 -65 448 -74 498 -74 C 548 -74 594 -65 638 -47 C 682 -29 720 -4 752 26 C 784 57 810 93 829 135 C 848 176 858 220 858 268 C 858 314 848 358 829 400 C 810 442 784 478 752 509 C 720 540 682 565 638 583 C 594 601 548 611 498 611 Z" unicode="" horiz-adv-x="993" />
<glyph d="M 57 534 C 74 544 98 553 130 563 C 161 573 196 578 234 578 C 254 578 275 576 295 573 C 315 569 332 564 348 556 C 363 548 375 537 385 524 C 395 511 400 495 400 477 L 400 282 C 400 272 400 262 402 251 C 403 239 405 229 409 220 L 320 220 C 318 224 317 229 316 237 C 314 245 313 252 312 258 C 304 252 297 246 289 240 C 281 234 271 229 261 225 C 251 220 239 216 226 213 C 213 210 198 209 182 209 C 138 209 104 220 78 243 C 52 266 39 296 39 332 C 39 362 53 388 82 410 C 111 431 153 442 208 442 C 226 442 244 440 264 436 C 284 432 300 428 312 423 L 312 451 C 312 469 304 483 289 492 C 274 500 254 505 229 505 C 215 505 201 503 187 501 C 173 498 159 494 147 490 C 134 486 122 481 112 476 C 102 471 94 467 88 463 L 57 534 Z M 201 285 C 216 285 230 286 243 290 C 255 294 266 298 276 303 C 286 308 294 313 300 318 C 306 323 310 327 312 329 L 312 355 C 299 360 286 364 272 368 C 258 372 242 374 223 374 C 186 374 161 370 148 362 C 134 354 128 344 128 332 C 128 318 134 307 147 298 C 159 289 177 285 201 285 Z" unicode="" horiz-adv-x="464" />
<glyph d="M 275 395 L 154 250 L 154 242 L 275 98 L 151 98 L 52 220 L 52 272 L 151 395 L 275 395 Z M 297 250 L 414 395 L 538 395 L 417 250 L 417 242 L 538 98 L 414 98 L 297 242 L 297 250 Z" unicode="" horiz-adv-x="606" />
<glyph d="M 564 113 L 564 316 L 90 316 L 90 409 L 666 409 L 666 113 L 564 113 Z" unicode="" horiz-adv-x="757" />
<glyph d="M 311 204 C 275 204 241 210 211 222 C 180 234 153 250 130 272 C 107 293 89 318 76 346 C 63 374 57 405 57 439 C 57 470 63 500 76 528 C 89 556 107 581 130 603 C 153 624 180 641 211 654 C 241 666 275 673 311 673 C 347 673 380 666 412 654 C 443 641 470 624 494 603 C 517 581 535 556 549 528 C 562 500 569 470 569 439 C 569 405 562 374 549 346 C 535 318 517 293 494 272 C 470 250 443 234 412 222 C 380 210 347 204 311 204 Z M 311 245 C 341 245 369 250 395 260 C 421 270 443 283 463 301 C 482 319 497 339 508 363 C 519 386 525 411 525 439 C 525 465 519 489 508 513 C 497 537 482 558 463 576 C 443 594 421 608 395 618 C 369 628 341 634 311 634 C 281 634 254 628 228 618 C 202 608 180 594 161 576 C 142 558 127 537 117 513 C 106 489 101 465 101 439 C 101 411 106 386 117 363 C 127 339 142 319 161 301 C 180 283 202 270 228 260 C 254 250 281 245 311 245 Z M 201 328 L 201 563 L 353 563 C 379 563 400 556 418 542 C 435 528 444 511 444 490 C 444 475 439 462 429 450 C 419 438 406 429 391 423 L 450 328 L 388 328 L 335 417 L 255 417 L 255 328 L 201 328 Z M 255 519 L 255 462 L 352 462 C 361 462 370 464 378 470 C 386 476 390 482 390 490 C 390 499 386 506 379 511 C 371 516 363 519 353 519 L 255 519 Z" unicode="" horiz-adv-x="626" />
<glyph d="M 380 657 L 380 577 L 119 577 L 119 657 L 380 657 Z" unicode="" horiz-adv-x="500" />
<glyph d="M 244 635 C 276 635 304 630 328 621 C 352 612 372 600 388 585 C 404 569 417 551 425 531 C 433 510 438 488 438 466 C 438 444 433 422 425 402 C 417 382 404 364 388 349 C 372 333 352 321 328 312 C 304 303 276 299 244 299 C 212 299 184 303 160 312 C 136 321 115 333 99 349 C 83 364 70 382 62 402 C 54 422 50 444 50 466 C 50 488 54 510 62 531 C 70 551 83 569 99 585 C 115 600 136 612 160 621 C 184 630 212 635 244 635 Z M 244 379 C 278 379 303 387 320 404 C 337 421 346 442 346 466 C 346 490 337 511 320 529 C 303 546 278 555 244 555 C 210 555 184 546 167 529 C 150 511 142 490 142 466 C 142 442 150 421 167 404 C 184 387 210 379 244 379 Z" unicode="" horiz-adv-x="488" />
<glyph d="M 90 409 L 328 409 L 328 573 L 429 573 L 429 409 L 666 409 L 666 316 L 429 316 L 429 152 L 328 152 L 328 316 L 90 316 L 90 409 Z M 90 93 L 666 93 L 666 0 L 90 0 L 90 93 Z" unicode="" horiz-adv-x="757" />
<glyph d="M 44 587 C 58 597 72 607 86 617 C 100 627 115 635 131 643 C 147 651 165 657 185 662 C 204 666 226 669 250 669 C 272 669 295 666 317 662 C 339 657 359 649 377 639 C 395 629 409 616 420 600 C 430 584 436 566 436 544 C 436 516 429 494 415 477 C 401 459 385 445 365 434 C 345 422 324 413 302 407 C 280 400 262 394 246 390 C 232 386 218 381 206 376 C 193 370 182 364 173 357 C 163 350 156 342 151 333 C 145 323 143 312 143 299 L 143 298 L 425 298 L 425 220 L 46 220 L 46 290 C 46 316 51 340 62 361 C 73 381 88 399 106 414 C 124 429 145 442 169 452 C 193 462 217 470 243 476 C 247 476 254 478 265 481 C 275 484 286 488 297 494 C 307 499 317 506 325 514 C 333 522 338 531 338 542 C 338 550 335 556 330 561 C 325 566 319 570 311 573 C 303 576 293 578 283 580 C 273 581 263 582 253 582 C 219 582 190 575 167 563 C 143 551 122 536 102 519 L 44 587 Z" unicode="" horiz-adv-x="477" />
<glyph d="M 236 486 L 323 486 C 336 486 346 490 354 498 C 362 506 366 516 366 529 C 366 539 363 547 357 554 C 351 560 344 566 336 570 C 328 574 318 577 308 579 C 298 581 288 582 278 582 C 246 582 217 575 190 561 C 162 547 139 532 120 514 L 61 573 C 73 585 88 596 104 608 C 120 619 137 629 155 638 C 173 647 193 654 214 660 C 234 666 256 669 280 669 C 298 669 318 666 340 662 C 362 658 382 651 400 641 C 418 631 434 619 446 603 C 458 587 464 568 464 546 C 464 524 459 505 450 490 C 440 475 431 465 423 461 C 429 459 437 455 446 451 C 454 447 462 440 470 432 C 478 424 484 413 489 401 C 494 389 497 374 497 358 C 497 332 490 310 478 291 C 466 272 449 256 428 243 C 407 230 382 220 354 214 C 326 207 295 204 263 204 C 214 204 170 211 131 226 C 91 240 55 264 22 297 L 81 365 C 103 343 128 326 157 312 C 185 298 220 291 262 291 C 280 291 298 292 315 295 C 332 298 347 303 359 309 C 371 315 381 323 389 332 C 396 341 400 352 400 364 C 400 373 397 381 393 387 C 388 393 382 397 374 400 C 366 403 358 405 349 406 C 340 407 332 408 324 408 L 236 408 L 236 486 Z" unicode="" horiz-adv-x="534" />
<glyph d="M 381 697 L 275 551 L 182 551 L 262 697 L 381 697 Z" unicode="" horiz-adv-x="500" />
<glyph d="M 77 -230 L 77 473 L 181 473 L 181 147 C 181 125 190 107 209 92 C 227 77 251 70 280 70 C 310 70 335 78 357 94 C 378 110 396 127 412 147 L 412 473 L 515 473 L 515 133 C 515 111 515 90 516 68 C 516 46 519 23 524 0 L 429 0 C 426 10 424 21 423 33 C 422 44 422 55 422 66 C 412 54 403 43 393 33 C 383 23 371 14 359 6 C 346 -2 332 -8 316 -13 C 300 -17 283 -20 263 -20 C 247 -20 233 -18 219 -15 C 205 -11 193 -5 181 4 L 181 -230 L 77 -230 Z" unicode="" horiz-adv-x="605" />
<glyph d="M 476 -206 L 476 258 L 274 258 C 248 258 221 261 194 269 C 167 276 143 288 121 304 C 99 320 81 340 67 366 C 53 392 47 423 47 460 C 47 498 53 530 65 555 C 77 580 93 600 113 614 C 133 628 157 638 184 644 C 210 650 238 653 267 653 L 764 653 L 764 -206 L 672 -206 L 672 563 L 568 563 L 568 -206 L 476 -206 Z M 149 460 C 149 439 152 422 160 408 C 168 394 178 382 190 373 C 202 364 216 358 231 354 C 245 350 260 348 274 348 L 476 348 L 476 563 L 267 563 C 251 563 235 561 221 558 C 207 555 194 550 184 542 C 173 534 164 524 158 511 C 152 497 149 480 149 460 Z" unicode="" horiz-adv-x="861" />
<glyph d="M 289 259 C 289 281 297 300 314 316 C 331 332 352 340 378 340 C 403 340 424 332 441 316 C 458 300 467 281 467 259 C 467 236 458 217 441 202 C 424 186 403 179 378 179 C 352 179 331 186 314 202 C 297 217 289 236 289 259 Z" unicode="" horiz-adv-x="757" />
<glyph d="M 308 19 L 275 -54 C 280 -52 285 -51 290 -50 C 294 -49 299 -49 305 -49 C 317 -49 330 -50 342 -54 C 354 -57 365 -62 375 -69 C 385 -75 393 -84 399 -94 C 405 -104 408 -115 408 -129 C 408 -143 404 -157 396 -169 C 388 -181 376 -191 362 -199 C 347 -207 330 -214 310 -219 C 290 -223 268 -226 244 -226 C 218 -226 193 -223 170 -219 C 146 -214 123 -209 101 -204 L 117 -147 C 137 -151 158 -154 179 -158 C 199 -162 219 -164 239 -164 C 262 -164 280 -161 294 -155 C 308 -149 315 -140 315 -128 C 315 -116 310 -109 300 -106 C 290 -102 279 -101 268 -101 C 259 -101 251 -101 244 -102 C 237 -103 231 -104 225 -106 L 198 -74 L 242 19 L 308 19 Z" unicode="" horiz-adv-x="500" />
<glyph d="M 10 598 L 139 653 L 237 653 L 237 220 L 139 220 L 139 565 L 31 520 L 10 598 Z" unicode="" horiz-adv-x="323" />
<glyph d="M 39 394 C 39 419 44 443 54 465 C 64 487 78 507 96 524 C 113 540 133 553 157 563 C 180 573 205 578 231 578 C 257 578 282 573 306 563 C 329 553 349 540 367 524 C 385 507 399 487 409 465 C 419 443 425 419 425 394 C 425 368 419 343 409 321 C 399 298 385 278 367 262 C 349 246 329 233 306 223 C 282 213 257 209 231 209 C 205 209 180 213 157 223 C 133 233 113 246 96 262 C 78 278 64 298 54 321 C 44 343 39 368 39 394 Z M 131 394 C 131 363 139 337 156 316 C 172 295 197 285 231 285 C 265 285 290 295 308 316 C 325 337 334 363 334 394 C 334 424 325 449 308 470 C 290 491 265 502 231 502 C 214 502 199 499 187 493 C 175 487 164 480 156 470 C 148 460 141 448 137 435 C 133 422 131 408 131 394 Z" unicode="" horiz-adv-x="464" />
<glyph d="M 455 395 L 554 272 L 554 220 L 455 98 L 331 98 L 452 242 L 452 250 L 331 395 L 455 395 Z M 309 242 L 192 98 L 68 98 L 189 242 L 189 250 L 68 395 L 192 395 L 309 250 L 309 242 Z" unicode="" horiz-adv-x="606" />
<glyph d="M 8 598 L 137 653 L 235 653 L 235 220 L 137 220 L 137 565 L 29 520 L 8 598 Z M 661 653 L 291 0 L 202 0 L 573 653 L 661 653 Z M 1037 91 L 952 91 L 952 0 L 854 0 L 854 91 L 525 91 L 525 157 L 869 433 L 952 433 L 952 170 L 1037 170 L 1037 91 Z M 671 170 L 854 170 L 854 307 L 846 307 C 817 284 788 261 758 239 C 728 217 699 194 671 172 L 671 170 Z" unicode="" horiz-adv-x="1068" />
<glyph d="M 8 598 L 137 653 L 235 653 L 235 220 L 137 220 L 137 565 L 29 520 L 8 598 Z M 661 653 L 291 0 L 202 0 L 573 653 L 661 653 Z M 583 367 C 597 377 611 387 625 397 C 639 407 654 415 670 423 C 686 431 704 437 724 442 C 743 446 765 449 789 449 C 811 449 834 446 856 442 C 878 437 898 429 916 419 C 934 409 948 396 959 380 C 969 364 975 346 975 324 C 975 296 968 274 954 257 C 940 239 924 225 904 214 C 884 202 863 193 841 187 C 819 180 801 174 785 170 C 771 166 757 161 745 156 C 732 150 721 144 712 137 C 702 130 695 122 690 113 C 684 103 682 92 682 79 L 682 78 L 964 78 L 964 0 L 585 0 L 585 70 C 585 96 590 120 601 141 C 612 161 627 179 645 194 C 663 209 684 222 708 232 C 732 242 756 250 782 256 C 786 256 793 258 804 261 C 814 264 825 268 836 274 C 846 279 856 286 864 294 C 872 302 877 311 877 322 C 877 330 874 336 869 341 C 864 346 858 350 850 353 C 842 356 832 358 822 360 C 812 361 802 362 792 362 C 758 362 729 355 706 343 C 682 331 661 316 641 299 L 583 367 Z" unicode="" horiz-adv-x="1016" />
<glyph d="M 236 486 L 323 486 C 336 486 346 490 354 498 C 362 506 366 516 366 529 C 366 539 363 547 357 554 C 351 560 344 566 336 570 C 328 574 318 577 308 579 C 298 581 288 582 278 582 C 246 582 217 575 190 561 C 162 547 139 532 120 514 L 61 573 C 73 585 88 596 104 608 C 120 619 137 629 155 638 C 173 647 193 654 214 660 C 234 666 256 669 280 669 C 298 669 318 666 340 662 C 362 658 382 651 400 641 C 418 631 434 619 446 603 C 458 587 464 568 464 546 C 464 524 459 505 450 490 C 440 475 431 465 423 461 C 429 459 437 455 446 451 C 454 447 462 440 470 432 C 478 424 484 413 489 401 C 494 389 497 374 497 358 C 497 332 490 310 478 291 C 466 272 449 256 428 243 C 407 230 382 220 354 214 C 326 207 295 204 263 204 C 214 204 170 211 131 226 C 91 240 55 264 22 297 L 81 365 C 103 343 128 326 157 312 C 185 298 220 291 262 291 C 280 291 298 292 315 295 C 332 298 347 303 359 309 C 371 315 381 323 389 332 C 396 341 400 352 400 364 C 400 373 397 381 393 387 C 388 393 382 397 374 400 C 366 403 358 405 349 406 C 340 407 332 408 324 408 L 236 408 L 236 486 Z M 876 653 L 506 0 L 417 0 L 788 653 L 876 653 Z M 1252 91 L 1167 91 L 1167 0 L 1069 0 L 1069 91 L 740 91 L 740 157 L 1084 433 L 1167 433 L 1167 170 L 1252 170 L 1252 91 Z M 886 170 L 1069 170 L 1069 307 L 1061 307 C 1032 284 1003 261 973 239 C 943 217 914 194 886 172 L 886 170 Z" unicode="" horiz-adv-x="1283" />
<glyph d="M 516 -69 C 500 -87 483 -103 466 -118 C 448 -133 429 -146 408 -157 C 387 -168 364 -177 338 -183 C 312 -189 282 -192 248 -192 C 220 -192 193 -189 168 -184 C 142 -178 120 -169 101 -157 C 82 -144 67 -127 56 -107 C 44 -87 39 -62 39 -33 C 39 -5 43 17 53 36 C 62 54 74 71 89 85 C 105 101 124 115 145 127 C 165 139 185 152 203 165 C 221 178 237 193 250 209 C 262 225 269 246 271 270 L 371 270 C 372 234 365 203 350 179 C 334 155 316 134 294 117 C 272 99 250 84 226 70 C 202 56 183 41 167 27 C 158 19 151 10 146 1 C 141 -8 139 -18 139 -30 C 139 -54 150 -72 172 -84 C 194 -96 220 -102 251 -102 C 274 -102 295 -99 314 -95 C 332 -90 349 -83 365 -75 C 380 -66 394 -56 407 -44 C 420 -32 433 -19 446 -5 L 516 -69 Z M 381 423 C 381 403 373 385 358 371 C 343 357 324 350 302 350 C 279 350 260 357 245 371 C 229 385 222 403 222 423 C 222 443 229 460 245 474 C 260 488 279 495 302 495 C 324 495 343 488 358 474 C 373 460 381 443 381 423 Z" unicode="" horiz-adv-x="571" />
<glyph d="M 327 653 L 429 653 L 732 0 L 609 0 L 530 176 L 219 176 L 141 0 L 24 0 L 327 653 Z M 259 266 L 490 266 L 378 519 L 372 519 L 259 266 Z M 225 860 L 361 860 L 461 730 L 361 730 L 225 860 Z" unicode="" horiz-adv-x="756" />
<glyph d="M 327 653 L 429 653 L 732 0 L 609 0 L 530 176 L 219 176 L 141 0 L 24 0 L 327 653 Z M 259 266 L 490 266 L 378 519 L 372 519 L 259 266 Z M 395 860 L 531 860 L 394 730 L 295 730 L 395 860 Z" unicode="" horiz-adv-x="756" />
<glyph d="M 327 653 L 429 653 L 732 0 L 609 0 L 530 176 L 219 176 L 141 0 L 24 0 L 327 653 Z M 259 266 L 490 266 L 378 519 L 372 519 L 259 266 Z M 320 863 L 436 863 L 538 730 L 455 730 L 378 804 L 300 730 L 217 730 L 320 863 Z" unicode="" horiz-adv-x="756" />
<glyph d="M 327 653 L 429 653 L 732 0 L 609 0 L 530 176 L 219 176 L 141 0 L 24 0 L 327 653 Z M 259 266 L 490 266 L 378 519 L 372 519 L 259 266 Z M 197 765 C 216 797 234 820 252 833 C 270 846 289 853 311 853 C 325 853 337 850 348 846 C 359 841 370 835 382 827 C 391 820 400 814 409 809 C 418 803 427 801 437 801 C 449 801 459 805 468 815 C 476 824 485 834 493 846 L 555 812 C 538 782 520 759 502 745 C 484 730 463 723 441 723 C 427 723 415 725 403 730 C 391 734 380 740 371 747 C 360 754 351 760 343 766 C 335 772 326 775 317 775 C 305 775 295 770 287 760 C 279 750 271 739 264 729 L 197 765 Z" unicode="" horiz-adv-x="756" />
<glyph d="M 327 653 L 429 653 L 732 0 L 609 0 L 530 176 L 219 176 L 141 0 L 24 0 L 327 653 Z M 259 266 L 490 266 L 378 519 L 372 519 L 259 266 Z M 210 795 C 210 810 215 823 227 835 C 239 846 253 852 271 852 C 288 852 303 846 315 835 C 327 823 333 810 333 795 C 333 779 327 765 315 755 C 303 744 288 739 271 739 C 253 739 239 744 227 755 C 215 765 210 779 210 795 Z M 422 795 C 422 810 427 823 439 835 C 451 846 465 852 483 852 C 500 852 515 846 527 835 C 539 823 545 810 545 795 C 545 779 539 765 527 755 C 515 744 500 739 483 739 C 465 739 451 744 439 755 C 427 765 422 779 422 795 Z" unicode="" horiz-adv-x="756" />
<glyph d="M 327 653 L 429 653 L 732 0 L 609 0 L 530 176 L 219 176 L 141 0 L 24 0 L 327 653 Z M 259 266 L 490 266 L 378 519 L 372 519 L 259 266 Z M 311 796 C 311 780 317 767 329 757 C 341 747 356 742 375 742 C 394 742 410 747 422 757 C 434 767 440 780 440 796 C 440 812 434 826 422 838 C 410 849 394 855 375 855 C 356 855 341 849 329 838 C 317 826 311 812 311 796 Z M 375 694 C 354 694 336 696 320 702 C 304 707 291 714 281 724 C 270 733 262 744 257 756 C 251 768 249 782 249 796 C 249 824 259 848 281 869 C 302 890 333 901 375 901 C 416 901 448 890 470 869 C 492 848 503 824 503 796 C 503 768 492 744 470 724 C 448 704 416 694 375 694 Z" unicode="" horiz-adv-x="756" />
<glyph d="M 486 176 L 240 176 L 116 0 L -9 0 L 465 653 L 1015 653 L 1015 553 L 597 553 L 597 391 L 848 391 L 848 291 L 597 291 L 597 100 L 1039 100 L 1039 0 L 486 0 L 486 176 Z M 303 266 L 486 266 L 486 519 L 482 519 L 303 266 Z" unicode="" horiz-adv-x="1086" />
<glyph d="M 734 116 C 716 98 697 82 675 66 C 653 50 628 35 602 23 C 576 10 547 0 517 -7 C 487 -15 454 -19 420 -20 L 405 -54 C 410 -52 415 -51 420 -50 C 424 -49 429 -49 435 -49 C 447 -49 460 -50 472 -54 C 484 -57 495 -62 505 -69 C 515 -75 523 -84 529 -94 C 535 -104 538 -115 538 -129 C 538 -143 534 -157 526 -169 C 518 -181 506 -191 492 -199 C 477 -207 460 -214 440 -219 C 420 -223 398 -226 374 -226 C 348 -226 323 -223 300 -219 C 276 -214 253 -209 231 -204 L 247 -147 C 267 -151 288 -154 309 -158 C 329 -162 349 -164 369 -164 C 392 -164 410 -161 424 -155 C 438 -149 445 -140 445 -128 C 445 -116 440 -109 430 -106 C 420 -102 409 -101 398 -101 C 389 -101 381 -101 374 -102 C 367 -103 361 -104 355 -106 L 328 -74 L 355 -16 C 309 -10 267 3 230 23 C 193 43 162 68 136 99 C 110 129 90 164 76 203 C 62 241 55 283 55 327 C 55 374 63 419 80 461 C 97 503 121 539 152 571 C 183 602 220 627 264 645 C 307 663 355 673 407 673 C 467 673 523 662 577 641 C 631 619 676 592 713 558 L 637 483 C 622 497 606 509 588 520 C 570 531 551 540 531 548 C 511 556 490 562 470 566 C 449 570 429 573 409 573 C 373 573 340 566 311 553 C 282 540 257 522 237 500 C 217 477 201 451 190 421 C 178 391 173 360 173 326 C 173 292 178 260 190 230 C 201 200 217 174 238 152 C 259 130 284 112 314 99 C 344 86 377 80 414 80 C 465 80 512 90 554 112 C 596 134 631 160 659 190 L 734 116 Z" unicode="" horiz-adv-x="771" />
<glyph d="M 476 291 L 225 291 L 225 100 L 667 100 L 667 0 L 113 0 L 113 653 L 643 653 L 643 553 L 225 553 L 225 391 L 476 391 L 476 291 Z M 226 860 L 362 860 L 462 730 L 362 730 L 226 860 Z" unicode="" horiz-adv-x="714" />
<glyph d="M 476 291 L 225 291 L 225 100 L 667 100 L 667 0 L 113 0 L 113 653 L 643 653 L 643 553 L 225 553 L 225 391 L 476 391 L 476 291 Z M 396 860 L 532 860 L 395 730 L 296 730 L 396 860 Z" unicode="" horiz-adv-x="714" />
<glyph d="M 476 291 L 225 291 L 225 100 L 667 100 L 667 0 L 113 0 L 113 653 L 643 653 L 643 553 L 225 553 L 225 391 L 476 391 L 476 291 Z M 321 863 L 437 863 L 539 730 L 456 730 L 379 804 L 301 730 L 218 730 L 321 863 Z" unicode="" horiz-adv-x="714" />
<glyph d="M 476 291 L 225 291 L 225 100 L 667 100 L 667 0 L 113 0 L 113 653 L 643 653 L 643 553 L 225 553 L 225 391 L 476 391 L 476 291 Z M 211 795 C 211 810 216 823 228 835 C 240 846 254 852 272 852 C 289 852 304 846 316 835 C 328 823 334 810 334 795 C 334 779 328 765 316 755 C 304 744 289 739 272 739 C 254 739 240 744 228 755 C 216 765 211 779 211 795 Z M 423 795 C 423 810 428 823 440 835 C 452 846 466 852 484 852 C 501 852 516 846 528 835 C 540 823 546 810 546 795 C 546 779 540 765 528 755 C 516 744 501 739 484 739 C 466 739 452 744 440 755 C 428 765 423 779 423 795 Z" unicode="" horiz-adv-x="714" />
<glyph d="M 113 0 L 113 653 L 225 653 L 225 0 L 113 0 Z M 252 730 L 152 730 L 16 860 L 152 860 L 252 730 Z" unicode="" horiz-adv-x="338" />
<glyph d="M 113 0 L 113 653 L 225 653 L 225 0 L 113 0 Z M 186 860 L 322 860 L 185 730 L 86 730 L 186 860 Z" unicode="" horiz-adv-x="338" />
<glyph d="M 113 0 L 113 653 L 225 653 L 225 0 L 113 0 Z M 111 863 L 227 863 L 329 730 L 246 730 L 169 804 L 91 730 L 8 730 L 111 863 Z" unicode="" horiz-adv-x="338" />
<glyph d="M 113 0 L 113 653 L 225 653 L 225 0 L 113 0 Z M 1 795 C 1 810 6 823 18 835 C 30 846 44 852 62 852 C 79 852 94 846 106 835 C 118 823 124 810 124 795 C 124 779 118 765 106 755 C 94 744 79 739 62 739 C 44 739 30 744 18 755 C 6 765 1 779 1 795 Z M 213 795 C 213 810 218 823 230 835 C 242 846 256 852 274 852 C 291 852 306 846 318 835 C 330 823 336 810 336 795 C 336 779 330 765 318 755 C 306 744 291 739 274 739 C 256 739 242 744 230 755 C 218 765 213 779 213 795 Z" unicode="" horiz-adv-x="338" />
<glyph d="M 43 381 L 143 381 L 143 653 L 456 653 C 485 653 511 651 535 647 C 559 643 580 637 599 629 C 618 621 635 612 651 602 C 667 591 682 579 696 566 C 725 536 747 500 762 460 C 777 419 785 375 785 327 C 785 277 776 231 760 189 C 744 146 720 110 689 80 C 675 67 660 56 645 46 C 630 36 613 28 595 21 C 577 14 556 9 534 5 C 511 1 485 0 456 0 L 143 0 L 143 291 L 43 291 L 43 381 Z M 451 100 C 471 100 489 101 504 103 C 518 105 531 109 542 113 C 553 117 563 123 572 129 C 581 135 591 143 601 151 C 622 172 638 198 650 228 C 662 258 668 291 668 327 C 668 361 662 392 652 422 C 641 451 625 476 605 498 C 595 506 586 514 577 521 C 567 527 557 533 545 538 C 533 542 519 546 504 549 C 489 551 471 553 451 553 L 255 553 L 255 381 L 447 381 L 447 291 L 255 291 L 255 100 L 451 100 Z" unicode="" horiz-adv-x="845" />
<glyph d="M 702 653 L 702 0 L 603 0 L 226 453 L 225 453 L 225 0 L 113 0 L 113 653 L 212 653 L 589 200 L 590 200 L 590 653 L 702 653 Z M 226 765 C 245 797 263 820 281 833 C 299 846 318 853 340 853 C 354 853 366 850 377 846 C 388 841 399 835 411 827 C 420 820 429 814 438 809 C 447 803 456 801 466 801 C 478 801 488 805 497 815 C 505 824 514 834 522 846 L 584 812 C 567 782 549 759 531 745 C 513 730 492 723 470 723 C 456 723 444 725 432 730 C 420 734 409 740 400 747 C 389 754 380 760 372 766 C 364 772 355 775 346 775 C 334 775 324 770 316 760 C 308 750 300 739 293 729 L 226 765 Z" unicode="" horiz-adv-x="815" />
<glyph d="M 55 328 C 55 376 64 420 83 462 C 102 504 128 540 161 572 C 194 603 233 628 278 646 C 322 664 370 673 422 673 C 473 673 521 664 566 646 C 611 628 650 603 684 572 C 717 540 743 504 763 462 C 782 420 792 376 792 328 C 792 279 782 233 763 191 C 743 149 717 112 684 81 C 650 49 611 25 566 7 C 521 -11 473 -20 422 -20 C 370 -20 322 -11 278 7 C 233 25 194 49 161 81 C 128 112 102 149 83 191 C 64 233 55 279 55 328 Z M 173 328 C 173 294 179 262 192 232 C 204 202 222 175 245 153 C 267 130 294 112 324 99 C 354 86 386 80 422 80 C 457 80 490 86 521 99 C 551 112 578 130 601 153 C 623 175 641 202 654 232 C 667 262 674 294 674 328 C 674 362 667 393 654 423 C 641 453 623 479 601 501 C 578 523 551 540 521 553 C 490 566 457 573 422 573 C 386 573 354 566 324 553 C 294 540 267 523 245 501 C 222 479 204 453 192 423 C 179 393 173 362 173 328 Z M 270 860 L 406 860 L 506 730 L 406 730 L 270 860 Z" unicode="" horiz-adv-x="846" />
<glyph d="M 55 328 C 55 376 64 420 83 462 C 102 504 128 540 161 572 C 194 603 233 628 278 646 C 322 664 370 673 422 673 C 473 673 521 664 566 646 C 611 628 650 603 684 572 C 717 540 743 504 763 462 C 782 420 792 376 792 328 C 792 279 782 233 763 191 C 743 149 717 112 684 81 C 650 49 611 25 566 7 C 521 -11 473 -20 422 -20 C 370 -20 322 -11 278 7 C 233 25 194 49 161 81 C 128 112 102 149 83 191 C 64 233 55 279 55 328 Z M 173 328 C 173 294 179 262 192 232 C 204 202 222 175 245 153 C 267 130 294 112 324 99 C 354 86 386 80 422 80 C 457 80 490 86 521 99 C 551 112 578 130 601 153 C 623 175 641 202 654 232 C 667 262 674 294 674 328 C 674 362 667 393 654 423 C 641 453 623 479 601 501 C 578 523 551 540 521 553 C 490 566 457 573 422 573 C 386 573 354 566 324 553 C 294 540 267 523 245 501 C 222 479 204 453 192 423 C 179 393 173 362 173 328 Z M 440 860 L 576 860 L 439 730 L 340 730 L 440 860 Z" unicode="" horiz-adv-x="846" />
<glyph d="M 55 328 C 55 376 64 420 83 462 C 102 504 128 540 161 572 C 194 603 233 628 278 646 C 322 664 370 673 422 673 C 473 673 521 664 566 646 C 611 628 650 603 684 572 C 717 540 743 504 763 462 C 782 420 792 376 792 328 C 792 279 782 233 763 191 C 743 149 717 112 684 81 C 650 49 611 25 566 7 C 521 -11 473 -20 422 -20 C 370 -20 322 -11 278 7 C 233 25 194 49 161 81 C 128 112 102 149 83 191 C 64 233 55 279 55 328 Z M 173 328 C 173 294 179 262 192 232 C 204 202 222 175 245 153 C 267 130 294 112 324 99 C 354 86 386 80 422 80 C 457 80 490 86 521 99 C 551 112 578 130 601 153 C 623 175 641 202 654 232 C 667 262 674 294 674 328 C 674 362 667 393 654 423 C 641 453 623 479 601 501 C 578 523 551 540 521 553 C 490 566 457 573 422 573 C 386 573 354 566 324 553 C 294 540 267 523 245 501 C 222 479 204 453 192 423 C 179 393 173 362 173 328 Z M 365 863 L 481 863 L 583 730 L 500 730 L 423 804 L 345 730 L 262 730 L 365 863 Z" unicode="" horiz-adv-x="846" />
<glyph d="M 55 328 C 55 376 64 420 83 462 C 102 504 128 540 161 572 C 194 603 233 628 278 646 C 322 664 370 673 422 673 C 473 673 521 664 566 646 C 611 628 650 603 684 572 C 717 540 743 504 763 462 C 782 420 792 376 792 328 C 792 279 782 233 763 191 C 743 149 717 112 684 81 C 650 49 611 25 566 7 C 521 -11 473 -20 422 -20 C 370 -20 322 -11 278 7 C 233 25 194 49 161 81 C 128 112 102 149 83 191 C 64 233 55 279 55 328 Z M 173 328 C 173 294 179 262 192 232 C 204 202 222 175 245 153 C 267 130 294 112 324 99 C 354 86 386 80 422 80 C 457 80 490 86 521 99 C 551 112 578 130 601 153 C 623 175 641 202 654 232 C 667 262 674 294 674 328 C 674 362 667 393 654 423 C 641 453 623 479 601 501 C 578 523 551 540 521 553 C 490 566 457 573 422 573 C 386 573 354 566 324 553 C 294 540 267 523 245 501 C 222 479 204 453 192 423 C 179 393 173 362 173 328 Z M 242 765 C 261 797 279 820 297 833 C 315 846 334 853 356 853 C 370 853 382 850 393 846 C 404 841 415 835 427 827 C 436 820 445 814 454 809 C 463 803 472 801 482 801 C 494 801 504 805 513 815 C 521 824 530 834 538 846 L 600 812 C 583 782 565 759 547 745 C 529 730 508 723 486 723 C 472 723 460 725 448 730 C 436 734 425 740 416 747 C 405 754 396 760 388 766 C 380 772 371 775 362 775 C 350 775 340 770 332 760 C 324 750 316 739 309 729 L 242 765 Z" unicode="" horiz-adv-x="846" />
<glyph d="M 55 328 C 55 376 64 420 83 462 C 102 504 128 540 161 572 C 194 603 233 628 278 646 C 322 664 370 673 422 673 C 473 673 521 664 566 646 C 611 628 650 603 684 572 C 717 540 743 504 763 462 C 782 420 792 376 792 328 C 792 279 782 233 763 191 C 743 149 717 112 684 81 C 650 49 611 25 566 7 C 521 -11 473 -20 422 -20 C 370 -20 322 -11 278 7 C 233 25 194 49 161 81 C 128 112 102 149 83 191 C 64 233 55 279 55 328 Z M 173 328 C 173 294 179 262 192 232 C 204 202 222 175 245 153 C 267 130 294 112 324 99 C 354 86 386 80 422 80 C 457 80 490 86 521 99 C 551 112 578 130 601 153 C 623 175 641 202 654 232 C 667 262 674 294 674 328 C 674 362 667 393 654 423 C 641 453 623 479 601 501 C 578 523 551 540 521 553 C 490 566 457 573 422 573 C 386 573 354 566 324 553 C 294 540 267 523 245 501 C 222 479 204 453 192 423 C 179 393 173 362 173 328 Z M 255 795 C 255 810 260 823 272 835 C 284 846 298 852 316 852 C 333 852 348 846 360 835 C 372 823 378 810 378 795 C 378 779 372 765 360 755 C 348 744 333 739 316 739 C 298 739 284 744 272 755 C 260 765 255 779 255 795 Z M 467 795 C 467 810 472 823 484 835 C 496 846 510 852 528 852 C 545 852 560 846 572 835 C 584 823 590 810 590 795 C 590 779 584 765 572 755 C 560 744 545 739 528 739 C 510 739 496 744 484 755 C 472 765 467 779 467 795 Z" unicode="" horiz-adv-x="846" />
<glyph d="M 168 502 L 379 321 L 590 502 L 658 436 L 451 259 L 659 82 L 589 16 L 377 196 L 166 16 L 98 81 L 305 258 L 97 435 L 168 502 Z" unicode="" horiz-adv-x="757" />
<glyph d="M 55 328 C 55 376 64 420 83 462 C 102 504 128 540 161 572 C 194 603 233 628 278 646 C 322 664 370 673 422 673 C 451 673 479 670 506 664 C 533 658 559 649 584 638 L 644 724 L 718 673 L 661 591 C 701 559 732 520 756 475 C 780 430 792 381 792 328 C 792 279 782 233 763 191 C 743 149 717 112 684 81 C 650 49 611 25 566 7 C 521 -11 473 -20 422 -20 C 392 -20 363 -17 337 -11 C 310 -5 284 3 260 14 L 202 -70 L 127 -20 L 183 61 C 143 93 111 132 89 178 C 66 224 55 274 55 328 Z M 674 328 C 674 362 667 394 654 424 C 640 454 622 480 599 502 L 320 101 C 350 87 384 80 422 80 C 457 80 490 86 521 99 C 551 112 578 130 601 153 C 623 175 641 202 654 232 C 667 262 674 294 674 328 Z M 173 328 C 173 293 179 261 192 231 C 205 201 223 174 246 152 L 524 552 C 508 558 492 563 475 567 C 457 571 440 573 422 573 C 386 573 354 566 324 553 C 294 540 267 523 245 501 C 222 479 204 453 192 423 C 179 393 173 362 173 328 Z" unicode="" horiz-adv-x="846" />
<glyph d="M 679 653 L 679 232 C 679 192 671 156 657 125 C 642 93 622 67 596 45 C 570 23 539 7 504 -3 C 468 -14 430 -20 389 -20 C 347 -20 309 -14 274 -3 C 238 7 208 23 182 45 C 156 67 136 93 122 125 C 107 156 100 192 100 232 L 100 653 L 212 653 L 212 232 C 212 207 216 185 225 167 C 234 148 247 132 263 119 C 279 106 297 96 319 90 C 341 83 364 80 389 80 C 413 80 436 83 458 90 C 480 96 499 106 515 119 C 531 132 543 148 553 167 C 562 185 567 207 567 232 L 567 653 L 679 653 Z M 236 860 L 372 860 L 472 730 L 372 730 L 236 860 Z" unicode="" horiz-adv-x="779" />
<glyph d="M 679 653 L 679 232 C 679 192 671 156 657 125 C 642 93 622 67 596 45 C 570 23 539 7 504 -3 C 468 -14 430 -20 389 -20 C 347 -20 309 -14 274 -3 C 238 7 208 23 182 45 C 156 67 136 93 122 125 C 107 156 100 192 100 232 L 100 653 L 212 653 L 212 232 C 212 207 216 185 225 167 C 234 148 247 132 263 119 C 279 106 297 96 319 90 C 341 83 364 80 389 80 C 413 80 436 83 458 90 C 480 96 499 106 515 119 C 531 132 543 148 553 167 C 562 185 567 207 567 232 L 567 653 L 679 653 Z M 406 860 L 542 860 L 405 730 L 306 730 L 406 860 Z" unicode="" horiz-adv-x="779" />
<glyph d="M 679 653 L 679 232 C 679 192 671 156 657 125 C 642 93 622 67 596 45 C 570 23 539 7 504 -3 C 468 -14 430 -20 389 -20 C 347 -20 309 -14 274 -3 C 238 7 208 23 182 45 C 156 67 136 93 122 125 C 107 156 100 192 100 232 L 100 653 L 212 653 L 212 232 C 212 207 216 185 225 167 C 234 148 247 132 263 119 C 279 106 297 96 319 90 C 341 83 364 80 389 80 C 413 80 436 83 458 90 C 480 96 499 106 515 119 C 531 132 543 148 553 167 C 562 185 567 207 567 232 L 567 653 L 679 653 Z M 331 863 L 447 863 L 549 730 L 466 730 L 389 804 L 311 730 L 228 730 L 331 863 Z" unicode="" horiz-adv-x="779" />
<glyph d="M 679 653 L 679 232 C 679 192 671 156 657 125 C 642 93 622 67 596 45 C 570 23 539 7 504 -3 C 468 -14 430 -20 389 -20 C 347 -20 309 -14 274 -3 C 238 7 208 23 182 45 C 156 67 136 93 122 125 C 107 156 100 192 100 232 L 100 653 L 212 653 L 212 232 C 212 207 216 185 225 167 C 234 148 247 132 263 119 C 279 106 297 96 319 90 C 341 83 364 80 389 80 C 413 80 436 83 458 90 C 480 96 499 106 515 119 C 531 132 543 148 553 167 C 562 185 567 207 567 232 L 567 653 L 679 653 Z M 221 795 C 221 810 226 823 238 835 C 250 846 264 852 282 852 C 299 852 314 846 326 835 C 338 823 344 810 344 795 C 344 779 338 765 326 755 C 314 744 299 739 282 739 C 264 739 250 744 238 755 C 226 765 221 779 221 795 Z M 433 795 C 433 810 438 823 450 835 C 462 846 476 852 494 852 C 511 852 526 846 538 835 C 550 823 556 810 556 795 C 556 779 550 765 538 755 C 526 744 511 739 494 739 C 476 739 462 744 450 755 C 438 765 433 779 433 795 Z" unicode="" horiz-adv-x="779" />
<glyph d="M 664 653 L 396 301 L 396 0 L 284 0 L 284 301 L 16 653 L 158 653 L 345 401 L 532 653 L 664 653 Z M 357 860 L 493 860 L 356 730 L 257 730 L 357 860 Z" unicode="" horiz-adv-x="680" />
<glyph d="M 225 528 L 493 528 C 539 528 577 521 607 509 C 637 497 662 480 682 459 C 699 439 712 419 721 397 C 729 375 734 352 734 328 C 734 300 728 274 718 250 C 707 226 692 205 674 187 C 654 168 630 153 602 142 C 573 131 537 126 493 126 L 225 126 L 225 0 L 113 0 L 113 653 L 225 653 L 225 528 Z M 225 428 L 225 226 L 493 226 C 507 226 523 227 541 230 C 559 233 576 242 592 258 C 612 276 622 299 622 327 C 622 351 613 373 595 393 C 579 409 562 418 544 422 C 526 426 509 428 493 428 L 225 428 Z" unicode="" horiz-adv-x="771" />
<glyph d="M 299 70 C 345 70 379 80 402 101 C 425 121 437 148 437 180 C 437 206 430 228 417 248 C 404 268 388 284 370 298 C 352 312 333 322 314 330 C 294 338 278 343 266 345 L 276 424 C 308 430 332 445 348 467 C 364 489 372 513 372 539 C 372 567 363 588 346 603 C 329 618 309 626 286 626 C 274 626 262 623 250 619 C 238 615 228 608 219 599 C 209 590 202 579 196 565 C 190 551 188 534 188 516 L 188 0 L 86 0 L 86 516 C 86 551 91 581 103 606 C 115 631 130 651 149 667 C 167 683 188 694 212 701 C 236 708 260 712 285 712 C 313 712 340 707 364 699 C 388 690 408 678 425 663 C 442 648 455 631 465 611 C 474 591 479 570 479 548 C 479 526 474 506 466 489 C 458 471 448 456 436 444 C 424 431 411 420 397 412 C 383 404 371 398 361 394 C 377 390 395 382 417 371 C 438 359 458 344 477 326 C 495 308 511 286 524 261 C 537 236 544 208 544 177 C 544 150 538 125 528 103 C 518 80 503 60 483 44 C 463 27 438 14 409 4 C 380 -5 347 -10 309 -10 L 299 70 Z" unicode="" horiz-adv-x="591" />
<glyph d="M 75 437 C 85 443 99 450 115 458 C 131 465 148 472 168 478 C 188 484 209 489 232 493 C 255 497 279 499 304 499 C 331 499 358 496 384 491 C 410 486 434 478 454 467 C 474 456 491 442 504 424 C 516 406 523 383 523 357 L 523 87 C 523 74 523 60 525 44 C 527 28 530 13 536 0 L 432 0 C 428 7 426 16 424 28 C 422 40 421 50 420 60 C 410 52 400 43 388 35 C 376 27 363 19 348 13 C 333 6 316 0 298 -3 C 280 -7 259 -10 236 -10 C 207 -10 181 -6 158 2 C 134 10 114 21 98 36 C 81 50 68 68 59 88 C 50 108 46 131 46 156 C 46 177 50 197 60 216 C 70 235 84 252 103 266 C 122 280 145 291 173 299 C 201 307 233 311 269 311 C 295 311 323 308 351 302 C 379 296 402 286 420 274 L 420 327 C 420 356 408 377 385 391 C 362 404 333 411 299 411 C 280 411 261 409 243 405 C 224 401 206 396 190 390 C 173 384 158 378 144 371 C 130 364 119 358 111 352 L 75 437 Z M 258 76 C 280 76 301 79 320 85 C 338 91 355 98 369 106 C 383 114 394 121 403 129 C 411 137 417 142 420 145 L 420 194 C 408 202 391 210 367 218 C 343 226 316 230 286 230 C 235 230 200 223 180 209 C 160 195 150 177 150 156 C 150 133 159 114 178 99 C 196 83 223 76 258 76 Z M 290 697 L 370 551 L 277 551 L 171 697 L 290 697 Z" unicode="" horiz-adv-x="605" />
<glyph d="M 75 437 C 85 443 99 450 115 458 C 131 465 148 472 168 478 C 188 484 209 489 232 493 C 255 497 279 499 304 499 C 331 499 358 496 384 491 C 410 486 434 478 454 467 C 474 456 491 442 504 424 C 516 406 523 383 523 357 L 523 87 C 523 74 523 60 525 44 C 527 28 530 13 536 0 L 432 0 C 428 7 426 16 424 28 C 422 40 421 50 420 60 C 410 52 400 43 388 35 C 376 27 363 19 348 13 C 333 6 316 0 298 -3 C 280 -7 259 -10 236 -10 C 207 -10 181 -6 158 2 C 134 10 114 21 98 36 C 81 50 68 68 59 88 C 50 108 46 131 46 156 C 46 177 50 197 60 216 C 70 235 84 252 103 266 C 122 280 145 291 173 299 C 201 307 233 311 269 311 C 295 311 323 308 351 302 C 379 296 402 286 420 274 L 420 327 C 420 356 408 377 385 391 C 362 404 333 411 299 411 C 280 411 261 409 243 405 C 224 401 206 396 190 390 C 173 384 158 378 144 371 C 130 364 119 358 111 352 L 75 437 Z M 258 76 C 280 76 301 79 320 85 C 338 91 355 98 369 106 C 383 114 394 121 403 129 C 411 137 417 142 420 145 L 420 194 C 408 202 391 210 367 218 C 343 226 316 230 286 230 C 235 230 200 223 180 209 C 160 195 150 177 150 156 C 150 133 159 114 178 99 C 196 83 223 76 258 76 Z M 433 697 L 327 551 L 234 551 L 314 697 L 433 697 Z" unicode="" horiz-adv-x="605" />
<glyph d="M 75 437 C 85 443 99 450 115 458 C 131 465 148 472 168 478 C 188 484 209 489 232 493 C 255 497 279 499 304 499 C 331 499 358 496 384 491 C 410 486 434 478 454 467 C 474 456 491 442 504 424 C 516 406 523 383 523 357 L 523 87 C 523 74 523 60 525 44 C 527 28 530 13 536 0 L 432 0 C 428 7 426 16 424 28 C 422 40 421 50 420 60 C 410 52 400 43 388 35 C 376 27 363 19 348 13 C 333 6 316 0 298 -3 C 280 -7 259 -10 236 -10 C 207 -10 181 -6 158 2 C 134 10 114 21 98 36 C 81 50 68 68 59 88 C 50 108 46 131 46 156 C 46 177 50 197 60 216 C 70 235 84 252 103 266 C 122 280 145 291 173 299 C 201 307 233 311 269 311 C 295 311 323 308 351 302 C 379 296 402 286 420 274 L 420 327 C 420 356 408 377 385 391 C 362 404 333 411 299 411 C 280 411 261 409 243 405 C 224 401 206 396 190 390 C 173 384 158 378 144 371 C 130 364 119 358 111 352 L 75 437 Z M 258 76 C 280 76 301 79 320 85 C 338 91 355 98 369 106 C 383 114 394 121 403 129 C 411 137 417 142 420 145 L 420 194 C 408 202 391 210 367 218 C 343 226 316 230 286 230 C 235 230 200 223 180 209 C 160 195 150 177 150 156 C 150 133 159 114 178 99 C 196 83 223 76 258 76 Z M 244 688 L 360 688 L 462 552 L 379 552 L 302 630 L 224 552 L 141 552 L 244 688 Z" unicode="" horiz-adv-x="605" />
<glyph d="M 75 437 C 85 443 99 450 115 458 C 131 465 148 472 168 478 C 188 484 209 489 232 493 C 255 497 279 499 304 499 C 331 499 358 496 384 491 C 410 486 434 478 454 467 C 474 456 491 442 504 424 C 516 406 523 383 523 357 L 523 87 C 523 74 523 60 525 44 C 527 28 530 13 536 0 L 432 0 C 428 7 426 16 424 28 C 422 40 421 50 420 60 C 410 52 400 43 388 35 C 376 27 363 19 348 13 C 333 6 316 0 298 -3 C 280 -7 259 -10 236 -10 C 207 -10 181 -6 158 2 C 134 10 114 21 98 36 C 81 50 68 68 59 88 C 50 108 46 131 46 156 C 46 177 50 197 60 216 C 70 235 84 252 103 266 C 122 280 145 291 173 299 C 201 307 233 311 269 311 C 295 311 323 308 351 302 C 379 296 402 286 420 274 L 420 327 C 420 356 408 377 385 391 C 362 404 333 411 299 411 C 280 411 261 409 243 405 C 224 401 206 396 190 390 C 173 384 158 378 144 371 C 130 364 119 358 111 352 L 75 437 Z M 258 76 C 280 76 301 79 320 85 C 338 91 355 98 369 106 C 383 114 394 121 403 129 C 411 137 417 142 420 145 L 420 194 C 408 202 391 210 367 218 C 343 226 316 230 286 230 C 235 230 200 223 180 209 C 160 195 150 177 150 156 C 150 133 159 114 178 99 C 196 83 223 76 258 76 Z M 121 587 C 140 619 158 642 176 655 C 194 668 213 675 235 675 C 249 675 261 672 272 668 C 283 663 294 657 306 649 C 315 642 324 636 333 631 C 342 625 351 623 361 623 C 373 623 383 627 392 637 C 400 646 409 656 417 668 L 479 634 C 462 604 444 581 426 567 C 408 552 387 545 365 545 C 351 545 339 547 327 552 C 315 556 304 562 295 569 C 284 576 275 582 267 588 C 259 594 250 597 241 597 C 229 597 219 592 211 582 C 203 572 195 561 188 551 L 121 587 Z" unicode="" horiz-adv-x="605" />
<glyph d="M 75 437 C 85 443 99 450 115 458 C 131 465 148 472 168 478 C 188 484 209 489 232 493 C 255 497 279 499 304 499 C 331 499 358 496 384 491 C 410 486 434 478 454 467 C 474 456 491 442 504 424 C 516 406 523 383 523 357 L 523 87 C 523 74 523 60 525 44 C 527 28 530 13 536 0 L 432 0 C 428 7 426 16 424 28 C 422 40 421 50 420 60 C 410 52 400 43 388 35 C 376 27 363 19 348 13 C 333 6 316 0 298 -3 C 280 -7 259 -10 236 -10 C 207 -10 181 -6 158 2 C 134 10 114 21 98 36 C 81 50 68 68 59 88 C 50 108 46 131 46 156 C 46 177 50 197 60 216 C 70 235 84 252 103 266 C 122 280 145 291 173 299 C 201 307 233 311 269 311 C 295 311 323 308 351 302 C 379 296 402 286 420 274 L 420 327 C 420 356 408 377 385 391 C 362 404 333 411 299 411 C 280 411 261 409 243 405 C 224 401 206 396 190 390 C 173 384 158 378 144 371 C 130 364 119 358 111 352 L 75 437 Z M 258 76 C 280 76 301 79 320 85 C 338 91 355 98 369 106 C 383 114 394 121 403 129 C 411 137 417 142 420 145 L 420 194 C 408 202 391 210 367 218 C 343 226 316 230 286 230 C 235 230 200 223 180 209 C 160 195 150 177 150 156 C 150 133 159 114 178 99 C 196 83 223 76 258 76 Z M 134 617 C 134 632 139 645 151 657 C 163 668 177 674 195 674 C 212 674 227 668 239 657 C 251 645 257 632 257 617 C 257 601 251 587 239 577 C 227 566 212 561 195 561 C 177 561 163 566 151 577 C 139 587 134 601 134 617 Z M 346 617 C 346 632 351 645 363 657 C 375 668 389 674 407 674 C 424 674 439 668 451 657 C 463 645 469 632 469 617 C 469 601 463 587 451 577 C 439 566 424 561 407 561 C 389 561 375 566 363 577 C 351 587 346 601 346 617 Z" unicode="" horiz-adv-x="605" />
<glyph d="M 75 437 C 85 443 99 450 115 458 C 131 465 148 472 168 478 C 188 484 209 489 232 493 C 255 497 279 499 304 499 C 331 499 358 496 384 491 C 410 486 434 478 454 467 C 474 456 491 442 504 424 C 516 406 523 383 523 357 L 523 87 C 523 74 523 60 525 44 C 527 28 530 13 536 0 L 432 0 C 428 7 426 16 424 28 C 422 40 421 50 420 60 C 410 52 400 43 388 35 C 376 27 363 19 348 13 C 333 6 316 0 298 -3 C 280 -7 259 -10 236 -10 C 207 -10 181 -6 158 2 C 134 10 114 21 98 36 C 81 50 68 68 59 88 C 50 108 46 131 46 156 C 46 177 50 197 60 216 C 70 235 84 252 103 266 C 122 280 145 291 173 299 C 201 307 233 311 269 311 C 295 311 323 308 351 302 C 379 296 402 286 420 274 L 420 327 C 420 356 408 377 385 391 C 362 404 333 411 299 411 C 280 411 261 409 243 405 C 224 401 206 396 190 390 C 173 384 158 378 144 371 C 130 364 119 358 111 352 L 75 437 Z M 258 76 C 280 76 301 79 320 85 C 338 91 355 98 369 106 C 383 114 394 121 403 129 C 411 137 417 142 420 145 L 420 194 C 408 202 391 210 367 218 C 343 226 316 230 286 230 C 235 230 200 223 180 209 C 160 195 150 177 150 156 C 150 133 159 114 178 99 C 196 83 223 76 258 76 Z M 235 644 C 235 628 241 615 253 605 C 265 595 280 590 299 590 C 318 590 334 595 346 605 C 358 615 364 628 364 644 C 364 661 358 675 346 687 C 334 698 318 704 299 704 C 280 704 265 698 253 687 C 241 675 235 661 235 644 Z M 173 644 C 173 672 183 696 205 717 C 226 738 257 749 299 749 C 340 749 372 738 394 717 C 416 696 427 672 427 644 C 427 616 416 592 394 572 C 372 552 340 543 299 543 C 257 543 226 552 205 572 C 183 592 173 616 173 644 Z" unicode="" horiz-adv-x="605" />
<glyph d="M 258 76 C 278 76 297 78 314 82 C 331 86 346 92 360 100 C 374 107 386 115 398 125 C 409 134 420 144 431 154 C 429 159 428 165 426 173 C 424 181 422 187 421 193 C 405 203 386 211 365 219 C 344 226 318 230 286 230 C 235 230 200 223 180 209 C 160 195 150 177 150 156 C 150 133 159 114 178 99 C 196 83 223 76 258 76 Z M 667 -15 C 623 -15 584 -6 550 11 C 516 29 488 53 467 83 C 437 51 403 26 363 10 C 323 -6 280 -15 236 -15 C 207 -15 181 -10 158 -2 C 134 6 114 18 98 34 C 81 49 68 67 59 88 C 50 108 46 131 46 156 C 46 177 50 197 60 216 C 70 235 84 252 103 266 C 122 280 145 291 173 299 C 201 307 233 311 269 311 C 282 311 296 310 311 308 C 325 306 340 304 354 301 C 368 298 381 294 393 290 C 405 285 416 280 425 274 L 425 327 C 425 341 421 354 415 365 C 408 375 399 384 388 391 C 376 397 363 402 348 406 C 332 409 316 411 299 411 C 280 411 261 409 243 405 C 224 401 206 396 190 390 C 173 384 158 378 144 371 C 130 364 119 358 111 352 L 75 437 C 85 443 99 450 115 458 C 131 465 148 472 168 478 C 188 484 209 489 232 493 C 255 497 279 499 304 499 C 322 499 342 497 362 495 C 382 493 400 488 418 482 C 435 475 450 466 463 455 C 476 444 486 430 492 412 L 493 409 C 510 436 535 458 567 474 C 599 490 633 499 667 499 C 699 499 731 493 762 483 C 793 473 820 456 844 434 C 868 412 886 383 899 348 C 912 312 917 269 914 219 L 523 219 C 523 207 526 194 531 180 C 540 150 556 126 580 106 C 604 86 633 76 667 76 C 705 76 737 82 764 94 C 790 106 813 122 832 142 L 901 75 C 875 49 842 28 803 11 C 764 -6 719 -15 667 -15 Z M 801 300 C 801 319 797 336 789 350 C 781 364 770 375 758 385 C 746 394 732 401 716 406 C 700 410 683 413 667 413 C 628 413 597 402 574 382 C 551 361 535 334 526 300 L 801 300 Z" unicode="" horiz-adv-x="965" />
<glyph d="M 448 351 C 428 370 406 384 382 394 C 358 403 334 408 310 408 C 290 408 271 404 253 396 C 235 388 220 377 207 363 C 194 348 184 330 176 310 C 168 290 165 267 165 243 C 165 217 169 194 177 174 C 185 153 195 135 209 121 C 223 106 239 95 257 87 C 275 79 295 76 316 76 C 346 76 373 82 397 95 C 421 108 442 124 460 142 L 529 77 C 524 71 516 63 505 53 C 493 43 479 34 462 25 C 445 15 425 7 402 0 C 378 -8 352 -12 324 -14 L 306 -54 C 311 -52 316 -51 321 -50 C 325 -49 330 -49 336 -49 C 348 -49 361 -50 373 -54 C 385 -57 396 -62 406 -69 C 416 -75 424 -84 430 -94 C 436 -104 439 -115 439 -129 C 439 -143 435 -157 427 -169 C 419 -181 407 -191 393 -199 C 378 -207 361 -214 341 -219 C 321 -223 299 -226 275 -226 C 249 -226 224 -223 201 -219 C 177 -214 154 -209 132 -204 L 148 -147 C 168 -151 189 -154 210 -158 C 230 -162 250 -164 270 -164 C 293 -164 311 -161 325 -155 C 339 -149 346 -140 346 -128 C 346 -116 341 -109 331 -106 C 321 -102 310 -101 299 -101 C 290 -101 282 -101 275 -102 C 268 -103 262 -104 256 -106 L 229 -74 L 259 -11 C 229 -6 202 3 177 17 C 152 31 130 49 112 71 C 93 93 78 118 68 147 C 57 176 52 208 52 243 C 52 281 58 316 72 348 C 86 379 104 406 128 428 C 151 450 178 468 210 480 C 241 492 274 499 310 499 C 347 499 383 492 419 480 C 455 467 487 447 517 420 L 448 351 Z" unicode="" horiz-adv-x="564" />
<glyph d="M 533 75 C 506 49 472 28 430 11 C 388 -6 343 -15 295 -15 C 256 -15 221 -8 191 5 C 161 18 135 36 115 59 C 94 82 78 109 68 140 C 57 170 52 203 52 238 C 52 274 58 308 70 340 C 82 372 100 399 122 423 C 144 446 170 464 201 478 C 232 492 266 499 304 499 C 332 499 361 494 390 485 C 419 475 445 461 469 441 C 492 421 511 395 525 363 C 539 331 547 292 547 248 C 547 243 547 238 547 234 C 547 229 546 224 546 219 L 156 219 C 158 199 162 180 169 163 C 176 145 186 130 198 117 C 210 104 226 94 244 87 C 262 79 282 76 306 76 C 336 76 365 82 393 94 C 421 106 444 122 464 142 L 533 75 Z M 299 413 C 261 413 231 402 209 380 C 186 358 170 332 162 300 L 433 300 C 433 319 429 336 421 350 C 413 364 402 375 390 385 C 377 394 363 401 347 406 C 331 410 315 413 299 413 Z M 291 697 L 371 551 L 278 551 L 172 697 L 291 697 Z" unicode="" horiz-adv-x="597" />
<glyph d="M 533 75 C 506 49 472 28 430 11 C 388 -6 343 -15 295 -15 C 256 -15 221 -8 191 5 C 161 18 135 36 115 59 C 94 82 78 109 68 140 C 57 170 52 203 52 238 C 52 274 58 308 70 340 C 82 372 100 399 122 423 C 144 446 170 464 201 478 C 232 492 266 499 304 499 C 332 499 361 494 390 485 C 419 475 445 461 469 441 C 492 421 511 395 525 363 C 539 331 547 292 547 248 C 547 243 547 238 547 234 C 547 229 546 224 546 219 L 156 219 C 158 199 162 180 169 163 C 176 145 186 130 198 117 C 210 104 226 94 244 87 C 262 79 282 76 306 76 C 336 76 365 82 393 94 C 421 106 444 122 464 142 L 533 75 Z M 299 413 C 261 413 231 402 209 380 C 186 358 170 332 162 300 L 433 300 C 433 319 429 336 421 350 C 413 364 402 375 390 385 C 377 394 363 401 347 406 C 331 410 315 413 299 413 Z M 434 697 L 328 551 L 235 551 L 315 697 L 434 697 Z" unicode="" horiz-adv-x="597" />
<glyph d="M 533 75 C 506 49 472 28 430 11 C 388 -6 343 -15 295 -15 C 256 -15 221 -8 191 5 C 161 18 135 36 115 59 C 94 82 78 109 68 140 C 57 170 52 203 52 238 C 52 274 58 308 70 340 C 82 372 100 399 122 423 C 144 446 170 464 201 478 C 232 492 266 499 304 499 C 332 499 361 494 390 485 C 419 475 445 461 469 441 C 492 421 511 395 525 363 C 539 331 547 292 547 248 C 547 243 547 238 547 234 C 547 229 546 224 546 219 L 156 219 C 158 199 162 180 169 163 C 176 145 186 130 198 117 C 210 104 226 94 244 87 C 262 79 282 76 306 76 C 336 76 365 82 393 94 C 421 106 444 122 464 142 L 533 75 Z M 299 413 C 261 413 231 402 209 380 C 186 358 170 332 162 300 L 433 300 C 433 319 429 336 421 350 C 413 364 402 375 390 385 C 377 394 363 401 347 406 C 331 410 315 413 299 413 Z M 245 688 L 361 688 L 463 552 L 380 552 L 303 630 L 225 552 L 142 552 L 245 688 Z" unicode="" horiz-adv-x="597" />
<glyph d="M 533 75 C 506 49 472 28 430 11 C 388 -6 343 -15 295 -15 C 256 -15 221 -8 191 5 C 161 18 135 36 115 59 C 94 82 78 109 68 140 C 57 170 52 203 52 238 C 52 274 58 308 70 340 C 82 372 100 399 122 423 C 144 446 170 464 201 478 C 232 492 266 499 304 499 C 332 499 361 494 390 485 C 419 475 445 461 469 441 C 492 421 511 395 525 363 C 539 331 547 292 547 248 C 547 243 547 238 547 234 C 547 229 546 224 546 219 L 156 219 C 158 199 162 180 169 163 C 176 145 186 130 198 117 C 210 104 226 94 244 87 C 262 79 282 76 306 76 C 336 76 365 82 393 94 C 421 106 444 122 464 142 L 533 75 Z M 299 413 C 261 413 231 402 209 380 C 186 358 170 332 162 300 L 433 300 C 433 319 429 336 421 350 C 413 364 402 375 390 385 C 377 394 363 401 347 406 C 331 410 315 413 299 413 Z M 135 617 C 135 632 140 645 152 657 C 164 668 178 674 196 674 C 213 674 228 668 240 657 C 252 645 258 632 258 617 C 258 601 252 587 240 577 C 228 566 213 561 196 561 C 178 561 164 566 152 577 C 140 587 135 601 135 617 Z M 347 617 C 347 632 352 645 364 657 C 376 668 390 674 408 674 C 425 674 440 668 452 657 C 464 645 470 632 470 617 C 470 601 464 587 452 577 C 440 566 425 561 408 561 C 390 561 376 566 364 577 C 352 587 347 601 347 617 Z" unicode="" horiz-adv-x="597" />
<glyph d="M 86 0 L 86 483 L 189 483 L 189 0 L 86 0 Z M 126 697 L 206 551 L 113 551 L 7 697 L 126 697 Z" unicode="" horiz-adv-x="275" />
<glyph d="M 86 0 L 86 483 L 189 483 L 189 0 L 86 0 Z M 269 697 L 163 551 L 70 551 L 150 697 L 269 697 Z" unicode="" horiz-adv-x="275" />
<glyph d="M 86 0 L 86 483 L 189 483 L 189 0 L 86 0 Z M 80 688 L 196 688 L 298 552 L 215 552 L 138 630 L 60 552 L -23 552 L 80 688 Z" unicode="" horiz-adv-x="275" />
<glyph d="M 86 0 L 86 483 L 189 483 L 189 0 L 86 0 Z M -30 617 C -30 632 -24 645 -12 657 C 0 668 13 674 31 674 C 48 674 63 668 75 657 C 87 645 93 632 93 617 C 93 601 87 587 75 577 C 63 566 48 561 31 561 C 13 561 0 566 -12 577 C -24 587 -30 601 -30 617 Z M 182 617 C 182 632 187 645 199 657 C 211 668 225 674 243 674 C 260 674 275 668 287 657 C 299 645 305 632 305 617 C 305 601 299 587 287 577 C 275 566 260 561 243 561 C 225 561 211 566 199 577 C 187 587 182 601 182 617 Z" unicode="" horiz-adv-x="275" />
<glyph d="M 150 581 L 270 623 C 254 635 239 647 223 659 C 207 670 191 680 176 690 L 292 710 C 303 702 315 693 327 685 C 339 676 351 667 364 657 L 491 702 L 515 633 L 425 601 C 443 583 460 562 476 540 C 492 517 506 492 518 464 C 530 436 540 406 547 372 C 554 338 558 301 558 261 C 558 215 551 175 538 141 C 524 107 507 78 485 56 C 461 32 433 14 401 2 C 369 -9 337 -15 303 -15 C 268 -15 235 -8 205 4 C 175 17 148 35 126 57 C 103 79 85 105 72 135 C 59 165 53 197 53 231 C 53 266 59 299 71 329 C 83 359 99 386 119 408 C 139 430 163 447 191 460 C 218 472 247 479 279 479 C 315 479 345 472 370 458 C 395 444 416 429 433 412 C 423 439 410 466 392 492 C 374 518 354 544 331 568 L 174 512 L 150 581 Z M 161 233 C 161 211 164 190 171 171 C 177 152 187 136 199 122 C 211 108 225 96 243 88 C 260 80 279 76 301 76 C 322 76 342 79 360 87 C 378 95 393 105 407 119 C 421 133 432 150 440 170 C 448 189 452 210 452 233 C 452 254 448 274 441 293 C 433 312 423 329 410 343 C 396 357 380 368 362 376 C 343 384 322 388 300 388 C 278 388 259 384 242 376 C 225 368 211 357 199 343 C 187 329 177 312 171 293 C 164 274 161 254 161 233 Z" unicode="" horiz-adv-x="626" />
<glyph d="M 179 412 C 187 422 197 433 207 444 C 217 454 229 464 242 472 C 255 480 269 486 285 491 C 301 496 319 499 339 499 C 365 499 389 494 412 486 C 434 477 454 465 471 450 C 487 435 500 417 510 396 C 520 374 525 351 525 327 L 525 0 L 421 0 L 421 327 C 421 349 411 368 393 384 C 375 400 351 408 322 408 C 292 408 266 400 245 384 C 223 368 205 350 190 331 L 190 0 L 87 0 L 87 350 C 87 371 86 393 84 415 C 82 437 79 459 75 483 L 169 483 C 172 470 174 458 175 448 C 176 438 177 426 179 412 Z M 121 587 C 140 619 158 642 176 655 C 194 668 213 675 235 675 C 249 675 261 672 272 668 C 283 663 294 657 306 649 C 315 642 324 636 333 631 C 342 625 351 623 361 623 C 373 623 383 627 392 637 C 400 646 409 656 417 668 L 479 634 C 462 604 444 581 426 567 C 408 552 387 545 365 545 C 351 545 339 547 327 552 C 315 556 304 562 295 569 C 284 576 275 582 267 588 C 259 594 250 597 241 597 C 229 597 219 592 211 582 C 203 572 195 561 188 551 L 121 587 Z" unicode="" horiz-adv-x="605" />
<glyph d="M 52 243 C 52 278 58 311 70 343 C 82 374 100 401 122 424 C 144 447 171 465 203 479 C 235 492 270 499 308 499 C 346 499 381 492 413 479 C 445 465 472 447 495 424 C 517 401 535 374 547 343 C 559 311 566 278 566 243 C 566 207 559 173 547 141 C 535 109 517 82 495 59 C 472 36 445 18 413 5 C 381 -8 346 -15 308 -15 C 270 -15 235 -8 203 5 C 171 18 144 36 122 59 C 100 82 82 109 70 141 C 58 173 52 207 52 243 Z M 159 243 C 159 219 162 197 169 177 C 175 156 185 138 198 122 C 210 106 226 94 245 85 C 263 75 284 71 308 71 C 332 71 353 75 372 85 C 390 94 406 106 419 122 C 432 138 442 156 449 177 C 456 197 460 219 460 243 C 460 265 456 287 449 307 C 442 327 432 345 419 361 C 406 377 390 389 372 399 C 353 408 332 413 308 413 C 284 413 263 408 245 399 C 226 389 210 377 198 361 C 185 345 175 327 169 307 C 162 287 159 265 159 243 Z M 297 697 L 377 551 L 284 551 L 178 697 L 297 697 Z" unicode="" horiz-adv-x="618" />
<glyph d="M 52 243 C 52 278 58 311 70 343 C 82 374 100 401 122 424 C 144 447 171 465 203 479 C 235 492 270 499 308 499 C 346 499 381 492 413 479 C 445 465 472 447 495 424 C 517 401 535 374 547 343 C 559 311 566 278 566 243 C 566 207 559 173 547 141 C 535 109 517 82 495 59 C 472 36 445 18 413 5 C 381 -8 346 -15 308 -15 C 270 -15 235 -8 203 5 C 171 18 144 36 122 59 C 100 82 82 109 70 141 C 58 173 52 207 52 243 Z M 159 243 C 159 219 162 197 169 177 C 175 156 185 138 198 122 C 210 106 226 94 245 85 C 263 75 284 71 308 71 C 332 71 353 75 372 85 C 390 94 406 106 419 122 C 432 138 442 156 449 177 C 456 197 460 219 460 243 C 460 265 456 287 449 307 C 442 327 432 345 419 361 C 406 377 390 389 372 399 C 353 408 332 413 308 413 C 284 413 263 408 245 399 C 226 389 210 377 198 361 C 185 345 175 327 169 307 C 162 287 159 265 159 243 Z M 440 697 L 334 551 L 241 551 L 321 697 L 440 697 Z" unicode="" horiz-adv-x="618" />
<glyph d="M 52 243 C 52 278 58 311 70 343 C 82 374 100 401 122 424 C 144 447 171 465 203 479 C 235 492 270 499 308 499 C 346 499 381 492 413 479 C 445 465 472 447 495 424 C 517 401 535 374 547 343 C 559 311 566 278 566 243 C 566 207 559 173 547 141 C 535 109 517 82 495 59 C 472 36 445 18 413 5 C 381 -8 346 -15 308 -15 C 270 -15 235 -8 203 5 C 171 18 144 36 122 59 C 100 82 82 109 70 141 C 58 173 52 207 52 243 Z M 159 243 C 159 219 162 197 169 177 C 175 156 185 138 198 122 C 210 106 226 94 245 85 C 263 75 284 71 308 71 C 332 71 353 75 372 85 C 390 94 406 106 419 122 C 432 138 442 156 449 177 C 456 197 460 219 460 243 C 460 265 456 287 449 307 C 442 327 432 345 419 361 C 406 377 390 389 372 399 C 353 408 332 413 308 413 C 284 413 263 408 245 399 C 226 389 210 377 198 361 C 185 345 175 327 169 307 C 162 287 159 265 159 243 Z M 251 688 L 367 688 L 469 552 L 386 552 L 309 630 L 231 552 L 148 552 L 251 688 Z" unicode="" horiz-adv-x="618" />
<glyph d="M 52 243 C 52 278 58 311 70 343 C 82 374 100 401 122 424 C 144 447 171 465 203 479 C 235 492 270 499 308 499 C 346 499 381 492 413 479 C 445 465 472 447 495 424 C 517 401 535 374 547 343 C 559 311 566 278 566 243 C 566 207 559 173 547 141 C 535 109 517 82 495 59 C 472 36 445 18 413 5 C 381 -8 346 -15 308 -15 C 270 -15 235 -8 203 5 C 171 18 144 36 122 59 C 100 82 82 109 70 141 C 58 173 52 207 52 243 Z M 159 243 C 159 219 162 197 169 177 C 175 156 185 138 198 122 C 210 106 226 94 245 85 C 263 75 284 71 308 71 C 332 71 353 75 372 85 C 390 94 406 106 419 122 C 432 138 442 156 449 177 C 456 197 460 219 460 243 C 460 265 456 287 449 307 C 442 327 432 345 419 361 C 406 377 390 389 372 399 C 353 408 332 413 308 413 C 284 413 263 408 245 399 C 226 389 210 377 198 361 C 185 345 175 327 169 307 C 162 287 159 265 159 243 Z M 128 587 C 147 619 165 642 183 655 C 201 668 220 675 242 675 C 256 675 268 672 279 668 C 290 663 301 657 313 649 C 322 642 331 636 340 631 C 349 625 358 623 368 623 C 380 623 390 627 399 637 C 407 646 416 656 424 668 L 486 634 C 469 604 451 581 433 567 C 415 552 394 545 372 545 C 358 545 346 547 334 552 C 322 556 311 562 302 569 C 291 576 282 582 274 588 C 266 594 257 597 248 597 C 236 597 226 592 218 582 C 210 572 202 561 195 551 L 128 587 Z" unicode="" horiz-adv-x="618" />
<glyph d="M 52 243 C 52 278 58 311 70 343 C 82 374 100 401 122 424 C 144 447 171 465 203 479 C 235 492 270 499 308 499 C 346 499 381 492 413 479 C 445 465 472 447 495 424 C 517 401 535 374 547 343 C 559 311 566 278 566 243 C 566 207 559 173 547 141 C 535 109 517 82 495 59 C 472 36 445 18 413 5 C 381 -8 346 -15 308 -15 C 270 -15 235 -8 203 5 C 171 18 144 36 122 59 C 100 82 82 109 70 141 C 58 173 52 207 52 243 Z M 159 243 C 159 219 162 197 169 177 C 175 156 185 138 198 122 C 210 106 226 94 245 85 C 263 75 284 71 308 71 C 332 71 353 75 372 85 C 390 94 406 106 419 122 C 432 138 442 156 449 177 C 456 197 460 219 460 243 C 460 265 456 287 449 307 C 442 327 432 345 419 361 C 406 377 390 389 372 399 C 353 408 332 413 308 413 C 284 413 263 408 245 399 C 226 389 210 377 198 361 C 185 345 175 327 169 307 C 162 287 159 265 159 243 Z M 141 617 C 141 632 146 645 158 657 C 170 668 184 674 202 674 C 219 674 234 668 246 657 C 258 645 264 632 264 617 C 264 601 258 587 246 577 C 234 566 219 561 202 561 C 184 561 170 566 158 577 C 146 587 141 601 141 617 Z M 353 617 C 353 632 358 645 370 657 C 382 668 396 674 414 674 C 431 674 446 668 458 657 C 470 645 476 632 476 617 C 476 601 470 587 458 577 C 446 566 431 561 414 561 C 396 561 382 566 370 577 C 358 587 353 601 353 617 Z" unicode="" horiz-adv-x="618" />
<glyph d="M 90 305 L 666 305 L 666 213 L 90 213 L 90 305 Z M 305 63 C 305 81 312 97 326 111 C 340 124 357 131 379 131 C 400 131 418 124 432 111 C 446 97 453 81 453 63 C 453 43 446 27 432 15 C 418 2 400 -4 379 -4 C 357 -4 340 2 326 15 C 312 27 305 43 305 63 Z M 305 454 C 305 473 312 489 326 502 C 340 515 357 522 379 522 C 400 522 418 515 432 502 C 446 489 453 473 453 454 C 453 435 446 419 432 406 C 418 393 400 387 379 387 C 357 387 340 393 326 406 C 312 419 305 435 305 454 Z" unicode="" horiz-adv-x="757" />
<glyph d="M 52 243 C 52 278 58 311 70 343 C 82 374 100 401 122 424 C 144 447 171 465 203 479 C 235 492 270 499 308 499 C 330 499 351 496 371 492 C 391 487 410 480 428 472 L 478 544 L 536 504 L 486 432 C 511 408 531 380 545 348 C 559 316 566 281 566 243 C 566 207 559 173 547 141 C 535 109 517 82 495 59 C 472 36 445 18 413 5 C 381 -8 346 -15 308 -15 C 286 -15 265 -12 245 -8 C 225 -3 207 3 190 11 L 140 -60 L 82 -20 L 132 51 C 106 74 87 102 73 135 C 59 167 52 203 52 243 Z M 460 243 C 460 283 449 319 428 350 L 242 86 C 260 76 282 71 308 71 C 332 71 353 75 372 85 C 390 94 406 106 419 122 C 432 138 442 156 449 177 C 456 197 460 219 460 243 Z M 159 243 C 159 200 169 163 190 133 L 375 397 C 355 407 332 413 308 413 C 284 413 263 408 245 399 C 226 389 210 377 198 361 C 185 345 175 327 169 307 C 162 287 159 265 159 243 Z" unicode="" horiz-adv-x="618" />
<glyph d="M 424 71 C 414 59 405 48 395 38 C 385 28 373 19 361 11 C 348 3 334 -3 318 -8 C 302 -12 285 -15 265 -15 C 239 -15 214 -10 192 -2 C 169 5 149 17 133 33 C 116 48 103 66 93 87 C 83 107 79 130 79 156 L 79 483 L 183 483 L 183 156 C 183 134 192 115 210 99 C 228 83 252 75 282 75 C 312 75 337 83 359 99 C 380 115 398 132 414 152 L 414 483 L 517 483 L 517 133 C 517 111 517 90 518 68 C 518 46 521 23 526 0 L 431 0 C 428 10 426 22 425 35 C 424 48 424 60 424 71 Z M 290 697 L 370 551 L 277 551 L 171 697 L 290 697 Z" unicode="" horiz-adv-x="604" />
<glyph d="M 424 71 C 414 59 405 48 395 38 C 385 28 373 19 361 11 C 348 3 334 -3 318 -8 C 302 -12 285 -15 265 -15 C 239 -15 214 -10 192 -2 C 169 5 149 17 133 33 C 116 48 103 66 93 87 C 83 107 79 130 79 156 L 79 483 L 183 483 L 183 156 C 183 134 192 115 210 99 C 228 83 252 75 282 75 C 312 75 337 83 359 99 C 380 115 398 132 414 152 L 414 483 L 517 483 L 517 133 C 517 111 517 90 518 68 C 518 46 521 23 526 0 L 431 0 C 428 10 426 22 425 35 C 424 48 424 60 424 71 Z M 433 697 L 327 551 L 234 551 L 314 697 L 433 697 Z" unicode="" horiz-adv-x="604" />
<glyph d="M 424 71 C 414 59 405 48 395 38 C 385 28 373 19 361 11 C 348 3 334 -3 318 -8 C 302 -12 285 -15 265 -15 C 239 -15 214 -10 192 -2 C 169 5 149 17 133 33 C 116 48 103 66 93 87 C 83 107 79 130 79 156 L 79 483 L 183 483 L 183 156 C 183 134 192 115 210 99 C 228 83 252 75 282 75 C 312 75 337 83 359 99 C 380 115 398 132 414 152 L 414 483 L 517 483 L 517 133 C 517 111 517 90 518 68 C 518 46 521 23 526 0 L 431 0 C 428 10 426 22 425 35 C 424 48 424 60 424 71 Z M 244 688 L 360 688 L 462 552 L 379 552 L 302 630 L 224 552 L 141 552 L 244 688 Z" unicode="" horiz-adv-x="604" />
<glyph d="M 424 71 C 414 59 405 48 395 38 C 385 28 373 19 361 11 C 348 3 334 -3 318 -8 C 302 -12 285 -15 265 -15 C 239 -15 214 -10 192 -2 C 169 5 149 17 133 33 C 116 48 103 66 93 87 C 83 107 79 130 79 156 L 79 483 L 183 483 L 183 156 C 183 134 192 115 210 99 C 228 83 252 75 282 75 C 312 75 337 83 359 99 C 380 115 398 132 414 152 L 414 483 L 517 483 L 517 133 C 517 111 517 90 518 68 C 518 46 521 23 526 0 L 431 0 C 428 10 426 22 425 35 C 424 48 424 60 424 71 Z M 134 617 C 134 632 139 645 151 657 C 163 668 177 674 195 674 C 212 674 227 668 239 657 C 251 645 257 632 257 617 C 257 601 251 587 239 577 C 227 566 212 561 195 561 C 177 561 163 566 151 577 C 139 587 134 601 134 617 Z M 346 617 C 346 632 351 645 363 657 C 375 668 389 674 407 674 C 424 674 439 668 451 657 C 463 645 469 632 469 617 C 469 601 463 587 451 577 C 439 566 424 561 407 561 C 389 561 375 566 363 577 C 351 587 346 601 346 617 Z" unicode="" horiz-adv-x="604" />
<glyph d="M 285 148 L 435 483 L 540 483 L 211 -207 L 104 -207 L 226 34 L 24 483 L 141 483 L 279 148 L 285 148 Z M 412 697 L 306 551 L 213 551 L 293 697 L 412 697 Z" unicode="" horiz-adv-x="564" />
<glyph d="M 328 75 C 346 75 364 78 380 86 C 396 94 410 105 422 120 C 434 134 443 152 450 172 C 457 192 461 214 461 240 C 461 265 457 288 450 309 C 443 329 434 347 422 362 C 410 376 395 388 379 396 C 363 404 346 408 328 408 C 309 408 292 405 277 400 C 261 394 248 388 236 381 C 224 374 215 367 207 359 C 199 351 193 344 189 340 L 189 142 C 209 121 230 105 254 93 C 278 81 302 75 328 75 Z M 189 426 C 194 432 201 440 210 449 C 218 457 229 465 242 473 C 254 480 269 486 285 491 C 301 496 318 499 338 499 C 370 499 401 492 430 480 C 458 468 483 450 505 428 C 526 406 543 379 556 347 C 568 315 575 279 575 240 C 575 201 568 166 556 135 C 543 103 526 76 505 54 C 483 32 458 15 429 3 C 400 -9 370 -15 338 -15 C 282 -15 233 9 189 59 L 189 -207 L 86 -207 L 86 700 L 189 700 L 189 426 Z" unicode="" horiz-adv-x="628" />
<glyph d="M 285 148 L 435 483 L 540 483 L 211 -207 L 104 -207 L 226 34 L 24 483 L 141 483 L 279 148 L 285 148 Z M 113 617 C 113 632 118 645 130 657 C 142 668 156 674 174 674 C 191 674 206 668 218 657 C 230 645 236 632 236 617 C 236 601 230 587 218 577 C 206 566 191 561 174 561 C 156 561 142 566 130 577 C 118 587 113 601 113 617 Z M 325 617 C 325 632 330 645 342 657 C 354 668 368 674 386 674 C 403 674 418 668 430 657 C 442 645 448 632 448 617 C 448 601 442 587 430 577 C 418 566 403 561 386 561 C 368 561 354 566 342 577 C 330 587 325 601 325 617 Z" unicode="" horiz-adv-x="564" />
<glyph d="M 327 653 L 429 653 L 732 0 L 609 0 L 530 176 L 219 176 L 141 0 L 24 0 L 327 653 Z M 259 266 L 490 266 L 378 519 L 372 519 L 259 266 Z M 508 835 L 508 755 L 247 755 L 247 835 L 508 835 Z" unicode="" horiz-adv-x="756" />
<glyph d="M 75 437 C 85 443 99 450 115 458 C 131 465 148 472 168 478 C 188 484 209 489 232 493 C 255 497 279 499 304 499 C 331 499 358 496 384 491 C 410 486 434 478 454 467 C 474 456 491 442 504 424 C 516 406 523 383 523 357 L 523 87 C 523 74 523 60 525 44 C 527 28 530 13 536 0 L 432 0 C 428 7 426 16 424 28 C 422 40 421 50 420 60 C 410 52 400 43 388 35 C 376 27 363 19 348 13 C 333 6 316 0 298 -3 C 280 -7 259 -10 236 -10 C 207 -10 181 -6 158 2 C 134 10 114 21 98 36 C 81 50 68 68 59 88 C 50 108 46 131 46 156 C 46 177 50 197 60 216 C 70 235 84 252 103 266 C 122 280 145 291 173 299 C 201 307 233 311 269 311 C 295 311 323 308 351 302 C 379 296 402 286 420 274 L 420 327 C 420 356 408 377 385 391 C 362 404 333 411 299 411 C 280 411 261 409 243 405 C 224 401 206 396 190 390 C 173 384 158 378 144 371 C 130 364 119 358 111 352 L 75 437 Z M 258 76 C 280 76 301 79 320 85 C 338 91 355 98 369 106 C 383 114 394 121 403 129 C 411 137 417 142 420 145 L 420 194 C 408 202 391 210 367 218 C 343 226 316 230 286 230 C 235 230 200 223 180 209 C 160 195 150 177 150 156 C 150 133 159 114 178 99 C 196 83 223 76 258 76 Z M 432 657 L 432 577 L 171 577 L 171 657 L 432 657 Z" unicode="" horiz-adv-x="605" />
<glyph d="M 327 653 L 429 653 L 732 0 L 609 0 L 530 176 L 219 176 L 141 0 L 24 0 L 327 653 Z M 259 266 L 490 266 L 378 519 L 372 519 L 259 266 Z M 303 861 C 303 853 304 844 306 836 C 308 828 311 820 317 814 C 322 807 330 801 340 797 C 350 793 362 791 378 791 C 393 791 405 793 415 797 C 425 801 432 807 438 814 C 444 820 448 828 450 836 C 452 844 453 853 453 861 L 527 861 C 527 845 525 829 521 813 C 517 797 509 782 498 768 C 487 754 472 743 453 734 C 433 725 408 721 378 721 C 347 721 322 725 303 734 C 283 743 268 754 257 768 C 246 782 238 797 234 813 C 230 829 228 845 228 861 L 303 861 Z" unicode="" horiz-adv-x="756" />
<glyph d="M 75 437 C 85 443 99 450 115 458 C 131 465 148 472 168 478 C 188 484 209 489 232 493 C 255 497 279 499 304 499 C 331 499 358 496 384 491 C 410 486 434 478 454 467 C 474 456 491 442 504 424 C 516 406 523 383 523 357 L 523 87 C 523 74 523 60 525 44 C 527 28 530 13 536 0 L 432 0 C 428 7 426 16 424 28 C 422 40 421 50 420 60 C 410 52 400 43 388 35 C 376 27 363 19 348 13 C 333 6 316 0 298 -3 C 280 -7 259 -10 236 -10 C 207 -10 181 -6 158 2 C 134 10 114 21 98 36 C 81 50 68 68 59 88 C 50 108 46 131 46 156 C 46 177 50 197 60 216 C 70 235 84 252 103 266 C 122 280 145 291 173 299 C 201 307 233 311 269 311 C 295 311 323 308 351 302 C 379 296 402 286 420 274 L 420 327 C 420 356 408 377 385 391 C 362 404 333 411 299 411 C 280 411 261 409 243 405 C 224 401 206 396 190 390 C 173 384 158 378 144 371 C 130 364 119 358 111 352 L 75 437 Z M 258 76 C 280 76 301 79 320 85 C 338 91 355 98 369 106 C 383 114 394 121 403 129 C 411 137 417 142 420 145 L 420 194 C 408 202 391 210 367 218 C 343 226 316 230 286 230 C 235 230 200 223 180 209 C 160 195 150 177 150 156 C 150 133 159 114 178 99 C 196 83 223 76 258 76 Z M 227 686 C 227 677 228 668 230 660 C 232 651 235 643 241 636 C 246 629 254 623 264 619 C 274 615 286 613 302 613 C 317 613 329 615 339 619 C 349 623 356 629 362 636 C 368 643 372 651 374 660 C 376 668 377 677 377 686 L 451 686 C 451 670 449 654 445 637 C 441 620 433 605 422 591 C 411 577 396 565 377 556 C 357 547 332 543 302 543 C 271 543 246 547 227 556 C 207 565 192 577 181 591 C 170 605 162 620 158 637 C 154 654 152 670 152 686 L 227 686 Z" unicode="" horiz-adv-x="605" />
<glyph d="M 327 653 L 429 653 L 732 0 L 695 0 C 687 -3 676 -8 664 -14 C 652 -20 640 -28 628 -37 C 616 -46 606 -56 598 -68 C 590 -79 586 -92 586 -106 C 586 -122 592 -135 604 -144 C 616 -153 633 -158 655 -158 C 664 -158 674 -157 684 -155 C 694 -153 705 -152 717 -150 L 726 -214 C 710 -218 695 -221 680 -223 C 664 -225 650 -226 637 -226 C 593 -226 558 -216 533 -198 C 508 -180 496 -156 496 -126 C 496 -110 499 -95 506 -81 C 512 -67 521 -55 532 -44 C 542 -33 554 -23 567 -14 C 580 -5 593 2 605 8 L 530 176 L 219 176 L 141 0 L 24 0 L 327 653 Z M 259 266 L 490 266 L 378 519 L 372 519 L 259 266 Z" unicode="" horiz-adv-x="756" />
<glyph d="M 75 437 C 85 443 99 450 115 458 C 131 465 148 472 168 478 C 188 484 209 489 232 493 C 255 497 279 499 304 499 C 331 499 358 496 384 491 C 410 486 434 478 454 467 C 474 456 491 442 504 424 C 516 406 523 383 523 357 L 523 87 C 523 74 523 60 525 44 C 527 28 530 13 536 0 C 528 -3 517 -8 505 -14 C 493 -20 481 -28 469 -37 C 457 -46 447 -56 439 -68 C 431 -79 427 -92 427 -106 C 427 -122 433 -135 445 -144 C 457 -153 474 -158 496 -158 C 505 -158 515 -157 525 -155 C 535 -153 546 -152 558 -150 L 567 -214 C 551 -218 536 -221 521 -223 C 505 -225 491 -226 478 -226 C 434 -226 399 -216 374 -198 C 349 -180 337 -156 337 -126 C 337 -112 339 -98 345 -86 C 351 -74 358 -62 367 -52 C 376 -41 386 -31 398 -23 C 409 -14 420 -6 432 0 C 428 7 426 16 424 28 C 422 40 421 50 420 60 C 410 52 400 43 388 35 C 376 27 363 19 348 13 C 333 6 316 0 298 -3 C 280 -7 259 -10 236 -10 C 207 -10 181 -6 158 2 C 134 10 114 21 98 36 C 81 50 68 68 59 88 C 50 108 46 131 46 156 C 46 177 50 197 60 216 C 70 235 84 252 103 266 C 122 280 145 291 173 299 C 201 307 233 311 269 311 C 295 311 323 308 351 302 C 379 296 402 286 420 274 L 420 327 C 420 356 408 377 385 391 C 362 404 333 411 299 411 C 280 411 261 409 243 405 C 224 401 206 396 190 390 C 173 384 158 378 144 371 C 130 364 119 358 111 352 L 75 437 Z M 258 76 C 280 76 301 79 320 85 C 338 91 355 98 369 106 C 383 114 394 121 403 129 C 411 137 417 142 420 145 L 420 194 C 408 202 391 210 367 218 C 343 226 316 230 286 230 C 235 230 200 223 180 209 C 160 195 150 177 150 156 C 150 133 159 114 178 99 C 196 83 223 76 258 76 Z" unicode="" horiz-adv-x="605" />
<glyph d="M 734 116 C 716 98 696 81 674 65 C 651 49 626 34 599 22 C 572 9 543 0 512 -8 C 480 -16 447 -20 412 -20 C 358 -20 309 -11 265 7 C 221 25 184 49 153 81 C 121 113 97 150 80 192 C 63 234 55 279 55 327 C 55 374 63 419 80 461 C 97 503 121 539 152 571 C 183 602 220 627 264 645 C 307 663 355 673 407 673 C 467 673 523 662 577 641 C 631 619 676 592 713 558 L 637 483 C 622 497 606 509 588 520 C 570 531 551 540 531 548 C 511 556 490 562 470 566 C 449 570 429 573 409 573 C 373 573 340 566 311 553 C 282 540 257 522 237 500 C 217 477 201 451 190 421 C 178 391 173 360 173 326 C 173 292 178 260 190 230 C 201 200 217 174 238 152 C 259 130 284 112 314 99 C 344 86 377 80 414 80 C 465 80 512 90 554 112 C 596 134 631 160 659 190 L 734 116 Z M 427 860 L 563 860 L 426 730 L 327 730 L 427 860 Z" unicode="" horiz-adv-x="771" />
<glyph d="M 448 351 C 428 370 406 384 382 394 C 358 403 334 408 310 408 C 290 408 271 404 253 396 C 235 388 220 377 207 363 C 194 348 184 330 176 310 C 168 290 165 267 165 243 C 165 217 169 194 177 174 C 185 153 195 135 209 121 C 223 106 239 95 257 87 C 275 79 295 76 316 76 C 346 76 373 82 397 95 C 421 108 442 124 460 142 L 529 77 C 523 71 515 62 503 52 C 491 42 475 32 457 22 C 438 12 416 3 391 -4 C 365 -11 337 -15 306 -15 C 272 -15 239 -9 208 3 C 177 15 150 32 127 55 C 104 77 86 104 72 136 C 58 168 52 203 52 243 C 52 281 58 316 72 348 C 86 379 104 406 128 428 C 151 450 178 468 210 480 C 241 492 274 499 310 499 C 347 499 383 492 419 480 C 455 467 487 447 517 420 L 448 351 Z M 441 697 L 335 551 L 242 551 L 322 697 L 441 697 Z" unicode="" horiz-adv-x="564" />
<glyph d="M 734 116 C 716 98 696 81 674 65 C 651 49 626 34 599 22 C 572 9 543 0 512 -8 C 480 -16 447 -20 412 -20 C 358 -20 309 -11 265 7 C 221 25 184 49 153 81 C 121 113 97 150 80 192 C 63 234 55 279 55 327 C 55 374 63 419 80 461 C 97 503 121 539 152 571 C 183 602 220 627 264 645 C 307 663 355 673 407 673 C 467 673 523 662 577 641 C 631 619 676 592 713 558 L 637 483 C 622 497 606 509 588 520 C 570 531 551 540 531 548 C 511 556 490 562 470 566 C 449 570 429 573 409 573 C 373 573 340 566 311 553 C 282 540 257 522 237 500 C 217 477 201 451 190 421 C 178 391 173 360 173 326 C 173 292 178 260 190 230 C 201 200 217 174 238 152 C 259 130 284 112 314 99 C 344 86 377 80 414 80 C 465 80 512 90 554 112 C 596 134 631 160 659 190 L 734 116 Z M 352 863 L 468 863 L 570 730 L 487 730 L 410 804 L 332 730 L 249 730 L 352 863 Z" unicode="" horiz-adv-x="771" />
<glyph d="M 448 351 C 428 370 406 384 382 394 C 358 403 334 408 310 408 C 290 408 271 404 253 396 C 235 388 220 377 207 363 C 194 348 184 330 176 310 C 168 290 165 267 165 243 C 165 217 169 194 177 174 C 185 153 195 135 209 121 C 223 106 239 95 257 87 C 275 79 295 76 316 76 C 346 76 373 82 397 95 C 421 108 442 124 460 142 L 529 77 C 523 71 515 62 503 52 C 491 42 475 32 457 22 C 438 12 416 3 391 -4 C 365 -11 337 -15 306 -15 C 272 -15 239 -9 208 3 C 177 15 150 32 127 55 C 104 77 86 104 72 136 C 58 168 52 203 52 243 C 52 281 58 316 72 348 C 86 379 104 406 128 428 C 151 450 178 468 210 480 C 241 492 274 499 310 499 C 347 499 383 492 419 480 C 455 467 487 447 517 420 L 448 351 Z M 252 688 L 368 688 L 470 552 L 387 552 L 310 630 L 232 552 L 149 552 L 252 688 Z" unicode="" horiz-adv-x="564" />
<glyph d="M 734 116 C 716 98 696 81 674 65 C 651 49 626 34 599 22 C 572 9 543 0 512 -8 C 480 -16 447 -20 412 -20 C 358 -20 309 -11 265 7 C 221 25 184 49 153 81 C 121 113 97 150 80 192 C 63 234 55 279 55 327 C 55 374 63 419 80 461 C 97 503 121 539 152 571 C 183 602 220 627 264 645 C 307 663 355 673 407 673 C 467 673 523 662 577 641 C 631 619 676 592 713 558 L 637 483 C 622 497 606 509 588 520 C 570 531 551 540 531 548 C 511 556 490 562 470 566 C 449 570 429 573 409 573 C 373 573 340 566 311 553 C 282 540 257 522 237 500 C 217 477 201 451 190 421 C 178 391 173 360 173 326 C 173 292 178 260 190 230 C 201 200 217 174 238 152 C 259 130 284 112 314 99 C 344 86 377 80 414 80 C 465 80 512 90 554 112 C 596 134 631 160 659 190 L 734 116 Z M 349 795 C 349 810 354 823 366 835 C 378 846 392 852 410 852 C 427 852 442 846 454 835 C 466 823 472 810 472 795 C 472 779 466 765 454 755 C 442 744 427 739 410 739 C 392 739 378 744 366 755 C 354 765 349 779 349 795 Z" unicode="" horiz-adv-x="771" />
<glyph d="M 448 351 C 428 370 406 384 382 394 C 358 403 334 408 310 408 C 290 408 271 404 253 396 C 235 388 220 377 207 363 C 194 348 184 330 176 310 C 168 290 165 267 165 243 C 165 217 169 194 177 174 C 185 153 195 135 209 121 C 223 106 239 95 257 87 C 275 79 295 76 316 76 C 346 76 373 82 397 95 C 421 108 442 124 460 142 L 529 77 C 523 71 515 62 503 52 C 491 42 475 32 457 22 C 438 12 416 3 391 -4 C 365 -11 337 -15 306 -15 C 272 -15 239 -9 208 3 C 177 15 150 32 127 55 C 104 77 86 104 72 136 C 58 168 52 203 52 243 C 52 281 58 316 72 348 C 86 379 104 406 128 428 C 151 450 178 468 210 480 C 241 492 274 499 310 499 C 347 499 383 492 419 480 C 455 467 487 447 517 420 L 448 351 Z M 249 617 C 249 632 254 645 266 657 C 278 668 292 674 310 674 C 327 674 342 668 354 657 C 366 645 372 632 372 617 C 372 601 366 587 354 577 C 342 566 327 561 310 561 C 292 561 278 566 266 577 C 254 587 249 601 249 617 Z" unicode="" horiz-adv-x="564" />
<glyph d="M 734 116 C 716 98 696 81 674 65 C 651 49 626 34 599 22 C 572 9 543 0 512 -8 C 480 -16 447 -20 412 -20 C 358 -20 309 -11 265 7 C 221 25 184 49 153 81 C 121 113 97 150 80 192 C 63 234 55 279 55 327 C 55 374 63 419 80 461 C 97 503 121 539 152 571 C 183 602 220 627 264 645 C 307 663 355 673 407 673 C 467 673 523 662 577 641 C 631 619 676 592 713 558 L 637 483 C 622 497 606 509 588 520 C 570 531 551 540 531 548 C 511 556 490 562 470 566 C 449 570 429 573 409 573 C 373 573 340 566 311 553 C 282 540 257 522 237 500 C 217 477 201 451 190 421 C 178 391 173 360 173 326 C 173 292 178 260 190 230 C 201 200 217 174 238 152 C 259 130 284 112 314 99 C 344 86 377 80 414 80 C 465 80 512 90 554 112 C 596 134 631 160 659 190 L 734 116 Z M 410 789 L 487 863 L 570 863 L 468 730 L 352 730 L 249 863 L 332 863 L 410 789 Z" unicode="" horiz-adv-x="771" />
<glyph d="M 448 351 C 428 370 406 384 382 394 C 358 403 334 408 310 408 C 290 408 271 404 253 396 C 235 388 220 377 207 363 C 194 348 184 330 176 310 C 168 290 165 267 165 243 C 165 217 169 194 177 174 C 185 153 195 135 209 121 C 223 106 239 95 257 87 C 275 79 295 76 316 76 C 346 76 373 82 397 95 C 421 108 442 124 460 142 L 529 77 C 523 71 515 62 503 52 C 491 42 475 32 457 22 C 438 12 416 3 391 -4 C 365 -11 337 -15 306 -15 C 272 -15 239 -9 208 3 C 177 15 150 32 127 55 C 104 77 86 104 72 136 C 58 168 52 203 52 243 C 52 281 58 316 72 348 C 86 379 104 406 128 428 C 151 450 178 468 210 480 C 241 492 274 499 310 499 C 347 499 383 492 419 480 C 455 467 487 447 517 420 L 448 351 Z M 232 689 L 310 611 L 387 689 L 470 689 L 368 552 L 252 552 L 149 689 L 232 689 Z" unicode="" horiz-adv-x="564" />
<glyph d="M 113 0 L 113 653 L 426 653 C 455 653 481 651 505 647 C 529 643 550 637 569 629 C 588 621 605 612 621 602 C 637 591 652 579 666 566 C 695 536 717 500 732 460 C 747 419 755 375 755 327 C 755 277 746 231 730 189 C 714 146 690 110 659 80 C 645 67 630 56 615 46 C 600 36 583 28 565 21 C 547 14 526 9 504 5 C 481 1 455 0 426 0 L 113 0 Z M 421 100 C 441 100 459 101 474 103 C 488 105 501 109 512 113 C 523 117 533 123 542 129 C 551 135 561 143 571 151 C 592 172 608 198 620 228 C 632 258 638 291 638 327 C 638 361 632 392 622 422 C 611 451 595 476 575 498 C 565 506 556 514 547 521 C 537 527 527 533 515 538 C 503 542 489 546 474 549 C 459 551 441 553 421 553 L 225 553 L 225 100 L 421 100 Z M 389 789 L 466 863 L 549 863 L 447 730 L 331 730 L 228 863 L 311 863 L 389 789 Z" unicode="" horiz-adv-x="815" />
<glyph d="M 456 0 C 453 10 451 21 450 33 C 449 45 449 56 449 67 C 443 59 436 50 426 40 C 416 30 404 22 390 14 C 376 6 361 0 344 -6 C 327 -12 309 -15 290 -15 C 257 -15 226 -9 198 3 C 169 15 144 32 122 55 C 100 77 83 104 71 136 C 59 168 53 203 53 243 C 53 281 59 316 72 348 C 84 379 101 406 123 428 C 144 450 169 468 198 480 C 227 492 258 499 290 499 C 317 499 343 493 369 482 C 394 471 417 455 439 434 L 439 700 L 542 700 L 542 133 C 542 111 542 90 543 68 C 543 46 546 23 551 0 L 456 0 Z M 439 341 C 419 361 397 378 373 390 C 349 402 325 408 300 408 C 281 408 264 404 248 396 C 232 388 218 377 206 363 C 194 348 184 330 177 310 C 170 290 167 267 167 243 C 167 217 170 194 177 174 C 184 153 194 135 206 121 C 218 106 232 95 248 87 C 264 79 282 75 300 75 C 318 75 335 77 351 83 C 366 88 379 94 391 101 C 403 108 413 115 421 123 C 429 131 435 137 439 143 L 439 341 Z M 608 474 L 608 700 L 711 700 C 711 653 707 612 701 577 C 694 542 682 508 666 474 L 608 474 Z" unicode="" horiz-adv-x="629" />
<glyph d="M 43 381 L 143 381 L 143 653 L 456 653 C 485 653 511 651 535 647 C 559 643 580 637 599 629 C 618 621 635 612 651 602 C 667 591 682 579 696 566 C 725 536 747 500 762 460 C 777 419 785 375 785 327 C 785 277 776 231 760 189 C 744 146 720 110 689 80 C 675 67 660 56 645 46 C 630 36 613 28 595 21 C 577 14 556 9 534 5 C 511 1 485 0 456 0 L 143 0 L 143 291 L 43 291 L 43 381 Z M 451 100 C 471 100 489 101 504 103 C 518 105 531 109 542 113 C 553 117 563 123 572 129 C 581 135 591 143 601 151 C 622 172 638 198 650 228 C 662 258 668 291 668 327 C 668 361 662 392 652 422 C 641 451 625 476 605 498 C 595 506 586 514 577 521 C 567 527 557 533 545 538 C 533 542 519 546 504 549 C 489 551 471 553 451 553 L 255 553 L 255 381 L 447 381 L 447 291 L 255 291 L 255 100 L 451 100 Z" unicode="" horiz-adv-x="845" />
<glyph d="M 300 628 L 439 628 L 439 700 L 542 700 L 542 628 L 615 628 L 615 558 L 542 558 L 542 133 C 542 111 542 90 543 68 C 543 46 546 23 551 0 L 456 0 C 453 10 451 21 450 33 C 449 45 449 56 449 67 C 443 59 436 50 426 40 C 416 30 404 22 390 14 C 376 6 361 0 344 -6 C 327 -12 309 -15 290 -15 C 257 -15 226 -9 198 3 C 169 15 144 32 122 55 C 100 77 83 104 71 136 C 59 168 53 203 53 243 C 53 281 59 316 72 348 C 84 379 101 406 123 428 C 144 450 169 468 198 480 C 227 492 258 499 290 499 C 317 499 343 493 369 482 C 394 471 417 455 439 434 L 439 558 L 300 558 L 300 628 Z M 300 408 C 281 408 264 404 248 396 C 232 388 218 377 206 363 C 194 348 184 330 177 310 C 170 290 167 267 167 243 C 167 217 170 194 177 174 C 184 153 194 135 206 121 C 218 106 232 95 248 87 C 264 79 282 75 300 75 C 318 75 335 77 351 83 C 366 88 379 94 391 101 C 403 108 413 115 421 123 C 429 131 435 137 439 143 L 439 341 C 419 361 397 378 373 390 C 349 402 325 408 300 408 Z" unicode="" horiz-adv-x="629" />
<glyph d="M 476 291 L 225 291 L 225 100 L 667 100 L 667 0 L 113 0 L 113 653 L 643 653 L 643 553 L 225 553 L 225 391 L 476 391 L 476 291 Z M 509 835 L 509 755 L 248 755 L 248 835 L 509 835 Z" unicode="" horiz-adv-x="714" />
<glyph d="M 533 75 C 506 49 472 28 430 11 C 388 -6 343 -15 295 -15 C 256 -15 221 -8 191 5 C 161 18 135 36 115 59 C 94 82 78 109 68 140 C 57 170 52 203 52 238 C 52 274 58 308 70 340 C 82 372 100 399 122 423 C 144 446 170 464 201 478 C 232 492 266 499 304 499 C 332 499 361 494 390 485 C 419 475 445 461 469 441 C 492 421 511 395 525 363 C 539 331 547 292 547 248 C 547 243 547 238 547 234 C 547 229 546 224 546 219 L 156 219 C 158 199 162 180 169 163 C 176 145 186 130 198 117 C 210 104 226 94 244 87 C 262 79 282 76 306 76 C 336 76 365 82 393 94 C 421 106 444 122 464 142 L 533 75 Z M 299 413 C 261 413 231 402 209 380 C 186 358 170 332 162 300 L 433 300 C 433 319 429 336 421 350 C 413 364 402 375 390 385 C 377 394 363 401 347 406 C 331 410 315 413 299 413 Z M 433 657 L 433 577 L 172 577 L 172 657 L 433 657 Z" unicode="" horiz-adv-x="597" />
<glyph d="M 476 291 L 225 291 L 225 100 L 667 100 L 667 0 L 113 0 L 113 653 L 643 653 L 643 553 L 225 553 L 225 391 L 476 391 L 476 291 Z M 304 861 C 304 853 305 844 307 836 C 309 828 312 820 318 814 C 323 807 331 801 341 797 C 351 793 363 791 379 791 C 394 791 406 793 416 797 C 426 801 433 807 439 814 C 445 820 449 828 451 836 C 453 844 454 853 454 861 L 528 861 C 528 845 526 829 522 813 C 518 797 510 782 499 768 C 488 754 473 743 454 734 C 434 725 409 721 379 721 C 348 721 323 725 304 734 C 284 743 269 754 258 768 C 247 782 239 797 235 813 C 231 829 229 845 229 861 L 304 861 Z" unicode="" horiz-adv-x="714" />
<glyph d="M 533 75 C 506 49 472 28 430 11 C 388 -6 343 -15 295 -15 C 256 -15 221 -8 191 5 C 161 18 135 36 115 59 C 94 82 78 109 68 140 C 57 170 52 203 52 238 C 52 274 58 308 70 340 C 82 372 100 399 122 423 C 144 446 170 464 201 478 C 232 492 266 499 304 499 C 332 499 361 494 390 485 C 419 475 445 461 469 441 C 492 421 511 395 525 363 C 539 331 547 292 547 248 C 547 243 547 238 547 234 C 547 229 546 224 546 219 L 156 219 C 158 199 162 180 169 163 C 176 145 186 130 198 117 C 210 104 226 94 244 87 C 262 79 282 76 306 76 C 336 76 365 82 393 94 C 421 106 444 122 464 142 L 533 75 Z M 299 413 C 261 413 231 402 209 380 C 186 358 170 332 162 300 L 433 300 C 433 319 429 336 421 350 C 413 364 402 375 390 385 C 377 394 363 401 347 406 C 331 410 315 413 299 413 Z M 228 686 C 228 677 229 668 231 660 C 233 651 236 643 242 636 C 247 629 255 623 265 619 C 275 615 287 613 303 613 C 318 613 330 615 340 619 C 350 623 357 629 363 636 C 369 643 373 651 375 660 C 377 668 378 677 378 686 L 452 686 C 452 670 450 654 446 637 C 442 620 434 605 423 591 C 412 577 397 565 378 556 C 358 547 333 543 303 543 C 272 543 247 547 228 556 C 208 565 193 577 182 591 C 171 605 163 620 159 637 C 155 654 153 670 153 686 L 228 686 Z" unicode="" horiz-adv-x="597" />
<glyph d="M 476 291 L 225 291 L 225 100 L 667 100 L 667 0 L 113 0 L 113 653 L 643 653 L 643 553 L 225 553 L 225 391 L 476 391 L 476 291 Z M 318 795 C 318 810 323 823 335 835 C 347 846 361 852 379 852 C 396 852 411 846 423 835 C 435 823 441 810 441 795 C 441 779 435 765 423 755 C 411 744 396 739 379 739 C 361 739 347 744 335 755 C 323 765 318 779 318 795 Z" unicode="" horiz-adv-x="714" />
<glyph d="M 533 75 C 506 49 472 28 430 11 C 388 -6 343 -15 295 -15 C 256 -15 221 -8 191 5 C 161 18 135 36 115 59 C 94 82 78 109 68 140 C 57 170 52 203 52 238 C 52 274 58 308 70 340 C 82 372 100 399 122 423 C 144 446 170 464 201 478 C 232 492 266 499 304 499 C 332 499 361 494 390 485 C 419 475 445 461 469 441 C 492 421 511 395 525 363 C 539 331 547 292 547 248 C 547 243 547 238 547 234 C 547 229 546 224 546 219 L 156 219 C 158 199 162 180 169 163 C 176 145 186 130 198 117 C 210 104 226 94 244 87 C 262 79 282 76 306 76 C 336 76 365 82 393 94 C 421 106 444 122 464 142 L 533 75 Z M 299 413 C 261 413 231 402 209 380 C 186 358 170 332 162 300 L 433 300 C 433 319 429 336 421 350 C 413 364 402 375 390 385 C 377 394 363 401 347 406 C 331 410 315 413 299 413 Z M 242 617 C 242 632 247 645 259 657 C 271 668 285 674 303 674 C 320 674 335 668 347 657 C 359 645 365 632 365 617 C 365 601 359 587 347 577 C 335 566 320 561 303 561 C 285 561 271 566 259 577 C 247 587 242 601 242 617 Z" unicode="" horiz-adv-x="597" />
<glyph d="M 476 291 L 225 291 L 225 100 L 667 100 L 667 0 L 636 0 C 628 -3 617 -8 605 -14 C 593 -20 581 -28 569 -37 C 557 -46 547 -56 539 -68 C 531 -79 527 -92 527 -106 C 527 -122 533 -135 545 -144 C 557 -153 574 -158 596 -158 C 605 -158 615 -157 625 -155 C 635 -153 646 -152 658 -150 L 667 -214 C 651 -218 636 -221 621 -223 C 605 -225 591 -226 578 -226 C 534 -226 499 -216 474 -198 C 449 -180 437 -156 437 -126 C 437 -112 439 -98 445 -86 C 451 -74 458 -62 467 -52 C 476 -41 486 -31 498 -23 C 509 -14 520 -6 532 0 L 113 0 L 113 653 L 643 653 L 643 553 L 225 553 L 225 391 L 476 391 L 476 291 Z" unicode="" horiz-adv-x="714" />
<glyph d="M 533 75 C 515 59 495 44 473 31 C 450 18 425 8 398 0 C 390 -3 379 -8 367 -14 C 355 -20 343 -28 331 -37 C 319 -46 309 -56 301 -68 C 293 -79 289 -92 289 -106 C 289 -122 295 -135 307 -144 C 319 -153 336 -158 358 -158 C 367 -158 377 -157 387 -155 C 397 -153 408 -152 420 -150 L 429 -214 C 413 -218 398 -221 383 -223 C 367 -225 353 -226 340 -226 C 296 -226 261 -216 236 -198 C 211 -180 199 -156 199 -126 C 199 -102 206 -80 220 -62 C 234 -43 251 -27 271 -14 C 235 -11 204 -2 177 11 C 150 25 127 44 109 67 C 90 89 76 115 66 145 C 56 174 52 205 52 238 C 52 274 58 308 70 340 C 82 372 100 399 122 423 C 144 446 170 464 201 478 C 232 492 266 499 304 499 C 332 499 361 494 390 485 C 419 475 445 461 469 441 C 492 421 511 395 525 363 C 539 331 547 292 547 248 C 547 243 547 238 547 234 C 547 229 546 224 546 219 L 156 219 C 158 199 162 180 169 163 C 176 145 186 130 198 117 C 210 104 226 94 244 87 C 262 79 282 76 306 76 C 336 76 365 82 393 94 C 421 106 444 122 464 142 L 533 75 Z M 299 413 C 261 413 231 402 209 380 C 186 358 170 332 162 300 L 433 300 C 433 319 429 336 421 350 C 413 364 402 375 390 385 C 377 394 363 401 347 406 C 331 410 315 413 299 413 Z" unicode="" horiz-adv-x="597" />
<glyph d="M 476 291 L 225 291 L 225 100 L 667 100 L 667 0 L 113 0 L 113 653 L 643 653 L 643 553 L 225 553 L 225 391 L 476 391 L 476 291 Z M 379 789 L 456 863 L 539 863 L 437 730 L 321 730 L 218 863 L 301 863 L 379 789 Z" unicode="" horiz-adv-x="714" />
<glyph d="M 533 75 C 506 49 472 28 430 11 C 388 -6 343 -15 295 -15 C 256 -15 221 -8 191 5 C 161 18 135 36 115 59 C 94 82 78 109 68 140 C 57 170 52 203 52 238 C 52 274 58 308 70 340 C 82 372 100 399 122 423 C 144 446 170 464 201 478 C 232 492 266 499 304 499 C 332 499 361 494 390 485 C 419 475 445 461 469 441 C 492 421 511 395 525 363 C 539 331 547 292 547 248 C 547 243 547 238 547 234 C 547 229 546 224 546 219 L 156 219 C 158 199 162 180 169 163 C 176 145 186 130 198 117 C 210 104 226 94 244 87 C 262 79 282 76 306 76 C 336 76 365 82 393 94 C 421 106 444 122 464 142 L 533 75 Z M 299 413 C 261 413 231 402 209 380 C 186 358 170 332 162 300 L 433 300 C 433 319 429 336 421 350 C 413 364 402 375 390 385 C 377 394 363 401 347 406 C 331 410 315 413 299 413 Z M 225 689 L 303 611 L 380 689 L 463 689 L 361 552 L 245 552 L 142 689 L 225 689 Z" unicode="" horiz-adv-x="597" />
<glyph d="M 637 485 C 623 499 607 511 589 522 C 571 532 553 541 533 549 C 513 557 492 563 472 567 C 451 571 431 573 412 573 C 376 573 344 566 315 553 C 285 540 260 522 239 500 C 217 477 201 451 189 421 C 177 391 172 360 172 326 C 172 294 177 264 188 234 C 198 204 214 178 235 155 C 256 132 282 114 314 100 C 345 86 381 80 423 80 C 439 80 457 81 475 83 C 493 85 510 89 527 94 C 544 98 560 104 575 111 C 590 117 603 125 615 133 L 615 264 L 410 264 L 410 364 L 717 364 L 717 78 C 675 48 628 24 574 6 C 520 -11 468 -20 416 -20 C 364 -20 316 -11 272 7 C 228 25 190 49 158 81 C 126 113 100 150 82 192 C 64 234 55 279 55 327 C 55 375 64 420 82 462 C 100 504 126 540 158 572 C 190 603 227 628 271 646 C 314 664 361 673 411 673 C 463 673 515 662 568 642 C 621 622 670 593 715 555 L 637 485 Z M 354 863 L 470 863 L 572 730 L 489 730 L 412 804 L 334 730 L 251 730 L 354 863 Z" unicode="" horiz-adv-x="805" />
<glyph d="M 439 59 C 395 9 345 -15 290 -15 C 258 -15 227 -9 198 3 C 169 15 144 32 123 54 C 101 76 84 103 72 135 C 59 166 53 201 53 240 C 53 279 59 315 71 347 C 83 379 100 406 122 428 C 144 450 169 468 198 480 C 226 492 257 499 290 499 C 309 499 327 495 344 489 C 361 483 376 475 390 466 C 404 457 416 448 426 438 C 436 428 443 419 449 411 C 449 423 449 435 450 447 C 451 459 453 472 456 484 L 551 484 C 546 460 543 438 543 416 C 542 394 542 372 542 351 L 542 -25 C 542 -53 536 -79 526 -103 C 516 -127 501 -149 481 -167 C 461 -185 435 -200 405 -211 C 375 -221 340 -227 300 -227 C 244 -227 199 -219 164 -203 C 129 -187 101 -169 79 -147 L 140 -85 C 156 -100 176 -113 201 -124 C 226 -135 259 -141 300 -141 C 346 -141 380 -130 404 -108 C 427 -86 439 -58 439 -25 L 439 59 Z M 300 75 C 325 75 349 81 373 93 C 397 105 419 121 439 142 L 439 340 C 435 344 429 351 421 359 C 413 367 403 374 391 381 C 379 388 366 394 351 400 C 335 405 318 408 300 408 C 282 408 264 404 248 396 C 232 388 218 376 206 362 C 194 347 184 329 177 309 C 170 288 167 265 167 240 C 167 214 170 192 177 172 C 184 152 194 134 206 120 C 218 105 232 94 248 86 C 264 78 281 75 300 75 Z M 256 688 L 372 688 L 474 552 L 391 552 L 314 630 L 236 552 L 153 552 L 256 688 Z" unicode="" horiz-adv-x="629" />
<glyph d="M 637 485 C 623 499 607 511 589 522 C 571 532 553 541 533 549 C 513 557 492 563 472 567 C 451 571 431 573 412 573 C 376 573 344 566 315 553 C 285 540 260 522 239 500 C 217 477 201 451 189 421 C 177 391 172 360 172 326 C 172 294 177 264 188 234 C 198 204 214 178 235 155 C 256 132 282 114 314 100 C 345 86 381 80 423 80 C 439 80 457 81 475 83 C 493 85 510 89 527 94 C 544 98 560 104 575 111 C 590 117 603 125 615 133 L 615 264 L 410 264 L 410 364 L 717 364 L 717 78 C 675 48 628 24 574 6 C 520 -11 468 -20 416 -20 C 364 -20 316 -11 272 7 C 228 25 190 49 158 81 C 126 113 100 150 82 192 C 64 234 55 279 55 327 C 55 375 64 420 82 462 C 100 504 126 540 158 572 C 190 603 227 628 271 646 C 314 664 361 673 411 673 C 463 673 515 662 568 642 C 621 622 670 593 715 555 L 637 485 Z M 337 861 C 337 853 338 844 340 836 C 342 828 345 820 351 814 C 356 807 364 801 374 797 C 384 793 396 791 412 791 C 427 791 439 793 449 797 C 459 801 466 807 472 814 C 478 820 482 828 484 836 C 486 844 487 853 487 861 L 561 861 C 561 845 559 829 555 813 C 551 797 543 782 532 768 C 521 754 506 743 487 734 C 467 725 442 721 412 721 C 381 721 356 725 337 734 C 317 743 302 754 291 768 C 280 782 272 797 268 813 C 264 829 262 845 262 861 L 337 861 Z" unicode="" horiz-adv-x="805" />
<glyph d="M 439 59 C 395 9 345 -15 290 -15 C 258 -15 227 -9 198 3 C 169 15 144 32 123 54 C 101 76 84 103 72 135 C 59 166 53 201 53 240 C 53 279 59 315 71 347 C 83 379 100 406 122 428 C 144 450 169 468 198 480 C 226 492 257 499 290 499 C 309 499 327 495 344 489 C 361 483 376 475 390 466 C 404 457 416 448 426 438 C 436 428 443 419 449 411 C 449 423 449 435 450 447 C 451 459 453 472 456 484 L 551 484 C 546 460 543 438 543 416 C 542 394 542 372 542 351 L 542 -25 C 542 -53 536 -79 526 -103 C 516 -127 501 -149 481 -167 C 461 -185 435 -200 405 -211 C 375 -221 340 -227 300 -227 C 244 -227 199 -219 164 -203 C 129 -187 101 -169 79 -147 L 140 -85 C 156 -100 176 -113 201 -124 C 226 -135 259 -141 300 -141 C 346 -141 380 -130 404 -108 C 427 -86 439 -58 439 -25 L 439 59 Z M 300 75 C 325 75 349 81 373 93 C 397 105 419 121 439 142 L 439 340 C 435 344 429 351 421 359 C 413 367 403 374 391 381 C 379 388 366 394 351 400 C 335 405 318 408 300 408 C 282 408 264 404 248 396 C 232 388 218 376 206 362 C 194 347 184 329 177 309 C 170 288 167 265 167 240 C 167 214 170 192 177 172 C 184 152 194 134 206 120 C 218 105 232 94 248 86 C 264 78 281 75 300 75 Z M 239 686 C 239 677 240 668 242 660 C 244 651 247 643 253 636 C 258 629 266 623 276 619 C 286 615 298 613 314 613 C 329 613 341 615 351 619 C 361 623 368 629 374 636 C 380 643 384 651 386 660 C 388 668 389 677 389 686 L 463 686 C 463 670 461 654 457 637 C 453 620 445 605 434 591 C 423 577 408 565 389 556 C 369 547 344 543 314 543 C 283 543 258 547 239 556 C 219 565 204 577 193 591 C 182 605 174 620 170 637 C 166 654 164 670 164 686 L 239 686 Z" unicode="" horiz-adv-x="629" />
<glyph d="M 637 485 C 623 499 607 511 589 522 C 571 532 553 541 533 549 C 513 557 492 563 472 567 C 451 571 431 573 412 573 C 376 573 344 566 315 553 C 285 540 260 522 239 500 C 217 477 201 451 189 421 C 177 391 172 360 172 326 C 172 294 177 264 188 234 C 198 204 214 178 235 155 C 256 132 282 114 314 100 C 345 86 381 80 423 80 C 439 80 457 81 475 83 C 493 85 510 89 527 94 C 544 98 560 104 575 111 C 590 117 603 125 615 133 L 615 264 L 410 264 L 410 364 L 717 364 L 717 78 C 675 48 628 24 574 6 C 520 -11 468 -20 416 -20 C 364 -20 316 -11 272 7 C 228 25 190 49 158 81 C 126 113 100 150 82 192 C 64 234 55 279 55 327 C 55 375 64 420 82 462 C 100 504 126 540 158 572 C 190 603 227 628 271 646 C 314 664 361 673 411 673 C 463 673 515 662 568 642 C 621 622 670 593 715 555 L 637 485 Z M 351 795 C 351 810 356 823 368 835 C 380 846 394 852 412 852 C 429 852 444 846 456 835 C 468 823 474 810 474 795 C 474 779 468 765 456 755 C 444 744 429 739 412 739 C 394 739 380 744 368 755 C 356 765 351 779 351 795 Z" unicode="" horiz-adv-x="805" />
<glyph d="M 439 59 C 395 9 345 -15 290 -15 C 258 -15 227 -9 198 3 C 169 15 144 32 123 54 C 101 76 84 103 72 135 C 59 166 53 201 53 240 C 53 279 59 315 71 347 C 83 379 100 406 122 428 C 144 450 169 468 198 480 C 226 492 257 499 290 499 C 309 499 327 495 344 489 C 361 483 376 475 390 466 C 404 457 416 448 426 438 C 436 428 443 419 449 411 C 449 423 449 435 450 447 C 451 459 453 472 456 484 L 551 484 C 546 460 543 438 543 416 C 542 394 542 372 542 351 L 542 -25 C 542 -53 536 -79 526 -103 C 516 -127 501 -149 481 -167 C 461 -185 435 -200 405 -211 C 375 -221 340 -227 300 -227 C 244 -227 199 -219 164 -203 C 129 -187 101 -169 79 -147 L 140 -85 C 156 -100 176 -113 201 -124 C 226 -135 259 -141 300 -141 C 346 -141 380 -130 404 -108 C 427 -86 439 -58 439 -25 L 439 59 Z M 300 75 C 325 75 349 81 373 93 C 397 105 419 121 439 142 L 439 340 C 435 344 429 351 421 359 C 413 367 403 374 391 381 C 379 388 366 394 351 400 C 335 405 318 408 300 408 C 282 408 264 404 248 396 C 232 388 218 376 206 362 C 194 347 184 329 177 309 C 170 288 167 265 167 240 C 167 214 170 192 177 172 C 184 152 194 134 206 120 C 218 105 232 94 248 86 C 264 78 281 75 300 75 Z M 253 617 C 253 632 258 645 270 657 C 282 668 296 674 314 674 C 331 674 346 668 358 657 C 370 645 376 632 376 617 C 376 601 370 587 358 577 C 346 566 331 561 314 561 C 296 561 282 566 270 577 C 258 587 253 601 253 617 Z" unicode="" horiz-adv-x="629" />
<glyph d="M 637 485 C 623 499 607 511 589 522 C 571 532 553 541 533 549 C 513 557 492 563 472 567 C 451 571 431 573 412 573 C 376 573 344 566 315 553 C 285 540 260 522 239 500 C 217 477 201 451 189 421 C 177 391 172 360 172 326 C 172 294 177 264 188 234 C 198 204 214 178 235 155 C 256 132 282 114 314 100 C 345 86 381 80 423 80 C 439 80 457 81 475 83 C 493 85 510 89 527 94 C 544 98 560 104 575 111 C 590 117 603 125 615 133 L 615 264 L 410 264 L 410 364 L 717 364 L 717 78 C 675 48 628 24 574 6 C 520 -11 468 -20 416 -20 C 364 -20 316 -11 272 7 C 228 25 190 49 158 81 C 126 113 100 150 82 192 C 64 234 55 279 55 327 C 55 375 64 420 82 462 C 100 504 126 540 158 572 C 190 603 227 628 271 646 C 314 664 361 673 411 673 C 463 673 515 662 568 642 C 621 622 670 593 715 555 L 637 485 Z M 463 -42 C 472 -50 482 -61 492 -76 C 502 -91 507 -110 507 -134 C 507 -168 492 -195 464 -216 C 435 -236 396 -247 347 -247 C 320 -247 292 -243 262 -235 L 271 -171 C 281 -172 291 -173 301 -175 C 310 -176 319 -177 329 -177 C 355 -177 375 -172 389 -163 C 403 -154 410 -142 410 -126 C 410 -111 406 -98 400 -88 C 393 -78 386 -69 379 -63 L 463 -42 Z" unicode="" horiz-adv-x="805" />
<glyph d="M 270 545 C 259 554 248 566 237 580 C 225 594 220 613 220 637 C 220 671 233 698 260 719 C 287 739 325 750 375 750 C 384 750 393 749 402 749 C 410 748 420 746 431 743 L 431 680 C 423 681 416 682 408 682 C 400 682 392 683 385 683 C 339 683 317 665 317 631 C 317 615 321 602 329 592 C 337 581 345 571 355 562 L 270 545 Z M 439 59 C 395 9 345 -15 290 -15 C 258 -15 227 -9 198 3 C 169 15 144 32 123 54 C 101 76 84 103 72 135 C 59 166 53 201 53 240 C 53 279 59 315 71 347 C 83 379 100 406 122 428 C 144 450 169 468 198 480 C 226 492 257 499 290 499 C 309 499 327 495 344 489 C 361 483 376 475 390 466 C 404 457 416 448 426 438 C 436 428 443 419 449 411 C 449 423 449 435 450 447 C 451 459 453 472 456 484 L 551 484 C 546 460 543 438 543 416 C 542 394 542 372 542 351 L 542 -25 C 542 -53 536 -79 526 -103 C 516 -127 501 -149 481 -167 C 461 -185 435 -200 405 -211 C 375 -221 340 -227 300 -227 C 244 -227 199 -219 164 -203 C 129 -187 101 -169 79 -147 L 140 -85 C 156 -100 176 -113 201 -124 C 226 -135 259 -141 300 -141 C 346 -141 380 -130 404 -108 C 427 -86 439 -58 439 -25 L 439 59 Z M 300 75 C 325 75 349 81 373 93 C 397 105 419 121 439 142 L 439 340 C 435 344 429 351 421 359 C 413 367 403 374 391 381 C 379 388 366 394 351 400 C 335 405 318 408 300 408 C 282 408 264 404 248 396 C 232 388 218 376 206 362 C 194 347 184 329 177 309 C 170 288 167 265 167 240 C 167 214 170 192 177 172 C 184 152 194 134 206 120 C 218 105 232 94 248 86 C 264 78 281 75 300 75 Z" unicode="" horiz-adv-x="629" />
<glyph d="M 113 0 L 113 653 L 225 653 L 225 406 L 580 406 L 580 653 L 692 653 L 692 0 L 580 0 L 580 306 L 225 306 L 225 0 L 113 0 Z M 344 863 L 460 863 L 562 730 L 479 730 L 402 804 L 324 730 L 241 730 L 344 863 Z" unicode="" horiz-adv-x="805" />
<glyph d="M 85 902 L 201 902 L 303 769 L 220 769 L 143 843 L 65 769 L -18 769 L 85 902 Z M 86 0 L 86 700 L 189 700 L 189 424 C 204 442 223 459 247 475 C 270 491 298 499 330 499 C 358 499 385 494 409 486 C 433 477 453 465 470 450 C 487 435 500 417 510 396 C 519 374 524 351 524 327 L 524 0 L 420 0 L 420 327 C 420 349 410 368 392 384 C 374 400 350 408 320 408 C 305 408 291 405 279 401 C 266 396 254 390 243 383 C 232 375 222 367 213 358 C 204 349 196 340 189 331 L 189 0 L 86 0 Z" unicode="" horiz-adv-x="604" />
<glyph d="M 21 560 L 121 560 L 121 653 L 233 653 L 233 560 L 588 560 L 588 653 L 700 653 L 700 560 L 800 560 L 800 470 L 700 470 L 700 0 L 588 0 L 588 276 L 233 276 L 233 0 L 121 0 L 121 470 L 21 470 L 21 560 Z M 588 376 L 588 470 L 233 470 L 233 376 L 588 376 Z" unicode="" horiz-adv-x="821" />
<glyph d="M 328 558 L 189 558 L 189 424 C 204 442 223 459 247 475 C 270 491 298 499 330 499 C 358 499 385 494 409 486 C 433 477 453 465 470 450 C 487 435 500 417 510 396 C 519 374 524 351 524 327 L 524 0 L 420 0 L 420 327 C 420 349 410 368 392 384 C 374 400 350 408 320 408 C 305 408 291 405 279 401 C 266 396 254 390 243 383 C 232 375 222 367 213 358 C 204 349 196 340 189 331 L 189 0 L 86 0 L 86 558 L 13 558 L 13 628 L 86 628 L 86 700 L 189 700 L 189 628 L 328 628 L 328 558 Z" unicode="" horiz-adv-x="604" />
<glyph d="M 113 0 L 113 653 L 225 653 L 225 0 L 113 0 Z M -12 765 C 7 797 25 820 43 833 C 61 846 80 853 102 853 C 116 853 128 850 139 846 C 150 841 161 835 173 827 C 182 820 191 814 200 809 C 209 803 218 801 228 801 C 240 801 250 805 259 815 C 267 824 276 834 284 846 L 346 812 C 329 782 311 759 293 745 C 275 730 254 723 232 723 C 218 723 206 725 194 730 C 182 734 171 740 162 747 C 151 754 142 760 134 766 C 126 772 117 775 108 775 C 96 775 86 770 78 760 C 70 750 62 739 55 729 L -12 765 Z" unicode="" horiz-adv-x="338" />
<glyph d="M 86 0 L 86 483 L 189 483 L 189 0 L 86 0 Z M -43 587 C -23 619 -5 642 12 655 C 30 668 49 675 71 675 C 85 675 97 672 108 668 C 119 663 130 657 142 649 C 151 642 160 636 169 631 C 178 625 187 623 197 623 C 209 623 219 627 228 637 C 236 646 245 656 253 668 L 315 634 C 298 604 280 581 262 567 C 244 552 223 545 201 545 C 187 545 175 547 163 552 C 151 556 140 562 131 569 C 120 576 111 582 103 588 C 95 594 86 597 77 597 C 65 597 55 592 47 582 C 39 572 31 561 24 551 L -43 587 Z" unicode="" horiz-adv-x="275" />
<glyph d="M 113 0 L 113 653 L 225 653 L 225 0 L 113 0 Z M 299 835 L 299 755 L 38 755 L 38 835 L 299 835 Z" unicode="" horiz-adv-x="338" />
<glyph d="M 86 0 L 86 483 L 189 483 L 189 0 L 86 0 Z M 268 657 L 268 577 L 7 577 L 7 657 L 268 657 Z" unicode="" horiz-adv-x="275" />
<glyph d="M 113 0 L 113 653 L 225 653 L 225 0 L 113 0 Z M 94 861 C 94 853 95 844 97 836 C 99 828 102 820 108 814 C 113 807 121 801 131 797 C 141 793 153 791 169 791 C 184 791 196 793 206 797 C 216 801 223 807 229 814 C 235 820 239 828 241 836 C 243 844 244 853 244 861 L 318 861 C 318 845 316 829 312 813 C 308 797 300 782 289 768 C 278 754 263 743 244 734 C 224 725 199 721 169 721 C 138 721 113 725 94 734 C 74 743 59 754 48 768 C 37 782 29 797 25 813 C 21 829 19 845 19 861 L 94 861 Z" unicode="" horiz-adv-x="338" />
<glyph d="M 86 0 L 86 483 L 189 483 L 189 0 L 86 0 Z M 63 686 C 63 677 64 668 66 660 C 68 651 71 643 77 636 C 82 629 90 623 100 619 C 110 615 122 613 138 613 C 153 613 165 615 175 619 C 185 623 192 629 198 636 C 204 643 208 651 210 660 C 212 668 213 677 213 686 L 287 686 C 287 670 285 654 281 637 C 277 620 269 605 258 591 C 247 577 232 565 213 556 C 193 547 168 543 138 543 C 107 543 82 547 63 556 C 43 565 28 577 17 591 C 6 605 -1 620 -5 637 C -9 654 -12 670 -12 686 L 63 686 Z" unicode="" horiz-adv-x="275" />
<glyph d="M 225 0 C 217 -3 206 -8 194 -14 C 182 -20 170 -28 158 -37 C 146 -46 136 -56 128 -68 C 120 -79 116 -92 116 -106 C 116 -122 122 -135 134 -144 C 146 -153 163 -158 185 -158 C 194 -158 204 -157 214 -155 C 224 -153 235 -152 247 -150 L 256 -214 C 240 -218 225 -221 210 -223 C 194 -225 180 -226 167 -226 C 123 -226 88 -216 63 -198 C 38 -180 26 -156 26 -126 C 26 -112 28 -98 34 -86 C 40 -74 47 -62 56 -52 C 65 -41 75 -31 87 -23 C 98 -14 109 -6 121 0 L 113 0 L 113 653 L 225 653 L 225 0 L 225 0 Z" unicode="" horiz-adv-x="338" />
<glyph d="M 189 0 C 181 -3 170 -8 158 -14 C 146 -20 134 -28 122 -37 C 110 -46 100 -56 92 -68 C 84 -79 80 -92 80 -106 C 80 -122 86 -135 98 -144 C 110 -153 127 -158 149 -158 C 158 -158 168 -157 178 -155 C 188 -153 199 -152 211 -150 L 220 -214 C 204 -218 189 -221 174 -223 C 158 -225 144 -226 131 -226 C 87 -226 52 -216 27 -198 C 2 -180 -10 -156 -10 -126 C -10 -111 -7 -97 -1 -85 C 4 -73 11 -61 20 -51 C 29 -40 39 -30 51 -22 C 63 -14 74 -6 86 0 L 86 483 L 189 483 L 189 0 Z M 72 640 C 72 656 78 670 90 682 C 102 694 118 700 137 700 C 155 700 171 694 184 682 C 196 670 203 656 203 640 C 203 623 196 609 184 598 C 171 586 155 581 137 581 C 118 581 102 586 90 598 C 78 609 72 623 72 640 Z" unicode="" horiz-adv-x="275" />
<glyph d="M 113 0 L 113 653 L 225 653 L 225 0 L 113 0 Z M 108 795 C 108 810 113 823 125 835 C 137 846 151 852 169 852 C 186 852 201 846 213 835 C 225 823 231 810 231 795 C 231 779 225 765 213 755 C 201 744 186 739 169 739 C 151 739 137 744 125 755 C 113 765 108 779 108 795 Z" unicode="" horiz-adv-x="338" />
<glyph d="M 86 0 L 86 483 L 189 483 L 189 0 L 86 0 Z" unicode="" horiz-adv-x="275" />
<glyph d="M 113 0 L 113 653 L 225 653 L 225 0 L 113 0 Z M 886 653 L 886 232 C 886 192 879 156 865 125 C 851 93 833 67 809 45 C 785 23 756 7 723 -3 C 689 -14 653 -20 613 -20 C 571 -20 536 -14 507 -3 C 478 7 453 21 433 37 C 412 53 395 71 382 91 C 369 111 359 129 351 147 L 444 196 C 449 184 456 171 464 157 C 472 143 483 131 496 120 C 509 108 525 99 544 91 C 563 83 586 80 612 80 C 635 80 657 83 677 90 C 697 96 714 106 728 119 C 742 132 754 148 762 167 C 770 185 774 207 774 232 L 774 653 L 886 653 Z" unicode="" horiz-adv-x="986" />
<glyph d="M 86 0 L 86 483 L 189 483 L 189 0 L 86 0 Z M 72 640 C 72 656 78 670 90 682 C 102 694 118 700 137 700 C 155 700 171 694 184 682 C 196 670 203 656 203 640 C 203 623 196 609 184 598 C 171 586 155 581 137 581 C 118 581 102 586 90 598 C 78 609 72 623 72 640 Z M 268 -146 C 278 -143 289 -140 301 -136 C 312 -132 322 -127 331 -120 C 339 -113 346 -104 352 -92 C 358 -80 361 -65 361 -47 L 361 483 L 464 483 L 464 -47 C 464 -80 458 -108 448 -131 C 438 -154 424 -173 408 -187 C 392 -201 374 -211 354 -217 C 334 -223 316 -227 298 -227 L 268 -146 Z M 347 640 C 347 656 353 670 365 682 C 377 694 393 700 412 700 C 430 700 446 694 459 682 C 471 670 478 656 478 640 C 478 623 471 609 459 598 C 446 586 430 581 412 581 C 393 581 377 586 365 598 C 353 609 347 623 347 640 Z" unicode="" horiz-adv-x="550" />
<glyph d="M 548 653 L 548 232 C 548 192 541 156 527 125 C 513 93 495 67 471 45 C 447 23 418 7 385 -3 C 351 -14 315 -20 275 -20 C 233 -20 198 -14 169 -3 C 140 7 115 21 95 37 C 74 53 57 71 44 91 C 31 111 21 129 13 147 L 106 196 C 111 184 118 171 126 157 C 134 143 145 131 158 120 C 171 108 187 99 206 91 C 225 83 248 80 274 80 C 297 80 319 83 339 90 C 359 96 376 106 390 119 C 404 132 416 148 424 167 C 432 185 436 207 436 232 L 436 653 L 548 653 Z M 436 863 L 552 863 L 654 730 L 571 730 L 494 804 L 416 730 L 333 730 L 436 863 Z" unicode="" horiz-adv-x="648" />
<glyph d="M -7 -146 C 3 -143 14 -140 26 -136 C 37 -132 47 -127 56 -120 C 64 -113 71 -104 77 -92 C 83 -80 86 -65 86 -47 L 86 483 L 189 483 L 189 -47 C 189 -80 183 -108 173 -131 C 163 -154 149 -173 133 -187 C 117 -201 99 -211 79 -217 C 59 -223 41 -227 23 -227 L -7 -146 Z M 80 688 L 196 688 L 298 552 L 215 552 L 138 630 L 60 552 L -23 552 L 80 688 Z" unicode="" horiz-adv-x="275" />
<glyph d="M 225 330 L 566 653 L 705 653 L 438 403 L 763 0 L 618 0 L 357 328 L 225 205 L 225 0 L 113 0 L 113 653 L 225 653 L 225 330 Z M 452 -42 C 461 -50 471 -61 481 -76 C 491 -91 496 -110 496 -134 C 496 -168 481 -195 453 -216 C 424 -236 385 -247 336 -247 C 309 -247 281 -243 251 -235 L 260 -171 C 270 -172 280 -173 290 -175 C 299 -176 308 -177 318 -177 C 344 -177 364 -172 378 -163 C 392 -154 399 -142 399 -126 C 399 -111 395 -98 389 -88 C 382 -78 375 -69 368 -63 L 452 -42 Z" unicode="" horiz-adv-x="766" />
<glyph d="M 539 483 L 348 308 L 568 0 L 439 0 L 272 239 L 190 164 L 190 0 L 86 0 L 86 700 L 190 700 L 190 276 L 400 483 L 539 483 Z M 340 -42 C 350 -51 361 -63 373 -77 C 384 -91 390 -110 390 -134 C 390 -168 376 -195 349 -216 C 322 -236 284 -247 235 -247 C 225 -247 216 -246 208 -246 C 199 -245 189 -243 179 -240 L 179 -177 C 186 -178 194 -179 202 -179 C 210 -179 217 -180 225 -180 C 270 -180 293 -162 293 -128 C 293 -112 289 -99 281 -89 C 273 -78 264 -68 255 -59 L 340 -42 Z" unicode="" horiz-adv-x="572" />
<glyph d="M 539 484 L 347 309 L 568 0 L 439 0 L 272 239 L 190 164 L 190 0 L 86 0 L 86 484 L 190 484 L 190 277 L 400 484 L 539 484 Z" unicode="" horiz-adv-x="572" />
<glyph d="M 225 653 L 225 100 L 626 100 L 626 0 L 113 0 L 113 653 L 225 653 Z M 187 860 L 323 860 L 186 730 L 87 730 L 187 860 Z" unicode="" horiz-adv-x="647" />
<glyph d="M 91 700 L 194 700 L 194 0 L 91 0 L 91 700 Z M 160 899 L 296 899 L 159 769 L 60 769 L 160 899 Z" unicode="" horiz-adv-x="285" />
<glyph d="M 225 653 L 225 100 L 626 100 L 626 0 L 113 0 L 113 653 L 225 653 Z M 393 -42 C 402 -50 412 -61 422 -76 C 432 -91 437 -110 437 -134 C 437 -168 422 -195 394 -216 C 365 -236 326 -247 277 -247 C 250 -247 222 -243 192 -235 L 201 -171 C 211 -172 221 -173 231 -175 C 240 -176 249 -177 259 -177 C 285 -177 305 -172 319 -163 C 333 -154 340 -142 340 -126 C 340 -111 336 -98 330 -88 C 323 -78 316 -69 309 -63 L 393 -42 Z" unicode="" horiz-adv-x="647" />
<glyph d="M 91 0 L 91 700 L 194 700 L 194 0 L 91 0 Z M 204 -42 C 214 -51 225 -63 237 -77 C 248 -91 254 -110 254 -134 C 254 -168 240 -195 213 -216 C 186 -236 148 -247 99 -247 C 89 -247 80 -246 72 -246 C 63 -245 53 -243 43 -240 L 43 -177 C 50 -178 58 -179 66 -179 C 74 -179 81 -180 89 -180 C 134 -180 157 -162 157 -128 C 157 -112 153 -99 145 -89 C 137 -78 128 -68 119 -59 L 204 -42 Z" unicode="" horiz-adv-x="285" />
<glyph d="M 113 653 L 225 653 L 225 100 L 626 100 L 626 0 L 113 0 L 113 653 Z M 357 474 L 357 700 L 460 700 C 460 653 456 612 450 577 C 443 542 431 508 415 474 L 357 474 Z" unicode="" horiz-adv-x="647" />
<glyph d="M 91 0 L 91 700 L 194 700 L 194 0 L 91 0 Z M 259 474 L 259 700 L 362 700 C 362 653 358 612 352 577 C 345 542 333 508 317 474 L 259 474 Z" unicode="" horiz-adv-x="285" />
<glyph d="M 225 653 L 225 100 L 626 100 L 626 0 L 113 0 L 113 653 L 225 653 Z M 421 398 C 421 413 426 426 438 438 C 450 449 464 455 482 455 C 499 455 514 449 526 438 C 538 426 544 413 544 398 C 544 382 538 368 526 358 C 514 347 499 342 482 342 C 464 342 450 347 438 358 C 426 368 421 382 421 398 Z" unicode="" horiz-adv-x="664" />
<glyph d="M 227 359 C 227 374 232 387 244 399 C 256 410 270 416 288 416 C 305 416 320 410 332 399 C 344 387 350 374 350 359 C 350 343 344 329 332 319 C 320 308 305 303 288 303 C 270 303 256 308 244 319 C 232 329 227 343 227 359 Z M 91 0 L 91 700 L 194 700 L 194 0 L 91 0 Z" unicode="" horiz-adv-x="328" />
<glyph d="M 37 286 L 137 344 L 137 653 L 249 653 L 249 408 L 452 526 L 452 436 L 249 318 L 249 100 L 650 100 L 650 0 L 137 0 L 137 254 L 37 196 L 37 286 Z" unicode="" horiz-adv-x="671" />
<glyph d="M 111 0 L 111 304 L 48 268 L 13 328 L 111 385 L 111 700 L 214 700 L 214 445 L 297 493 L 332 433 L 214 364 L 214 0 L 111 0 Z" unicode="" horiz-adv-x="325" />
<glyph d="M 702 653 L 702 0 L 603 0 L 226 453 L 225 453 L 225 0 L 113 0 L 113 653 L 212 653 L 589 200 L 590 200 L 590 653 L 702 653 Z M 424 860 L 560 860 L 423 730 L 324 730 L 424 860 Z" unicode="" horiz-adv-x="815" />
<glyph d="M 179 412 C 187 422 197 433 207 444 C 217 454 229 464 242 472 C 255 480 269 486 285 491 C 301 496 319 499 339 499 C 365 499 389 494 412 486 C 434 477 454 465 471 450 C 487 435 500 417 510 396 C 520 374 525 351 525 327 L 525 0 L 421 0 L 421 327 C 421 349 411 368 393 384 C 375 400 351 408 322 408 C 292 408 266 400 245 384 C 223 368 205 350 190 331 L 190 0 L 87 0 L 87 350 C 87 371 86 393 84 415 C 82 437 79 459 75 483 L 169 483 C 172 470 174 458 175 448 C 176 438 177 426 179 412 Z M 433 697 L 327 551 L 234 551 L 314 697 L 433 697 Z" unicode="" horiz-adv-x="605" />
<glyph d="M 702 653 L 702 0 L 603 0 L 226 453 L 225 453 L 225 0 L 113 0 L 113 653 L 212 653 L 589 200 L 590 200 L 590 653 L 702 653 Z M 455 -42 C 464 -50 474 -61 484 -76 C 494 -91 499 -110 499 -134 C 499 -168 484 -195 456 -216 C 427 -236 388 -247 339 -247 C 312 -247 284 -243 254 -235 L 263 -171 C 273 -172 283 -173 293 -175 C 302 -176 311 -177 321 -177 C 347 -177 367 -172 381 -163 C 395 -154 402 -142 402 -126 C 402 -111 398 -98 392 -88 C 385 -78 378 -69 371 -63 L 455 -42 Z" unicode="" horiz-adv-x="815" />
<glyph d="M 179 412 C 187 422 197 433 207 444 C 217 454 229 464 242 472 C 255 480 269 486 285 491 C 301 496 319 499 339 499 C 365 499 389 494 412 486 C 434 477 454 465 471 450 C 487 435 500 417 510 396 C 520 374 525 351 525 327 L 525 0 L 421 0 L 421 327 C 421 349 411 368 393 384 C 375 400 351 408 322 408 C 292 408 266 400 245 384 C 223 368 205 350 190 331 L 190 0 L 87 0 L 87 350 C 87 371 86 393 84 415 C 82 437 79 459 75 483 L 169 483 C 172 470 174 458 175 448 C 176 438 177 426 179 412 Z M 346 -42 C 356 -51 367 -63 379 -77 C 390 -91 396 -110 396 -134 C 396 -168 382 -195 355 -216 C 328 -236 290 -247 241 -247 C 231 -247 222 -246 214 -246 C 205 -245 195 -243 185 -240 L 185 -177 C 192 -178 200 -179 208 -179 C 216 -179 223 -180 231 -180 C 276 -180 299 -162 299 -128 C 299 -112 295 -99 287 -89 C 279 -78 270 -68 261 -59 L 346 -42 Z" unicode="" horiz-adv-x="605" />
<glyph d="M 702 653 L 702 0 L 603 0 L 226 453 L 225 453 L 225 0 L 113 0 L 113 653 L 212 653 L 589 200 L 590 200 L 590 653 L 702 653 Z M 407 789 L 484 863 L 567 863 L 465 730 L 349 730 L 246 863 L 329 863 L 407 789 Z" unicode="" horiz-adv-x="815" />
<glyph d="M 179 412 C 187 422 197 433 207 444 C 217 454 229 464 242 472 C 255 480 269 486 285 491 C 301 496 319 499 339 499 C 365 499 389 494 412 486 C 434 477 454 465 471 450 C 487 435 500 417 510 396 C 520 374 525 351 525 327 L 525 0 L 421 0 L 421 327 C 421 349 411 368 393 384 C 375 400 351 408 322 408 C 292 408 266 400 245 384 C 223 368 205 350 190 331 L 190 0 L 87 0 L 87 350 C 87 371 86 393 84 415 C 82 437 79 459 75 483 L 169 483 C 172 470 174 458 175 448 C 176 438 177 426 179 412 Z M 224 689 L 302 611 L 379 689 L 462 689 L 360 552 L 244 552 L 141 689 L 224 689 Z" unicode="" horiz-adv-x="605" />
<glyph d="M -42 575 C -33 577 -23 581 -12 587 C -1 592 8 598 18 606 C 27 613 35 621 42 631 C 48 641 52 651 52 662 L 52 669 C 48 667 45 666 41 666 C 37 665 34 665 30 665 C 15 665 3 670 -6 680 C -16 690 -21 702 -21 717 C -21 732 -15 745 -3 755 C 8 765 22 771 40 771 C 50 771 61 768 71 764 C 81 760 90 754 98 746 C 106 738 112 729 117 719 C 121 708 124 696 124 684 C 124 660 119 639 111 621 C 103 603 92 588 79 576 C 66 563 52 552 37 544 C 21 536 7 529 -7 524 L -42 575 Z M 179 412 C 187 422 197 433 207 444 C 217 454 229 464 242 472 C 255 480 269 486 285 491 C 301 496 319 499 339 499 C 365 499 389 494 412 486 C 434 477 454 465 471 450 C 487 435 500 417 510 396 C 520 374 525 351 525 327 L 525 0 L 421 0 L 421 327 C 421 349 411 368 393 384 C 375 400 351 408 322 408 C 292 408 266 400 245 384 C 223 368 205 350 190 331 L 190 0 L 87 0 L 87 350 C 87 371 86 393 84 415 C 82 437 79 459 75 483 L 169 483 C 172 470 174 458 175 448 C 176 438 177 426 179 412 Z" unicode="" horiz-adv-x="605" />
<glyph d="M 702 653 L 702 25 C 702 -15 695 -50 681 -82 C 667 -113 649 -139 625 -161 C 601 -183 572 -199 539 -210 C 505 -221 469 -227 429 -227 L 429 -127 C 475 -127 512 -114 542 -89 C 572 -64 588 -29 590 17 L 589 17 L 226 453 L 225 453 L 225 0 L 113 0 L 113 653 L 212 653 L 589 200 L 590 200 L 590 653 L 702 653 Z" unicode="" horiz-adv-x="815" />
<glyph d="M 525 -47 C 525 -80 519 -108 509 -131 C 498 -154 484 -173 468 -187 C 452 -201 434 -211 414 -217 C 394 -223 376 -227 358 -227 L 328 -146 C 338 -143 349 -140 361 -136 C 372 -132 382 -127 391 -120 C 399 -113 406 -104 412 -92 C 418 -80 421 -65 421 -47 L 421 327 C 421 349 411 368 393 384 C 375 400 351 408 322 408 C 292 408 266 400 245 384 C 223 368 205 350 190 331 L 190 0 L 87 0 L 87 350 C 87 371 86 393 84 415 C 82 437 79 459 75 483 L 169 483 C 172 470 174 458 175 448 C 176 438 177 426 179 412 C 187 422 197 433 207 444 C 217 454 229 464 242 472 C 255 480 269 486 285 491 C 301 496 319 499 339 499 C 365 499 389 494 412 486 C 434 477 454 465 471 450 C 487 435 500 417 510 396 C 520 374 525 351 525 327 L 525 -47 Z" unicode="" horiz-adv-x="605" />
<glyph d="M 55 328 C 55 376 64 420 83 462 C 102 504 128 540 161 572 C 194 603 233 628 278 646 C 322 664 370 673 422 673 C 473 673 521 664 566 646 C 611 628 650 603 684 572 C 717 540 743 504 763 462 C 782 420 792 376 792 328 C 792 279 782 233 763 191 C 743 149 717 112 684 81 C 650 49 611 25 566 7 C 521 -11 473 -20 422 -20 C 370 -20 322 -11 278 7 C 233 25 194 49 161 81 C 128 112 102 149 83 191 C 64 233 55 279 55 328 Z M 173 328 C 173 294 179 262 192 232 C 204 202 222 175 245 153 C 267 130 294 112 324 99 C 354 86 386 80 422 80 C 457 80 490 86 521 99 C 551 112 578 130 601 153 C 623 175 641 202 654 232 C 667 262 674 294 674 328 C 674 362 667 393 654 423 C 641 453 623 479 601 501 C 578 523 551 540 521 553 C 490 566 457 573 422 573 C 386 573 354 566 324 553 C 294 540 267 523 245 501 C 222 479 204 453 192 423 C 179 393 173 362 173 328 Z M 553 835 L 553 755 L 292 755 L 292 835 L 553 835 Z" unicode="" horiz-adv-x="846" />
<glyph d="M 52 243 C 52 278 58 311 70 343 C 82 374 100 401 122 424 C 144 447 171 465 203 479 C 235 492 270 499 308 499 C 346 499 381 492 413 479 C 445 465 472 447 495 424 C 517 401 535 374 547 343 C 559 311 566 278 566 243 C 566 207 559 173 547 141 C 535 109 517 82 495 59 C 472 36 445 18 413 5 C 381 -8 346 -15 308 -15 C 270 -15 235 -8 203 5 C 171 18 144 36 122 59 C 100 82 82 109 70 141 C 58 173 52 207 52 243 Z M 159 243 C 159 219 162 197 169 177 C 175 156 185 138 198 122 C 210 106 226 94 245 85 C 263 75 284 71 308 71 C 332 71 353 75 372 85 C 390 94 406 106 419 122 C 432 138 442 156 449 177 C 456 197 460 219 460 243 C 460 265 456 287 449 307 C 442 327 432 345 419 361 C 406 377 390 389 372 399 C 353 408 332 413 308 413 C 284 413 263 408 245 399 C 226 389 210 377 198 361 C 185 345 175 327 169 307 C 162 287 159 265 159 243 Z M 439 657 L 439 577 L 178 577 L 178 657 L 439 657 Z" unicode="" horiz-adv-x="618" />
<glyph d="M 55 328 C 55 376 64 420 83 462 C 102 504 128 540 161 572 C 194 603 233 628 278 646 C 322 664 370 673 422 673 C 473 673 521 664 566 646 C 611 628 650 603 684 572 C 717 540 743 504 763 462 C 782 420 792 376 792 328 C 792 279 782 233 763 191 C 743 149 717 112 684 81 C 650 49 611 25 566 7 C 521 -11 473 -20 422 -20 C 370 -20 322 -11 278 7 C 233 25 194 49 161 81 C 128 112 102 149 83 191 C 64 233 55 279 55 328 Z M 173 328 C 173 294 179 262 192 232 C 204 202 222 175 245 153 C 267 130 294 112 324 99 C 354 86 386 80 422 80 C 457 80 490 86 521 99 C 551 112 578 130 601 153 C 623 175 641 202 654 232 C 667 262 674 294 674 328 C 674 362 667 393 654 423 C 641 453 623 479 601 501 C 578 523 551 540 521 553 C 490 566 457 573 422 573 C 386 573 354 566 324 553 C 294 540 267 523 245 501 C 222 479 204 453 192 423 C 179 393 173 362 173 328 Z M 348 861 C 348 853 349 844 351 836 C 353 828 356 820 362 814 C 367 807 375 801 385 797 C 395 793 407 791 423 791 C 438 791 450 793 460 797 C 470 801 477 807 483 814 C 489 820 493 828 495 836 C 497 844 498 853 498 861 L 572 861 C 572 845 570 829 566 813 C 562 797 554 782 543 768 C 532 754 517 743 498 734 C 478 725 453 721 423 721 C 392 721 367 725 348 734 C 328 743 313 754 302 768 C 291 782 283 797 279 813 C 275 829 273 845 273 861 L 348 861 Z" unicode="" horiz-adv-x="846" />
<glyph d="M 52 243 C 52 278 58 311 70 343 C 82 374 100 401 122 424 C 144 447 171 465 203 479 C 235 492 270 499 308 499 C 346 499 381 492 413 479 C 445 465 472 447 495 424 C 517 401 535 374 547 343 C 559 311 566 278 566 243 C 566 207 559 173 547 141 C 535 109 517 82 495 59 C 472 36 445 18 413 5 C 381 -8 346 -15 308 -15 C 270 -15 235 -8 203 5 C 171 18 144 36 122 59 C 100 82 82 109 70 141 C 58 173 52 207 52 243 Z M 159 243 C 159 219 162 197 169 177 C 175 156 185 138 198 122 C 210 106 226 94 245 85 C 263 75 284 71 308 71 C 332 71 353 75 372 85 C 390 94 406 106 419 122 C 432 138 442 156 449 177 C 456 197 460 219 460 243 C 460 265 456 287 449 307 C 442 327 432 345 419 361 C 406 377 390 389 372 399 C 353 408 332 413 308 413 C 284 413 263 408 245 399 C 226 389 210 377 198 361 C 185 345 175 327 169 307 C 162 287 159 265 159 243 Z M 234 686 C 234 677 235 668 237 660 C 239 651 242 643 248 636 C 253 629 261 623 271 619 C 281 615 293 613 309 613 C 324 613 336 615 346 619 C 356 623 363 629 369 636 C 375 643 379 651 381 660 C 383 668 384 677 384 686 L 458 686 C 458 670 456 654 452 637 C 448 620 440 605 429 591 C 418 577 403 565 384 556 C 364 547 339 543 309 543 C 278 543 253 547 234 556 C 214 565 199 577 188 591 C 177 605 169 620 165 637 C 161 654 159 670 159 686 L 234 686 Z" unicode="" horiz-adv-x="618" />
<glyph d="M 55 328 C 55 376 64 420 83 462 C 102 504 128 540 161 572 C 194 603 233 628 278 646 C 322 664 370 673 422 673 C 473 673 521 664 566 646 C 611 628 650 603 684 572 C 717 540 743 504 763 462 C 782 420 792 376 792 328 C 792 279 782 233 763 191 C 743 149 717 112 684 81 C 650 49 611 25 566 7 C 521 -11 473 -20 422 -20 C 370 -20 322 -11 278 7 C 233 25 194 49 161 81 C 128 112 102 149 83 191 C 64 233 55 279 55 328 Z M 173 328 C 173 294 179 262 192 232 C 204 202 222 175 245 153 C 267 130 294 112 324 99 C 354 86 386 80 422 80 C 457 80 490 86 521 99 C 551 112 578 130 601 153 C 623 175 641 202 654 232 C 667 262 674 294 674 328 C 674 362 667 393 654 423 C 641 453 623 479 601 501 C 578 523 551 540 521 553 C 490 566 457 573 422 573 C 386 573 354 566 324 553 C 294 540 267 523 245 501 C 222 479 204 453 192 423 C 179 393 173 362 173 328 Z M 288 727 L 332 867 L 427 867 L 355 727 L 288 727 Z M 465 727 L 509 867 L 604 867 L 531 727 L 465 727 Z" unicode="" horiz-adv-x="846" />
<glyph d="M 52 243 C 52 278 58 311 70 343 C 82 374 100 401 122 424 C 144 447 171 465 203 479 C 235 492 270 499 308 499 C 346 499 381 492 413 479 C 445 465 472 447 495 424 C 517 401 535 374 547 343 C 559 311 566 278 566 243 C 566 207 559 173 547 141 C 535 109 517 82 495 59 C 472 36 445 18 413 5 C 381 -8 346 -15 308 -15 C 270 -15 235 -8 203 5 C 171 18 144 36 122 59 C 100 82 82 109 70 141 C 58 173 52 207 52 243 Z M 159 243 C 159 219 162 197 169 177 C 175 156 185 138 198 122 C 210 106 226 94 245 85 C 263 75 284 71 308 71 C 332 71 353 75 372 85 C 390 94 406 106 419 122 C 432 138 442 156 449 177 C 456 197 460 219 460 243 C 460 265 456 287 449 307 C 442 327 432 345 419 361 C 406 377 390 389 372 399 C 353 408 332 413 308 413 C 284 413 263 408 245 399 C 226 389 210 377 198 361 C 185 345 175 327 169 307 C 162 287 159 265 159 243 Z M 174 549 L 218 689 L 313 689 L 241 549 L 174 549 Z M 351 549 L 395 689 L 490 689 L 417 549 L 351 549 Z" unicode="" horiz-adv-x="618" />
<glyph d="M 1037 291 L 786 291 L 786 100 L 1228 100 L 1228 0 L 674 0 L 674 94 C 643 53 604 24 558 6 C 512 -11 463 -20 412 -20 C 362 -20 315 -11 272 7 C 228 25 190 49 158 81 C 126 112 100 149 82 191 C 64 233 55 279 55 328 C 55 376 64 420 82 462 C 100 504 126 540 158 572 C 190 603 228 628 272 646 C 315 664 362 673 412 673 C 437 673 462 671 487 667 C 512 663 536 656 558 647 C 580 638 601 626 621 612 C 641 597 658 579 674 558 L 674 653 L 1204 653 L 1204 553 L 786 553 L 786 391 L 1037 391 L 1037 291 Z M 173 328 C 173 294 179 262 191 232 C 203 202 220 175 242 153 C 263 130 288 112 318 99 C 347 86 378 80 412 80 C 448 80 483 86 515 99 C 547 112 574 130 598 153 C 621 175 639 202 653 232 C 667 262 674 294 674 328 C 674 362 667 393 653 423 C 639 453 621 479 598 501 C 574 523 547 540 515 553 C 483 566 448 573 412 573 C 378 573 347 566 318 553 C 288 540 263 523 242 501 C 220 479 203 453 191 423 C 179 393 173 362 173 328 Z" unicode="" horiz-adv-x="1275" />
<glyph d="M 941 75 C 915 49 882 28 843 11 C 804 -6 759 -15 707 -15 C 663 -15 623 -5 587 14 C 551 34 525 60 508 92 C 498 76 485 61 471 48 C 456 34 440 23 422 14 C 404 4 386 -2 366 -7 C 346 -12 327 -15 307 -15 C 272 -15 239 -8 208 5 C 177 18 150 36 127 59 C 103 82 85 109 71 141 C 57 173 51 207 51 243 C 51 278 57 311 71 343 C 85 374 103 401 127 424 C 150 447 177 465 208 479 C 239 492 272 499 307 499 C 327 499 348 496 368 491 C 388 485 407 478 425 468 C 443 458 459 447 474 433 C 488 419 501 404 511 388 C 519 404 531 420 545 434 C 559 448 574 459 591 469 C 608 478 626 485 646 491 C 666 496 686 499 707 499 C 739 499 771 493 802 483 C 833 473 860 456 884 434 C 908 412 926 383 939 348 C 952 312 957 269 954 219 L 563 219 C 564 205 566 192 570 182 C 579 152 595 126 619 106 C 643 86 672 76 707 76 C 745 76 777 82 804 94 C 830 106 853 122 872 142 L 941 75 Z M 707 413 C 671 413 641 402 619 382 C 596 361 580 334 571 300 L 841 300 C 841 319 837 336 829 350 C 821 364 810 375 798 385 C 786 394 772 401 756 406 C 740 410 723 413 707 413 Z M 158 243 C 158 219 161 197 168 177 C 174 156 184 138 197 122 C 209 106 225 94 244 85 C 262 75 283 71 307 71 C 331 71 352 75 371 85 C 389 94 405 106 418 122 C 431 138 441 156 448 177 C 455 197 459 219 459 243 C 459 265 455 287 448 307 C 441 327 431 345 418 361 C 405 377 389 389 371 399 C 352 408 331 413 307 413 C 283 413 262 408 244 399 C 225 389 209 377 197 361 C 184 345 174 327 168 307 C 161 287 158 265 158 243 Z" unicode="" horiz-adv-x="1005" />
<glyph d="M 113 0 L 113 653 L 473 653 C 517 653 554 647 584 635 C 614 623 640 606 662 584 C 678 566 691 546 700 524 C 709 502 714 478 714 453 C 714 409 700 370 674 338 C 648 306 613 282 570 266 L 726 0 L 597 0 L 457 251 L 225 251 L 225 0 L 113 0 Z M 225 553 L 225 351 L 493 351 C 507 351 521 353 535 359 C 548 364 560 371 570 381 C 580 390 587 401 593 413 C 599 425 602 439 602 453 C 602 477 593 498 575 518 C 559 534 543 543 525 547 C 507 551 490 553 473 553 L 225 553 Z M 409 860 L 545 860 L 408 730 L 309 730 L 409 860 Z" unicode="" horiz-adv-x="783" />
<glyph d="M 295 398 C 283 398 273 395 263 390 C 253 385 243 379 235 371 C 227 363 219 355 211 345 C 203 335 196 326 190 316 L 190 0 L 87 0 L 87 351 C 87 372 86 393 84 415 C 82 437 78 459 74 483 L 169 483 C 172 469 174 456 175 444 C 176 432 177 418 179 402 C 187 414 195 425 204 437 C 213 449 223 459 234 468 C 245 477 258 484 272 490 C 286 496 301 499 319 499 C 333 499 346 497 358 494 C 370 490 380 485 387 479 L 356 383 C 352 385 348 387 343 389 C 337 391 332 392 326 394 C 320 395 314 396 309 397 C 303 397 299 398 295 398 Z M 333 697 L 227 551 L 134 551 L 214 697 L 333 697 Z" unicode="" horiz-adv-x="402" />
<glyph d="M 113 0 L 113 653 L 473 653 C 517 653 554 647 584 635 C 614 623 640 606 662 584 C 678 566 691 546 700 524 C 709 502 714 478 714 453 C 714 409 700 370 674 338 C 648 306 613 282 570 266 L 726 0 L 597 0 L 457 251 L 225 251 L 225 0 L 113 0 Z M 225 553 L 225 351 L 493 351 C 507 351 521 353 535 359 C 548 364 560 371 570 381 C 580 390 587 401 593 413 C 599 425 602 439 602 453 C 602 477 593 498 575 518 C 559 534 543 543 525 547 C 507 551 490 553 473 553 L 225 553 Z M 461 -42 C 470 -50 480 -61 490 -76 C 500 -91 505 -110 505 -134 C 505 -168 490 -195 462 -216 C 433 -236 394 -247 345 -247 C 318 -247 290 -243 260 -235 L 269 -171 C 279 -172 289 -173 299 -175 C 308 -176 317 -177 327 -177 C 353 -177 373 -172 387 -163 C 401 -154 408 -142 408 -126 C 408 -111 404 -98 398 -88 C 391 -78 384 -69 377 -63 L 461 -42 Z" unicode="" horiz-adv-x="783" />
<glyph d="M 295 398 C 283 398 273 395 263 390 C 253 385 243 379 235 371 C 227 363 219 355 211 345 C 203 335 196 326 190 316 L 190 0 L 87 0 L 87 351 C 87 372 86 393 84 415 C 82 437 78 459 74 483 L 169 483 C 172 469 174 456 175 444 C 176 432 177 418 179 402 C 187 414 195 425 204 437 C 213 449 223 459 234 468 C 245 477 258 484 272 490 C 286 496 301 499 319 499 C 333 499 346 497 358 494 C 370 490 380 485 387 479 L 356 383 C 352 385 348 387 343 389 C 337 391 332 392 326 394 C 320 395 314 396 309 397 C 303 397 299 398 295 398 Z M 199 -42 C 209 -51 220 -63 232 -77 C 243 -91 249 -110 249 -134 C 249 -168 235 -195 208 -216 C 181 -236 143 -247 94 -247 C 84 -247 75 -246 67 -246 C 58 -245 48 -243 38 -240 L 38 -177 C 45 -178 53 -179 61 -179 C 69 -179 76 -180 84 -180 C 129 -180 152 -162 152 -128 C 152 -112 148 -99 140 -89 C 132 -78 123 -68 114 -59 L 199 -42 Z" unicode="" horiz-adv-x="402" />
<glyph d="M 113 0 L 113 653 L 473 653 C 517 653 554 647 584 635 C 614 623 640 606 662 584 C 678 566 691 546 700 524 C 709 502 714 478 714 453 C 714 409 700 370 674 338 C 648 306 613 282 570 266 L 726 0 L 597 0 L 457 251 L 225 251 L 225 0 L 113 0 Z M 225 553 L 225 351 L 493 351 C 507 351 521 353 535 359 C 548 364 560 371 570 381 C 580 390 587 401 593 413 C 599 425 602 439 602 453 C 602 477 593 498 575 518 C 559 534 543 543 525 547 C 507 551 490 553 473 553 L 225 553 Z M 392 789 L 469 863 L 552 863 L 450 730 L 334 730 L 231 863 L 314 863 L 392 789 Z" unicode="" horiz-adv-x="783" />
<glyph d="M 295 398 C 283 398 273 395 263 390 C 253 385 243 379 235 371 C 227 363 219 355 211 345 C 203 335 196 326 190 316 L 190 0 L 87 0 L 87 351 C 87 372 86 393 84 415 C 82 437 78 459 74 483 L 169 483 C 172 469 174 456 175 444 C 176 432 177 418 179 402 C 187 414 195 425 204 437 C 213 449 223 459 234 468 C 245 477 258 484 272 490 C 286 496 301 499 319 499 C 333 499 346 497 358 494 C 370 490 380 485 387 479 L 356 383 C 352 385 348 387 343 389 C 337 391 332 392 326 394 C 320 395 314 396 309 397 C 303 397 299 398 295 398 Z M 124 689 L 202 611 L 279 689 L 362 689 L 260 552 L 144 552 L 41 689 L 124 689 Z" unicode="" horiz-adv-x="402" />
<glyph d="M 575 500 C 565 508 553 516 539 525 C 525 534 508 542 488 550 C 468 558 445 564 420 569 C 395 573 368 576 338 576 C 318 576 300 574 282 571 C 264 567 248 562 235 555 C 221 547 211 538 203 526 C 195 514 191 499 191 482 C 191 464 196 450 207 440 C 218 430 233 422 251 417 C 269 412 290 409 314 407 C 338 405 362 403 387 401 C 416 399 448 395 483 391 C 518 387 551 378 581 365 C 611 351 637 332 657 306 C 677 280 688 244 688 199 C 688 159 680 126 665 98 C 649 70 628 47 602 30 C 576 12 545 0 510 -8 C 475 -16 438 -20 400 -20 C 356 -20 317 -16 281 -8 C 245 0 213 10 184 23 C 154 36 128 51 105 67 C 81 83 61 100 43 117 L 111 195 C 124 183 140 170 158 156 C 176 142 198 130 222 118 C 246 106 272 96 302 88 C 332 80 365 77 402 77 C 426 77 448 79 470 83 C 491 87 509 94 525 103 C 541 111 553 122 562 136 C 571 149 576 165 576 184 C 576 204 571 221 562 234 C 553 247 540 257 524 265 C 507 273 487 279 464 283 C 441 287 415 290 387 292 C 351 294 314 298 278 302 C 241 306 208 314 179 326 C 149 338 125 355 107 378 C 88 401 79 432 79 472 C 79 510 87 542 103 568 C 119 594 139 614 165 630 C 191 646 219 657 250 663 C 281 669 312 673 342 673 C 376 673 409 670 440 664 C 470 658 498 650 524 641 C 550 631 573 621 593 610 C 613 598 629 588 643 578 L 575 500 Z M 385 860 L 521 860 L 384 730 L 285 730 L 385 860 Z" unicode="" horiz-adv-x="736" />
<glyph d="M 441 366 C 433 370 422 375 409 381 C 396 387 382 392 366 397 C 350 402 333 406 315 410 C 297 413 279 415 262 415 C 236 415 213 410 193 401 C 173 392 164 378 164 359 C 164 347 168 337 176 330 C 184 322 195 317 207 313 C 219 309 231 307 245 306 C 259 304 271 303 282 303 C 303 301 327 299 354 297 C 380 294 405 288 429 278 C 452 268 472 253 488 233 C 504 213 512 185 512 151 C 512 122 506 97 494 76 C 482 55 466 38 446 24 C 426 10 402 0 375 -7 C 347 -13 318 -17 286 -17 C 258 -17 232 -14 208 -10 C 184 -5 162 0 142 8 C 122 15 104 23 88 32 C 72 40 58 49 46 57 L 85 135 C 96 128 109 121 123 113 C 137 105 152 98 169 92 C 185 85 203 79 223 75 C 242 71 263 69 285 69 C 321 69 350 75 374 87 C 397 99 409 117 409 141 C 409 155 404 166 396 174 C 388 182 377 188 365 192 C 353 196 339 199 324 201 C 309 203 295 204 282 205 C 256 206 231 208 205 211 C 179 214 155 220 134 230 C 112 240 95 254 81 272 C 67 290 61 315 61 347 C 61 376 67 400 79 420 C 91 440 106 456 125 468 C 144 480 165 488 189 493 C 213 498 236 501 260 501 C 282 501 305 499 327 495 C 349 491 370 487 390 481 C 409 475 426 469 442 463 C 458 456 470 450 480 445 L 441 366 Z M 409 697 L 303 551 L 210 551 L 290 697 L 409 697 Z" unicode="" horiz-adv-x="557" />
<glyph d="M 575 500 C 565 508 553 516 539 525 C 525 534 508 542 488 550 C 468 558 445 564 420 569 C 395 573 368 576 338 576 C 318 576 300 574 282 571 C 264 567 248 562 235 555 C 221 547 211 538 203 526 C 195 514 191 499 191 482 C 191 464 196 450 207 440 C 218 430 233 422 251 417 C 269 412 290 409 314 407 C 338 405 362 403 387 401 C 416 399 448 395 483 391 C 518 387 551 378 581 365 C 611 351 637 332 657 306 C 677 280 688 244 688 199 C 688 159 680 126 665 98 C 649 70 628 47 602 30 C 576 12 545 0 510 -8 C 475 -16 438 -20 400 -20 C 356 -20 317 -16 281 -8 C 245 0 213 10 184 23 C 154 36 128 51 105 67 C 81 83 61 100 43 117 L 111 195 C 124 183 140 170 158 156 C 176 142 198 130 222 118 C 246 106 272 96 302 88 C 332 80 365 77 402 77 C 426 77 448 79 470 83 C 491 87 509 94 525 103 C 541 111 553 122 562 136 C 571 149 576 165 576 184 C 576 204 571 221 562 234 C 553 247 540 257 524 265 C 507 273 487 279 464 283 C 441 287 415 290 387 292 C 351 294 314 298 278 302 C 241 306 208 314 179 326 C 149 338 125 355 107 378 C 88 401 79 432 79 472 C 79 510 87 542 103 568 C 119 594 139 614 165 630 C 191 646 219 657 250 663 C 281 669 312 673 342 673 C 376 673 409 670 440 664 C 470 658 498 650 524 641 C 550 631 573 621 593 610 C 613 598 629 588 643 578 L 575 500 Z M 310 863 L 426 863 L 528 730 L 445 730 L 368 804 L 290 730 L 207 730 L 310 863 Z" unicode="" horiz-adv-x="736" />
<glyph d="M 441 366 C 433 370 422 375 409 381 C 396 387 382 392 366 397 C 350 402 333 406 315 410 C 297 413 279 415 262 415 C 236 415 213 410 193 401 C 173 392 164 378 164 359 C 164 347 168 337 176 330 C 184 322 195 317 207 313 C 219 309 231 307 245 306 C 259 304 271 303 282 303 C 303 301 327 299 354 297 C 380 294 405 288 429 278 C 452 268 472 253 488 233 C 504 213 512 185 512 151 C 512 122 506 97 494 76 C 482 55 466 38 446 24 C 426 10 402 0 375 -7 C 347 -13 318 -17 286 -17 C 258 -17 232 -14 208 -10 C 184 -5 162 0 142 8 C 122 15 104 23 88 32 C 72 40 58 49 46 57 L 85 135 C 96 128 109 121 123 113 C 137 105 152 98 169 92 C 185 85 203 79 223 75 C 242 71 263 69 285 69 C 321 69 350 75 374 87 C 397 99 409 117 409 141 C 409 155 404 166 396 174 C 388 182 377 188 365 192 C 353 196 339 199 324 201 C 309 203 295 204 282 205 C 256 206 231 208 205 211 C 179 214 155 220 134 230 C 112 240 95 254 81 272 C 67 290 61 315 61 347 C 61 376 67 400 79 420 C 91 440 106 456 125 468 C 144 480 165 488 189 493 C 213 498 236 501 260 501 C 282 501 305 499 327 495 C 349 491 370 487 390 481 C 409 475 426 469 442 463 C 458 456 470 450 480 445 L 441 366 Z M 220 688 L 336 688 L 438 552 L 355 552 L 278 630 L 200 552 L 117 552 L 220 688 Z" unicode="" horiz-adv-x="557" />
<glyph d="M 577 500 C 567 508 555 516 541 525 C 527 534 510 542 490 550 C 470 558 447 564 422 569 C 397 573 370 576 340 576 C 320 576 302 574 284 571 C 266 567 250 562 237 555 C 223 547 213 538 205 526 C 197 514 193 499 193 482 C 193 464 198 450 209 440 C 220 430 235 422 253 417 C 271 412 292 409 316 407 C 340 405 364 403 389 401 C 418 399 450 395 485 391 C 520 387 553 378 583 365 C 613 351 639 332 659 306 C 679 280 690 244 690 199 C 690 159 682 126 667 98 C 652 70 632 48 606 31 C 580 13 549 0 515 -7 C 481 -15 444 -20 406 -20 L 391 -54 C 396 -52 401 -51 406 -50 C 410 -49 415 -49 421 -49 C 433 -49 446 -50 458 -54 C 470 -57 481 -62 491 -69 C 501 -75 509 -84 515 -94 C 521 -104 524 -115 524 -129 C 524 -143 520 -157 512 -169 C 504 -181 492 -191 478 -199 C 463 -207 446 -214 426 -219 C 406 -223 384 -226 360 -226 C 334 -226 309 -223 286 -219 C 262 -214 239 -209 217 -204 L 233 -147 C 253 -151 274 -154 295 -158 C 315 -162 335 -164 355 -164 C 378 -164 396 -161 410 -155 C 424 -149 431 -140 431 -128 C 431 -116 426 -109 416 -106 C 406 -102 395 -101 384 -101 C 375 -101 367 -101 360 -102 C 353 -103 347 -104 341 -106 L 314 -74 L 341 -17 C 306 -13 274 -6 245 2 C 216 11 189 22 165 34 C 141 46 119 59 99 73 C 79 87 61 102 45 117 L 113 195 C 126 183 142 170 160 156 C 178 142 200 130 224 118 C 248 106 274 96 304 88 C 334 80 367 77 404 77 C 428 77 450 79 472 83 C 493 87 511 94 527 103 C 543 111 555 122 564 136 C 573 149 578 165 578 184 C 578 204 573 221 564 234 C 555 247 542 257 526 265 C 509 273 489 279 466 283 C 443 287 417 290 389 292 C 353 294 316 298 280 302 C 243 306 210 314 181 326 C 151 338 127 355 109 378 C 90 401 81 432 81 472 C 81 510 89 542 105 568 C 121 594 141 614 167 630 C 193 646 221 657 252 663 C 283 669 314 673 344 673 C 378 673 411 670 442 664 C 472 658 500 650 526 641 C 552 631 575 621 595 610 C 615 598 631 588 645 578 L 577 500 Z" unicode="" horiz-adv-x="736" />
<glyph d="M 441 366 C 433 370 422 375 409 381 C 396 387 382 392 366 397 C 350 402 333 406 315 410 C 297 413 279 415 262 415 C 236 415 213 410 193 401 C 173 392 164 378 164 359 C 164 347 168 337 176 330 C 184 322 195 317 207 313 C 219 309 231 307 245 306 C 259 304 271 303 282 303 C 303 301 327 299 354 297 C 380 294 405 288 429 278 C 452 268 472 253 488 233 C 504 213 512 185 512 151 C 512 125 507 102 497 82 C 487 62 474 45 457 32 C 440 18 420 8 396 0 C 372 -8 347 -13 320 -15 L 303 -54 C 308 -52 313 -51 318 -50 C 322 -49 327 -49 333 -49 C 345 -49 358 -50 370 -54 C 382 -57 393 -62 403 -69 C 413 -75 421 -84 427 -94 C 433 -104 436 -115 436 -129 C 436 -143 432 -157 424 -169 C 416 -181 404 -191 390 -199 C 375 -207 358 -214 338 -219 C 318 -223 296 -226 272 -226 C 246 -226 221 -223 198 -219 C 174 -214 151 -209 129 -204 L 145 -147 C 165 -151 186 -154 207 -158 C 227 -162 247 -164 267 -164 C 290 -164 308 -161 322 -155 C 336 -149 343 -140 343 -128 C 343 -116 338 -109 328 -106 C 318 -102 307 -101 296 -101 C 287 -101 279 -101 272 -102 C 265 -103 259 -104 253 -106 L 226 -74 L 253 -16 C 229 -14 206 -10 186 -5 C 165 0 146 5 129 12 C 112 19 97 26 83 34 C 69 42 56 49 46 57 L 85 135 C 96 128 109 121 123 113 C 137 105 152 98 169 92 C 185 85 203 79 223 75 C 242 71 263 69 285 69 C 321 69 350 75 374 87 C 397 99 409 117 409 141 C 409 155 404 166 396 174 C 388 182 377 188 365 192 C 353 196 339 199 324 201 C 309 203 295 204 282 205 C 256 206 231 208 205 211 C 179 214 155 220 134 230 C 112 240 95 254 81 272 C 67 290 61 315 61 347 C 61 376 67 400 79 420 C 91 440 106 456 125 468 C 144 480 165 488 189 493 C 213 498 236 501 260 501 C 282 501 305 499 327 495 C 349 491 370 487 390 481 C 409 475 426 469 442 463 C 458 456 470 450 480 445 L 441 366 Z" unicode="" horiz-adv-x="557" />
<glyph d="M 575 500 C 565 508 553 516 539 525 C 525 534 508 542 488 550 C 468 558 445 564 420 569 C 395 573 368 576 338 576 C 318 576 300 574 282 571 C 264 567 248 562 235 555 C 221 547 211 538 203 526 C 195 514 191 499 191 482 C 191 464 196 450 207 440 C 218 430 233 422 251 417 C 269 412 290 409 314 407 C 338 405 362 403 387 401 C 416 399 448 395 483 391 C 518 387 551 378 581 365 C 611 351 637 332 657 306 C 677 280 688 244 688 199 C 688 159 680 126 665 98 C 649 70 628 47 602 30 C 576 12 545 0 510 -8 C 475 -16 438 -20 400 -20 C 356 -20 317 -16 281 -8 C 245 0 213 10 184 23 C 154 36 128 51 105 67 C 81 83 61 100 43 117 L 111 195 C 124 183 140 170 158 156 C 176 142 198 130 222 118 C 246 106 272 96 302 88 C 332 80 365 77 402 77 C 426 77 448 79 470 83 C 491 87 509 94 525 103 C 541 111 553 122 562 136 C 571 149 576 165 576 184 C 576 204 571 221 562 234 C 553 247 540 257 524 265 C 507 273 487 279 464 283 C 441 287 415 290 387 292 C 351 294 314 298 278 302 C 241 306 208 314 179 326 C 149 338 125 355 107 378 C 88 401 79 432 79 472 C 79 510 87 542 103 568 C 119 594 139 614 165 630 C 191 646 219 657 250 663 C 281 669 312 673 342 673 C 376 673 409 670 440 664 C 470 658 498 650 524 641 C 550 631 573 621 593 610 C 613 598 629 588 643 578 L 575 500 Z M 368 789 L 445 863 L 528 863 L 426 730 L 310 730 L 207 863 L 290 863 L 368 789 Z" unicode="" horiz-adv-x="736" />
<glyph d="M 441 366 C 433 370 422 375 409 381 C 396 387 382 392 366 397 C 350 402 333 406 315 410 C 297 413 279 415 262 415 C 236 415 213 410 193 401 C 173 392 164 378 164 359 C 164 347 168 337 176 330 C 184 322 195 317 207 313 C 219 309 231 307 245 306 C 259 304 271 303 282 303 C 303 301 327 299 354 297 C 380 294 405 288 429 278 C 452 268 472 253 488 233 C 504 213 512 185 512 151 C 512 122 506 97 494 76 C 482 55 466 38 446 24 C 426 10 402 0 375 -7 C 347 -13 318 -17 286 -17 C 258 -17 232 -14 208 -10 C 184 -5 162 0 142 8 C 122 15 104 23 88 32 C 72 40 58 49 46 57 L 85 135 C 96 128 109 121 123 113 C 137 105 152 98 169 92 C 185 85 203 79 223 75 C 242 71 263 69 285 69 C 321 69 350 75 374 87 C 397 99 409 117 409 141 C 409 155 404 166 396 174 C 388 182 377 188 365 192 C 353 196 339 199 324 201 C 309 203 295 204 282 205 C 256 206 231 208 205 211 C 179 214 155 220 134 230 C 112 240 95 254 81 272 C 67 290 61 315 61 347 C 61 376 67 400 79 420 C 91 440 106 456 125 468 C 144 480 165 488 189 493 C 213 498 236 501 260 501 C 282 501 305 499 327 495 C 349 491 370 487 390 481 C 409 475 426 469 442 463 C 458 456 470 450 480 445 L 441 366 Z M 200 689 L 278 611 L 355 689 L 438 689 L 336 552 L 220 552 L 117 689 L 200 689 Z" unicode="" horiz-adv-x="557" />
<glyph d="M 30 653 L 655 653 L 655 553 L 399 553 L 399 0 L 375 -54 C 380 -52 385 -51 390 -50 C 394 -49 399 -49 405 -49 C 417 -49 430 -50 442 -54 C 454 -57 465 -62 475 -69 C 485 -75 493 -84 499 -94 C 505 -104 508 -115 508 -129 C 508 -143 504 -157 496 -169 C 488 -181 476 -191 462 -199 C 447 -207 430 -214 410 -219 C 390 -223 368 -226 344 -226 C 318 -226 293 -223 270 -219 C 246 -214 223 -209 201 -204 L 217 -147 C 237 -151 258 -154 279 -158 C 299 -162 319 -164 339 -164 C 362 -164 380 -161 394 -155 C 408 -149 415 -140 415 -128 C 415 -116 410 -109 400 -106 C 390 -102 379 -101 368 -101 C 359 -101 351 -101 344 -102 C 337 -103 331 -104 325 -106 L 298 -74 L 333 0 L 287 0 L 287 553 L 30 553 L 30 653 Z" unicode="" horiz-adv-x="685" />
<glyph d="M 27 483 L 117 483 L 117 626 L 220 626 L 220 483 L 347 483 L 347 402 L 220 402 L 220 120 C 220 104 225 91 235 83 C 245 75 259 71 277 71 C 287 71 299 71 315 73 C 330 75 341 77 347 79 L 357 -2 C 353 -4 347 -7 339 -9 C 331 -11 322 -13 313 -15 C 303 -16 294 -17 284 -18 C 274 -19 265 -20 257 -20 C 253 -20 249 -19 245 -19 C 241 -19 237 -18 234 -18 L 218 -54 C 223 -52 228 -51 233 -50 C 237 -49 242 -49 248 -49 C 260 -49 273 -50 285 -54 C 297 -57 308 -62 318 -69 C 328 -75 336 -84 342 -94 C 348 -104 351 -115 351 -129 C 351 -143 347 -157 339 -169 C 331 -181 319 -191 305 -199 C 290 -207 273 -214 253 -219 C 233 -223 211 -226 187 -226 C 161 -226 136 -223 113 -219 C 89 -214 66 -209 44 -204 L 60 -147 C 80 -151 101 -154 122 -158 C 142 -162 162 -164 182 -164 C 205 -164 223 -161 237 -155 C 251 -149 258 -140 258 -128 C 258 -116 253 -109 243 -106 C 233 -102 222 -101 211 -101 C 202 -101 194 -101 187 -102 C 180 -103 174 -104 168 -106 L 141 -74 L 176 1 C 158 11 144 25 133 45 C 122 64 117 89 117 120 L 117 402 L 27 402 L 27 483 Z" unicode="" horiz-adv-x="394" />
<glyph d="M 30 653 L 655 653 L 655 553 L 399 553 L 399 0 L 287 0 L 287 553 L 30 553 L 30 653 Z M 342 789 L 419 863 L 502 863 L 400 730 L 284 730 L 181 863 L 264 863 L 342 789 Z" unicode="" horiz-adv-x="685" />
<glyph d="M 27 483 L 117 483 L 117 626 L 220 626 L 220 483 L 347 483 L 347 402 L 220 402 L 220 120 C 220 104 225 91 235 83 C 245 75 259 71 277 71 C 287 71 299 71 315 73 C 330 75 341 77 347 79 L 357 -2 C 353 -4 347 -7 339 -9 C 331 -11 322 -13 313 -15 C 303 -16 294 -17 284 -18 C 274 -19 265 -20 257 -20 C 241 -20 224 -17 208 -13 C 191 -8 176 0 163 10 C 149 21 138 36 130 54 C 121 72 117 94 117 120 L 117 402 L 27 402 L 27 483 Z M 283 549 L 283 775 L 386 775 C 386 728 382 687 376 652 C 369 617 357 583 341 549 L 283 549 Z" unicode="" horiz-adv-x="394" />
<glyph d="M 30 653 L 655 653 L 655 553 L 399 553 L 399 381 L 549 381 L 549 291 L 399 291 L 399 0 L 287 0 L 287 291 L 137 291 L 137 381 L 287 381 L 287 553 L 30 553 L 30 653 Z" unicode="" horiz-adv-x="685" />
<glyph d="M 27 483 L 117 483 L 117 626 L 220 626 L 220 483 L 347 483 L 347 402 L 220 402 L 220 278 L 347 278 L 347 208 L 220 208 L 220 120 C 220 104 225 91 235 83 C 245 75 259 71 277 71 C 287 71 299 71 315 73 C 330 75 341 77 347 79 L 357 -2 C 353 -4 347 -7 339 -9 C 331 -11 322 -13 313 -15 C 303 -16 294 -17 284 -18 C 274 -19 265 -20 257 -20 C 241 -20 224 -17 208 -13 C 191 -8 176 0 163 10 C 149 21 138 36 130 54 C 121 72 117 94 117 120 L 117 208 L 27 208 L 27 278 L 117 278 L 117 402 L 27 402 L 27 483 Z" unicode="" horiz-adv-x="394" />
<glyph d="M 679 653 L 679 232 C 679 192 671 156 657 125 C 642 93 622 67 596 45 C 570 23 539 7 504 -3 C 468 -14 430 -20 389 -20 C 347 -20 309 -14 274 -3 C 238 7 208 23 182 45 C 156 67 136 93 122 125 C 107 156 100 192 100 232 L 100 653 L 212 653 L 212 232 C 212 207 216 185 225 167 C 234 148 247 132 263 119 C 279 106 297 96 319 90 C 341 83 364 80 389 80 C 413 80 436 83 458 90 C 480 96 499 106 515 119 C 531 132 543 148 553 167 C 562 185 567 207 567 232 L 567 653 L 679 653 Z M 208 765 C 227 797 245 820 263 833 C 281 846 300 853 322 853 C 336 853 348 850 359 846 C 370 841 381 835 393 827 C 402 820 411 814 420 809 C 429 803 438 801 448 801 C 460 801 470 805 479 815 C 487 824 496 834 504 846 L 566 812 C 549 782 531 759 513 745 C 495 730 474 723 452 723 C 438 723 426 725 414 730 C 402 734 391 740 382 747 C 371 754 362 760 354 766 C 346 772 337 775 328 775 C 316 775 306 770 298 760 C 290 750 282 739 275 729 L 208 765 Z" unicode="" horiz-adv-x="779" />
<glyph d="M 424 71 C 414 59 405 48 395 38 C 385 28 373 19 361 11 C 348 3 334 -3 318 -8 C 302 -12 285 -15 265 -15 C 239 -15 214 -10 192 -2 C 169 5 149 17 133 33 C 116 48 103 66 93 87 C 83 107 79 130 79 156 L 79 483 L 183 483 L 183 156 C 183 134 192 115 210 99 C 228 83 252 75 282 75 C 312 75 337 83 359 99 C 380 115 398 132 414 152 L 414 483 L 517 483 L 517 133 C 517 111 517 90 518 68 C 518 46 521 23 526 0 L 431 0 C 428 10 426 22 425 35 C 424 48 424 60 424 71 Z M 121 587 C 140 619 158 642 176 655 C 194 668 213 675 235 675 C 249 675 261 672 272 668 C 283 663 294 657 306 649 C 315 642 324 636 333 631 C 342 625 351 623 361 623 C 373 623 383 627 392 637 C 400 646 409 656 417 668 L 479 634 C 462 604 444 581 426 567 C 408 552 387 545 365 545 C 351 545 339 547 327 552 C 315 556 304 562 295 569 C 284 576 275 582 267 588 C 259 594 250 597 241 597 C 229 597 219 592 211 582 C 203 572 195 561 188 551 L 121 587 Z" unicode="" horiz-adv-x="604" />
<glyph d="M 679 653 L 679 232 C 679 192 671 156 657 125 C 642 93 622 67 596 45 C 570 23 539 7 504 -3 C 468 -14 430 -20 389 -20 C 347 -20 309 -14 274 -3 C 238 7 208 23 182 45 C 156 67 136 93 122 125 C 107 156 100 192 100 232 L 100 653 L 212 653 L 212 232 C 212 207 216 185 225 167 C 234 148 247 132 263 119 C 279 106 297 96 319 90 C 341 83 364 80 389 80 C 413 80 436 83 458 90 C 480 96 499 106 515 119 C 531 132 543 148 553 167 C 562 185 567 207 567 232 L 567 653 L 679 653 Z M 519 835 L 519 755 L 258 755 L 258 835 L 519 835 Z" unicode="" horiz-adv-x="779" />
<glyph d="M 424 71 C 414 59 405 48 395 38 C 385 28 373 19 361 11 C 348 3 334 -3 318 -8 C 302 -12 285 -15 265 -15 C 239 -15 214 -10 192 -2 C 169 5 149 17 133 33 C 116 48 103 66 93 87 C 83 107 79 130 79 156 L 79 483 L 183 483 L 183 156 C 183 134 192 115 210 99 C 228 83 252 75 282 75 C 312 75 337 83 359 99 C 380 115 398 132 414 152 L 414 483 L 517 483 L 517 133 C 517 111 517 90 518 68 C 518 46 521 23 526 0 L 431 0 C 428 10 426 22 425 35 C 424 48 424 60 424 71 Z M 432 657 L 432 577 L 171 577 L 171 657 L 432 657 Z" unicode="" horiz-adv-x="604" />
</font>
</defs>
</svg>
