<svg id="icon-instagram" viewBox="0 0 27 27"><g fill="#FFF" fill-rule="nonzero"><path d="M15.721 13.196a2.525 2.525 0 11-5.052 0 2.525 2.525 0 015.052 0z"></path><path d="M19.102 8.727a2.337 2.337 0 00-.566-.871 2.339 2.339 0 00-.872-.567c-.267-.104-.668-.227-1.406-.26-.8-.037-1.04-.045-3.062-.045-2.024 0-2.263.007-3.062.044-.739.034-1.14.157-1.407.26-.33.122-.627.316-.871.568a2.34 2.34 0 00-.567.87c-.104.268-.227.67-.261 1.408-.037.799-.044 1.038-.044 3.062 0 2.023.007 2.263.044 3.062.034.739.157 1.14.26 1.407.122.329.316.626.567.87.245.253.542.446.872.568.267.104.668.227 1.407.26.799.037 1.038.045 3.061.045 2.024 0 2.264-.008 3.062-.044.74-.034 1.14-.157 1.407-.261a2.509 2.509 0 001.438-1.438c.104-.267.228-.668.261-1.407.037-.8.044-1.039.044-3.062 0-2.024-.007-2.263-.044-3.062-.033-.739-.157-1.14-.26-1.407zm-5.906 8.36a3.89 3.89 0 11-.001-7.782 3.89 3.89 0 11.001 7.782zm4.044-7.027a.91.91 0 110-1.82.91.91 0 010 1.821z"></path><path d="M13.196 0C5.909 0 0 5.909 0 13.196 0 20.482 5.909 26.39 13.196 26.39c7.286 0 13.195-5.909 13.195-13.195C26.391 5.909 20.482 0 13.196 0zm7.531 16.32c-.037.806-.165 1.357-.352 1.839a3.875 3.875 0 01-2.216 2.216c-.482.187-1.033.315-1.84.352-.807.037-1.065.046-3.123.046-2.058 0-2.316-.009-3.124-.046-.807-.037-1.358-.165-1.84-.352a3.726 3.726 0 01-1.342-.874 3.715 3.715 0 01-.873-1.342c-.188-.482-.316-1.033-.353-1.84-.037-.807-.046-1.066-.046-3.123 0-2.058.01-2.316.046-3.124.037-.807.165-1.358.352-1.84.19-.505.489-.963.874-1.342a3.74 3.74 0 011.342-.874c.482-.187 1.033-.315 1.84-.352.808-.037 1.066-.046 3.124-.046 2.057 0 2.316.01 3.124.046.806.037 1.357.165 1.839.352.505.19.964.489 1.342.874.385.379.684.837.874 1.342.187.482.315 1.033.352 1.84.037.808.046 1.066.046 3.124 0 2.057-.009 2.316-.046 3.124z"></path></g></svg>