<svg id="icon-linkedin" viewBox="0 0 30 30"><rect width="100%" height="100%" fill="none"></rect><g class="currentLayer"><path d="M14.995.07c8.262 0 14.924 6.663 14.924 14.925s-6.662 14.924-14.924 14.924S.071 23.257.071 14.995 6.733.071 14.995.071zm3.77 12.65c-1.473 0-2.128.783-2.498 1.33v-1.14h-2.772c.01.203.015.885.016 1.772v1.45c-.002 1.842-.012 3.905-.014 4.594v.177l-.002.062h2.77v-4.499c0-.239.023-.481.096-.654.203-.48.654-.98 1.422-.98 1.003 0 1.403.737 1.403 1.821v4.312h2.773v-4.618c0-2.475-1.366-3.626-3.194-3.626zm-6.803.19h-2.77v8.055h2.772v-8.056zm-1.368-3.885c-.948 0-1.569.6-1.569 1.394 0 .77.603 1.392 1.533 1.392h.017c.97 0 1.57-.621 1.57-1.392-.02-.793-.6-1.394-1.55-1.394z" fill-rule="evenodd"></path><path d="M-65.068-4.216c7.452 0 13.46 6.008 13.46 13.46s-6.008 13.459-13.46 13.459-13.46-6.008-13.46-13.46 6.01-13.46 13.46-13.46zm3.4 11.408c-1.328 0-1.92.705-2.253 1.2v-1.03h-2.499c.009.184.013.8.014 1.6v1.308c-.002 1.66-.01 3.52-.013 4.142v.16l-.001.055h2.498V10.57c0-.215.02-.434.086-.59.183-.433.59-.883 1.283-.883.904 0 1.265.664 1.265 1.642v3.888h2.501v-4.165c0-2.232-1.232-3.27-2.88-3.27zm-6.135.17H-70.3v7.265h2.5V7.362zm-1.234-3.502c-.855 0-1.415.541-1.415 1.256 0 .696.544 1.256 1.383 1.256h.015c.874 0 1.416-.56 1.416-1.256-.017-.715-.542-1.256-1.399-1.256z" fill="none" fill-rule="evenodd"></path></g></svg>