<?xml version="1.0" encoding="utf-8" ?><svg version="1.1" xmlns = 'http://www.w3.org/2000/svg'><defs><font id='web' horiz-adv-x="1000">
<font-face font-family="web" bbox="-134,-307,1558,1097" ascent="770" units-per-em="1000" x-height="488" cap-height="653" descent="-230" />
<missing-glyph horiz-adv-x="579" d="M 0 653 L 579 653 L 579 0 L 0 0 L 0 653 Z M 147 92 L 431 92 L 289 252 L 147 92 Z M 289 401 L 431 561 L 147 561 L 289 401 Z M 477 190 L 477 463 L 355 326 L 477 190 Z M 102 463 L 102 190 L 223 326 L 102 463 Z" /><glyph d="" horiz-adv-x="225" unicode=" " />
<glyph d="M 68 69 C 68 92 76 112 94 129 C 112 145 134 154 161 154 C 173 154 185 151 197 147 C 209 142 219 136 227 128 C 235 120 242 111 247 101 C 252 91 255 80 255 69 C 255 57 252 46 247 36 C 242 26 235 17 227 9 C 219 1 209 -4 197 -8 C 185 -12 173 -15 161 -15 C 134 -15 112 -6 94 9 C 76 25 68 45 68 69 Z M 115 218 L 85 480 L 85 653 L 237 653 L 237 480 L 207 218 L 115 218 Z" horiz-adv-x="323" unicode="!" />
<glyph d="M 83 357 L 58 532 L 58 653 L 200 653 L 200 532 L 174 357 L 83 357 Z M 348 357 L 323 532 L 323 653 L 465 653 L 465 532 L 439 357 L 348 357 Z" horiz-adv-x="523" unicode="&#x22;" />
<glyph d="M 677 666 L 646 488 L 845 488 L 845 384 L 627 384 L 596 207 L 786 207 L 786 104 L 578 104 L 542 -105 L 451 -105 L 487 104 L 318 104 L 282 -105 L 191 -105 L 227 104 L 31 104 L 31 207 L 245 207 L 276 384 L 90 384 L 90 488 L 295 488 L 326 666 L 417 666 L 386 488 L 555 488 L 586 666 L 677 666 Z M 336 207 L 505 207 L 536 384 L 367 384 L 336 207 Z" horiz-adv-x="878" unicode="#" />
<glyph d="M 272 -11 C 217 -1 169 13 129 35 C 88 56 53 78 25 101 L 102 194 C 121 178 146 161 178 142 C 209 122 246 108 289 99 L 305 262 C 273 264 243 269 213 275 C 183 281 156 290 133 303 C 110 315 92 332 78 354 C 64 376 57 404 57 438 C 57 475 65 506 81 531 C 97 556 117 576 143 591 C 168 606 196 617 228 623 C 260 629 291 633 323 633 C 325 633 328 632 330 632 C 332 632 335 632 339 632 L 348 723 L 443 723 L 432 623 C 476 615 515 603 551 589 C 587 574 615 560 637 547 L 559 453 C 545 463 525 473 500 484 C 474 495 446 504 414 512 L 400 379 C 430 376 460 372 490 366 C 520 360 548 350 573 336 C 598 322 618 304 634 281 C 650 257 658 227 658 189 C 658 151 650 119 635 93 C 620 67 600 45 574 28 C 548 11 517 0 483 -8 C 448 -16 411 -20 373 -20 L 364 -20 L 353 -140 L 258 -140 L 272 -11 Z M 521 175 C 521 203 509 222 485 233 C 461 243 429 251 388 255 L 372 90 L 376 90 C 418 90 453 97 480 111 C 507 125 521 147 521 175 Z M 195 448 C 195 436 198 426 206 418 C 213 410 222 404 234 400 C 246 395 259 391 273 389 C 287 387 302 385 317 385 L 331 522 L 320 522 C 282 522 251 515 229 503 C 206 491 195 472 195 448 Z" horiz-adv-x="695" unicode="$" />
<glyph d="M 763 653 L 392 0 L 277 0 L 649 653 L 763 653 Z M 30 479 C 30 505 35 529 46 552 C 56 575 71 595 90 613 C 108 630 130 644 155 654 C 180 664 207 669 237 669 C 265 669 292 664 318 654 C 343 644 365 630 384 613 C 403 595 418 575 430 552 C 441 529 447 505 447 479 C 447 452 441 427 430 404 C 418 380 403 360 384 343 C 365 325 343 312 318 302 C 292 292 265 287 237 287 C 207 287 180 292 155 302 C 130 312 108 325 90 343 C 71 360 56 380 46 404 C 35 427 30 452 30 479 Z M 150 479 C 150 467 152 455 157 444 C 161 433 167 423 175 415 C 183 407 192 400 203 396 C 213 391 225 389 237 389 C 262 389 283 397 301 415 C 318 433 327 454 327 479 C 327 503 318 524 301 542 C 283 559 262 568 237 568 C 213 568 192 559 175 542 C 158 524 150 503 150 479 Z M 593 175 C 593 201 598 225 609 248 C 619 271 634 291 653 309 C 671 326 693 340 718 350 C 743 360 770 365 800 365 C 828 365 855 360 881 350 C 906 340 928 326 947 309 C 966 291 981 271 993 248 C 1004 225 1010 201 1010 175 C 1010 149 1004 124 993 101 C 981 77 966 57 947 40 C 928 22 906 9 881 -1 C 855 -11 828 -16 800 -16 C 770 -16 743 -11 718 -1 C 693 9 671 22 653 40 C 634 57 619 77 609 101 C 598 124 593 149 593 175 Z M 713 175 C 713 163 715 151 720 140 C 724 129 730 119 738 111 C 746 103 755 96 766 92 C 776 87 788 85 800 85 C 824 85 845 93 863 111 C 881 129 890 150 890 175 C 890 199 881 220 863 238 C 845 255 824 264 800 264 C 776 264 755 255 738 238 C 721 220 713 199 713 175 Z" horiz-adv-x="1040" unicode="%" />
<glyph d="M 527 477 C 519 481 511 485 501 489 C 491 493 480 497 468 501 C 456 505 445 508 433 510 C 421 512 410 514 400 514 C 378 514 361 509 351 499 C 340 489 335 479 335 467 C 335 456 338 445 345 433 C 352 421 360 409 370 398 C 380 386 389 376 399 367 C 408 358 415 351 420 347 L 542 220 C 559 238 577 259 595 283 C 613 306 632 333 651 363 L 757 311 C 733 275 710 243 688 215 C 665 187 643 161 621 139 L 755 0 L 578 0 L 523 56 C 485 30 447 12 409 1 C 370 -9 335 -15 303 -15 C 275 -15 248 -11 220 -3 C 192 4 166 16 144 32 C 122 48 103 68 89 93 C 75 118 68 148 68 184 C 68 210 72 233 80 253 C 88 273 99 290 113 306 C 127 321 143 334 162 346 C 180 358 200 368 222 376 C 212 390 205 404 200 418 C 195 432 193 448 193 465 C 193 491 198 514 210 535 C 221 555 236 573 255 588 C 274 602 296 613 321 621 C 346 629 373 633 401 633 C 438 633 473 627 506 616 C 538 605 565 594 587 584 L 527 477 Z M 286 300 C 266 290 249 277 233 260 C 217 243 209 221 209 194 C 209 176 212 162 220 150 C 227 138 236 128 247 121 C 258 113 270 108 284 105 C 297 102 310 101 322 101 C 338 101 356 103 376 109 C 396 115 418 125 442 139 L 286 300 Z" horiz-adv-x="785" unicode="&#x26;" />
<glyph d="M 84 357 L 58 532 L 58 653 L 200 653 L 200 532 L 175 357 L 84 357 Z" horiz-adv-x="259" unicode="'" />
<glyph d="M 381 614 C 351 596 323 575 298 551 C 273 526 252 498 234 468 C 216 438 203 405 193 371 C 183 336 179 300 179 263 C 179 225 183 189 193 155 C 203 121 216 89 234 59 C 252 29 273 1 298 -22 C 323 -46 351 -67 381 -85 L 314 -167 C 226 -121 158 -61 110 13 C 61 87 37 171 37 263 C 37 309 43 353 56 395 C 68 437 86 477 110 514 C 134 551 163 585 197 616 C 231 646 270 673 314 696 L 381 614 Z" horiz-adv-x="402" unicode="(" />
<glyph d="M 88 696 C 131 673 170 646 204 616 C 238 585 267 551 291 514 C 315 477 333 437 346 395 C 358 353 365 309 365 263 C 365 171 340 87 292 13 C 243 -61 175 -121 88 -167 L 21 -85 C 51 -67 78 -46 103 -22 C 128 1 149 29 167 59 C 185 89 198 121 208 155 C 218 189 223 225 223 263 C 223 300 218 336 208 371 C 198 405 185 438 167 468 C 149 498 128 526 103 551 C 78 575 51 596 21 614 L 88 696 Z" horiz-adv-x="402" unicode=")" />
<glyph d="M 113 296 L 207 434 L 48 493 L 76 578 L 236 531 L 243 700 L 340 700 L 348 532 L 507 578 L 535 494 L 376 434 L 469 296 L 396 241 L 291 370 L 187 241 L 113 296 Z" horiz-adv-x="582" unicode="*" />
<glyph d="M 86 322 L 312 322 L 312 510 L 443 510 L 443 322 L 667 322 L 667 208 L 443 208 L 443 20 L 312 20 L 312 208 L 86 208 L 86 322 Z" horiz-adv-x="753" unicode="+" />
<glyph d="M 39 -116 C 50 -112 63 -107 77 -100 C 91 -93 105 -85 118 -75 C 130 -65 141 -53 150 -41 C 158 -29 163 -16 163 -2 L 163 6 C 159 4 154 3 150 2 C 145 1 140 1 134 1 C 112 1 94 8 79 22 C 63 36 56 53 56 74 C 56 96 65 115 83 131 C 101 146 123 154 149 154 C 164 154 179 150 193 144 C 207 138 219 129 229 118 C 239 106 248 93 254 77 C 260 61 264 43 264 24 C 264 -8 257 -35 245 -59 C 233 -83 217 -103 199 -121 C 181 -139 160 -153 138 -165 C 116 -176 95 -185 75 -192 L 39 -116 Z" horiz-adv-x="316" unicode="," />
<glyph d="M 62 322 L 341 322 L 341 198 L 62 198 L 62 322 Z" horiz-adv-x="404" unicode="-" />
<glyph d="M 56 69 C 56 80 58 91 63 101 C 67 111 74 120 82 128 C 90 136 100 142 111 147 C 122 151 134 154 148 154 C 174 154 197 145 215 129 C 233 112 242 92 242 69 C 242 57 239 46 235 36 C 230 26 223 17 215 9 C 206 1 196 -4 185 -8 C 173 -12 161 -15 148 -15 C 122 -15 100 -6 82 9 C 64 25 56 45 56 69 Z" horiz-adv-x="298" unicode="." />
<glyph d="M 173 -119 L 38 -119 L 382 653 L 516 653 L 173 -119 Z" horiz-adv-x="557" unicode="/" />
<glyph d="M 48 307 C 48 352 57 394 76 434 C 94 474 120 508 152 538 C 184 567 221 590 263 607 C 305 624 351 633 399 633 C 447 633 492 624 535 607 C 578 590 616 567 648 538 C 680 508 706 474 725 434 C 743 394 753 352 753 307 C 753 261 743 219 725 179 C 706 139 680 105 648 75 C 616 45 578 22 535 5 C 492 -11 447 -20 399 -20 C 351 -20 305 -11 263 5 C 221 22 184 45 152 75 C 120 105 94 139 76 179 C 57 219 48 261 48 307 Z M 190 307 C 190 279 195 252 206 228 C 217 203 232 181 251 162 C 269 143 291 128 317 117 C 342 106 369 101 399 101 C 427 101 455 106 481 117 C 507 128 529 143 548 162 C 567 181 582 203 594 228 C 605 252 611 279 611 307 C 611 335 605 361 594 386 C 582 410 567 432 548 451 C 529 469 507 484 481 495 C 455 505 427 511 399 511 C 369 511 342 505 317 495 C 291 484 269 469 251 451 C 232 432 217 410 206 386 C 195 361 190 335 190 307 Z" horiz-adv-x="801" unicode="0" />
<glyph d="M 15 531 L 212 613 L 340 613 L 340 0 L 198 0 L 198 481 L 45 418 L 15 531 Z" horiz-adv-x="445" unicode="1" />
<glyph d="M 59 516 C 79 530 99 545 120 559 C 140 573 162 586 186 597 C 209 607 234 616 262 623 C 289 629 319 633 353 633 C 385 633 416 629 448 622 C 479 615 507 604 532 590 C 556 576 576 557 592 534 C 607 511 615 484 615 452 C 615 417 606 388 590 365 C 573 341 552 322 527 306 C 502 290 475 277 445 267 C 415 257 387 248 361 240 C 312 225 273 209 245 191 C 216 173 202 148 202 118 L 202 112 L 603 112 L 603 0 L 60 0 L 60 95 C 60 133 67 166 83 194 C 98 222 119 247 145 268 C 171 289 201 307 235 321 C 269 335 306 348 345 358 C 355 360 367 364 382 369 C 396 373 410 379 424 387 C 438 394 449 403 459 413 C 468 423 473 436 473 451 C 473 463 469 473 462 481 C 455 489 446 496 435 501 C 424 506 412 510 398 512 C 384 514 371 516 357 516 C 333 516 312 513 292 509 C 272 504 253 497 235 489 C 217 480 201 470 185 459 C 169 447 153 435 137 423 L 59 516 Z" horiz-adv-x="672" unicode="2" />
<glyph d="M 315 375 L 429 375 C 450 375 468 380 483 392 C 498 404 506 419 506 439 C 506 453 502 465 494 475 C 486 485 477 493 465 499 C 453 505 439 509 425 512 C 411 514 397 516 384 516 C 364 516 343 513 323 508 C 303 502 283 495 264 487 C 245 478 227 468 209 457 C 191 445 175 433 161 421 L 81 507 C 99 522 120 537 142 552 C 164 567 188 581 214 593 C 239 605 266 614 295 622 C 324 629 354 633 386 633 C 413 633 442 629 473 623 C 503 617 532 607 558 593 C 584 579 605 560 622 538 C 639 516 648 489 648 457 C 648 429 640 406 625 386 C 609 366 593 352 577 343 C 589 338 603 332 617 324 C 631 316 643 307 655 295 C 667 283 676 268 684 252 C 691 236 695 217 695 195 C 695 160 686 129 669 103 C 651 76 628 53 598 35 C 568 17 532 3 492 -6 C 452 -15 409 -20 363 -20 C 296 -20 235 -9 181 10 C 126 30 75 63 27 108 L 106 200 C 140 170 177 145 218 125 C 259 105 307 96 363 96 C 389 96 414 98 437 103 C 460 107 480 114 497 123 C 514 132 528 143 538 156 C 548 169 553 184 553 201 C 553 215 549 226 542 235 C 534 243 525 250 515 255 C 504 260 493 263 481 265 C 469 267 458 268 448 268 L 315 268 L 315 375 Z" horiz-adv-x="743" unicode="3" />
<glyph d="M 741 129 L 624 129 L 624 0 L 483 0 L 483 129 L 27 129 L 27 215 L 496 613 L 624 613 L 624 236 L 741 236 L 741 129 Z M 227 236 L 483 236 L 483 444 L 472 444 L 227 240 L 227 236 Z" horiz-adv-x="781" unicode="4" />
<glyph d="M 616 496 L 227 496 L 227 353 C 253 371 281 386 310 397 C 339 408 375 414 419 414 C 451 414 484 410 516 402 C 548 394 577 381 602 365 C 627 348 647 327 663 302 C 679 277 687 247 687 213 C 687 171 677 135 658 105 C 638 75 613 51 582 33 C 551 15 516 1 477 -7 C 438 -15 399 -20 359 -20 C 318 -20 281 -16 247 -9 C 213 -2 182 6 154 17 C 126 27 102 39 82 51 C 61 63 43 73 29 83 L 98 180 C 110 172 124 163 141 153 C 158 143 178 134 200 126 C 222 117 247 110 274 104 C 300 98 329 96 360 96 C 382 96 404 98 426 102 C 448 106 467 113 484 123 C 501 133 515 145 525 160 C 535 174 540 192 540 212 C 540 228 536 241 528 253 C 520 264 509 273 496 281 C 483 289 468 294 451 298 C 434 301 417 303 399 303 C 353 303 313 296 279 283 C 245 270 213 255 183 238 L 99 297 L 99 613 L 616 613 L 616 496 Z" horiz-adv-x="728" unicode="5" />
<glyph d="M 600 474 C 574 487 546 497 516 505 C 485 513 453 517 421 517 C 390 517 361 512 333 503 C 305 494 280 481 259 464 C 237 446 220 425 206 400 C 192 374 185 345 184 313 C 199 324 216 335 234 346 C 252 357 271 367 292 375 C 313 383 336 390 360 395 C 384 400 409 403 436 403 C 480 403 518 397 551 385 C 583 373 610 358 632 340 C 654 321 670 300 681 276 C 692 252 698 229 698 205 C 698 173 690 144 676 117 C 661 89 641 65 615 45 C 589 25 557 9 521 -2 C 485 -14 445 -20 402 -20 C 356 -20 313 -13 271 0 C 229 13 191 33 158 60 C 125 86 99 119 79 159 C 59 198 50 244 50 296 C 50 348 60 396 80 438 C 100 480 128 515 162 544 C 196 572 235 594 279 610 C 323 625 370 633 418 633 C 448 633 475 630 501 626 C 527 621 550 615 571 609 C 592 603 611 596 627 589 C 643 581 657 575 669 570 L 600 474 Z M 416 296 C 374 296 333 289 295 275 C 257 261 223 245 195 229 C 210 185 237 152 275 130 C 313 107 355 96 402 96 C 424 96 445 99 464 105 C 483 111 499 120 513 130 C 527 140 537 151 545 165 C 553 178 557 192 557 206 C 557 216 554 226 549 237 C 544 247 536 257 525 266 C 513 274 499 281 481 287 C 463 293 442 296 416 296 Z" horiz-adv-x="744" unicode="6" />
<glyph d="M 38 613 L 627 613 L 627 502 L 282 0 L 103 0 L 457 491 L 38 491 L 38 613 Z" horiz-adv-x="662" unicode="7" />
<glyph d="M 373 -22 C 331 -22 291 -17 252 -8 C 213 0 179 13 149 31 C 119 48 94 69 76 94 C 58 119 49 148 49 180 C 49 200 52 219 60 237 C 68 254 78 269 92 283 C 105 296 120 307 138 317 C 156 327 174 334 194 340 C 160 349 133 364 114 384 C 95 404 86 430 86 462 C 86 490 95 515 113 537 C 131 559 154 577 182 592 C 210 606 241 617 275 624 C 309 631 342 635 374 635 C 405 635 438 631 472 624 C 506 617 537 606 565 592 C 593 577 616 559 634 537 C 652 515 661 489 661 459 C 661 397 625 358 553 340 C 572 334 590 327 608 317 C 626 307 641 296 655 283 C 668 269 678 254 686 237 C 694 219 698 200 698 180 C 698 148 688 119 670 94 C 652 69 627 48 597 31 C 566 13 531 0 492 -8 C 453 -17 413 -22 373 -22 Z M 373 94 C 394 94 415 96 436 100 C 457 104 476 111 492 119 C 508 127 522 136 532 148 C 542 160 547 173 547 189 C 547 205 541 218 531 230 C 520 241 506 250 489 258 C 472 266 453 271 433 275 C 412 279 392 281 373 281 C 353 281 333 279 313 275 C 292 271 273 266 257 258 C 240 250 226 241 216 230 C 205 218 200 205 200 189 C 200 173 205 160 215 148 C 225 136 238 127 254 119 C 270 111 289 104 310 100 C 330 96 351 94 373 94 Z M 373 382 C 417 382 450 388 474 400 C 498 412 510 429 510 451 C 510 463 505 474 497 484 C 488 494 477 502 464 509 C 450 515 436 520 420 523 C 404 526 388 528 373 528 C 357 528 342 526 326 523 C 310 520 295 515 282 509 C 268 502 257 494 249 484 C 241 474 237 463 237 451 C 237 429 248 412 272 400 C 295 388 329 382 373 382 Z" horiz-adv-x="747" unicode="8" />
<glyph d="M 142 139 C 166 125 194 115 225 107 C 256 99 288 96 321 96 C 351 96 380 100 408 109 C 436 118 460 131 482 149 C 504 166 521 187 535 213 C 548 238 556 267 558 300 C 527 276 491 255 449 237 C 407 219 359 210 306 210 C 262 210 223 215 191 227 C 158 239 131 254 109 272 C 87 290 71 311 60 335 C 49 359 44 383 44 407 C 44 438 51 467 66 495 C 80 523 101 547 127 567 C 153 587 184 603 220 615 C 256 627 295 633 339 633 C 383 633 427 626 469 613 C 511 599 549 579 582 553 C 615 526 641 493 661 454 C 681 414 691 369 691 317 C 691 263 680 216 660 174 C 640 132 613 97 579 69 C 545 40 505 18 461 3 C 417 -12 371 -20 323 -20 C 293 -20 265 -17 239 -13 C 213 -9 190 -3 169 3 C 148 9 129 16 113 23 C 97 30 83 36 73 42 L 142 139 Z M 325 317 C 367 317 407 324 445 338 C 483 352 517 367 546 383 C 538 405 528 424 514 440 C 500 456 484 470 466 482 C 448 493 428 501 406 507 C 384 513 362 516 340 516 C 317 516 296 513 277 507 C 258 501 242 492 228 482 C 214 472 204 460 196 447 C 188 434 185 421 185 407 C 185 397 187 386 192 376 C 197 365 205 355 216 347 C 227 338 242 331 260 325 C 278 319 299 317 325 317 Z" horiz-adv-x="741" unicode="9" />
<glyph d="M 74 69 C 74 92 82 112 100 128 C 118 144 140 153 166 153 C 192 153 215 144 233 128 C 251 112 260 92 260 69 C 260 57 257 46 253 36 C 248 26 241 17 233 9 C 224 1 214 -4 203 -8 C 191 -12 179 -15 166 -15 C 140 -15 118 -6 100 9 C 82 25 74 45 74 69 Z M 74 410 C 74 433 82 453 100 470 C 118 486 140 495 166 495 C 192 495 215 486 233 470 C 251 453 260 433 260 410 C 260 398 257 387 253 377 C 248 367 241 358 233 350 C 224 342 214 336 203 332 C 191 328 179 326 166 326 C 140 326 118 334 100 350 C 82 366 74 386 74 410 Z" horiz-adv-x="333" unicode=":" />
<glyph d="M 55 -116 C 66 -112 79 -107 93 -100 C 107 -93 121 -85 134 -75 C 146 -65 157 -53 166 -41 C 174 -29 179 -16 179 -2 L 179 6 C 175 4 170 3 165 2 C 160 1 155 1 150 1 C 128 1 109 8 94 22 C 79 36 72 53 72 74 C 72 96 80 115 98 131 C 116 146 138 154 164 154 C 179 154 194 150 208 144 C 222 138 234 129 245 118 C 255 106 264 93 270 77 C 276 61 280 43 280 24 C 280 -8 273 -35 261 -59 C 249 -83 233 -103 215 -121 C 197 -139 176 -153 154 -165 C 132 -176 111 -185 91 -192 L 55 -116 Z M 74 410 C 74 433 82 453 100 470 C 118 486 140 495 166 495 C 192 495 215 486 233 470 C 251 453 260 433 260 410 C 260 398 257 387 253 377 C 248 367 241 358 233 350 C 224 342 214 336 203 332 C 191 328 179 326 166 326 C 140 326 118 334 100 350 C 82 366 74 386 74 410 Z" horiz-adv-x="336" unicode=";" />
<glyph d="M 667 380 L 279 271 L 279 259 L 667 150 L 667 22 L 86 209 L 86 322 L 667 509 L 667 380 Z" horiz-adv-x="753" unicode="&#x3C;" />
<glyph d="M 86 443 L 667 443 L 667 328 L 86 328 L 86 443 Z M 86 202 L 667 202 L 667 87 L 86 87 L 86 202 Z" horiz-adv-x="753" unicode="=" />
<glyph d="M 86 509 L 667 322 L 667 209 L 86 22 L 86 150 L 475 259 L 475 271 L 86 380 L 86 509 Z" horiz-adv-x="753" unicode="&#x3E;" />
<glyph d="M 41 551 C 57 567 73 582 90 597 C 107 611 126 624 147 635 C 168 646 192 655 218 662 C 244 668 274 672 308 672 C 336 672 363 669 389 663 C 415 657 437 648 457 635 C 477 622 492 605 504 585 C 516 565 522 540 522 510 C 522 473 513 443 496 421 C 478 399 457 379 433 362 C 419 351 405 341 390 332 C 375 323 361 313 349 303 C 336 293 325 281 316 268 C 307 254 302 238 302 218 L 172 218 C 170 250 175 277 187 299 C 198 321 212 341 230 358 C 247 374 266 389 287 402 C 307 415 326 428 344 442 C 356 451 367 460 377 470 C 386 480 391 492 391 506 C 391 525 382 540 365 550 C 347 560 326 565 301 565 C 263 565 230 556 204 540 C 177 523 151 501 126 474 L 41 551 Z M 162 69 C 162 92 170 112 188 129 C 206 145 228 154 255 154 C 281 154 304 145 322 129 C 340 112 349 92 349 69 C 349 57 346 46 341 36 C 336 26 329 17 321 9 C 313 1 303 -4 291 -8 C 279 -12 267 -15 255 -15 C 229 -15 207 -6 189 9 C 171 25 162 45 162 69 Z" horiz-adv-x="574" unicode="?" />
<glyph d="M 775 487 L 691 231 C 687 221 685 214 684 208 C 682 202 682 196 682 191 C 682 165 695 152 723 152 C 739 152 757 157 775 167 C 793 177 809 191 824 209 C 839 227 851 248 861 274 C 870 299 875 327 875 358 C 875 394 867 428 853 459 C 838 490 817 517 791 540 C 764 562 732 580 694 593 C 656 605 614 612 568 612 C 514 612 463 603 414 586 C 365 568 322 544 285 512 C 248 480 219 442 197 398 C 175 353 164 303 164 248 C 164 193 174 145 196 105 C 217 64 244 30 278 4 C 312 -22 350 -42 392 -55 C 434 -68 477 -75 519 -75 C 542 -75 566 -73 591 -69 C 615 -65 639 -61 663 -55 C 686 -49 708 -42 729 -35 C 749 -27 767 -20 783 -12 L 815 -95 C 800 -103 781 -111 759 -120 C 737 -129 712 -137 686 -145 C 660 -152 632 -158 602 -163 C 572 -167 543 -170 514 -170 C 460 -170 406 -161 351 -144 C 295 -127 245 -101 200 -67 C 155 -33 118 10 90 62 C 61 114 47 176 47 247 C 47 317 61 380 90 437 C 118 493 157 542 205 582 C 253 622 308 652 371 674 C 433 696 499 707 568 707 C 630 707 687 698 738 680 C 789 662 833 638 869 607 C 905 576 932 540 952 498 C 972 456 982 412 982 364 C 982 316 973 273 955 235 C 937 196 914 163 886 136 C 858 109 826 88 792 74 C 758 59 724 52 692 52 C 678 52 664 53 650 56 C 636 59 624 64 613 71 C 602 78 593 87 586 98 C 578 109 574 123 572 139 C 549 111 525 89 499 75 C 473 60 447 53 420 53 C 402 53 384 56 367 63 C 350 69 335 80 322 94 C 308 108 297 125 289 147 C 281 169 277 195 277 225 C 277 265 284 301 299 335 C 313 369 332 398 355 423 C 378 448 403 468 431 482 C 458 496 485 503 511 503 C 539 503 562 494 582 478 C 602 461 617 440 628 416 L 651 487 L 775 487 Z M 462 168 C 476 168 493 172 511 181 C 529 189 546 203 564 223 L 594 313 C 588 333 579 351 566 366 C 552 380 537 388 520 388 C 509 388 497 384 484 378 C 471 371 459 361 448 349 C 437 336 428 320 420 302 C 412 284 409 263 409 241 C 409 215 413 197 423 185 C 433 173 446 168 462 168 Z" horiz-adv-x="1035" unicode="@" />
<glyph d="M 315 653 L 438 653 L 741 0 L 584 0 L 524 138 L 222 138 L 163 0 L 12 0 L 315 653 Z M 271 251 L 475 251 L 376 482 L 370 482 L 271 251 Z" horiz-adv-x="753" unicode="A" />
<glyph d="M 103 0 L 103 653 L 494 653 C 534 653 569 647 598 636 C 627 624 651 609 669 590 C 682 576 692 561 699 545 C 706 528 710 510 710 492 C 710 464 702 438 687 415 C 671 391 652 373 628 361 C 666 347 695 326 715 298 C 735 270 745 237 745 199 C 745 145 724 99 684 59 C 664 39 640 25 613 15 C 586 5 550 0 506 0 L 103 0 Z M 247 283 L 247 118 L 501 118 C 531 118 555 126 573 143 C 580 150 586 159 590 169 C 594 179 596 189 596 200 C 596 210 594 220 590 230 C 586 239 580 247 573 255 C 554 273 530 283 501 283 L 247 283 Z M 247 534 L 247 391 L 477 391 C 505 391 526 398 540 412 C 554 426 562 444 562 465 C 562 483 555 498 542 512 C 534 519 526 524 516 528 C 506 532 493 534 477 534 L 247 534 Z" horiz-adv-x="806" unicode="B" />
<glyph d="M 740 114 C 721 96 700 79 676 63 C 652 47 627 32 599 20 C 571 8 542 -1 510 -9 C 478 -16 444 -20 408 -20 C 354 -20 304 -11 260 7 C 216 25 178 49 146 81 C 114 113 90 150 73 192 C 56 234 48 279 48 327 C 48 373 56 418 74 460 C 91 502 115 538 146 570 C 177 602 214 627 258 645 C 302 663 350 673 403 673 C 463 673 521 662 577 641 C 632 620 679 593 719 559 L 629 465 C 599 491 564 511 526 526 C 487 541 450 549 415 549 C 381 549 351 543 325 531 C 298 519 275 503 257 483 C 238 463 223 439 213 412 C 203 385 198 356 198 326 C 198 295 203 266 213 239 C 223 212 238 188 258 168 C 277 148 300 132 328 120 C 355 108 386 103 420 103 C 464 103 506 113 546 133 C 586 153 620 178 649 207 L 740 114 Z" horiz-adv-x="766" unicode="C" />
<glyph d="M 103 0 L 103 653 L 410 653 C 470 653 521 645 561 629 C 601 613 636 590 666 560 C 694 530 716 495 731 455 C 746 415 754 373 754 327 C 754 279 746 234 730 193 C 714 151 690 116 660 86 C 632 59 598 38 560 23 C 521 7 471 0 410 0 L 103 0 Z M 405 123 C 423 123 439 124 453 126 C 467 128 479 131 490 135 C 500 139 510 144 519 150 C 527 156 536 162 545 170 C 564 189 579 211 589 237 C 599 263 605 292 605 326 C 605 388 586 439 550 477 C 533 493 514 506 494 515 C 473 524 443 529 405 529 L 246 529 L 246 123 L 405 123 Z" horiz-adv-x="806" unicode="D" />
<glyph d="M 487 279 L 246 279 L 246 123 L 670 123 L 670 0 L 103 0 L 103 653 L 647 653 L 647 529 L 246 529 L 246 402 L 487 402 L 487 279 Z" horiz-adv-x="711" unicode="E" />
<glyph d="M 103 0 L 103 653 L 642 653 L 642 529 L 246 529 L 246 397 L 487 397 L 487 274 L 246 274 L 246 0 L 103 0 Z" horiz-adv-x="663" unicode="F" />
<glyph d="M 622 467 C 608 479 592 491 574 501 C 556 511 538 520 519 527 C 500 534 481 539 462 543 C 442 547 424 549 408 549 C 376 549 348 543 322 531 C 296 519 273 503 255 483 C 236 463 221 439 211 412 C 201 385 196 356 196 326 C 196 297 200 269 210 243 C 219 216 233 192 252 172 C 270 151 293 134 321 122 C 349 110 381 104 418 104 C 448 104 478 107 508 115 C 538 123 563 134 584 148 L 584 258 L 387 258 L 387 376 L 718 376 L 718 83 C 696 67 673 52 648 40 C 623 28 597 17 571 8 C 545 0 518 -7 491 -12 C 463 -16 437 -19 412 -19 C 360 -19 311 -10 267 8 C 222 26 183 50 151 82 C 118 113 92 150 74 192 C 56 234 47 279 47 327 C 47 375 56 420 75 462 C 93 504 119 540 151 572 C 183 603 221 628 265 646 C 309 664 356 673 407 673 C 459 673 511 663 565 643 C 619 623 669 594 717 556 L 622 467 Z" horiz-adv-x="801" unicode="G" />
<glyph d="M 103 0 L 103 653 L 247 653 L 247 411 L 555 411 L 555 653 L 699 653 L 699 0 L 555 0 L 555 290 L 247 290 L 247 0 L 103 0 Z" horiz-adv-x="802" unicode="H" />
<glyph d="M 103 0 L 103 653 L 246 653 L 246 0 L 103 0 Z" horiz-adv-x="349" unicode="I" />
<glyph d="M 559 653 L 559 236 C 559 195 552 159 538 127 C 524 95 504 69 480 47 C 455 25 425 9 391 -2 C 357 -13 319 -19 279 -19 C 237 -19 200 -13 170 -1 C 140 10 114 24 92 42 C 70 60 53 79 39 100 C 25 121 14 141 6 160 L 127 223 C 132 210 139 197 147 183 C 155 169 166 156 178 144 C 190 132 204 123 220 115 C 236 107 256 104 278 104 C 318 104 350 115 376 137 C 402 159 415 192 415 236 L 415 653 L 559 653 Z" horiz-adv-x="650" unicode="J" />
<glyph d="M 247 369 L 546 653 L 726 653 L 454 398 L 775 0 L 594 0 L 352 304 L 247 205 L 247 0 L 103 0 L 103 653 L 247 653 L 247 369 Z" horiz-adv-x="772" unicode="K" />
<glyph d="M 246 653 L 246 123 L 630 123 L 630 0 L 103 0 L 103 653 L 246 653 Z" horiz-adv-x="649" unicode="L" />
<glyph d="M 658 0 L 658 379 L 653 379 L 470 74 L 430 74 L 247 379 L 242 379 L 242 0 L 103 0 L 103 653 L 240 653 L 454 295 L 456 295 L 669 653 L 802 653 L 802 0 L 658 0 Z" horiz-adv-x="905" unicode="M" />
<glyph d="M 704 653 L 704 0 L 580 0 L 248 404 L 247 404 L 247 0 L 103 0 L 103 653 L 226 653 L 559 248 L 560 248 L 560 653 L 704 653 Z" horiz-adv-x="807" unicode="N" />
<glyph d="M 47 328 C 47 375 56 420 75 462 C 94 504 120 540 154 572 C 187 603 226 628 271 646 C 315 664 364 673 416 673 C 468 673 516 664 562 646 C 607 628 646 603 680 572 C 714 540 740 504 760 462 C 779 420 789 375 789 328 C 789 279 779 233 760 191 C 740 149 714 112 680 81 C 646 49 607 25 562 7 C 516 -11 468 -20 416 -20 C 364 -20 315 -11 271 7 C 226 25 187 49 154 81 C 120 112 94 149 75 191 C 56 233 47 279 47 328 Z M 197 328 C 197 297 202 268 214 241 C 225 213 240 189 260 169 C 280 149 303 133 330 121 C 356 109 385 103 416 103 C 447 103 476 109 503 121 C 530 133 554 149 574 169 C 594 189 609 213 621 241 C 633 268 639 297 639 328 C 639 358 633 386 621 413 C 609 440 594 464 574 484 C 554 504 530 519 503 531 C 476 543 447 549 416 549 C 385 549 356 543 330 531 C 303 519 280 504 260 484 C 240 464 225 440 214 413 C 202 386 197 358 197 328 Z" horiz-adv-x="835" unicode="O" />
<glyph d="M 103 0 L 103 653 L 465 653 C 511 653 550 646 582 634 C 614 622 640 604 662 581 C 697 541 715 497 715 447 C 715 418 709 391 698 367 C 687 343 672 321 653 303 C 632 283 607 268 577 257 C 547 245 509 240 465 240 L 246 240 L 246 0 L 103 0 Z M 246 532 L 246 361 L 470 361 C 482 361 495 362 508 365 C 521 368 533 375 545 386 C 562 403 571 423 571 446 C 571 468 563 487 547 505 C 535 516 523 523 510 527 C 496 530 483 532 470 532 L 246 532 Z" horiz-adv-x="744" unicode="P" />
<glyph d="M 47 328 C 47 375 56 420 75 462 C 94 504 120 540 154 572 C 187 603 226 628 271 646 C 315 664 364 673 416 673 C 468 673 516 664 562 646 C 607 628 646 603 680 572 C 714 540 740 504 760 462 C 779 420 789 375 789 328 C 789 269 775 215 747 167 C 719 118 682 78 636 46 L 717 -76 L 585 -118 L 512 -8 C 480 -16 448 -20 416 -20 C 364 -20 315 -11 271 7 C 226 25 187 49 154 81 C 120 112 94 149 75 191 C 56 233 47 279 47 328 Z M 494 260 L 562 157 C 585 178 604 203 618 233 C 632 262 639 294 639 328 C 639 358 633 386 621 413 C 609 440 594 464 574 484 C 554 504 530 519 503 531 C 476 543 447 549 416 549 C 385 549 356 543 330 531 C 303 519 280 504 260 484 C 240 464 225 440 214 413 C 202 386 197 358 197 328 C 197 297 202 268 214 241 C 225 213 240 189 260 169 C 280 149 303 133 330 121 C 356 109 385 103 416 103 C 419 103 422 103 426 103 C 430 103 434 103 438 104 L 363 217 L 494 260 Z" horiz-adv-x="835" unicode="Q" />
<glyph d="M 103 0 L 103 653 L 465 653 C 511 653 550 646 582 634 C 613 621 639 604 661 582 C 678 564 691 543 701 520 C 710 497 715 473 715 447 C 715 405 703 368 679 336 C 655 304 623 280 583 263 L 736 0 L 572 0 L 440 240 L 246 240 L 246 0 L 103 0 Z M 246 532 L 246 361 L 480 361 C 505 361 526 369 544 385 C 562 401 571 421 571 447 C 571 469 563 488 548 504 C 536 516 524 524 510 527 C 496 530 483 532 470 532 L 246 532 Z" horiz-adv-x="780" unicode="R" />
<glyph d="M 565 485 C 555 492 542 500 528 508 C 513 516 496 523 476 530 C 456 537 435 543 411 548 C 387 552 362 555 336 555 C 320 555 304 553 289 550 C 274 547 261 542 250 536 C 238 529 229 521 223 511 C 216 501 213 489 213 475 C 213 460 218 448 228 440 C 238 432 251 425 267 421 C 283 417 301 414 321 412 C 341 410 362 408 384 406 C 404 404 425 403 448 401 C 470 399 493 395 516 390 C 538 385 560 378 581 369 C 601 360 620 348 636 334 C 652 320 664 302 674 281 C 684 259 689 234 689 204 C 689 164 681 129 665 101 C 649 73 628 50 602 32 C 575 14 544 0 508 -7 C 472 -15 435 -20 395 -20 C 353 -20 314 -16 278 -8 C 242 0 210 9 180 21 C 150 33 124 47 100 63 C 76 78 54 93 36 109 L 117 207 C 131 195 147 183 165 171 C 183 158 204 146 228 135 C 251 124 277 115 305 108 C 333 100 363 97 397 97 C 417 97 437 99 455 103 C 473 107 488 112 502 120 C 516 128 526 137 534 149 C 542 161 546 174 546 190 C 546 206 542 219 534 229 C 526 239 514 247 500 253 C 485 259 468 263 448 267 C 428 270 405 273 381 275 C 345 277 308 280 272 285 C 235 289 202 298 172 311 C 142 324 117 343 98 367 C 79 391 70 424 70 466 C 70 505 78 538 95 565 C 111 591 133 613 159 629 C 185 645 214 656 246 663 C 278 669 309 673 340 673 C 374 673 406 670 437 664 C 468 658 497 651 523 643 C 549 634 573 624 594 614 C 615 604 633 594 647 585 L 565 485 Z" horiz-adv-x="730" unicode="S" />
<glyph d="M 26 653 L 642 653 L 642 529 L 406 529 L 406 0 L 263 0 L 263 529 L 26 529 L 26 653 Z" horiz-adv-x="668" unicode="T" />
<glyph d="M 687 653 L 687 235 C 687 194 679 158 664 126 C 649 94 628 68 602 46 C 576 24 544 8 508 -3 C 471 -14 431 -20 388 -20 C 346 -20 306 -14 270 -3 C 234 8 202 24 176 46 C 150 68 129 94 114 126 C 98 158 91 194 91 235 L 91 653 L 235 653 L 235 235 C 235 213 239 194 247 178 C 255 161 266 147 280 136 C 294 125 310 117 328 111 C 346 105 366 103 388 103 C 410 103 430 105 449 111 C 468 117 485 125 499 136 C 513 147 523 161 531 178 C 539 194 543 213 543 235 L 543 653 L 687 653 Z" horiz-adv-x="778" unicode="U" />
<glyph d="M 739 653 L 436 0 L 312 0 L 9 653 L 171 653 L 374 179 L 380 179 L 583 653 L 739 653 Z" horiz-adv-x="748" unicode="V" />
<glyph d="M 185 653 L 310 224 L 316 224 L 450 653 L 555 653 L 688 224 L 694 224 L 820 653 L 970 653 L 761 0 L 625 0 L 502 388 L 496 388 L 374 0 L 238 0 L 29 653 L 185 653 Z" horiz-adv-x="999" unicode="W" />
<glyph d="M 722 653 L 464 340 L 734 0 L 554 0 L 373 237 L 184 0 L 10 0 L 287 335 L 37 653 L 217 653 L 379 438 L 549 653 L 722 653 Z" horiz-adv-x="751" unicode="X" />
<glyph d="M 666 653 L 407 298 L 407 0 L 263 0 L 263 298 L 3 653 L 181 653 L 340 426 L 498 653 L 666 653 Z" horiz-adv-x="670" unicode="Y" />
<glyph d="M 625 0 L 47 0 L 47 84 L 417 529 L 66 529 L 66 653 L 625 653 L 625 568 L 255 123 L 625 123 L 625 0 Z" horiz-adv-x="682" unicode="Z" />
<glyph d="M 343 -154 L 81 -154 L 81 689 L 343 689 L 343 587 L 213 587 L 213 -52 L 343 -52 L 343 -154 Z" horiz-adv-x="382" unicode="[" />
<glyph d="M 51 653 L 186 653 L 529 -119 L 395 -119 L 51 653 Z" horiz-adv-x="560" unicode="\" />
<glyph d="M 301 689 L 301 -154 L 39 -154 L 39 -52 L 169 -52 L 169 587 L 39 587 L 39 689 L 301 689 Z" horiz-adv-x="382" unicode="]" />
<glyph d="M 92 208 L 315 613 L 443 613 L 662 208 L 515 208 L 383 463 L 375 463 L 240 208 L 92 208 Z" horiz-adv-x="753" unicode="^" />
<glyph d="M -6 -112 L 609 -112 L 609 -207 L -6 -207 L -6 -112 Z" horiz-adv-x="603" unicode="_" />
<glyph d="M 237 698 L 327 552 L 211 552 L 103 698 L 237 698 Z" horiz-adv-x="496" unicode="`" />
<glyph d="M 72 452 C 83 458 97 464 113 470 C 129 476 148 481 168 486 C 188 491 209 495 231 499 C 253 502 276 504 300 504 C 328 504 355 501 382 496 C 409 491 433 483 454 471 C 475 459 492 444 505 425 C 518 406 525 383 525 356 L 525 95 C 525 83 525 69 527 53 C 529 36 533 18 539 0 L 407 0 C 404 7 402 16 400 26 C 398 36 396 46 395 56 C 385 47 376 38 366 30 C 356 22 344 14 331 8 C 318 2 303 -2 287 -6 C 271 -10 252 -12 231 -12 C 201 -12 175 -7 151 0 C 127 8 106 20 90 35 C 73 50 60 68 51 88 C 42 108 38 130 38 154 C 38 176 42 197 52 217 C 62 237 76 254 94 269 C 112 283 134 295 161 303 C 187 311 218 316 252 316 C 278 316 303 312 328 306 C 352 300 374 290 392 276 L 392 325 C 392 350 382 369 363 381 C 343 393 319 399 289 399 C 273 399 257 397 240 394 C 223 391 207 387 191 383 C 175 378 160 373 146 368 C 132 362 121 357 113 353 L 72 452 Z M 260 86 C 277 86 293 88 308 92 C 322 96 335 102 346 108 C 357 114 366 120 374 126 C 382 132 388 136 392 140 L 392 187 C 381 196 366 204 346 211 C 326 218 304 222 279 222 C 239 222 211 215 195 202 C 179 188 171 172 171 154 C 171 133 178 116 194 104 C 210 92 232 86 260 86 Z" horiz-adv-x="598" unicode="a" />
<glyph d="M 67 0 C 72 28 75 54 76 76 C 77 98 78 119 78 139 L 78 700 L 212 700 L 212 439 C 232 459 254 474 278 486 C 302 498 326 504 350 504 C 382 504 412 497 441 485 C 470 473 495 455 517 433 C 538 411 555 384 568 352 C 580 320 587 284 587 246 C 587 206 580 171 568 139 C 555 107 538 79 517 57 C 495 34 470 16 442 4 C 413 -7 382 -14 350 -14 C 332 -14 316 -11 301 -7 C 286 -3 272 2 260 9 C 247 16 235 24 225 32 C 215 40 206 49 199 58 C 198 49 197 39 196 29 C 195 18 194 8 193 0 L 67 0 Z M 330 391 C 310 391 289 386 269 376 C 248 366 229 353 212 336 L 212 152 C 216 147 221 142 229 136 C 237 130 246 124 256 118 C 266 112 277 108 289 104 C 301 100 315 98 330 98 C 346 98 360 101 374 108 C 388 115 400 125 410 138 C 420 151 428 167 434 185 C 440 203 443 224 443 246 C 443 290 432 326 410 352 C 388 378 362 391 330 391 Z" horiz-adv-x="632" unicode="b" />
<glyph d="M 441 333 C 421 352 400 366 378 376 C 356 386 335 391 316 391 C 298 391 281 387 265 381 C 249 374 236 364 224 352 C 212 339 202 324 196 306 C 189 288 186 268 186 246 C 186 224 189 203 197 185 C 204 167 214 151 226 138 C 238 125 253 115 269 108 C 285 100 303 97 321 97 C 345 97 369 103 391 116 C 413 129 433 145 452 163 L 534 81 C 528 75 519 66 507 55 C 494 44 478 33 459 23 C 439 13 417 4 391 -3 C 365 -11 337 -15 306 -15 C 270 -15 237 -8 205 3 C 173 15 146 33 122 56 C 98 79 79 107 65 139 C 51 171 44 206 44 246 C 44 284 50 320 64 352 C 78 384 96 411 120 433 C 144 455 172 473 204 485 C 236 497 270 504 306 504 C 344 504 381 497 419 484 C 457 470 492 449 524 421 L 441 333 Z" horiz-adv-x="558" unicode="c" />
<glyph d="M 439 0 C 437 8 436 18 435 29 C 434 39 433 49 433 58 C 425 49 416 40 406 32 C 396 24 384 16 372 9 C 359 2 345 -3 330 -7 C 314 -11 298 -14 282 -14 C 249 -14 218 -7 190 4 C 161 16 136 34 114 57 C 92 79 75 107 63 139 C 51 171 45 206 45 246 C 45 284 51 320 64 352 C 76 384 93 411 115 433 C 136 455 161 473 190 485 C 219 497 250 504 282 504 C 306 504 330 498 354 488 C 378 477 400 462 420 444 L 420 700 L 554 700 L 554 139 C 554 119 554 98 555 76 C 556 54 559 28 565 0 L 439 0 Z M 302 391 C 270 391 243 378 221 352 C 199 326 189 290 189 246 C 189 224 192 203 198 185 C 204 167 212 151 222 138 C 232 125 243 115 257 108 C 271 101 286 98 302 98 C 316 98 330 100 342 104 C 354 108 366 112 376 118 C 386 124 394 130 402 136 C 410 142 416 147 420 152 L 420 336 C 402 353 383 366 363 376 C 342 386 322 391 302 391 Z" horiz-adv-x="632" unicode="d" />
<glyph d="M 529 57 C 501 36 467 19 426 5 C 385 -8 343 -15 299 -15 C 257 -15 221 -8 189 5 C 157 19 131 37 109 61 C 87 84 71 111 60 142 C 49 173 44 206 44 240 C 44 276 50 311 63 343 C 75 375 93 403 116 427 C 139 451 166 469 198 483 C 230 497 265 504 303 504 C 333 504 362 499 391 490 C 420 480 446 465 470 445 C 493 425 512 399 526 367 C 540 335 548 296 548 252 C 548 248 548 243 548 237 C 548 231 547 222 546 211 L 175 211 C 180 176 194 147 218 125 C 242 103 274 92 316 92 C 342 92 369 96 396 106 C 423 115 446 127 466 142 L 529 57 Z M 302 402 C 284 402 268 399 254 394 C 240 388 229 381 219 372 C 209 362 200 351 194 339 C 187 327 182 314 178 300 L 413 300 C 413 317 409 332 402 345 C 395 357 386 368 376 377 C 365 385 353 392 340 396 C 327 400 314 402 302 402 Z" horiz-adv-x="590" unicode="e" />
<glyph d="M 117 488 L 117 565 C 117 592 121 615 131 634 C 140 652 152 667 167 679 C 182 690 199 698 218 703 C 237 708 256 711 275 711 C 283 711 292 710 302 709 C 312 708 322 707 332 706 C 342 704 351 702 359 700 C 367 698 373 696 378 694 L 364 592 C 359 593 354 594 348 596 C 342 597 335 598 329 599 C 322 600 316 601 310 602 C 304 602 300 603 296 603 C 282 603 270 599 262 593 C 254 586 250 577 250 565 L 250 488 L 370 488 L 370 389 L 250 389 L 250 0 L 117 0 L 117 389 L 33 389 L 33 488 L 117 488 Z" horiz-adv-x="378" unicode="f" />
<glyph d="M 420 55 C 400 34 378 18 354 7 C 330 -3 306 -9 282 -9 C 249 -9 218 -3 190 9 C 161 21 136 38 114 60 C 92 82 75 108 63 139 C 51 170 45 205 45 243 C 45 283 51 319 63 351 C 75 383 92 410 114 433 C 136 455 161 473 190 485 C 218 497 249 504 282 504 C 298 504 313 501 329 496 C 344 491 358 485 371 477 C 384 469 396 461 406 452 C 416 443 425 435 433 427 C 433 436 433 446 435 458 C 436 470 438 480 440 490 L 564 490 C 558 460 555 435 554 413 C 553 391 553 370 553 350 L 553 -23 C 553 -51 547 -77 537 -102 C 526 -126 510 -148 489 -167 C 468 -185 442 -200 411 -211 C 379 -221 343 -227 301 -227 C 245 -227 198 -219 161 -204 C 124 -188 93 -170 69 -148 L 139 -71 C 158 -85 180 -97 206 -107 C 232 -117 263 -122 301 -122 C 340 -122 370 -112 390 -94 C 410 -76 420 -54 420 -28 L 420 55 Z M 301 103 C 321 103 342 107 362 117 C 382 127 402 140 420 157 L 420 336 C 415 340 409 346 402 352 C 394 358 386 364 376 370 C 366 376 354 381 342 385 C 329 389 315 391 301 391 C 269 391 243 377 221 351 C 199 325 188 289 188 243 C 188 221 191 202 197 185 C 203 168 211 153 221 141 C 231 129 243 119 257 113 C 271 106 285 103 301 103 Z" horiz-adv-x="632" unicode="g" />
<glyph d="M 77 0 L 77 700 L 210 700 L 210 437 C 227 454 247 469 271 483 C 294 497 321 504 351 504 C 379 504 404 499 427 491 C 449 482 469 470 485 454 C 501 438 514 420 523 398 C 532 376 537 353 537 328 L 537 0 L 403 0 L 403 323 C 403 341 395 357 380 371 C 364 384 345 391 321 391 C 297 391 276 384 256 371 C 236 357 221 343 210 328 L 210 0 L 77 0 Z" horiz-adv-x="608" unicode="h" />
<glyph d="M 77 0 L 77 488 L 210 488 L 210 0 L 77 0 Z M 64 636 C 64 656 71 673 86 687 C 101 701 120 709 143 709 C 165 709 184 701 200 687 C 215 672 223 655 223 636 C 223 616 215 600 200 586 C 184 572 165 565 143 565 C 120 565 101 572 86 586 C 71 600 64 616 64 636 Z" horiz-adv-x="287" unicode="i" />
<glyph d="M -15 -129 C -4 -126 6 -123 17 -120 C 28 -116 38 -112 47 -106 C 55 -100 62 -92 68 -82 C 74 -72 77 -59 77 -44 L 77 488 L 210 488 L 210 -44 C 210 -78 204 -106 192 -130 C 180 -153 164 -172 146 -187 C 128 -201 107 -212 85 -218 C 63 -224 41 -228 21 -228 L -15 -129 Z M 63 636 C 63 656 70 673 85 687 C 100 701 119 709 143 709 C 165 709 184 701 200 687 C 215 672 223 655 223 636 C 223 616 215 600 200 586 C 184 572 165 565 143 565 C 119 565 100 572 85 586 C 70 600 63 616 63 636 Z" horiz-adv-x="287" unicode="j" />
<glyph d="M 563 488 L 372 310 L 583 0 L 418 0 L 277 221 L 211 160 L 211 0 L 77 0 L 77 700 L 211 700 L 211 311 L 388 488 L 563 488 Z" horiz-adv-x="584" unicode="k" />
<glyph d="M 79 0 L 79 700 L 213 700 L 213 0 L 79 0 Z" horiz-adv-x="292" unicode="l" />
<glyph d="M 520 0 L 385 0 L 385 323 C 385 341 378 357 364 371 C 350 384 331 391 309 391 C 287 391 269 384 253 371 C 237 358 223 344 211 328 L 211 0 L 78 0 L 78 350 C 78 370 77 392 75 414 C 73 436 69 460 64 488 L 187 488 C 189 478 190 468 192 457 C 193 446 194 435 196 424 C 204 434 214 443 225 453 C 235 463 247 471 259 479 C 271 486 285 492 300 497 C 315 501 331 504 349 504 C 381 504 409 496 434 480 C 459 464 478 444 492 418 C 509 441 532 461 560 478 C 588 495 620 504 656 504 C 680 504 702 499 723 491 C 744 482 762 470 778 454 C 794 438 806 420 815 398 C 823 376 828 353 828 328 L 828 0 L 694 0 L 694 323 C 694 342 686 358 671 371 C 656 384 638 391 617 391 C 595 391 577 384 561 371 C 545 358 531 344 520 328 L 520 0 Z" horiz-adv-x="899" unicode="m" />
<glyph d="M 196 424 C 214 446 237 464 263 480 C 289 496 322 504 360 504 C 384 504 407 499 429 491 C 451 482 470 470 486 454 C 502 438 514 420 524 398 C 533 376 538 353 538 328 L 538 0 L 404 0 L 404 323 C 404 341 396 357 381 371 C 366 384 347 391 323 391 C 299 391 277 384 259 371 C 241 357 225 343 211 328 L 211 0 L 78 0 L 78 349 C 78 369 77 391 75 413 C 73 435 69 460 64 488 L 186 488 C 188 478 189 468 191 457 C 193 446 194 435 196 424 Z" horiz-adv-x="610" unicode="n" />
<glyph d="M 44 246 C 44 282 50 315 63 347 C 75 379 93 406 117 429 C 140 452 168 470 201 484 C 233 497 269 504 309 504 C 349 504 385 497 418 484 C 450 470 478 452 502 429 C 525 406 543 379 556 347 C 569 315 576 282 576 246 C 576 210 569 176 556 144 C 543 112 525 84 502 61 C 478 37 450 19 418 5 C 385 -8 349 -15 309 -15 C 269 -15 233 -8 201 5 C 168 19 140 37 117 61 C 93 84 75 112 63 144 C 50 176 44 210 44 246 Z M 181 246 C 181 226 183 206 189 188 C 195 170 203 154 214 140 C 225 126 239 115 255 107 C 271 99 289 95 309 95 C 329 95 348 99 364 107 C 380 115 394 126 405 140 C 416 154 425 170 431 188 C 437 206 440 226 440 246 C 440 266 437 284 431 302 C 425 320 416 335 405 349 C 394 363 380 373 364 381 C 348 389 329 393 309 393 C 289 393 271 389 255 381 C 239 373 225 363 214 349 C 203 335 195 320 189 302 C 183 284 181 266 181 246 Z" horiz-adv-x="620" unicode="o" />
<glyph d="M 193 488 C 194 478 195 468 196 458 C 196 447 197 437 198 427 C 205 435 214 444 224 454 C 234 463 246 471 259 479 C 272 486 286 492 301 497 C 316 501 332 504 350 504 C 382 504 413 497 442 485 C 470 473 495 455 517 433 C 538 411 555 384 568 352 C 580 320 587 284 587 244 C 587 205 580 170 568 138 C 555 106 538 79 517 57 C 495 34 470 16 441 4 C 412 -7 382 -14 350 -14 C 325 -14 301 -8 277 1 C 253 11 231 27 211 49 L 211 -207 L 78 -207 L 78 350 C 78 370 77 390 76 412 C 75 433 72 458 67 488 L 193 488 Z M 330 98 C 362 98 388 111 410 138 C 432 164 443 200 443 244 C 443 290 432 326 410 352 C 388 378 361 391 330 391 C 315 391 301 389 289 385 C 276 381 265 376 255 370 C 245 364 236 358 229 352 C 221 346 216 340 212 336 L 212 151 C 230 134 249 121 269 112 C 289 102 309 98 330 98 Z" horiz-adv-x="632" unicode="p" />
<glyph d="M 565 488 C 559 458 556 433 555 412 C 554 390 554 370 554 350 L 554 -207 L 421 -207 L 421 49 C 400 27 378 11 354 1 C 330 -8 306 -14 282 -14 C 250 -14 219 -7 190 4 C 161 16 136 34 115 57 C 93 79 76 106 64 138 C 51 170 45 205 45 244 C 45 284 51 320 63 352 C 75 384 92 411 114 433 C 136 455 161 473 190 485 C 218 497 249 504 282 504 C 298 504 314 501 330 497 C 345 492 359 486 372 479 C 385 471 397 463 407 454 C 417 444 426 435 434 427 C 434 437 435 447 436 458 C 436 468 437 478 439 488 L 565 488 Z M 302 98 C 322 98 343 102 363 112 C 383 121 402 134 420 151 L 420 336 C 416 340 410 346 403 352 C 395 358 387 364 377 370 C 367 376 355 381 343 385 C 330 389 316 391 302 391 C 270 391 244 378 222 352 C 200 326 189 290 189 244 C 189 200 199 164 221 138 C 243 111 270 98 302 98 Z" horiz-adv-x="632" unicode="q" />
<glyph d="M 296 376 C 278 376 263 370 251 358 C 238 346 225 331 212 314 L 212 0 L 78 0 L 78 350 C 78 370 77 392 75 414 C 73 436 69 460 64 488 L 186 488 C 188 477 189 465 191 453 C 193 440 194 427 196 415 C 210 439 227 460 247 478 C 267 495 292 504 324 504 C 336 504 350 502 364 499 C 378 495 390 490 399 484 L 362 362 C 354 365 344 368 330 371 C 316 374 305 376 296 376 Z" horiz-adv-x="409" unicode="r" />
<glyph d="M 444 359 C 416 371 387 382 355 390 C 323 398 294 403 268 403 C 242 403 222 399 208 391 C 194 383 187 371 187 356 C 187 346 190 338 196 332 C 202 326 209 321 219 318 C 228 315 238 313 250 312 C 261 311 272 310 283 310 C 305 308 329 306 357 303 C 384 300 409 293 433 283 C 457 273 477 258 493 238 C 509 218 518 190 518 155 C 518 125 512 100 500 79 C 488 57 471 39 451 25 C 430 11 405 0 377 -6 C 349 -13 318 -17 286 -17 C 258 -17 231 -14 207 -10 C 182 -5 159 0 139 8 C 118 15 99 23 82 32 C 65 40 50 49 38 57 L 85 152 C 97 144 110 137 126 129 C 141 121 157 114 175 108 C 193 101 211 96 230 92 C 249 88 268 86 288 86 C 319 86 343 91 360 101 C 376 111 385 125 385 143 C 385 154 381 163 375 170 C 368 177 359 182 349 186 C 339 190 328 192 316 194 C 304 195 292 196 282 197 C 255 198 228 200 201 203 C 174 206 150 212 128 222 C 106 231 89 245 75 264 C 61 282 55 308 55 342 C 55 372 61 398 73 419 C 85 440 102 457 122 470 C 142 483 164 492 189 498 C 213 503 238 506 263 506 C 285 506 307 504 330 500 C 352 496 374 492 394 487 C 414 482 433 476 450 470 C 467 464 481 458 491 454 L 444 359 Z" horiz-adv-x="557" unicode="s" />
<glyph d="M 22 488 L 107 488 L 107 626 L 240 626 L 240 488 L 360 488 L 360 389 L 240 389 L 240 136 C 240 107 257 93 293 93 C 302 93 312 93 324 95 C 336 97 346 98 355 100 L 365 0 C 360 -4 353 -7 344 -9 C 334 -11 324 -13 314 -15 C 304 -16 294 -17 284 -18 C 274 -18 265 -19 259 -19 C 241 -19 223 -16 205 -11 C 187 -6 170 1 156 13 C 141 24 129 39 120 57 C 111 75 107 98 107 126 L 107 389 L 22 389 L 22 488 Z" horiz-adv-x="403" unicode="t" />
<glyph d="M 413 63 C 393 41 371 23 345 7 C 319 -8 287 -16 249 -16 C 224 -16 201 -11 179 -3 C 157 5 139 17 123 33 C 107 49 94 67 85 89 C 75 111 71 134 71 160 L 71 488 L 205 488 L 205 165 C 205 145 212 129 227 116 C 242 103 262 97 286 97 C 310 97 331 103 349 116 C 367 129 384 144 398 160 L 398 488 L 531 488 L 531 138 C 531 118 531 96 533 74 C 534 52 537 27 543 0 L 419 0 C 417 8 416 19 415 31 C 414 43 413 53 413 63 Z" horiz-adv-x="609" unicode="u" />
<glyph d="M 543 488 L 332 0 L 225 0 L 15 488 L 163 488 L 278 180 L 284 180 L 405 488 L 543 488 Z" horiz-adv-x="558" unicode="v" />
<glyph d="M 459 488 L 547 176 L 553 176 L 629 488 L 766 488 L 611 0 L 484 0 L 399 299 L 393 299 L 307 0 L 181 0 L 26 488 L 166 488 L 244 176 L 250 176 L 338 488 L 459 488 Z" horiz-adv-x="792" unicode="w" />
<glyph d="M 569 488 L 378 250 L 580 0 L 415 0 L 297 158 L 181 0 L 15 0 L 217 250 L 25 488 L 193 488 L 297 341 L 403 488 L 569 488 Z" horiz-adv-x="595" unicode="x" />
<glyph d="M 287 197 L 416 488 L 553 488 L 224 -207 L 85 -207 L 212 45 L 14 488 L 163 488 L 281 197 L 287 197 Z" horiz-adv-x="557" unicode="y" />
<glyph d="M 482 0 L 42 0 L 42 74 L 297 384 L 61 384 L 61 488 L 482 488 L 482 413 L 227 103 L 482 103 L 482 0 Z" horiz-adv-x="533" unicode="z" />
<glyph d="M 364 -154 C 317 -154 278 -151 248 -147 C 218 -143 194 -135 176 -123 C 158 -111 145 -94 138 -72 C 130 -50 127 -22 127 13 L 127 147 C 127 163 124 176 118 186 C 112 196 105 204 96 210 C 86 216 75 220 63 222 C 51 224 38 225 25 225 L 25 325 C 38 325 51 327 63 331 C 75 335 86 340 96 347 C 106 354 113 363 119 373 C 125 383 128 395 128 409 L 128 520 C 128 555 131 584 139 606 C 147 628 160 645 178 658 C 196 670 220 679 250 683 C 280 687 318 690 364 690 L 364 588 C 344 588 327 587 314 585 C 300 583 290 580 282 576 C 274 572 268 565 265 557 C 261 549 260 538 260 525 L 260 409 C 260 375 249 346 229 324 C 208 302 184 287 156 280 L 156 275 C 170 273 184 269 196 263 C 208 257 219 250 229 240 C 238 230 245 217 251 202 C 256 187 259 169 259 147 L 259 8 C 259 -4 260 -15 264 -23 C 267 -31 273 -37 281 -41 C 289 -45 299 -48 313 -50 C 327 -51 344 -52 364 -52 L 364 -154 Z" horiz-adv-x="403" unicode="{" />
<glyph d="M 110 905 L 236 905 L 236 -307 L 110 -307 L 110 905 Z" horiz-adv-x="346" unicode="|" />
<glyph d="M 38 -52 C 77 -52 104 -48 120 -41 C 135 -33 143 -17 143 8 L 143 147 C 143 169 145 187 151 202 C 156 217 163 230 173 240 C 182 250 193 257 206 263 C 218 269 232 273 246 275 L 246 280 C 218 287 193 302 173 324 C 152 346 142 375 142 409 L 142 525 C 142 538 140 549 136 557 C 132 565 127 572 119 576 C 111 580 100 583 87 585 C 74 587 58 588 38 588 L 38 690 C 84 690 122 687 152 683 C 182 679 207 670 225 658 C 243 645 255 628 263 606 C 271 584 275 555 275 520 L 275 409 C 275 395 277 383 283 373 C 289 363 296 354 306 347 C 316 340 327 335 339 331 C 351 327 364 325 378 325 L 378 225 C 364 225 351 224 339 222 C 327 220 316 216 306 210 C 296 204 289 196 283 186 C 277 176 275 163 275 147 L 275 13 C 275 -22 271 -50 264 -72 C 256 -94 244 -111 226 -123 C 208 -135 183 -143 153 -147 C 123 -151 84 -154 38 -154 L 38 -52 Z" horiz-adv-x="403" unicode="}" />
<glyph d="M 43 244 C 81 286 116 318 149 342 C 182 366 217 378 255 378 C 275 378 293 375 309 371 C 325 366 339 360 352 353 C 365 346 376 339 386 331 C 396 323 404 317 412 311 C 424 300 437 290 450 282 C 463 274 477 270 491 270 C 519 270 559 296 610 350 L 712 287 C 669 238 629 203 592 181 C 555 159 520 148 488 148 C 466 148 447 150 431 156 C 414 161 399 167 386 175 C 373 182 362 190 353 198 C 343 206 335 212 329 218 C 314 229 300 238 288 245 C 275 252 263 256 251 256 C 237 256 222 249 204 236 C 186 222 165 204 142 180 L 43 244 Z" horiz-adv-x="753" unicode="~" />
<glyph d="" horiz-adv-x="225" unicode=" " />
<glyph d="M 236 411 C 236 387 227 367 209 351 C 191 334 169 326 143 326 C 129 326 117 328 106 333 C 94 337 84 343 76 351 C 68 359 61 368 56 378 C 51 388 49 399 49 411 C 49 423 51 434 56 444 C 61 454 68 462 76 470 C 84 478 94 484 106 488 C 117 492 129 495 143 495 C 169 495 191 486 209 470 C 227 454 236 434 236 411 Z M 189 262 L 219 0 L 219 -173 L 67 -173 L 67 0 L 97 262 L 189 262 Z" horiz-adv-x="317" unicode="¡" />
<glyph d="M 222 -2 C 194 6 169 17 146 33 C 122 48 102 66 85 87 C 68 108 55 132 45 159 C 35 185 31 214 31 246 C 31 284 38 320 53 352 C 67 384 87 411 112 433 C 137 455 166 473 200 485 C 234 497 270 504 308 504 C 311 504 314 504 318 504 C 322 504 325 503 329 503 L 347 583 L 442 583 L 421 488 C 444 480 466 471 488 460 C 510 449 531 436 551 421 L 469 333 C 444 351 419 366 393 376 L 334 97 C 359 98 384 105 408 118 C 432 130 454 145 475 163 L 557 81 C 551 75 541 66 528 55 C 514 44 497 33 477 23 C 456 12 432 3 405 -4 C 377 -12 347 -16 314 -16 L 288 -140 L 193 -140 L 222 -2 Z M 174 246 C 174 215 181 188 195 166 C 209 144 228 127 251 115 L 311 391 C 271 389 239 376 213 350 C 187 324 174 289 174 246 Z" horiz-adv-x="596" unicode="¢" />
<glyph d="M 57 370 L 191 370 L 191 449 C 191 481 197 508 211 531 C 225 554 243 573 266 588 C 288 603 314 614 342 622 C 370 629 399 633 429 633 C 445 633 463 631 483 628 C 503 624 524 620 546 614 C 567 608 589 600 611 592 C 633 583 654 573 674 563 L 613 463 C 597 471 582 478 566 484 C 550 490 534 496 518 501 C 502 505 487 509 473 512 C 458 514 445 516 434 516 C 422 516 410 514 398 511 C 386 507 375 502 365 495 C 355 488 348 479 342 469 C 336 459 333 446 333 432 L 333 370 L 557 370 L 557 284 L 333 284 L 333 225 C 333 189 326 162 312 145 C 298 128 276 117 244 111 L 673 111 L 673 0 L 57 0 L 57 111 L 97 111 C 114 111 129 112 141 115 C 153 118 162 124 170 132 C 177 140 182 152 186 167 C 189 182 191 201 191 225 L 191 284 L 57 284 L 57 370 Z" horiz-adv-x="730" unicode="£" />
<glyph d="M 93 263 C 93 315 107 363 135 407 L 53 484 L 143 573 L 225 496 C 247 510 272 522 299 530 C 325 538 353 542 382 542 C 411 542 439 538 466 530 C 492 522 517 510 541 496 L 625 573 L 714 484 L 631 407 C 644 385 654 362 662 338 C 670 314 674 289 674 263 C 674 236 670 211 662 187 C 654 163 644 140 631 119 L 714 43 L 625 -47 L 541 30 C 517 15 492 4 466 -4 C 439 -12 411 -16 382 -16 C 353 -16 325 -12 299 -4 C 272 4 247 15 225 30 L 143 -47 L 53 43 L 135 119 C 107 162 93 210 93 263 Z M 235 263 C 235 241 238 221 246 202 C 254 182 264 165 278 151 C 291 137 307 125 325 117 C 343 109 362 105 382 105 C 402 105 422 109 440 117 C 458 125 474 137 488 151 C 501 165 512 182 520 202 C 528 221 532 241 532 263 C 532 285 528 305 520 324 C 512 343 501 360 488 374 C 474 388 458 400 440 408 C 422 416 402 421 382 421 C 362 421 343 416 325 408 C 307 400 291 388 278 374 C 264 360 254 343 246 324 C 238 305 235 285 235 263 Z" horiz-adv-x="767" unicode="¤" />
<glyph d="M 61 418 L 224 418 L 77 613 L 251 613 L 404 402 L 556 613 L 721 613 L 574 418 L 740 418 L 740 343 L 518 343 L 470 279 L 470 274 L 740 274 L 740 199 L 470 199 L 470 0 L 329 0 L 329 199 L 61 199 L 61 274 L 329 274 L 329 279 L 280 343 L 61 343 L 61 418 Z" horiz-adv-x="801" unicode="¥" />
<glyph d="M 110 797 L 236 797 L 236 385 L 110 385 L 110 797 Z M 110 192 L 236 192 L 236 -228 L 110 -228 L 110 192 Z" horiz-adv-x="346" unicode="¦" />
<glyph d="M 653 232 C 653 206 648 183 638 162 C 628 140 614 122 598 106 C 584 92 567 79 547 69 C 551 63 556 55 560 47 C 563 39 565 30 567 22 C 569 13 570 3 570 -7 C 570 -37 562 -63 548 -85 C 534 -106 515 -123 493 -137 C 470 -150 445 -160 417 -166 C 389 -172 363 -175 337 -175 C 300 -175 262 -170 223 -160 C 184 -150 149 -137 117 -120 L 173 -28 C 197 -39 223 -49 252 -57 C 281 -65 310 -70 338 -70 C 347 -70 357 -69 368 -68 C 378 -66 388 -64 398 -60 C 407 -56 415 -50 421 -44 C 427 -37 430 -29 430 -19 C 430 -9 427 -1 421 5 C 411 14 396 20 374 24 C 352 28 327 31 297 35 C 281 37 264 39 244 43 C 224 47 204 52 184 59 C 163 65 143 74 123 84 C 103 94 85 106 71 121 C 57 134 45 149 37 167 C 29 185 25 205 25 228 C 25 252 29 275 39 295 C 49 315 62 334 78 350 C 92 364 110 377 131 389 C 127 393 123 400 120 408 C 112 424 108 444 108 467 C 108 497 115 523 129 545 C 143 566 162 583 185 597 C 207 610 232 620 260 626 C 288 632 315 635 342 635 C 379 635 418 630 458 620 C 498 610 534 596 567 579 L 511 487 C 485 499 458 509 428 517 C 398 525 368 529 340 529 C 331 529 321 528 311 527 C 300 525 290 523 281 519 C 272 515 264 510 258 504 C 252 498 249 489 249 479 C 249 469 252 461 258 455 C 268 445 283 439 305 436 C 326 433 351 430 381 426 C 396 424 414 421 434 417 C 454 413 475 408 496 401 C 517 394 538 385 558 375 C 578 364 595 351 610 336 C 623 322 633 307 641 290 C 649 273 653 254 653 232 Z M 363 308 C 341 310 316 313 290 316 C 263 319 238 325 214 334 C 203 326 195 319 189 311 C 171 291 162 269 162 245 C 161 225 168 209 182 196 C 189 188 198 182 209 177 C 220 172 232 168 244 165 C 256 161 268 159 280 157 C 292 155 304 154 316 153 C 337 150 361 147 388 144 C 415 140 441 134 465 126 C 469 129 472 132 476 135 C 480 138 483 142 487 146 C 507 167 517 190 517 214 C 517 233 510 249 497 263 C 489 271 480 277 469 282 C 458 287 447 291 435 295 C 423 298 410 301 398 303 C 385 305 373 306 363 308 Z" horiz-adv-x="681" unicode="§" />
<glyph d="M 62 625 C 62 643 68 658 82 672 C 96 685 113 692 134 692 C 155 692 173 685 187 672 C 201 658 208 643 208 625 C 208 606 201 590 187 578 C 173 565 155 559 134 559 C 113 559 96 565 82 578 C 68 590 62 606 62 625 Z M 286 625 C 286 643 292 658 306 672 C 320 685 337 692 359 692 C 379 692 397 685 411 672 C 425 658 433 643 433 625 C 433 606 425 590 411 578 C 397 565 379 559 359 559 C 337 559 320 565 306 578 C 292 590 286 606 286 625 Z" horiz-adv-x="496" unicode="¨" />
<glyph d="M 676 344 C 652 362 628 375 604 383 C 580 391 556 396 534 396 C 514 396 496 392 480 386 C 464 379 450 370 439 358 C 427 346 418 333 412 318 C 406 302 403 286 403 269 C 403 251 406 236 413 222 C 420 208 430 196 442 186 C 454 176 469 169 485 164 C 501 158 519 156 537 156 C 568 156 595 160 617 169 C 639 177 661 188 683 200 L 731 114 C 717 104 704 96 690 88 C 676 80 662 74 646 68 C 630 62 612 58 592 55 C 572 51 550 50 526 50 C 490 50 457 55 426 65 C 395 75 368 90 345 110 C 322 129 304 152 291 179 C 277 205 271 235 271 269 C 271 301 277 331 289 359 C 301 387 318 412 340 433 C 362 454 388 471 419 483 C 450 495 485 501 523 501 C 559 501 595 494 631 481 C 667 468 699 452 727 433 L 676 344 Z M 517 706 C 581 706 641 694 698 672 C 754 649 804 618 846 578 C 888 538 921 492 946 439 C 970 385 983 328 983 268 C 983 206 970 149 946 96 C 921 43 888 -2 846 -42 C 804 -82 754 -113 698 -136 C 641 -158 581 -170 517 -170 C 452 -170 391 -158 334 -136 C 277 -113 227 -82 185 -42 C 142 -2 108 43 84 96 C 59 149 47 206 47 268 C 47 328 59 385 84 439 C 108 492 142 538 185 578 C 227 618 277 649 334 672 C 391 694 452 706 517 706 Z M 517 617 C 467 617 419 607 374 589 C 329 570 290 545 256 513 C 222 481 196 444 176 402 C 156 360 147 315 147 268 C 147 220 156 174 176 132 C 196 90 222 53 256 21 C 290 -10 329 -35 374 -53 C 419 -71 467 -80 517 -80 C 567 -80 615 -71 660 -53 C 704 -35 743 -10 776 21 C 809 53 835 90 854 132 C 873 174 883 220 883 268 C 883 315 873 360 854 402 C 835 444 809 481 776 513 C 743 545 704 570 660 589 C 615 607 567 617 517 617 Z" horiz-adv-x="1030" unicode="©" />
<glyph d="M 57 550 C 75 558 99 567 131 575 C 163 583 197 587 233 587 C 255 587 276 585 297 581 C 317 577 336 571 352 563 C 368 555 382 544 392 530 C 402 516 407 500 407 480 L 407 289 C 407 281 407 270 408 258 C 409 246 412 233 417 220 L 310 220 C 308 225 307 231 306 238 C 304 245 303 252 302 258 C 288 245 272 234 254 224 C 236 214 212 209 181 209 C 135 209 98 220 72 244 C 45 267 32 296 32 332 C 32 348 35 364 43 378 C 50 392 61 405 75 416 C 89 426 107 435 127 441 C 147 447 171 450 197 450 C 216 450 234 447 252 443 C 270 439 285 432 299 424 L 299 455 C 299 472 292 485 278 493 C 264 501 246 505 224 505 C 212 505 200 504 187 502 C 174 500 162 497 150 494 C 138 490 126 487 116 483 C 105 479 96 476 90 473 L 57 550 Z M 204 288 C 216 288 228 289 238 292 C 248 294 258 298 266 302 C 274 306 280 310 286 314 C 292 318 296 322 299 325 L 299 354 C 289 360 277 366 264 370 C 251 374 236 376 219 376 C 189 376 168 371 157 363 C 145 354 140 344 140 332 C 140 318 145 308 157 300 C 168 292 184 288 204 288 Z" horiz-adv-x="466" unicode="ª" />
<glyph d="M 297 406 L 171 255 L 171 247 L 297 98 L 147 98 L 46 223 L 46 280 L 147 406 L 297 406 Z M 295 255 L 416 406 L 566 406 L 440 255 L 440 247 L 566 98 L 416 98 L 295 247 L 295 255 Z" horiz-adv-x="628" unicode="«" />
<glyph d="M 535 113 L 535 306 L 86 306 L 86 420 L 667 420 L 667 113 L 535 113 Z" horiz-adv-x="753" unicode="¬" />
<glyph d="M 312 196 C 275 196 241 202 209 214 C 177 226 150 243 127 265 C 103 287 85 312 72 342 C 58 371 52 402 52 436 C 52 468 58 499 72 529 C 85 558 103 584 127 606 C 150 628 177 645 209 658 C 241 671 275 678 312 678 C 348 678 383 671 415 658 C 447 645 475 628 499 606 C 523 584 541 558 555 529 C 569 499 576 468 576 436 C 576 402 569 371 555 342 C 541 312 523 287 499 265 C 475 243 447 226 415 214 C 383 202 348 196 312 196 Z M 312 243 C 342 243 370 248 396 258 C 422 268 444 282 463 300 C 482 317 497 337 508 361 C 519 385 525 410 525 437 C 525 463 519 487 508 511 C 497 535 482 556 463 574 C 444 592 422 606 396 617 C 370 627 342 633 312 633 C 282 633 255 627 229 617 C 203 607 181 593 162 575 C 143 557 128 536 118 512 C 107 488 102 463 102 437 C 102 409 107 384 118 361 C 128 337 143 317 162 299 C 181 281 203 268 229 258 C 255 248 282 243 312 243 Z M 201 324 L 201 564 L 353 564 C 380 564 402 556 420 542 C 438 528 447 509 447 486 C 447 472 442 459 434 447 C 425 435 412 425 395 419 L 454 324 L 382 324 L 332 409 L 263 409 L 263 324 L 201 324 Z M 263 516 L 263 459 L 350 459 C 359 459 367 462 374 468 C 380 474 384 480 384 487 C 384 494 380 501 374 507 C 368 513 360 516 351 516 L 263 516 Z" horiz-adv-x="628" unicode="®" />
<glyph d="M 382 665 L 382 572 L 113 572 L 113 665 L 382 665 Z" horiz-adv-x="496" unicode="¯" />
<glyph d="M 248 635 C 278 635 306 630 331 620 C 356 610 378 597 396 581 C 414 565 428 546 438 524 C 448 502 453 478 453 454 C 453 429 448 406 438 384 C 428 362 414 343 396 327 C 378 311 356 298 331 288 C 306 278 278 274 248 274 C 216 274 188 278 163 288 C 138 298 117 311 99 327 C 81 343 68 362 58 384 C 48 406 44 429 44 454 C 44 478 48 502 58 524 C 68 546 81 565 99 581 C 117 597 138 610 163 620 C 188 630 216 635 248 635 Z M 248 372 C 274 372 295 380 311 396 C 327 412 335 431 335 454 C 335 477 327 497 311 513 C 295 529 274 537 248 537 C 221 537 200 529 185 513 C 169 497 162 477 162 454 C 162 431 169 412 185 396 C 200 380 221 372 248 372 Z" horiz-adv-x="496" unicode="°" />
<glyph d="M 86 438 L 312 438 L 312 593 L 443 593 L 443 438 L 667 438 L 667 323 L 443 323 L 443 168 L 312 168 L 312 323 L 86 323 L 86 438 Z M 86 114 L 667 114 L 667 0 L 86 0 L 86 114 Z" horiz-adv-x="753" unicode="±" />
<glyph d="M 38 582 C 52 593 67 604 83 614 C 98 624 114 634 132 642 C 149 650 168 656 188 661 C 208 665 230 668 255 668 C 278 668 301 665 324 660 C 347 655 368 647 386 637 C 404 627 418 613 429 597 C 440 580 446 560 446 537 C 446 512 440 491 428 475 C 416 458 402 444 384 432 C 366 420 346 411 325 404 C 303 396 283 390 264 384 C 230 373 204 362 186 352 C 168 342 160 329 160 313 L 160 311 L 436 311 L 436 220 L 42 220 L 42 293 C 42 319 47 343 58 363 C 69 383 84 400 103 415 C 121 430 143 443 169 453 C 194 463 221 472 249 480 C 255 482 262 484 271 487 C 280 489 289 493 297 498 C 305 502 313 508 319 514 C 325 520 328 528 328 537 C 328 544 325 550 321 555 C 317 559 311 563 305 566 C 298 569 290 571 282 572 C 274 573 266 574 258 574 C 225 574 197 567 173 554 C 149 541 125 525 102 507 L 38 582 Z" horiz-adv-x="484" unicode="²" />
<glyph d="M 221 489 L 302 489 C 317 489 329 492 337 500 C 345 507 350 516 350 527 C 350 535 347 543 343 549 C 338 555 332 559 325 563 C 317 567 309 569 301 571 C 292 573 284 574 276 574 C 248 574 220 567 193 554 C 166 540 142 525 121 507 L 54 578 C 68 588 83 599 99 610 C 115 621 133 631 152 639 C 170 647 190 654 211 660 C 232 665 254 668 277 668 C 297 668 318 665 340 661 C 362 656 383 649 402 639 C 421 629 437 616 450 600 C 462 584 469 564 469 542 C 469 524 464 509 454 495 C 444 481 433 471 422 464 C 431 460 440 456 450 450 C 459 444 467 436 475 428 C 483 420 489 410 494 398 C 498 386 501 373 501 359 C 501 334 494 312 482 293 C 469 273 452 257 430 244 C 408 231 383 221 354 215 C 325 208 294 205 261 205 C 213 205 169 212 129 227 C 89 241 52 265 17 297 L 82 371 C 106 349 132 332 161 319 C 189 305 222 299 260 299 C 294 299 323 304 347 315 C 371 326 383 342 383 364 C 383 372 380 378 376 384 C 372 389 366 393 360 396 C 353 398 346 400 338 401 C 330 402 323 403 317 403 L 221 403 L 221 489 Z" horiz-adv-x="534" unicode="³" />
<glyph d="M 393 698 L 285 552 L 168 552 L 258 698 L 393 698 Z" horiz-adv-x="496" unicode="´" />
<glyph d="M 72 -219 L 72 483 L 206 483 L 206 160 C 206 142 213 126 229 113 C 244 100 263 94 287 94 C 311 94 332 100 351 114 C 369 127 385 141 399 157 L 399 483 L 532 483 L 532 138 C 532 118 532 96 534 74 C 536 52 539 27 545 0 L 420 0 C 418 9 417 19 416 30 C 415 40 414 51 414 61 C 395 39 373 20 347 5 C 321 -10 289 -18 251 -18 C 243 -18 235 -17 227 -15 C 219 -13 212 -10 206 -6 L 206 -219 L 72 -219 Z" horiz-adv-x="618" unicode="µ" />
<glyph d="M 449 -207 L 449 252 L 275 252 C 247 252 220 255 193 263 C 165 270 140 282 118 298 C 96 314 78 335 64 361 C 50 387 43 418 43 456 C 43 495 49 527 62 553 C 74 579 91 599 113 614 C 134 628 158 638 186 644 C 213 650 242 653 272 653 L 798 653 L 798 -207 L 675 -207 L 675 541 L 571 541 L 571 -207 L 449 -207 Z M 175 456 C 175 439 178 425 184 413 C 190 401 198 392 208 385 C 218 377 228 372 240 369 C 252 365 263 364 275 364 L 449 364 L 449 541 L 272 541 C 260 541 248 539 236 537 C 224 535 214 530 205 524 C 196 517 189 508 183 497 C 177 486 175 472 175 456 Z" horiz-adv-x="892" unicode="¶" />
<glyph d="M 275 265 C 275 289 284 310 303 328 C 322 346 347 355 377 355 C 405 355 429 346 449 328 C 469 310 479 289 479 265 C 479 239 469 218 449 201 C 429 184 405 176 377 176 C 347 176 322 184 303 201 C 284 218 275 239 275 265 Z" horiz-adv-x="753" unicode="·" />
<glyph d="M 322 24 L 295 -32 C 306 -34 318 -37 331 -41 C 343 -45 355 -50 366 -57 C 376 -64 385 -73 392 -84 C 399 -94 403 -107 403 -122 C 403 -153 387 -178 355 -198 C 323 -217 281 -227 231 -227 C 207 -227 183 -224 161 -220 C 139 -216 116 -211 93 -206 L 112 -135 C 131 -138 149 -141 167 -144 C 185 -147 202 -149 220 -149 C 240 -149 256 -146 268 -140 C 280 -134 286 -126 286 -116 C 286 -109 283 -103 279 -99 C 275 -95 269 -91 263 -89 C 257 -87 250 -85 244 -84 C 237 -83 231 -83 227 -83 C 217 -83 210 -84 204 -86 L 191 -57 L 232 24 L 322 24 Z" horiz-adv-x="496" unicode="¸" />
<glyph d="M 6 595 L 146 653 L 252 653 L 252 220 L 133 220 L 133 544 L 31 503 L 6 595 Z" horiz-adv-x="332" unicode="¹" />
<glyph d="M 34 399 C 34 425 39 450 49 473 C 59 495 74 515 92 532 C 110 549 132 562 157 572 C 181 582 208 587 238 587 C 266 587 293 582 318 572 C 343 562 365 549 383 532 C 401 515 416 495 426 473 C 436 450 442 425 442 399 C 442 372 436 347 426 324 C 416 301 401 281 383 264 C 365 247 343 234 318 224 C 293 214 266 209 238 209 C 208 209 181 214 157 224 C 132 234 110 247 92 264 C 74 281 59 301 49 324 C 39 347 34 372 34 399 Z M 145 399 C 145 371 153 346 169 326 C 185 306 208 296 238 296 C 268 296 291 306 307 326 C 323 346 332 371 332 399 C 332 427 323 450 307 470 C 291 489 268 499 238 499 C 208 499 185 489 169 470 C 153 450 145 427 145 399 Z" horiz-adv-x="477" unicode="º" />
<glyph d="M 480 406 L 582 280 L 582 223 L 480 98 L 331 98 L 456 247 L 456 255 L 331 406 L 480 406 Z M 333 247 L 211 98 L 62 98 L 187 247 L 187 255 L 62 406 L 211 406 L 333 255 L 333 247 Z" horiz-adv-x="628" unicode="»" />
<glyph d="M 4 595 L 144 653 L 250 653 L 250 220 L 131 220 L 131 544 L 29 503 L 4 595 Z M 680 653 L 309 0 L 194 0 L 566 653 L 680 653 Z M 1047 87 L 965 87 L 965 0 L 847 0 L 847 87 L 529 87 L 529 154 L 860 433 L 965 433 L 965 174 L 1047 174 L 1047 87 Z M 694 174 L 847 174 L 847 296 L 839 296 C 815 276 791 256 766 236 C 741 216 717 196 694 176 L 694 174 Z" horiz-adv-x="1074" unicode="¼" />
<glyph d="M 4 595 L 144 653 L 250 653 L 250 220 L 131 220 L 131 544 L 29 503 L 4 595 Z M 680 653 L 309 0 L 194 0 L 566 653 L 680 653 Z M 580 362 C 595 373 610 384 626 394 C 641 404 657 414 674 422 C 691 430 710 436 730 441 C 750 445 772 448 797 448 C 820 448 843 445 866 440 C 889 435 910 427 928 417 C 946 407 960 393 971 377 C 982 360 988 340 988 317 C 988 292 982 271 970 255 C 958 238 944 224 926 212 C 908 200 889 191 868 184 C 846 176 826 170 806 164 C 772 153 747 142 729 132 C 711 122 703 109 703 93 L 703 91 L 979 91 L 979 0 L 585 0 L 585 73 C 585 99 590 123 601 143 C 612 163 627 180 646 195 C 664 210 686 223 711 233 C 736 243 763 252 792 260 C 798 262 805 264 814 267 C 823 269 832 273 840 278 C 848 282 855 288 861 294 C 867 300 870 308 870 317 C 870 331 862 341 848 346 C 833 351 817 354 801 354 C 767 354 739 347 715 334 C 691 321 667 305 645 287 L 580 362 Z" horiz-adv-x="1026" unicode="½" />
<glyph d="M 220 489 L 301 489 C 317 489 329 492 337 500 C 345 507 350 516 350 527 C 350 535 347 543 343 549 C 338 555 332 559 325 563 C 317 567 309 569 300 571 C 291 573 283 574 275 574 C 247 574 219 567 192 554 C 165 540 141 525 120 507 L 54 578 C 67 588 82 599 98 610 C 114 621 132 631 151 639 C 169 647 189 654 210 660 C 231 665 253 668 277 668 C 297 668 318 665 340 661 C 362 656 383 649 402 639 C 421 629 437 616 449 600 C 461 584 468 564 468 542 C 468 524 463 509 453 495 C 443 481 432 471 421 464 C 430 460 439 456 449 450 C 459 444 467 436 475 428 C 483 420 489 410 494 398 C 498 386 501 373 501 359 C 501 334 494 312 482 293 C 469 273 452 257 430 244 C 408 231 383 221 354 215 C 324 208 293 205 260 205 C 212 205 168 212 129 227 C 89 241 52 265 17 297 L 82 371 C 106 349 132 332 161 319 C 189 305 222 299 260 299 C 294 299 323 304 347 315 C 371 326 383 342 383 364 C 383 372 380 378 376 384 C 372 389 366 393 360 396 C 353 398 346 400 338 401 C 330 402 323 403 317 403 L 220 403 L 220 489 Z M 886 653 L 515 0 L 400 0 L 772 653 L 886 653 Z M 1253 87 L 1171 87 L 1171 0 L 1053 0 L 1053 87 L 735 87 L 735 154 L 1066 433 L 1171 433 L 1171 174 L 1253 174 L 1253 87 Z M 900 174 L 1053 174 L 1053 296 L 1045 296 C 1021 276 997 256 972 236 C 947 216 923 196 900 176 L 900 174 Z" horiz-adv-x="1280" unicode="¾" />
<glyph d="M 516 -71 C 500 -87 483 -102 466 -117 C 449 -131 430 -144 409 -155 C 388 -166 365 -175 339 -182 C 313 -188 283 -192 249 -192 C 221 -192 194 -189 168 -183 C 142 -177 119 -168 99 -155 C 79 -142 64 -125 52 -105 C 40 -85 35 -60 35 -30 C 35 6 43 36 61 58 C 78 80 99 100 124 118 C 137 128 151 138 166 147 C 181 156 195 166 208 176 C 220 186 231 198 240 212 C 248 225 253 242 255 262 L 385 262 C 385 230 380 202 369 180 C 358 158 344 138 327 122 C 309 105 290 90 270 77 C 249 64 230 51 213 38 C 200 28 189 19 180 9 C 170 0 166 -12 166 -26 C 166 -45 174 -60 192 -70 C 209 -80 230 -85 256 -85 C 294 -85 326 -76 353 -60 C 379 -43 405 -21 431 6 L 516 -71 Z M 395 411 C 395 387 386 367 368 351 C 350 334 328 326 302 326 C 275 326 253 334 235 351 C 217 367 208 387 208 411 C 208 423 210 434 215 444 C 220 454 227 462 235 470 C 243 478 253 484 265 488 C 276 492 288 495 302 495 C 328 495 350 486 368 470 C 386 454 395 434 395 411 Z" horiz-adv-x="566" unicode="¿" />
<glyph d="M 315 653 L 438 653 L 741 0 L 584 0 L 524 138 L 222 138 L 163 0 L 12 0 L 315 653 Z M 271 251 L 475 251 L 376 482 L 370 482 L 271 251 Z M 463 726 L 343 726 L 220 864 L 363 864 L 463 726 Z" horiz-adv-x="753" unicode="À" />
<glyph d="M 315 653 L 438 653 L 741 0 L 584 0 L 524 138 L 222 138 L 163 0 L 12 0 L 315 653 Z M 271 251 L 475 251 L 376 482 L 370 482 L 271 251 Z M 389 864 L 532 864 L 408 726 L 289 726 L 389 864 Z" horiz-adv-x="753" unicode="Á" />
<glyph d="M 315 653 L 438 653 L 741 0 L 584 0 L 524 138 L 222 138 L 163 0 L 12 0 L 315 653 Z M 271 251 L 475 251 L 376 482 L 370 482 L 271 251 Z M 310 865 L 442 865 L 547 726 L 442 726 L 376 800 L 309 726 L 204 726 L 310 865 Z" horiz-adv-x="753" unicode="Â" />
<glyph d="M 315 653 L 438 653 L 741 0 L 584 0 L 524 138 L 222 138 L 163 0 L 12 0 L 315 653 Z M 271 251 L 475 251 L 376 482 L 370 482 L 271 251 Z M 183 764 C 203 800 224 825 244 840 C 264 854 286 862 310 862 C 325 862 338 859 350 855 C 361 850 372 844 382 837 C 391 831 400 825 408 820 C 416 814 425 812 434 812 C 446 812 457 817 466 827 C 475 837 483 847 491 858 L 565 818 C 545 783 525 758 505 742 C 484 726 462 718 438 718 C 424 718 411 720 400 725 C 388 729 378 735 369 741 C 359 748 350 754 342 760 C 334 765 325 768 316 768 C 304 768 294 762 286 752 C 278 742 270 731 263 721 L 183 764 Z" horiz-adv-x="753" unicode="Ã" />
<glyph d="M 315 653 L 438 653 L 741 0 L 584 0 L 524 138 L 222 138 L 163 0 L 12 0 L 315 653 Z M 271 251 L 475 251 L 376 482 L 370 482 L 271 251 Z M 190 798 C 190 816 196 831 210 845 C 224 858 241 865 262 865 C 283 865 301 858 315 845 C 329 831 336 816 336 798 C 336 779 329 763 315 751 C 301 738 283 732 262 732 C 241 732 224 738 210 751 C 196 763 190 779 190 798 Z M 414 798 C 414 816 420 831 434 845 C 448 858 465 865 487 865 C 507 865 525 858 539 845 C 553 831 561 816 561 798 C 561 779 553 763 539 751 C 525 738 507 732 487 732 C 465 732 448 738 434 751 C 420 763 414 779 414 798 Z" horiz-adv-x="753" unicode="Ä" />
<glyph d="M 315 653 L 438 653 L 741 0 L 584 0 L 524 138 L 222 138 L 163 0 L 12 0 L 315 653 Z M 271 251 L 475 251 L 376 482 L 370 482 L 271 251 Z M 315 801 C 315 785 320 773 331 765 C 342 756 356 752 373 752 C 389 752 403 756 414 765 C 425 773 431 785 431 801 C 431 816 425 829 414 840 C 403 850 389 856 373 856 C 356 856 342 850 331 840 C 320 829 315 816 315 801 Z M 373 693 C 350 693 330 695 313 701 C 296 707 282 715 271 725 C 259 735 251 746 245 759 C 239 772 237 786 237 801 C 237 815 239 829 245 843 C 251 856 259 868 271 878 C 282 888 296 897 313 903 C 330 909 350 913 373 913 C 395 913 414 909 431 903 C 448 897 462 888 474 878 C 485 868 494 856 500 843 C 506 829 509 815 509 801 C 509 786 506 772 500 759 C 494 746 485 735 474 725 C 462 715 448 707 431 701 C 414 695 395 693 373 693 Z" horiz-adv-x="753" unicode="Å" />
<glyph d="M 463 138 L 226 138 L 132 0 L -23 0 L 425 653 L 1006 653 L 1006 529 L 606 529 L 606 402 L 846 402 L 846 279 L 606 279 L 606 123 L 1029 123 L 1029 0 L 463 0 L 463 138 Z M 301 251 L 463 251 L 463 482 L 458 482 L 301 251 Z" horiz-adv-x="1071" unicode="Æ" />
<glyph d="M 740 114 C 704 80 660 51 608 25 C 556 -1 498 -15 432 -19 L 426 -32 C 437 -34 449 -37 462 -41 C 474 -45 486 -50 497 -57 C 507 -64 516 -73 523 -84 C 530 -94 534 -107 534 -122 C 534 -153 518 -178 486 -198 C 454 -217 412 -227 362 -227 C 338 -227 314 -224 292 -220 C 270 -216 247 -211 224 -206 L 243 -135 C 262 -138 280 -141 298 -144 C 316 -147 333 -149 351 -149 C 371 -149 387 -146 399 -140 C 411 -134 417 -126 417 -116 C 417 -109 414 -103 410 -99 C 406 -95 400 -91 394 -89 C 388 -87 381 -85 375 -84 C 368 -83 362 -83 358 -83 C 348 -83 341 -84 335 -86 L 322 -57 L 343 -15 C 297 -8 256 5 220 25 C 184 45 153 71 128 101 C 102 131 83 166 69 204 C 55 242 48 283 48 327 C 48 373 56 418 74 460 C 91 502 115 538 146 570 C 177 602 214 627 258 645 C 302 663 350 673 403 673 C 463 673 521 662 577 641 C 632 620 679 593 719 559 L 629 465 C 599 491 564 511 526 526 C 487 541 450 549 415 549 C 381 549 351 543 325 531 C 298 519 275 503 257 483 C 238 463 223 439 213 412 C 203 385 198 356 198 326 C 198 295 203 266 213 239 C 223 212 238 188 258 168 C 277 148 300 132 328 120 C 355 108 386 103 420 103 C 464 103 506 113 546 133 C 586 153 620 178 649 207 L 740 114 Z" horiz-adv-x="766" unicode="Ç" />
<glyph d="M 487 279 L 246 279 L 246 123 L 670 123 L 670 0 L 103 0 L 103 653 L 647 653 L 647 529 L 246 529 L 246 402 L 487 402 L 487 279 Z M 462 726 L 342 726 L 219 864 L 362 864 L 462 726 Z" horiz-adv-x="711" unicode="È" />
<glyph d="M 487 279 L 246 279 L 246 123 L 670 123 L 670 0 L 103 0 L 103 653 L 647 653 L 647 529 L 246 529 L 246 402 L 487 402 L 487 279 Z M 388 864 L 531 864 L 407 726 L 288 726 L 388 864 Z" horiz-adv-x="711" unicode="É" />
<glyph d="M 487 279 L 246 279 L 246 123 L 670 123 L 670 0 L 103 0 L 103 653 L 647 653 L 647 529 L 246 529 L 246 402 L 487 402 L 487 279 Z M 309 865 L 441 865 L 546 726 L 441 726 L 375 800 L 308 726 L 203 726 L 309 865 Z" horiz-adv-x="711" unicode="Ê" />
<glyph d="M 487 279 L 246 279 L 246 123 L 670 123 L 670 0 L 103 0 L 103 653 L 647 653 L 647 529 L 246 529 L 246 402 L 487 402 L 487 279 Z M 189 798 C 189 816 195 831 209 845 C 223 858 240 865 261 865 C 282 865 300 858 314 845 C 328 831 335 816 335 798 C 335 779 328 763 314 751 C 300 738 282 732 261 732 C 240 732 223 738 209 751 C 195 763 189 779 189 798 Z M 413 798 C 413 816 419 831 433 845 C 447 858 464 865 486 865 C 506 865 524 858 538 845 C 552 831 560 816 560 798 C 560 779 552 763 538 751 C 524 738 506 732 486 732 C 464 732 447 738 433 751 C 419 763 413 779 413 798 Z" horiz-adv-x="711" unicode="Ë" />
<glyph d="M 103 0 L 103 653 L 246 653 L 246 0 L 103 0 Z M 262 726 L 142 726 L 19 864 L 162 864 L 262 726 Z" horiz-adv-x="349" unicode="Ì" />
<glyph d="M 103 0 L 103 653 L 246 653 L 246 0 L 103 0 Z M 188 864 L 331 864 L 207 726 L 88 726 L 188 864 Z" horiz-adv-x="349" unicode="Í" />
<glyph d="M 103 0 L 103 653 L 246 653 L 246 0 L 103 0 Z M 109 865 L 241 865 L 346 726 L 241 726 L 175 800 L 108 726 L 3 726 L 109 865 Z" horiz-adv-x="349" unicode="Î" />
<glyph d="M 103 0 L 103 653 L 246 653 L 246 0 L 103 0 Z M -11 798 C -11 816 -4 831 9 845 C 23 858 40 865 61 865 C 82 865 100 858 114 845 C 128 831 135 816 135 798 C 135 779 128 763 114 751 C 100 738 82 732 61 732 C 40 732 23 738 9 751 C -4 763 -11 779 -11 798 Z M 213 798 C 213 816 219 831 233 845 C 247 858 264 865 286 865 C 306 865 324 858 338 845 C 352 831 360 816 360 798 C 360 779 352 763 338 751 C 324 738 306 732 286 732 C 264 732 247 738 233 751 C 219 763 213 779 213 798 Z" horiz-adv-x="349" unicode="Ï" />
<glyph d="M 37 385 L 133 385 L 133 653 L 440 653 C 500 653 551 645 591 629 C 631 613 666 590 696 560 C 724 530 746 495 761 455 C 776 415 784 373 784 327 C 784 279 776 234 760 193 C 744 151 720 116 690 86 C 662 59 628 38 590 23 C 551 7 501 0 440 0 L 133 0 L 133 281 L 37 281 L 37 385 Z M 435 123 C 453 123 469 124 483 126 C 497 128 509 131 520 135 C 530 139 540 144 549 150 C 557 156 566 162 575 170 C 594 189 609 211 619 237 C 629 263 635 292 635 326 C 635 388 616 439 580 477 C 563 493 544 506 524 515 C 503 524 473 529 435 529 L 276 529 L 276 385 L 451 385 L 451 281 L 276 281 L 276 123 L 435 123 Z" horiz-adv-x="836" unicode="Ð" />
<glyph d="M 704 653 L 704 0 L 580 0 L 248 404 L 247 404 L 247 0 L 103 0 L 103 653 L 226 653 L 559 248 L 560 248 L 560 653 L 704 653 Z M 210 764 C 230 800 251 825 271 840 C 291 854 313 862 337 862 C 352 862 365 859 377 855 C 388 850 399 844 409 837 C 418 831 427 825 435 820 C 443 814 452 812 461 812 C 473 812 484 817 493 827 C 502 837 510 847 518 858 L 592 818 C 572 783 552 758 532 742 C 511 726 489 718 465 718 C 451 718 438 720 427 725 C 415 729 405 735 396 741 C 386 748 377 754 369 760 C 361 765 352 768 343 768 C 331 768 321 762 313 752 C 305 742 297 731 290 721 L 210 764 Z" horiz-adv-x="807" unicode="Ñ" />
<glyph d="M 47 328 C 47 375 56 420 75 462 C 94 504 120 540 154 572 C 187 603 226 628 271 646 C 315 664 364 673 416 673 C 468 673 516 664 562 646 C 607 628 646 603 680 572 C 714 540 740 504 760 462 C 779 420 789 375 789 328 C 789 279 779 233 760 191 C 740 149 714 112 680 81 C 646 49 607 25 562 7 C 516 -11 468 -20 416 -20 C 364 -20 315 -11 271 7 C 226 25 187 49 154 81 C 120 112 94 149 75 191 C 56 233 47 279 47 328 Z M 197 328 C 197 297 202 268 214 241 C 225 213 240 189 260 169 C 280 149 303 133 330 121 C 356 109 385 103 416 103 C 447 103 476 109 503 121 C 530 133 554 149 574 169 C 594 189 609 213 621 241 C 633 268 639 297 639 328 C 639 358 633 386 621 413 C 609 440 594 464 574 484 C 554 504 530 519 503 531 C 476 543 447 549 416 549 C 385 549 356 543 330 531 C 303 519 280 504 260 484 C 240 464 225 440 214 413 C 202 386 197 358 197 328 Z M 504 726 L 384 726 L 261 864 L 404 864 L 504 726 Z" horiz-adv-x="835" unicode="Ò" />
<glyph d="M 47 328 C 47 375 56 420 75 462 C 94 504 120 540 154 572 C 187 603 226 628 271 646 C 315 664 364 673 416 673 C 468 673 516 664 562 646 C 607 628 646 603 680 572 C 714 540 740 504 760 462 C 779 420 789 375 789 328 C 789 279 779 233 760 191 C 740 149 714 112 680 81 C 646 49 607 25 562 7 C 516 -11 468 -20 416 -20 C 364 -20 315 -11 271 7 C 226 25 187 49 154 81 C 120 112 94 149 75 191 C 56 233 47 279 47 328 Z M 197 328 C 197 297 202 268 214 241 C 225 213 240 189 260 169 C 280 149 303 133 330 121 C 356 109 385 103 416 103 C 447 103 476 109 503 121 C 530 133 554 149 574 169 C 594 189 609 213 621 241 C 633 268 639 297 639 328 C 639 358 633 386 621 413 C 609 440 594 464 574 484 C 554 504 530 519 503 531 C 476 543 447 549 416 549 C 385 549 356 543 330 531 C 303 519 280 504 260 484 C 240 464 225 440 214 413 C 202 386 197 358 197 328 Z M 430 864 L 573 864 L 449 726 L 330 726 L 430 864 Z" horiz-adv-x="835" unicode="Ó" />
<glyph d="M 47 328 C 47 375 56 420 75 462 C 94 504 120 540 154 572 C 187 603 226 628 271 646 C 315 664 364 673 416 673 C 468 673 516 664 562 646 C 607 628 646 603 680 572 C 714 540 740 504 760 462 C 779 420 789 375 789 328 C 789 279 779 233 760 191 C 740 149 714 112 680 81 C 646 49 607 25 562 7 C 516 -11 468 -20 416 -20 C 364 -20 315 -11 271 7 C 226 25 187 49 154 81 C 120 112 94 149 75 191 C 56 233 47 279 47 328 Z M 197 328 C 197 297 202 268 214 241 C 225 213 240 189 260 169 C 280 149 303 133 330 121 C 356 109 385 103 416 103 C 447 103 476 109 503 121 C 530 133 554 149 574 169 C 594 189 609 213 621 241 C 633 268 639 297 639 328 C 639 358 633 386 621 413 C 609 440 594 464 574 484 C 554 504 530 519 503 531 C 476 543 447 549 416 549 C 385 549 356 543 330 531 C 303 519 280 504 260 484 C 240 464 225 440 214 413 C 202 386 197 358 197 328 Z M 351 865 L 483 865 L 588 726 L 483 726 L 417 800 L 350 726 L 245 726 L 351 865 Z" horiz-adv-x="835" unicode="Ô" />
<glyph d="M 47 328 C 47 375 56 420 75 462 C 94 504 120 540 154 572 C 187 603 226 628 271 646 C 315 664 364 673 416 673 C 468 673 516 664 562 646 C 607 628 646 603 680 572 C 714 540 740 504 760 462 C 779 420 789 375 789 328 C 789 279 779 233 760 191 C 740 149 714 112 680 81 C 646 49 607 25 562 7 C 516 -11 468 -20 416 -20 C 364 -20 315 -11 271 7 C 226 25 187 49 154 81 C 120 112 94 149 75 191 C 56 233 47 279 47 328 Z M 197 328 C 197 297 202 268 214 241 C 225 213 240 189 260 169 C 280 149 303 133 330 121 C 356 109 385 103 416 103 C 447 103 476 109 503 121 C 530 133 554 149 574 169 C 594 189 609 213 621 241 C 633 268 639 297 639 328 C 639 358 633 386 621 413 C 609 440 594 464 574 484 C 554 504 530 519 503 531 C 476 543 447 549 416 549 C 385 549 356 543 330 531 C 303 519 280 504 260 484 C 240 464 225 440 214 413 C 202 386 197 358 197 328 Z M 224 764 C 244 800 265 825 285 840 C 305 854 327 862 351 862 C 366 862 379 859 391 855 C 402 850 413 844 423 837 C 432 831 441 825 449 820 C 457 814 466 812 475 812 C 487 812 498 817 507 827 C 516 837 524 847 532 858 L 606 818 C 586 783 566 758 546 742 C 525 726 503 718 479 718 C 465 718 452 720 441 725 C 429 729 419 735 410 741 C 400 748 391 754 383 760 C 375 765 366 768 357 768 C 345 768 335 762 327 752 C 319 742 311 731 304 721 L 224 764 Z" horiz-adv-x="835" unicode="Õ" />
<glyph d="M 47 328 C 47 375 56 420 75 462 C 94 504 120 540 154 572 C 187 603 226 628 271 646 C 315 664 364 673 416 673 C 468 673 516 664 562 646 C 607 628 646 603 680 572 C 714 540 740 504 760 462 C 779 420 789 375 789 328 C 789 279 779 233 760 191 C 740 149 714 112 680 81 C 646 49 607 25 562 7 C 516 -11 468 -20 416 -20 C 364 -20 315 -11 271 7 C 226 25 187 49 154 81 C 120 112 94 149 75 191 C 56 233 47 279 47 328 Z M 197 328 C 197 297 202 268 214 241 C 225 213 240 189 260 169 C 280 149 303 133 330 121 C 356 109 385 103 416 103 C 447 103 476 109 503 121 C 530 133 554 149 574 169 C 594 189 609 213 621 241 C 633 268 639 297 639 328 C 639 358 633 386 621 413 C 609 440 594 464 574 484 C 554 504 530 519 503 531 C 476 543 447 549 416 549 C 385 549 356 543 330 531 C 303 519 280 504 260 484 C 240 464 225 440 214 413 C 202 386 197 358 197 328 Z M 231 798 C 231 816 237 831 251 845 C 265 858 282 865 303 865 C 324 865 342 858 356 845 C 370 831 377 816 377 798 C 377 779 370 763 356 751 C 342 738 324 732 303 732 C 282 732 265 738 251 751 C 237 763 231 779 231 798 Z M 455 798 C 455 816 461 831 475 845 C 489 858 506 865 528 865 C 548 865 566 858 580 845 C 594 831 602 816 602 798 C 602 779 594 763 580 751 C 566 738 548 732 528 732 C 506 732 489 738 475 751 C 461 763 455 779 455 798 Z" horiz-adv-x="835" unicode="Ö" />
<glyph d="M 177 516 L 378 344 L 578 516 L 665 432 L 470 265 L 666 98 L 577 14 L 376 185 L 175 14 L 89 97 L 284 264 L 88 431 L 177 516 Z" horiz-adv-x="753" unicode="×" />
<glyph d="M 47 328 C 47 375 56 420 75 462 C 94 504 120 540 154 572 C 187 603 226 628 271 646 C 315 664 364 673 416 673 C 444 673 471 670 497 664 C 523 658 549 651 573 641 L 629 721 L 715 663 L 662 587 C 701 555 732 516 755 472 C 777 428 789 380 789 328 C 789 279 779 233 760 191 C 740 149 714 112 680 81 C 646 49 607 25 562 7 C 516 -11 468 -20 416 -20 C 388 -20 360 -17 334 -11 C 308 -5 283 1 260 11 L 205 -68 L 119 -10 L 171 65 C 132 97 102 135 80 180 C 58 225 47 274 47 328 Z M 639 328 C 639 356 634 382 624 407 C 614 432 600 454 583 474 L 335 118 C 359 108 386 103 416 103 C 447 103 476 109 503 121 C 530 133 554 149 574 169 C 594 189 609 213 621 241 C 633 268 639 297 639 328 Z M 197 328 C 197 299 201 272 211 247 C 220 221 233 199 251 179 L 498 533 C 484 538 471 542 458 545 C 444 547 430 549 416 549 C 385 549 356 543 330 531 C 303 519 280 504 260 484 C 240 464 225 440 214 413 C 202 386 197 358 197 328 Z" horiz-adv-x="835" unicode="Ø" />
<glyph d="M 687 653 L 687 235 C 687 194 679 158 664 126 C 649 94 628 68 602 46 C 576 24 544 8 508 -3 C 471 -14 431 -20 388 -20 C 346 -20 306 -14 270 -3 C 234 8 202 24 176 46 C 150 68 129 94 114 126 C 98 158 91 194 91 235 L 91 653 L 235 653 L 235 235 C 235 213 239 194 247 178 C 255 161 266 147 280 136 C 294 125 310 117 328 111 C 346 105 366 103 388 103 C 410 103 430 105 449 111 C 468 117 485 125 499 136 C 513 147 523 161 531 178 C 539 194 543 213 543 235 L 543 653 L 687 653 Z M 475 726 L 355 726 L 232 864 L 375 864 L 475 726 Z" horiz-adv-x="778" unicode="Ù" />
<glyph d="M 687 653 L 687 235 C 687 194 679 158 664 126 C 649 94 628 68 602 46 C 576 24 544 8 508 -3 C 471 -14 431 -20 388 -20 C 346 -20 306 -14 270 -3 C 234 8 202 24 176 46 C 150 68 129 94 114 126 C 98 158 91 194 91 235 L 91 653 L 235 653 L 235 235 C 235 213 239 194 247 178 C 255 161 266 147 280 136 C 294 125 310 117 328 111 C 346 105 366 103 388 103 C 410 103 430 105 449 111 C 468 117 485 125 499 136 C 513 147 523 161 531 178 C 539 194 543 213 543 235 L 543 653 L 687 653 Z M 401 864 L 544 864 L 420 726 L 301 726 L 401 864 Z" horiz-adv-x="778" unicode="Ú" />
<glyph d="M 687 653 L 687 235 C 687 194 679 158 664 126 C 649 94 628 68 602 46 C 576 24 544 8 508 -3 C 471 -14 431 -20 388 -20 C 346 -20 306 -14 270 -3 C 234 8 202 24 176 46 C 150 68 129 94 114 126 C 98 158 91 194 91 235 L 91 653 L 235 653 L 235 235 C 235 213 239 194 247 178 C 255 161 266 147 280 136 C 294 125 310 117 328 111 C 346 105 366 103 388 103 C 410 103 430 105 449 111 C 468 117 485 125 499 136 C 513 147 523 161 531 178 C 539 194 543 213 543 235 L 543 653 L 687 653 Z M 322 865 L 454 865 L 559 726 L 454 726 L 388 800 L 321 726 L 216 726 L 322 865 Z" horiz-adv-x="778" unicode="Û" />
<glyph d="M 687 653 L 687 235 C 687 194 679 158 664 126 C 649 94 628 68 602 46 C 576 24 544 8 508 -3 C 471 -14 431 -20 388 -20 C 346 -20 306 -14 270 -3 C 234 8 202 24 176 46 C 150 68 129 94 114 126 C 98 158 91 194 91 235 L 91 653 L 235 653 L 235 235 C 235 213 239 194 247 178 C 255 161 266 147 280 136 C 294 125 310 117 328 111 C 346 105 366 103 388 103 C 410 103 430 105 449 111 C 468 117 485 125 499 136 C 513 147 523 161 531 178 C 539 194 543 213 543 235 L 543 653 L 687 653 Z M 202 798 C 202 816 208 831 222 845 C 236 858 253 865 274 865 C 295 865 313 858 327 845 C 341 831 348 816 348 798 C 348 779 341 763 327 751 C 313 738 295 732 274 732 C 253 732 236 738 222 751 C 208 763 202 779 202 798 Z M 426 798 C 426 816 432 831 446 845 C 460 858 477 865 499 865 C 519 865 537 858 551 845 C 565 831 573 816 573 798 C 573 779 565 763 551 751 C 537 738 519 732 499 732 C 477 732 460 738 446 751 C 432 763 426 779 426 798 Z" horiz-adv-x="778" unicode="Ü" />
<glyph d="M 666 653 L 407 298 L 407 0 L 263 0 L 263 298 L 3 653 L 181 653 L 340 426 L 498 653 L 666 653 Z M 348 864 L 491 864 L 367 726 L 248 726 L 348 864 Z" horiz-adv-x="670" unicode="Ý" />
<glyph d="M 246 533 L 485 533 C 531 533 570 526 602 514 C 634 502 660 484 682 461 C 717 421 735 377 735 327 C 735 298 729 271 718 247 C 707 223 692 201 673 183 C 652 163 627 148 597 137 C 567 125 529 120 485 120 L 246 120 L 246 0 L 103 0 L 103 653 L 246 653 L 246 533 Z M 246 412 L 246 241 L 490 241 C 502 241 515 242 528 245 C 541 248 553 255 565 266 C 582 283 591 303 591 326 C 591 348 583 367 567 385 C 555 396 543 403 530 407 C 516 410 503 412 490 412 L 246 412 Z" horiz-adv-x="764" unicode="Þ" />
<glyph d="M 300 90 C 346 90 380 99 403 118 C 426 136 438 160 438 190 C 438 212 432 231 420 248 C 408 264 393 278 377 290 C 361 301 344 310 326 317 C 308 323 294 328 282 330 L 292 429 C 320 434 342 446 356 466 C 370 486 378 507 378 529 C 378 555 369 574 353 588 C 337 601 318 608 297 608 C 286 608 275 605 265 601 C 254 597 244 590 236 581 C 228 572 221 561 216 547 C 211 533 209 516 209 496 L 209 0 L 77 0 L 77 497 C 77 535 83 568 96 596 C 108 623 125 645 146 663 C 166 680 190 692 216 700 C 242 708 268 712 296 712 C 328 712 358 707 384 699 C 410 691 433 679 452 664 C 471 649 486 631 496 611 C 506 590 512 567 512 543 C 512 523 508 504 500 488 C 492 472 483 458 472 446 C 461 434 449 424 436 416 C 423 408 412 402 402 399 C 416 395 433 387 453 375 C 473 363 491 349 509 331 C 527 313 542 291 554 266 C 566 241 572 213 572 183 C 572 155 566 129 555 106 C 543 82 527 62 505 45 C 483 27 455 14 423 4 C 390 -5 352 -10 310 -10 L 300 90 Z" horiz-adv-x="613" unicode="ß" />
<glyph d="M 72 452 C 83 458 97 464 113 470 C 129 476 148 481 168 486 C 188 491 209 495 231 499 C 253 502 276 504 300 504 C 328 504 355 501 382 496 C 409 491 433 483 454 471 C 475 459 492 444 505 425 C 518 406 525 383 525 356 L 525 95 C 525 83 525 69 527 53 C 529 36 533 18 539 0 L 407 0 C 404 7 402 16 400 26 C 398 36 396 46 395 56 C 385 47 376 38 366 30 C 356 22 344 14 331 8 C 318 2 303 -2 287 -6 C 271 -10 252 -12 231 -12 C 201 -12 175 -7 151 0 C 127 8 106 20 90 35 C 73 50 60 68 51 88 C 42 108 38 130 38 154 C 38 176 42 197 52 217 C 62 237 76 254 94 269 C 112 283 134 295 161 303 C 187 311 218 316 252 316 C 278 316 303 312 328 306 C 352 300 374 290 392 276 L 392 325 C 392 350 382 369 363 381 C 343 393 319 399 289 399 C 273 399 257 397 240 394 C 223 391 207 387 191 383 C 175 378 160 373 146 368 C 132 362 121 357 113 353 L 72 452 Z M 260 86 C 277 86 293 88 308 92 C 322 96 335 102 346 108 C 357 114 366 120 374 126 C 382 132 388 136 392 140 L 392 187 C 381 196 366 204 346 211 C 326 218 304 222 279 222 C 239 222 211 215 195 202 C 179 188 171 172 171 154 C 171 133 178 116 194 104 C 210 92 232 86 260 86 Z M 288 698 L 378 552 L 262 552 L 154 698 L 288 698 Z" horiz-adv-x="598" unicode="à" />
<glyph d="M 72 452 C 83 458 97 464 113 470 C 129 476 148 481 168 486 C 188 491 209 495 231 499 C 253 502 276 504 300 504 C 328 504 355 501 382 496 C 409 491 433 483 454 471 C 475 459 492 444 505 425 C 518 406 525 383 525 356 L 525 95 C 525 83 525 69 527 53 C 529 36 533 18 539 0 L 407 0 C 404 7 402 16 400 26 C 398 36 396 46 395 56 C 385 47 376 38 366 30 C 356 22 344 14 331 8 C 318 2 303 -2 287 -6 C 271 -10 252 -12 231 -12 C 201 -12 175 -7 151 0 C 127 8 106 20 90 35 C 73 50 60 68 51 88 C 42 108 38 130 38 154 C 38 176 42 197 52 217 C 62 237 76 254 94 269 C 112 283 134 295 161 303 C 187 311 218 316 252 316 C 278 316 303 312 328 306 C 352 300 374 290 392 276 L 392 325 C 392 350 382 369 363 381 C 343 393 319 399 289 399 C 273 399 257 397 240 394 C 223 391 207 387 191 383 C 175 378 160 373 146 368 C 132 362 121 357 113 353 L 72 452 Z M 260 86 C 277 86 293 88 308 92 C 322 96 335 102 346 108 C 357 114 366 120 374 126 C 382 132 388 136 392 140 L 392 187 C 381 196 366 204 346 211 C 326 218 304 222 279 222 C 239 222 211 215 195 202 C 179 188 171 172 171 154 C 171 133 178 116 194 104 C 210 92 232 86 260 86 Z M 444 698 L 336 552 L 219 552 L 309 698 L 444 698 Z" horiz-adv-x="598" unicode="á" />
<glyph d="M 72 452 C 83 458 97 464 113 470 C 129 476 148 481 168 486 C 188 491 209 495 231 499 C 253 502 276 504 300 504 C 328 504 355 501 382 496 C 409 491 433 483 454 471 C 475 459 492 444 505 425 C 518 406 525 383 525 356 L 525 95 C 525 83 525 69 527 53 C 529 36 533 18 539 0 L 407 0 C 404 7 402 16 400 26 C 398 36 396 46 395 56 C 385 47 376 38 366 30 C 356 22 344 14 331 8 C 318 2 303 -2 287 -6 C 271 -10 252 -12 231 -12 C 201 -12 175 -7 151 0 C 127 8 106 20 90 35 C 73 50 60 68 51 88 C 42 108 38 130 38 154 C 38 176 42 197 52 217 C 62 237 76 254 94 269 C 112 283 134 295 161 303 C 187 311 218 316 252 316 C 278 316 303 312 328 306 C 352 300 374 290 392 276 L 392 325 C 392 350 382 369 363 381 C 343 393 319 399 289 399 C 273 399 257 397 240 394 C 223 391 207 387 191 383 C 175 378 160 373 146 368 C 132 362 121 357 113 353 L 72 452 Z M 260 86 C 277 86 293 88 308 92 C 322 96 335 102 346 108 C 357 114 366 120 374 126 C 382 132 388 136 392 140 L 392 187 C 381 196 366 204 346 211 C 326 218 304 222 279 222 C 239 222 211 215 195 202 C 179 188 171 172 171 154 C 171 133 178 116 194 104 C 210 92 232 86 260 86 Z M 233 694 L 365 694 L 470 553 L 365 553 L 299 629 L 232 553 L 127 553 L 233 694 Z" horiz-adv-x="598" unicode="â" />
<glyph d="M 72 452 C 83 458 97 464 113 470 C 129 476 148 481 168 486 C 188 491 209 495 231 499 C 253 502 276 504 300 504 C 328 504 355 501 382 496 C 409 491 433 483 454 471 C 475 459 492 444 505 425 C 518 406 525 383 525 356 L 525 95 C 525 83 525 69 527 53 C 529 36 533 18 539 0 L 407 0 C 404 7 402 16 400 26 C 398 36 396 46 395 56 C 385 47 376 38 366 30 C 356 22 344 14 331 8 C 318 2 303 -2 287 -6 C 271 -10 252 -12 231 -12 C 201 -12 175 -7 151 0 C 127 8 106 20 90 35 C 73 50 60 68 51 88 C 42 108 38 130 38 154 C 38 176 42 197 52 217 C 62 237 76 254 94 269 C 112 283 134 295 161 303 C 187 311 218 316 252 316 C 278 316 303 312 328 306 C 352 300 374 290 392 276 L 392 325 C 392 350 382 369 363 381 C 343 393 319 399 289 399 C 273 399 257 397 240 394 C 223 391 207 387 191 383 C 175 378 160 373 146 368 C 132 362 121 357 113 353 L 72 452 Z M 260 86 C 277 86 293 88 308 92 C 322 96 335 102 346 108 C 357 114 366 120 374 126 C 382 132 388 136 392 140 L 392 187 C 381 196 366 204 346 211 C 326 218 304 222 279 222 C 239 222 211 215 195 202 C 179 188 171 172 171 154 C 171 133 178 116 194 104 C 210 92 232 86 260 86 Z M 106 590 C 126 626 147 652 167 667 C 187 681 209 689 233 689 C 248 689 261 686 273 682 C 284 677 295 671 305 664 C 314 657 323 651 331 646 C 339 641 348 639 357 639 C 369 639 380 643 389 653 C 398 663 406 673 414 685 L 488 645 C 468 610 448 585 428 569 C 407 553 385 545 361 545 C 347 545 334 547 323 552 C 311 556 301 562 292 568 C 282 575 273 581 265 587 C 257 592 248 595 239 595 C 227 595 217 589 209 579 C 201 568 193 557 186 547 L 106 590 Z" horiz-adv-x="598" unicode="ã" />
<glyph d="M 72 452 C 83 458 97 464 113 470 C 129 476 148 481 168 486 C 188 491 209 495 231 499 C 253 502 276 504 300 504 C 328 504 355 501 382 496 C 409 491 433 483 454 471 C 475 459 492 444 505 425 C 518 406 525 383 525 356 L 525 95 C 525 83 525 69 527 53 C 529 36 533 18 539 0 L 407 0 C 404 7 402 16 400 26 C 398 36 396 46 395 56 C 385 47 376 38 366 30 C 356 22 344 14 331 8 C 318 2 303 -2 287 -6 C 271 -10 252 -12 231 -12 C 201 -12 175 -7 151 0 C 127 8 106 20 90 35 C 73 50 60 68 51 88 C 42 108 38 130 38 154 C 38 176 42 197 52 217 C 62 237 76 254 94 269 C 112 283 134 295 161 303 C 187 311 218 316 252 316 C 278 316 303 312 328 306 C 352 300 374 290 392 276 L 392 325 C 392 350 382 369 363 381 C 343 393 319 399 289 399 C 273 399 257 397 240 394 C 223 391 207 387 191 383 C 175 378 160 373 146 368 C 132 362 121 357 113 353 L 72 452 Z M 260 86 C 277 86 293 88 308 92 C 322 96 335 102 346 108 C 357 114 366 120 374 126 C 382 132 388 136 392 140 L 392 187 C 381 196 366 204 346 211 C 326 218 304 222 279 222 C 239 222 211 215 195 202 C 179 188 171 172 171 154 C 171 133 178 116 194 104 C 210 92 232 86 260 86 Z M 113 625 C 113 643 119 658 133 672 C 147 685 164 692 185 692 C 206 692 224 685 238 672 C 252 658 259 643 259 625 C 259 606 252 590 238 578 C 224 565 206 559 185 559 C 164 559 147 565 133 578 C 119 590 113 606 113 625 Z M 337 625 C 337 643 343 658 357 672 C 371 685 388 692 410 692 C 430 692 448 685 462 672 C 476 658 484 643 484 625 C 484 606 476 590 462 578 C 448 565 430 559 410 559 C 388 559 371 565 357 578 C 343 590 337 606 337 625 Z" horiz-adv-x="598" unicode="ä" />
<glyph d="M 72 452 C 83 458 97 464 113 470 C 129 476 148 481 168 486 C 188 491 209 495 231 499 C 253 502 276 504 300 504 C 328 504 355 501 382 496 C 409 491 433 483 454 471 C 475 459 492 444 505 425 C 518 406 525 383 525 356 L 525 95 C 525 83 525 69 527 53 C 529 36 533 18 539 0 L 407 0 C 404 7 402 16 400 26 C 398 36 396 46 395 56 C 385 47 376 38 366 30 C 356 22 344 14 331 8 C 318 2 303 -2 287 -6 C 271 -10 252 -12 231 -12 C 201 -12 175 -7 151 0 C 127 8 106 20 90 35 C 73 50 60 68 51 88 C 42 108 38 130 38 154 C 38 176 42 197 52 217 C 62 237 76 254 94 269 C 112 283 134 295 161 303 C 187 311 218 316 252 316 C 278 316 303 312 328 306 C 352 300 374 290 392 276 L 392 325 C 392 350 382 369 363 381 C 343 393 319 399 289 399 C 273 399 257 397 240 394 C 223 391 207 387 191 383 C 175 378 160 373 146 368 C 132 362 121 357 113 353 L 72 452 Z M 260 86 C 277 86 293 88 308 92 C 322 96 335 102 346 108 C 357 114 366 120 374 126 C 382 132 388 136 392 140 L 392 187 C 381 196 366 204 346 211 C 326 218 304 222 279 222 C 239 222 211 215 195 202 C 179 188 171 172 171 154 C 171 133 178 116 194 104 C 210 92 232 86 260 86 Z M 238 650 C 238 635 243 623 254 614 C 265 605 279 601 296 601 C 312 601 326 605 337 614 C 348 623 354 635 354 650 C 354 666 348 679 337 690 C 326 700 312 706 296 706 C 279 706 265 700 254 690 C 243 679 238 666 238 650 Z M 160 650 C 160 664 162 678 168 692 C 174 706 182 718 194 728 C 205 738 219 747 236 753 C 253 759 273 762 296 762 C 318 762 337 759 354 753 C 371 747 385 738 397 728 C 408 718 417 706 423 692 C 429 678 432 664 432 650 C 432 636 429 622 423 609 C 417 596 408 585 397 575 C 385 565 371 557 354 551 C 337 545 318 543 296 543 C 273 543 253 545 236 551 C 219 557 205 565 194 575 C 182 585 174 596 168 609 C 162 622 160 636 160 650 Z" horiz-adv-x="598" unicode="å" />
<glyph d="M 877 57 C 849 36 816 19 776 5 C 736 -8 694 -15 649 -15 C 604 -15 565 -7 531 9 C 497 25 470 46 448 74 C 418 45 384 23 348 8 C 312 -6 273 -14 231 -14 C 201 -14 175 -9 151 -1 C 127 7 106 19 90 34 C 73 49 60 67 51 87 C 42 107 38 130 38 154 C 38 176 42 197 52 217 C 62 237 76 254 94 269 C 112 283 134 295 161 303 C 187 311 218 316 252 316 C 278 316 303 312 329 306 C 355 300 376 290 394 276 L 394 325 C 394 350 384 369 364 381 C 344 393 319 399 289 399 C 273 399 257 397 240 394 C 223 391 207 387 191 383 C 175 378 160 373 146 368 C 132 362 121 357 113 353 L 72 452 C 83 458 97 464 113 470 C 129 476 148 481 168 486 C 188 491 209 495 231 499 C 253 502 276 504 300 504 C 316 504 333 502 351 500 C 368 498 384 494 400 489 C 416 483 430 476 443 468 C 456 459 467 448 475 435 L 479 430 C 499 452 524 470 554 484 C 584 497 615 504 648 504 C 678 504 708 499 738 490 C 768 480 794 466 817 446 C 840 426 859 400 873 368 C 887 336 895 297 895 253 C 895 248 895 243 895 237 C 895 231 894 223 893 211 L 522 211 C 527 177 542 148 566 126 C 590 103 622 92 660 92 C 690 92 719 96 745 106 C 771 116 794 128 814 142 L 877 57 Z M 260 86 C 293 86 321 92 344 105 C 367 117 387 133 404 153 C 402 157 401 163 399 169 C 397 175 396 180 395 186 C 381 196 364 205 345 212 C 325 218 303 222 279 222 C 239 222 211 215 195 202 C 179 188 171 172 171 154 C 171 133 178 116 194 104 C 210 92 232 86 260 86 Z M 650 402 C 614 402 585 392 565 372 C 545 352 531 328 524 300 L 760 300 C 760 317 756 332 750 345 C 743 357 734 368 724 377 C 714 385 702 392 689 396 C 675 400 662 402 650 402 Z" horiz-adv-x="937" unicode="æ" />
<glyph d="M 441 333 C 421 352 400 366 378 376 C 356 386 335 391 316 391 C 298 391 281 387 265 381 C 249 374 236 364 224 352 C 212 339 202 324 196 306 C 189 288 186 268 186 246 C 186 224 189 203 197 185 C 204 167 214 151 226 138 C 238 125 253 115 269 108 C 285 100 303 97 321 97 C 345 97 369 103 391 116 C 413 129 433 145 452 163 L 534 81 C 528 75 520 67 509 57 C 498 47 484 38 467 28 C 450 18 430 9 408 1 C 385 -7 360 -12 333 -14 L 325 -32 C 336 -34 348 -37 361 -41 C 373 -45 385 -50 396 -57 C 406 -64 415 -73 422 -84 C 429 -94 433 -107 433 -122 C 433 -153 417 -178 385 -198 C 353 -217 311 -227 261 -227 C 237 -227 213 -224 191 -220 C 169 -216 146 -211 123 -206 L 142 -135 C 161 -138 179 -141 197 -144 C 215 -147 232 -149 250 -149 C 270 -149 286 -146 298 -140 C 310 -134 316 -126 316 -116 C 316 -109 313 -103 309 -99 C 305 -95 299 -91 293 -89 C 287 -87 280 -85 274 -84 C 267 -83 261 -83 257 -83 C 247 -83 240 -84 234 -86 L 221 -57 L 245 -8 C 217 -2 190 8 166 23 C 141 37 120 56 102 78 C 84 100 69 125 59 153 C 49 181 44 212 44 246 C 44 284 50 320 64 352 C 78 384 96 411 120 433 C 144 455 172 473 204 485 C 236 497 270 504 306 504 C 344 504 381 497 419 484 C 457 470 492 449 524 421 L 441 333 Z" horiz-adv-x="558" unicode="ç" />
<glyph d="M 529 57 C 501 36 467 19 426 5 C 385 -8 343 -15 299 -15 C 257 -15 221 -8 189 5 C 157 19 131 37 109 61 C 87 84 71 111 60 142 C 49 173 44 206 44 240 C 44 276 50 311 63 343 C 75 375 93 403 116 427 C 139 451 166 469 198 483 C 230 497 265 504 303 504 C 333 504 362 499 391 490 C 420 480 446 465 470 445 C 493 425 512 399 526 367 C 540 335 548 296 548 252 C 548 248 548 243 548 237 C 548 231 547 222 546 211 L 175 211 C 180 176 194 147 218 125 C 242 103 274 92 316 92 C 342 92 369 96 396 106 C 423 115 446 127 466 142 L 529 57 Z M 302 402 C 284 402 268 399 254 394 C 240 388 229 381 219 372 C 209 362 200 351 194 339 C 187 327 182 314 178 300 L 413 300 C 413 317 409 332 402 345 C 395 357 386 368 376 377 C 365 385 353 392 340 396 C 327 400 314 402 302 402 Z M 293 698 L 383 552 L 267 552 L 159 698 L 293 698 Z" horiz-adv-x="590" unicode="è" />
<glyph d="M 529 57 C 501 36 467 19 426 5 C 385 -8 343 -15 299 -15 C 257 -15 221 -8 189 5 C 157 19 131 37 109 61 C 87 84 71 111 60 142 C 49 173 44 206 44 240 C 44 276 50 311 63 343 C 75 375 93 403 116 427 C 139 451 166 469 198 483 C 230 497 265 504 303 504 C 333 504 362 499 391 490 C 420 480 446 465 470 445 C 493 425 512 399 526 367 C 540 335 548 296 548 252 C 548 248 548 243 548 237 C 548 231 547 222 546 211 L 175 211 C 180 176 194 147 218 125 C 242 103 274 92 316 92 C 342 92 369 96 396 106 C 423 115 446 127 466 142 L 529 57 Z M 302 402 C 284 402 268 399 254 394 C 240 388 229 381 219 372 C 209 362 200 351 194 339 C 187 327 182 314 178 300 L 413 300 C 413 317 409 332 402 345 C 395 357 386 368 376 377 C 365 385 353 392 340 396 C 327 400 314 402 302 402 Z M 449 698 L 341 552 L 224 552 L 314 698 L 449 698 Z" horiz-adv-x="590" unicode="é" />
<glyph d="M 529 57 C 501 36 467 19 426 5 C 385 -8 343 -15 299 -15 C 257 -15 221 -8 189 5 C 157 19 131 37 109 61 C 87 84 71 111 60 142 C 49 173 44 206 44 240 C 44 276 50 311 63 343 C 75 375 93 403 116 427 C 139 451 166 469 198 483 C 230 497 265 504 303 504 C 333 504 362 499 391 490 C 420 480 446 465 470 445 C 493 425 512 399 526 367 C 540 335 548 296 548 252 C 548 248 548 243 548 237 C 548 231 547 222 546 211 L 175 211 C 180 176 194 147 218 125 C 242 103 274 92 316 92 C 342 92 369 96 396 106 C 423 115 446 127 466 142 L 529 57 Z M 302 402 C 284 402 268 399 254 394 C 240 388 229 381 219 372 C 209 362 200 351 194 339 C 187 327 182 314 178 300 L 413 300 C 413 317 409 332 402 345 C 395 357 386 368 376 377 C 365 385 353 392 340 396 C 327 400 314 402 302 402 Z M 238 694 L 370 694 L 475 553 L 370 553 L 304 629 L 237 553 L 132 553 L 238 694 Z" horiz-adv-x="590" unicode="ê" />
<glyph d="M 529 57 C 501 36 467 19 426 5 C 385 -8 343 -15 299 -15 C 257 -15 221 -8 189 5 C 157 19 131 37 109 61 C 87 84 71 111 60 142 C 49 173 44 206 44 240 C 44 276 50 311 63 343 C 75 375 93 403 116 427 C 139 451 166 469 198 483 C 230 497 265 504 303 504 C 333 504 362 499 391 490 C 420 480 446 465 470 445 C 493 425 512 399 526 367 C 540 335 548 296 548 252 C 548 248 548 243 548 237 C 548 231 547 222 546 211 L 175 211 C 180 176 194 147 218 125 C 242 103 274 92 316 92 C 342 92 369 96 396 106 C 423 115 446 127 466 142 L 529 57 Z M 302 402 C 284 402 268 399 254 394 C 240 388 229 381 219 372 C 209 362 200 351 194 339 C 187 327 182 314 178 300 L 413 300 C 413 317 409 332 402 345 C 395 357 386 368 376 377 C 365 385 353 392 340 396 C 327 400 314 402 302 402 Z M 118 625 C 118 643 124 658 138 672 C 152 685 169 692 190 692 C 211 692 229 685 243 672 C 257 658 264 643 264 625 C 264 606 257 590 243 578 C 229 565 211 559 190 559 C 169 559 152 565 138 578 C 124 590 118 606 118 625 Z M 342 625 C 342 643 348 658 362 672 C 376 685 393 692 415 692 C 435 692 453 685 467 672 C 481 658 489 643 489 625 C 489 606 481 590 467 578 C 453 565 435 559 415 559 C 393 559 376 565 362 578 C 348 590 342 606 342 625 Z" horiz-adv-x="590" unicode="ë" />
<glyph d="M 77 0 L 77 488 L 210 488 L 210 0 L 77 0 Z M 133 698 L 223 552 L 107 552 L -1 698 L 133 698 Z" horiz-adv-x="287" unicode="ì" />
<glyph d="M 77 0 L 77 488 L 210 488 L 210 0 L 77 0 Z M 289 698 L 181 552 L 64 552 L 154 698 L 289 698 Z" horiz-adv-x="287" unicode="í" />
<glyph d="M 77 0 L 77 488 L 210 488 L 210 0 L 77 0 Z M 78 694 L 210 694 L 315 553 L 210 553 L 144 629 L 77 553 L -28 553 L 78 694 Z" horiz-adv-x="287" unicode="î" />
<glyph d="M 77 0 L 77 488 L 210 488 L 210 0 L 77 0 Z M -42 625 C -42 643 -35 658 -21 672 C -7 685 9 692 30 692 C 51 692 69 685 83 672 C 97 658 104 643 104 625 C 104 606 97 590 83 578 C 69 565 51 559 30 559 C 9 559 -7 565 -21 578 C -35 590 -42 606 -42 625 Z M 182 625 C 182 643 188 658 202 672 C 216 685 233 692 255 692 C 275 692 293 685 307 672 C 321 658 329 643 329 625 C 329 606 321 590 307 578 C 293 565 275 559 255 559 C 233 559 216 565 202 578 C 188 590 182 606 182 625 Z" horiz-adv-x="287" unicode="ï" />
<glyph d="M 130 586 L 245 620 C 230 631 215 641 200 651 C 185 661 170 670 156 680 L 292 715 C 304 706 317 697 331 688 C 345 679 359 669 373 659 L 501 697 L 525 628 L 439 602 C 457 584 474 564 490 542 C 506 520 521 495 533 468 C 545 440 555 410 562 378 C 569 345 573 309 573 271 C 573 225 566 185 552 150 C 538 114 519 84 495 60 C 471 35 442 16 410 4 C 378 -8 343 -15 307 -15 C 269 -15 234 -8 202 5 C 170 18 142 36 119 60 C 95 83 77 110 64 141 C 51 171 45 204 45 240 C 45 274 50 306 62 336 C 74 366 90 392 111 414 C 132 436 157 453 186 465 C 214 477 246 484 280 484 C 307 484 332 479 355 470 C 377 460 397 448 415 434 C 403 458 388 480 371 502 C 353 524 334 544 313 564 L 154 517 L 130 586 Z M 182 241 C 182 221 184 203 190 185 C 196 167 204 152 215 139 C 226 126 239 116 254 108 C 269 100 286 97 306 97 C 326 97 344 100 360 108 C 376 116 389 126 401 139 C 412 152 421 167 427 185 C 433 203 437 221 437 241 C 437 260 434 278 428 295 C 422 312 413 327 401 340 C 389 352 376 362 360 370 C 344 377 326 381 306 381 C 286 381 269 377 254 370 C 238 362 225 352 215 340 C 204 327 196 312 190 295 C 184 278 182 260 182 241 Z" horiz-adv-x="631" unicode="ð" />
<glyph d="M 196 424 C 214 446 237 464 263 480 C 289 496 322 504 360 504 C 384 504 407 499 429 491 C 451 482 470 470 486 454 C 502 438 514 420 524 398 C 533 376 538 353 538 328 L 538 0 L 404 0 L 404 323 C 404 341 396 357 381 371 C 366 384 347 391 323 391 C 299 391 277 384 259 371 C 241 357 225 343 211 328 L 211 0 L 78 0 L 78 349 C 78 369 77 391 75 413 C 73 435 69 460 64 488 L 186 488 C 188 478 189 468 191 457 C 193 446 194 435 196 424 Z M 111 590 C 131 626 152 652 172 667 C 192 681 214 689 238 689 C 253 689 266 686 278 682 C 289 677 300 671 310 664 C 319 657 328 651 336 646 C 344 641 353 639 362 639 C 374 639 385 643 394 653 C 403 663 411 673 419 685 L 493 645 C 473 610 453 585 433 569 C 412 553 390 545 366 545 C 352 545 339 547 328 552 C 316 556 306 562 297 568 C 287 575 278 581 270 587 C 262 592 253 595 244 595 C 232 595 222 589 214 579 C 206 568 198 557 191 547 L 111 590 Z" horiz-adv-x="610" unicode="ñ" />
<glyph d="M 44 246 C 44 282 50 315 63 347 C 75 379 93 406 117 429 C 140 452 168 470 201 484 C 233 497 269 504 309 504 C 349 504 385 497 418 484 C 450 470 478 452 502 429 C 525 406 543 379 556 347 C 569 315 576 282 576 246 C 576 210 569 176 556 144 C 543 112 525 84 502 61 C 478 37 450 19 418 5 C 385 -8 349 -15 309 -15 C 269 -15 233 -8 201 5 C 168 19 140 37 117 61 C 93 84 75 112 63 144 C 50 176 44 210 44 246 Z M 181 246 C 181 226 183 206 189 188 C 195 170 203 154 214 140 C 225 126 239 115 255 107 C 271 99 289 95 309 95 C 329 95 348 99 364 107 C 380 115 394 126 405 140 C 416 154 425 170 431 188 C 437 206 440 226 440 246 C 440 266 437 284 431 302 C 425 320 416 335 405 349 C 394 363 380 373 364 381 C 348 389 329 393 309 393 C 289 393 271 389 255 381 C 239 373 225 363 214 349 C 203 335 195 320 189 302 C 183 284 181 266 181 246 Z M 299 698 L 389 552 L 273 552 L 165 698 L 299 698 Z" horiz-adv-x="620" unicode="ò" />
<glyph d="M 44 246 C 44 282 50 315 63 347 C 75 379 93 406 117 429 C 140 452 168 470 201 484 C 233 497 269 504 309 504 C 349 504 385 497 418 484 C 450 470 478 452 502 429 C 525 406 543 379 556 347 C 569 315 576 282 576 246 C 576 210 569 176 556 144 C 543 112 525 84 502 61 C 478 37 450 19 418 5 C 385 -8 349 -15 309 -15 C 269 -15 233 -8 201 5 C 168 19 140 37 117 61 C 93 84 75 112 63 144 C 50 176 44 210 44 246 Z M 181 246 C 181 226 183 206 189 188 C 195 170 203 154 214 140 C 225 126 239 115 255 107 C 271 99 289 95 309 95 C 329 95 348 99 364 107 C 380 115 394 126 405 140 C 416 154 425 170 431 188 C 437 206 440 226 440 246 C 440 266 437 284 431 302 C 425 320 416 335 405 349 C 394 363 380 373 364 381 C 348 389 329 393 309 393 C 289 393 271 389 255 381 C 239 373 225 363 214 349 C 203 335 195 320 189 302 C 183 284 181 266 181 246 Z M 455 698 L 347 552 L 230 552 L 320 698 L 455 698 Z" horiz-adv-x="620" unicode="ó" />
<glyph d="M 44 246 C 44 282 50 315 63 347 C 75 379 93 406 117 429 C 140 452 168 470 201 484 C 233 497 269 504 309 504 C 349 504 385 497 418 484 C 450 470 478 452 502 429 C 525 406 543 379 556 347 C 569 315 576 282 576 246 C 576 210 569 176 556 144 C 543 112 525 84 502 61 C 478 37 450 19 418 5 C 385 -8 349 -15 309 -15 C 269 -15 233 -8 201 5 C 168 19 140 37 117 61 C 93 84 75 112 63 144 C 50 176 44 210 44 246 Z M 181 246 C 181 226 183 206 189 188 C 195 170 203 154 214 140 C 225 126 239 115 255 107 C 271 99 289 95 309 95 C 329 95 348 99 364 107 C 380 115 394 126 405 140 C 416 154 425 170 431 188 C 437 206 440 226 440 246 C 440 266 437 284 431 302 C 425 320 416 335 405 349 C 394 363 380 373 364 381 C 348 389 329 393 309 393 C 289 393 271 389 255 381 C 239 373 225 363 214 349 C 203 335 195 320 189 302 C 183 284 181 266 181 246 Z M 244 694 L 376 694 L 481 553 L 376 553 L 310 629 L 243 553 L 138 553 L 244 694 Z" horiz-adv-x="620" unicode="ô" />
<glyph d="M 44 246 C 44 282 50 315 63 347 C 75 379 93 406 117 429 C 140 452 168 470 201 484 C 233 497 269 504 309 504 C 349 504 385 497 418 484 C 450 470 478 452 502 429 C 525 406 543 379 556 347 C 569 315 576 282 576 246 C 576 210 569 176 556 144 C 543 112 525 84 502 61 C 478 37 450 19 418 5 C 385 -8 349 -15 309 -15 C 269 -15 233 -8 201 5 C 168 19 140 37 117 61 C 93 84 75 112 63 144 C 50 176 44 210 44 246 Z M 181 246 C 181 226 183 206 189 188 C 195 170 203 154 214 140 C 225 126 239 115 255 107 C 271 99 289 95 309 95 C 329 95 348 99 364 107 C 380 115 394 126 405 140 C 416 154 425 170 431 188 C 437 206 440 226 440 246 C 440 266 437 284 431 302 C 425 320 416 335 405 349 C 394 363 380 373 364 381 C 348 389 329 393 309 393 C 289 393 271 389 255 381 C 239 373 225 363 214 349 C 203 335 195 320 189 302 C 183 284 181 266 181 246 Z M 117 590 C 137 626 158 652 178 667 C 198 681 220 689 244 689 C 259 689 272 686 284 682 C 295 677 306 671 316 664 C 325 657 334 651 342 646 C 350 641 359 639 368 639 C 380 639 391 643 400 653 C 409 663 417 673 425 685 L 499 645 C 479 610 459 585 439 569 C 418 553 396 545 372 545 C 358 545 345 547 334 552 C 322 556 312 562 303 568 C 293 575 284 581 276 587 C 268 592 259 595 250 595 C 238 595 228 589 220 579 C 212 568 204 557 197 547 L 117 590 Z" horiz-adv-x="620" unicode="õ" />
<glyph d="M 44 246 C 44 282 50 315 63 347 C 75 379 93 406 117 429 C 140 452 168 470 201 484 C 233 497 269 504 309 504 C 349 504 385 497 418 484 C 450 470 478 452 502 429 C 525 406 543 379 556 347 C 569 315 576 282 576 246 C 576 210 569 176 556 144 C 543 112 525 84 502 61 C 478 37 450 19 418 5 C 385 -8 349 -15 309 -15 C 269 -15 233 -8 201 5 C 168 19 140 37 117 61 C 93 84 75 112 63 144 C 50 176 44 210 44 246 Z M 181 246 C 181 226 183 206 189 188 C 195 170 203 154 214 140 C 225 126 239 115 255 107 C 271 99 289 95 309 95 C 329 95 348 99 364 107 C 380 115 394 126 405 140 C 416 154 425 170 431 188 C 437 206 440 226 440 246 C 440 266 437 284 431 302 C 425 320 416 335 405 349 C 394 363 380 373 364 381 C 348 389 329 393 309 393 C 289 393 271 389 255 381 C 239 373 225 363 214 349 C 203 335 195 320 189 302 C 183 284 181 266 181 246 Z M 124 625 C 124 643 130 658 144 672 C 158 685 175 692 196 692 C 217 692 235 685 249 672 C 263 658 270 643 270 625 C 270 606 263 590 249 578 C 235 565 217 559 196 559 C 175 559 158 565 144 578 C 130 590 124 606 124 625 Z M 348 625 C 348 643 354 658 368 672 C 382 685 399 692 421 692 C 441 692 459 685 473 672 C 487 658 495 643 495 625 C 495 606 487 590 473 578 C 459 565 441 559 421 559 C 399 559 382 565 368 578 C 354 590 348 606 348 625 Z" horiz-adv-x="620" unicode="ö" />
<glyph d="M 86 322 L 667 322 L 667 208 L 86 208 L 86 322 Z M 290 69 C 290 90 298 108 315 123 C 331 138 352 146 378 146 C 403 146 424 138 441 123 C 457 108 466 90 466 69 C 466 47 457 28 441 14 C 424 0 403 -8 378 -8 C 352 -8 331 0 315 14 C 298 28 290 47 290 69 Z M 290 460 C 290 481 298 499 315 514 C 331 529 352 537 378 537 C 403 537 424 529 441 514 C 457 499 466 481 466 460 C 466 438 457 420 441 405 C 424 390 403 383 378 383 C 352 383 331 390 315 405 C 298 420 290 438 290 460 Z" horiz-adv-x="753" unicode="÷" />
<glyph d="M 77 -10 L 123 55 C 97 79 78 107 64 140 C 50 172 44 208 44 246 C 44 282 50 315 63 347 C 75 379 93 406 117 429 C 140 452 168 470 201 484 C 233 497 270 504 310 504 C 350 504 387 496 422 482 L 470 550 L 542 499 L 497 435 C 522 411 542 383 556 351 C 570 319 577 284 577 246 C 577 210 570 176 557 144 C 544 112 526 84 503 61 C 479 37 451 19 419 5 C 386 -8 350 -15 310 -15 C 288 -15 268 -13 250 -9 C 232 -5 214 0 197 7 L 150 -61 L 77 -10 Z M 310 88 C 331 88 350 92 367 101 C 384 109 398 121 410 135 C 422 149 431 166 437 185 C 443 204 446 224 446 246 C 446 262 444 277 440 291 C 436 305 431 319 425 332 L 261 97 C 275 91 291 88 310 88 Z M 176 246 C 176 213 182 184 196 159 L 358 391 C 344 397 328 400 310 400 C 288 400 269 395 253 387 C 236 379 222 368 211 354 C 199 340 191 323 185 305 C 179 286 176 266 176 246 Z" horiz-adv-x="620" unicode="ø" />
<glyph d="M 413 63 C 393 41 371 23 345 7 C 319 -8 287 -16 249 -16 C 224 -16 201 -11 179 -3 C 157 5 139 17 123 33 C 107 49 94 67 85 89 C 75 111 71 134 71 160 L 71 488 L 205 488 L 205 165 C 205 145 212 129 227 116 C 242 103 262 97 286 97 C 310 97 331 103 349 116 C 367 129 384 144 398 160 L 398 488 L 531 488 L 531 138 C 531 118 531 96 533 74 C 534 52 537 27 543 0 L 419 0 C 417 8 416 19 415 31 C 414 43 413 53 413 63 Z M 293 698 L 383 552 L 267 552 L 159 698 L 293 698 Z" horiz-adv-x="609" unicode="ù" />
<glyph d="M 413 63 C 393 41 371 23 345 7 C 319 -8 287 -16 249 -16 C 224 -16 201 -11 179 -3 C 157 5 139 17 123 33 C 107 49 94 67 85 89 C 75 111 71 134 71 160 L 71 488 L 205 488 L 205 165 C 205 145 212 129 227 116 C 242 103 262 97 286 97 C 310 97 331 103 349 116 C 367 129 384 144 398 160 L 398 488 L 531 488 L 531 138 C 531 118 531 96 533 74 C 534 52 537 27 543 0 L 419 0 C 417 8 416 19 415 31 C 414 43 413 53 413 63 Z M 449 698 L 341 552 L 224 552 L 314 698 L 449 698 Z" horiz-adv-x="609" unicode="ú" />
<glyph d="M 413 63 C 393 41 371 23 345 7 C 319 -8 287 -16 249 -16 C 224 -16 201 -11 179 -3 C 157 5 139 17 123 33 C 107 49 94 67 85 89 C 75 111 71 134 71 160 L 71 488 L 205 488 L 205 165 C 205 145 212 129 227 116 C 242 103 262 97 286 97 C 310 97 331 103 349 116 C 367 129 384 144 398 160 L 398 488 L 531 488 L 531 138 C 531 118 531 96 533 74 C 534 52 537 27 543 0 L 419 0 C 417 8 416 19 415 31 C 414 43 413 53 413 63 Z M 238 694 L 370 694 L 475 553 L 370 553 L 304 629 L 237 553 L 132 553 L 238 694 Z" horiz-adv-x="609" unicode="û" />
<glyph d="M 413 63 C 393 41 371 23 345 7 C 319 -8 287 -16 249 -16 C 224 -16 201 -11 179 -3 C 157 5 139 17 123 33 C 107 49 94 67 85 89 C 75 111 71 134 71 160 L 71 488 L 205 488 L 205 165 C 205 145 212 129 227 116 C 242 103 262 97 286 97 C 310 97 331 103 349 116 C 367 129 384 144 398 160 L 398 488 L 531 488 L 531 138 C 531 118 531 96 533 74 C 534 52 537 27 543 0 L 419 0 C 417 8 416 19 415 31 C 414 43 413 53 413 63 Z M 118 625 C 118 643 124 658 138 672 C 152 685 169 692 190 692 C 211 692 229 685 243 672 C 257 658 264 643 264 625 C 264 606 257 590 243 578 C 229 565 211 559 190 559 C 169 559 152 565 138 578 C 124 590 118 606 118 625 Z M 342 625 C 342 643 348 658 362 672 C 376 685 393 692 415 692 C 435 692 453 685 467 672 C 481 658 489 643 489 625 C 489 606 481 590 467 578 C 453 565 435 559 415 559 C 393 559 376 565 362 578 C 348 590 342 606 342 625 Z" horiz-adv-x="609" unicode="ü" />
<glyph d="M 287 197 L 416 488 L 553 488 L 224 -207 L 85 -207 L 212 45 L 14 488 L 163 488 L 281 197 L 287 197 Z M 427 698 L 319 552 L 202 552 L 292 698 L 427 698 Z" horiz-adv-x="557" unicode="ý" />
<glyph d="M 329 98 C 361 98 387 111 409 138 C 431 164 442 200 442 244 C 442 266 439 287 433 305 C 427 323 418 339 408 352 C 398 364 386 374 372 381 C 358 387 344 391 329 391 C 313 391 299 389 287 385 C 275 381 264 376 254 370 C 244 364 235 358 228 352 C 220 346 214 340 210 336 L 210 151 C 228 134 247 121 267 112 C 287 102 308 98 329 98 Z M 210 441 C 224 455 243 469 266 483 C 288 497 316 504 348 504 C 380 504 411 497 440 485 C 468 473 493 455 515 433 C 537 411 554 384 567 352 C 579 320 586 284 586 244 C 586 205 579 170 567 138 C 554 106 537 79 515 57 C 493 34 468 16 440 4 C 411 -7 380 -14 348 -14 C 324 -14 300 -8 276 1 C 252 11 230 27 210 49 L 210 -207 L 77 -207 L 77 700 L 210 700 L 210 441 Z" horiz-adv-x="632" unicode="þ" />
<glyph d="M 287 197 L 416 488 L 553 488 L 224 -207 L 85 -207 L 212 45 L 14 488 L 163 488 L 281 197 L 287 197 Z M 96 625 C 96 643 102 658 116 672 C 130 685 147 692 168 692 C 189 692 207 685 221 672 C 235 658 242 643 242 625 C 242 606 235 590 221 578 C 207 565 189 559 168 559 C 147 559 130 565 116 578 C 102 590 96 606 96 625 Z M 320 625 C 320 643 326 658 340 672 C 354 685 371 692 393 692 C 413 692 431 685 445 672 C 459 658 467 643 467 625 C 467 606 459 590 445 578 C 431 565 413 559 393 559 C 371 559 354 565 340 578 C 326 590 320 606 320 625 Z" horiz-adv-x="557" unicode="ÿ" />
<glyph d="M 315 653 L 438 653 L 741 0 L 584 0 L 524 138 L 222 138 L 163 0 L 12 0 L 315 653 Z M 271 251 L 475 251 L 376 482 L 370 482 L 271 251 Z M 510 838 L 510 745 L 241 745 L 241 838 L 510 838 Z" horiz-adv-x="753" unicode="Ā" />
<glyph d="M 72 452 C 83 458 97 464 113 470 C 129 476 148 481 168 486 C 188 491 209 495 231 499 C 253 502 276 504 300 504 C 328 504 355 501 382 496 C 409 491 433 483 454 471 C 475 459 492 444 505 425 C 518 406 525 383 525 356 L 525 95 C 525 83 525 69 527 53 C 529 36 533 18 539 0 L 407 0 C 404 7 402 16 400 26 C 398 36 396 46 395 56 C 385 47 376 38 366 30 C 356 22 344 14 331 8 C 318 2 303 -2 287 -6 C 271 -10 252 -12 231 -12 C 201 -12 175 -7 151 0 C 127 8 106 20 90 35 C 73 50 60 68 51 88 C 42 108 38 130 38 154 C 38 176 42 197 52 217 C 62 237 76 254 94 269 C 112 283 134 295 161 303 C 187 311 218 316 252 316 C 278 316 303 312 328 306 C 352 300 374 290 392 276 L 392 325 C 392 350 382 369 363 381 C 343 393 319 399 289 399 C 273 399 257 397 240 394 C 223 391 207 387 191 383 C 175 378 160 373 146 368 C 132 362 121 357 113 353 L 72 452 Z M 260 86 C 277 86 293 88 308 92 C 322 96 335 102 346 108 C 357 114 366 120 374 126 C 382 132 388 136 392 140 L 392 187 C 381 196 366 204 346 211 C 326 218 304 222 279 222 C 239 222 211 215 195 202 C 179 188 171 172 171 154 C 171 133 178 116 194 104 C 210 92 232 86 260 86 Z M 433 665 L 433 572 L 164 572 L 164 665 L 433 665 Z" horiz-adv-x="598" unicode="ā" />
<glyph d="M 315 653 L 438 653 L 741 0 L 584 0 L 524 138 L 222 138 L 163 0 L 12 0 L 315 653 Z M 271 251 L 475 251 L 376 482 L 370 482 L 271 251 Z M 308 864 C 308 856 308 847 310 839 C 312 831 315 823 320 817 C 325 811 332 806 341 802 C 350 798 362 796 376 796 C 390 796 401 798 410 802 C 418 806 425 811 430 817 C 435 823 438 831 440 839 C 442 847 443 856 443 864 L 536 864 C 536 848 533 831 529 814 C 525 796 517 780 505 766 C 493 751 476 739 456 730 C 435 720 408 716 376 716 C 343 716 316 720 295 730 C 274 739 258 751 246 766 C 234 780 225 796 221 814 C 217 831 215 848 215 864 L 308 864 Z" horiz-adv-x="753" unicode="Ă" />
<glyph d="M 72 452 C 83 458 97 464 113 470 C 129 476 148 481 168 486 C 188 491 209 495 231 499 C 253 502 276 504 300 504 C 328 504 355 501 382 496 C 409 491 433 483 454 471 C 475 459 492 444 505 425 C 518 406 525 383 525 356 L 525 95 C 525 83 525 69 527 53 C 529 36 533 18 539 0 L 407 0 C 404 7 402 16 400 26 C 398 36 396 46 395 56 C 385 47 376 38 366 30 C 356 22 344 14 331 8 C 318 2 303 -2 287 -6 C 271 -10 252 -12 231 -12 C 201 -12 175 -7 151 0 C 127 8 106 20 90 35 C 73 50 60 68 51 88 C 42 108 38 130 38 154 C 38 176 42 197 52 217 C 62 237 76 254 94 269 C 112 283 134 295 161 303 C 187 311 218 316 252 316 C 278 316 303 312 328 306 C 352 300 374 290 392 276 L 392 325 C 392 350 382 369 363 381 C 343 393 319 399 289 399 C 273 399 257 397 240 394 C 223 391 207 387 191 383 C 175 378 160 373 146 368 C 132 362 121 357 113 353 L 72 452 Z M 260 86 C 277 86 293 88 308 92 C 322 96 335 102 346 108 C 357 114 366 120 374 126 C 382 132 388 136 392 140 L 392 187 C 381 196 366 204 346 211 C 326 218 304 222 279 222 C 239 222 211 215 195 202 C 179 188 171 172 171 154 C 171 133 178 116 194 104 C 210 92 232 86 260 86 Z M 231 693 C 231 684 231 675 233 667 C 235 659 238 651 243 645 C 248 638 255 633 264 629 C 273 625 285 623 299 623 C 313 623 324 625 333 629 C 341 633 348 638 353 645 C 358 651 361 659 363 667 C 365 675 366 684 366 693 L 459 693 C 459 677 456 660 452 642 C 448 624 440 608 428 594 C 416 579 399 567 379 557 C 358 547 331 543 299 543 C 266 543 239 547 218 557 C 197 567 181 579 169 594 C 157 608 148 624 144 642 C 140 660 138 677 138 693 L 231 693 Z" horiz-adv-x="598" unicode="ă" />
<glyph d="M 315 653 L 438 653 L 741 0 L 699 0 C 691 -3 681 -8 669 -14 C 657 -20 646 -27 635 -35 C 624 -43 615 -52 607 -62 C 599 -72 596 -83 596 -96 C 596 -110 601 -121 612 -129 C 622 -137 637 -141 657 -141 C 665 -141 674 -140 684 -138 C 694 -136 704 -135 716 -133 L 727 -213 C 693 -222 662 -227 633 -227 C 589 -227 554 -217 528 -198 C 502 -178 490 -153 490 -122 C 490 -107 492 -93 498 -81 C 503 -69 510 -57 519 -47 C 527 -36 537 -26 548 -18 C 559 -9 570 -1 582 5 L 524 138 L 222 138 L 163 0 L 12 0 L 315 653 Z M 271 251 L 475 251 L 376 482 L 370 482 L 271 251 Z" horiz-adv-x="753" unicode="Ą" />
<glyph d="M 72 452 C 83 458 97 464 113 470 C 129 476 148 481 168 486 C 188 491 209 495 231 499 C 253 502 276 504 300 504 C 328 504 355 501 382 496 C 409 491 433 483 454 471 C 475 459 492 444 505 425 C 518 406 525 383 525 356 L 525 95 C 525 83 525 69 527 53 C 529 36 533 18 539 0 L 532 0 C 524 -3 514 -8 502 -14 C 490 -20 479 -27 468 -35 C 457 -43 448 -52 440 -62 C 432 -72 429 -83 429 -96 C 429 -110 434 -121 445 -129 C 455 -137 470 -141 490 -141 C 498 -141 507 -140 517 -138 C 527 -136 537 -135 549 -133 L 560 -213 C 526 -222 495 -227 466 -227 C 422 -227 387 -217 361 -198 C 335 -178 323 -153 323 -122 C 323 -108 325 -96 330 -84 C 334 -72 341 -61 349 -51 C 357 -41 366 -31 376 -23 C 386 -14 396 -6 407 0 C 404 7 402 16 400 26 C 398 36 396 46 395 56 C 385 47 376 38 366 30 C 356 22 344 14 331 8 C 318 2 303 -2 287 -6 C 271 -10 252 -12 231 -12 C 201 -12 175 -7 151 0 C 127 8 106 20 90 35 C 73 50 60 68 51 88 C 42 108 38 130 38 154 C 38 176 42 197 52 217 C 62 237 76 254 94 269 C 112 283 134 295 161 303 C 187 311 218 316 252 316 C 278 316 303 312 328 306 C 352 300 374 290 392 276 L 392 325 C 392 350 382 369 363 381 C 343 393 319 399 289 399 C 273 399 257 397 240 394 C 223 391 207 387 191 383 C 175 378 160 373 146 368 C 132 362 121 357 113 353 L 72 452 Z M 260 86 C 277 86 293 88 308 92 C 322 96 335 102 346 108 C 357 114 366 120 374 126 C 382 132 388 136 392 140 L 392 187 C 381 196 366 204 346 211 C 326 218 304 222 279 222 C 239 222 211 215 195 202 C 179 188 171 172 171 154 C 171 133 178 116 194 104 C 210 92 232 86 260 86 Z" horiz-adv-x="598" unicode="ą" />
<glyph d="M 740 114 C 721 96 700 79 676 63 C 652 47 627 32 599 20 C 571 8 542 -1 510 -9 C 478 -16 444 -20 408 -20 C 354 -20 304 -11 260 7 C 216 25 178 49 146 81 C 114 113 90 150 73 192 C 56 234 48 279 48 327 C 48 373 56 418 74 460 C 91 502 115 538 146 570 C 177 602 214 627 258 645 C 302 663 350 673 403 673 C 463 673 521 662 577 641 C 632 620 679 593 719 559 L 629 465 C 599 491 564 511 526 526 C 487 541 450 549 415 549 C 381 549 351 543 325 531 C 298 519 275 503 257 483 C 238 463 223 439 213 412 C 203 385 198 356 198 326 C 198 295 203 266 213 239 C 223 212 238 188 258 168 C 277 148 300 132 328 120 C 355 108 386 103 420 103 C 464 103 506 113 546 133 C 586 153 620 178 649 207 L 740 114 Z M 419 864 L 562 864 L 438 726 L 319 726 L 419 864 Z" horiz-adv-x="766" unicode="Ć" />
<glyph d="M 441 333 C 421 352 400 366 378 376 C 356 386 335 391 316 391 C 298 391 281 387 265 381 C 249 374 236 364 224 352 C 212 339 202 324 196 306 C 189 288 186 268 186 246 C 186 224 189 203 197 185 C 204 167 214 151 226 138 C 238 125 253 115 269 108 C 285 100 303 97 321 97 C 345 97 369 103 391 116 C 413 129 433 145 452 163 L 534 81 C 528 75 519 66 507 55 C 494 44 478 33 459 23 C 439 13 417 4 391 -3 C 365 -11 337 -15 306 -15 C 270 -15 237 -8 205 3 C 173 15 146 33 122 56 C 98 79 79 107 65 139 C 51 171 44 206 44 246 C 44 284 50 320 64 352 C 78 384 96 411 120 433 C 144 455 172 473 204 485 C 236 497 270 504 306 504 C 344 504 381 497 419 484 C 457 470 492 449 524 421 L 441 333 Z M 452 698 L 344 552 L 227 552 L 317 698 L 452 698 Z" horiz-adv-x="558" unicode="ć" />
<glyph d="M 740 114 C 721 96 700 79 676 63 C 652 47 627 32 599 20 C 571 8 542 -1 510 -9 C 478 -16 444 -20 408 -20 C 354 -20 304 -11 260 7 C 216 25 178 49 146 81 C 114 113 90 150 73 192 C 56 234 48 279 48 327 C 48 373 56 418 74 460 C 91 502 115 538 146 570 C 177 602 214 627 258 645 C 302 663 350 673 403 673 C 463 673 521 662 577 641 C 632 620 679 593 719 559 L 629 465 C 599 491 564 511 526 526 C 487 541 450 549 415 549 C 381 549 351 543 325 531 C 298 519 275 503 257 483 C 238 463 223 439 213 412 C 203 385 198 356 198 326 C 198 295 203 266 213 239 C 223 212 238 188 258 168 C 277 148 300 132 328 120 C 355 108 386 103 420 103 C 464 103 506 113 546 133 C 586 153 620 178 649 207 L 740 114 Z M 340 865 L 472 865 L 577 726 L 472 726 L 406 800 L 339 726 L 234 726 L 340 865 Z" horiz-adv-x="766" unicode="Ĉ" />
<glyph d="M 441 333 C 421 352 400 366 378 376 C 356 386 335 391 316 391 C 298 391 281 387 265 381 C 249 374 236 364 224 352 C 212 339 202 324 196 306 C 189 288 186 268 186 246 C 186 224 189 203 197 185 C 204 167 214 151 226 138 C 238 125 253 115 269 108 C 285 100 303 97 321 97 C 345 97 369 103 391 116 C 413 129 433 145 452 163 L 534 81 C 528 75 519 66 507 55 C 494 44 478 33 459 23 C 439 13 417 4 391 -3 C 365 -11 337 -15 306 -15 C 270 -15 237 -8 205 3 C 173 15 146 33 122 56 C 98 79 79 107 65 139 C 51 171 44 206 44 246 C 44 284 50 320 64 352 C 78 384 96 411 120 433 C 144 455 172 473 204 485 C 236 497 270 504 306 504 C 344 504 381 497 419 484 C 457 470 492 449 524 421 L 441 333 Z M 241 694 L 373 694 L 478 553 L 373 553 L 307 629 L 240 553 L 135 553 L 241 694 Z" horiz-adv-x="558" unicode="ĉ" />
<glyph d="M 740 114 C 721 96 700 79 676 63 C 652 47 627 32 599 20 C 571 8 542 -1 510 -9 C 478 -16 444 -20 408 -20 C 354 -20 304 -11 260 7 C 216 25 178 49 146 81 C 114 113 90 150 73 192 C 56 234 48 279 48 327 C 48 373 56 418 74 460 C 91 502 115 538 146 570 C 177 602 214 627 258 645 C 302 663 350 673 403 673 C 463 673 521 662 577 641 C 632 620 679 593 719 559 L 629 465 C 599 491 564 511 526 526 C 487 541 450 549 415 549 C 381 549 351 543 325 531 C 298 519 275 503 257 483 C 238 463 223 439 213 412 C 203 385 198 356 198 326 C 198 295 203 266 213 239 C 223 212 238 188 258 168 C 277 148 300 132 328 120 C 355 108 386 103 420 103 C 464 103 506 113 546 133 C 586 153 620 178 649 207 L 740 114 Z M 333 798 C 333 816 339 831 353 845 C 367 858 384 865 405 865 C 426 865 444 858 458 845 C 472 831 479 816 479 798 C 479 779 472 763 458 751 C 444 738 426 732 405 732 C 384 732 367 738 353 751 C 339 763 333 779 333 798 Z" horiz-adv-x="766" unicode="Ċ" />
<glyph d="M 441 333 C 421 352 400 366 378 376 C 356 386 335 391 316 391 C 298 391 281 387 265 381 C 249 374 236 364 224 352 C 212 339 202 324 196 306 C 189 288 186 268 186 246 C 186 224 189 203 197 185 C 204 167 214 151 226 138 C 238 125 253 115 269 108 C 285 100 303 97 321 97 C 345 97 369 103 391 116 C 413 129 433 145 452 163 L 534 81 C 528 75 519 66 507 55 C 494 44 478 33 459 23 C 439 13 417 4 391 -3 C 365 -11 337 -15 306 -15 C 270 -15 237 -8 205 3 C 173 15 146 33 122 56 C 98 79 79 107 65 139 C 51 171 44 206 44 246 C 44 284 50 320 64 352 C 78 384 96 411 120 433 C 144 455 172 473 204 485 C 236 497 270 504 306 504 C 344 504 381 497 419 484 C 457 470 492 449 524 421 L 441 333 Z M 234 625 C 234 643 240 658 254 672 C 268 685 285 692 306 692 C 327 692 345 685 359 672 C 373 658 380 643 380 625 C 380 606 373 590 359 578 C 345 565 327 559 306 559 C 285 559 268 565 254 578 C 240 590 234 606 234 625 Z" horiz-adv-x="558" unicode="ċ" />
<glyph d="M 740 114 C 721 96 700 79 676 63 C 652 47 627 32 599 20 C 571 8 542 -1 510 -9 C 478 -16 444 -20 408 -20 C 354 -20 304 -11 260 7 C 216 25 178 49 146 81 C 114 113 90 150 73 192 C 56 234 48 279 48 327 C 48 373 56 418 74 460 C 91 502 115 538 146 570 C 177 602 214 627 258 645 C 302 663 350 673 403 673 C 463 673 521 662 577 641 C 632 620 679 593 719 559 L 629 465 C 599 491 564 511 526 526 C 487 541 450 549 415 549 C 381 549 351 543 325 531 C 298 519 275 503 257 483 C 238 463 223 439 213 412 C 203 385 198 356 198 326 C 198 295 203 266 213 239 C 223 212 238 188 258 168 C 277 148 300 132 328 120 C 355 108 386 103 420 103 C 464 103 506 113 546 133 C 586 153 620 178 649 207 L 740 114 Z M 406 790 L 472 865 L 577 865 L 472 726 L 340 726 L 234 865 L 339 865 L 406 790 Z" horiz-adv-x="766" unicode="Č" />
<glyph d="M 441 333 C 421 352 400 366 378 376 C 356 386 335 391 316 391 C 298 391 281 387 265 381 C 249 374 236 364 224 352 C 212 339 202 324 196 306 C 189 288 186 268 186 246 C 186 224 189 203 197 185 C 204 167 214 151 226 138 C 238 125 253 115 269 108 C 285 100 303 97 321 97 C 345 97 369 103 391 116 C 413 129 433 145 452 163 L 534 81 C 528 75 519 66 507 55 C 494 44 478 33 459 23 C 439 13 417 4 391 -3 C 365 -11 337 -15 306 -15 C 270 -15 237 -8 205 3 C 173 15 146 33 122 56 C 98 79 79 107 65 139 C 51 171 44 206 44 246 C 44 284 50 320 64 352 C 78 384 96 411 120 433 C 144 455 172 473 204 485 C 236 497 270 504 306 504 C 344 504 381 497 419 484 C 457 470 492 449 524 421 L 441 333 Z M 240 694 L 307 617 L 373 694 L 478 694 L 373 553 L 241 553 L 135 694 L 240 694 Z" horiz-adv-x="558" unicode="č" />
<glyph d="M 103 0 L 103 653 L 410 653 C 470 653 521 645 561 629 C 601 613 636 590 666 560 C 694 530 716 495 731 455 C 746 415 754 373 754 327 C 754 279 746 234 730 193 C 714 151 690 116 660 86 C 632 59 598 38 560 23 C 521 7 471 0 410 0 L 103 0 Z M 405 123 C 423 123 439 124 453 126 C 467 128 479 131 490 135 C 500 139 510 144 519 150 C 527 156 536 162 545 170 C 564 189 579 211 589 237 C 599 263 605 292 605 326 C 605 388 586 439 550 477 C 533 493 514 506 494 515 C 473 524 443 529 405 529 L 246 529 L 246 123 L 405 123 Z M 393 790 L 459 865 L 564 865 L 459 726 L 327 726 L 221 865 L 326 865 L 393 790 Z" horiz-adv-x="806" unicode="Ď" />
<glyph d="M 439 0 C 437 8 436 18 435 29 C 434 39 433 49 433 58 C 425 49 416 40 406 32 C 396 24 384 16 372 9 C 359 2 345 -3 330 -7 C 314 -11 298 -14 282 -14 C 249 -14 218 -7 190 4 C 161 16 136 34 114 57 C 92 79 75 107 63 139 C 51 171 45 206 45 246 C 45 284 51 320 64 352 C 76 384 93 411 115 433 C 136 455 161 473 190 485 C 219 497 250 504 282 504 C 306 504 330 498 354 488 C 378 477 400 462 420 444 L 420 700 L 554 700 L 554 139 C 554 119 554 98 555 76 C 556 54 559 28 565 0 L 439 0 Z M 302 391 C 270 391 243 378 221 352 C 199 326 189 290 189 246 C 189 224 192 203 198 185 C 204 167 212 151 222 138 C 232 125 243 115 257 108 C 271 101 286 98 302 98 C 316 98 330 100 342 104 C 354 108 366 112 376 118 C 386 124 394 130 402 136 C 410 142 416 147 420 152 L 420 336 C 402 353 383 366 363 376 C 342 386 322 391 302 391 Z M 619 464 L 619 700 L 737 700 C 737 651 733 608 726 572 C 718 535 705 499 687 464 L 619 464 Z" horiz-adv-x="632" unicode="ď" />
<glyph d="M 37 385 L 133 385 L 133 653 L 440 653 C 500 653 551 645 591 629 C 631 613 666 590 696 560 C 724 530 746 495 761 455 C 776 415 784 373 784 327 C 784 279 776 234 760 193 C 744 151 720 116 690 86 C 662 59 628 38 590 23 C 551 7 501 0 440 0 L 133 0 L 133 281 L 37 281 L 37 385 Z M 435 123 C 453 123 469 124 483 126 C 497 128 509 131 520 135 C 530 139 540 144 549 150 C 557 156 566 162 575 170 C 594 189 609 211 619 237 C 629 263 635 292 635 326 C 635 388 616 439 580 477 C 563 493 544 506 524 515 C 503 524 473 529 435 529 L 276 529 L 276 385 L 451 385 L 451 281 L 276 281 L 276 123 L 435 123 Z" horiz-adv-x="836" unicode="Đ" />
<glyph d="M 292 640 L 420 640 L 420 700 L 554 700 L 554 640 L 627 640 L 627 552 L 554 552 L 554 139 C 554 119 554 98 555 76 C 556 54 559 28 565 0 L 439 0 C 437 8 436 18 435 29 C 434 39 433 49 433 58 C 425 49 416 40 406 32 C 396 24 384 16 372 9 C 359 2 345 -3 330 -7 C 314 -11 298 -14 282 -14 C 249 -14 218 -7 190 4 C 161 16 136 34 114 57 C 92 79 75 107 63 139 C 51 171 45 206 45 246 C 45 284 51 320 64 352 C 76 384 93 411 115 433 C 136 455 161 473 190 485 C 219 497 250 504 282 504 C 306 504 330 498 354 488 C 378 477 400 462 420 444 L 420 552 L 292 552 L 292 640 Z M 302 391 C 270 391 243 378 221 352 C 199 326 189 290 189 246 C 189 224 192 203 198 185 C 204 167 212 151 222 138 C 232 125 243 115 257 108 C 271 101 286 98 302 98 C 316 98 330 100 342 104 C 354 108 366 112 376 118 C 386 124 394 130 402 136 C 410 142 416 147 420 152 L 420 336 C 402 353 383 366 363 376 C 342 386 322 391 302 391 Z" horiz-adv-x="632" unicode="đ" />
<glyph d="M 487 279 L 246 279 L 246 123 L 670 123 L 670 0 L 103 0 L 103 653 L 647 653 L 647 529 L 246 529 L 246 402 L 487 402 L 487 279 Z M 509 838 L 509 745 L 240 745 L 240 838 L 509 838 Z" horiz-adv-x="711" unicode="Ē" />
<glyph d="M 529 57 C 501 36 467 19 426 5 C 385 -8 343 -15 299 -15 C 257 -15 221 -8 189 5 C 157 19 131 37 109 61 C 87 84 71 111 60 142 C 49 173 44 206 44 240 C 44 276 50 311 63 343 C 75 375 93 403 116 427 C 139 451 166 469 198 483 C 230 497 265 504 303 504 C 333 504 362 499 391 490 C 420 480 446 465 470 445 C 493 425 512 399 526 367 C 540 335 548 296 548 252 C 548 248 548 243 548 237 C 548 231 547 222 546 211 L 175 211 C 180 176 194 147 218 125 C 242 103 274 92 316 92 C 342 92 369 96 396 106 C 423 115 446 127 466 142 L 529 57 Z M 302 402 C 284 402 268 399 254 394 C 240 388 229 381 219 372 C 209 362 200 351 194 339 C 187 327 182 314 178 300 L 413 300 C 413 317 409 332 402 345 C 395 357 386 368 376 377 C 365 385 353 392 340 396 C 327 400 314 402 302 402 Z M 438 665 L 438 572 L 169 572 L 169 665 L 438 665 Z" horiz-adv-x="590" unicode="ē" />
<glyph d="M 487 279 L 246 279 L 246 123 L 670 123 L 670 0 L 103 0 L 103 653 L 647 653 L 647 529 L 246 529 L 246 402 L 487 402 L 487 279 Z M 307 864 C 307 856 307 847 309 839 C 311 831 314 823 319 817 C 324 811 331 806 340 802 C 349 798 361 796 375 796 C 389 796 400 798 409 802 C 417 806 424 811 429 817 C 434 823 437 831 439 839 C 441 847 442 856 442 864 L 535 864 C 535 848 532 831 528 814 C 524 796 516 780 504 766 C 492 751 475 739 455 730 C 434 720 407 716 375 716 C 342 716 315 720 294 730 C 273 739 257 751 245 766 C 233 780 224 796 220 814 C 216 831 214 848 214 864 L 307 864 Z" horiz-adv-x="711" unicode="Ĕ" />
<glyph d="M 529 57 C 501 36 467 19 426 5 C 385 -8 343 -15 299 -15 C 257 -15 221 -8 189 5 C 157 19 131 37 109 61 C 87 84 71 111 60 142 C 49 173 44 206 44 240 C 44 276 50 311 63 343 C 75 375 93 403 116 427 C 139 451 166 469 198 483 C 230 497 265 504 303 504 C 333 504 362 499 391 490 C 420 480 446 465 470 445 C 493 425 512 399 526 367 C 540 335 548 296 548 252 C 548 248 548 243 548 237 C 548 231 547 222 546 211 L 175 211 C 180 176 194 147 218 125 C 242 103 274 92 316 92 C 342 92 369 96 396 106 C 423 115 446 127 466 142 L 529 57 Z M 302 402 C 284 402 268 399 254 394 C 240 388 229 381 219 372 C 209 362 200 351 194 339 C 187 327 182 314 178 300 L 413 300 C 413 317 409 332 402 345 C 395 357 386 368 376 377 C 365 385 353 392 340 396 C 327 400 314 402 302 402 Z M 236 693 C 236 684 236 675 238 667 C 240 659 243 651 248 645 C 253 638 260 633 269 629 C 278 625 290 623 304 623 C 318 623 329 625 338 629 C 346 633 353 638 358 645 C 363 651 366 659 368 667 C 370 675 371 684 371 693 L 464 693 C 464 677 461 660 457 642 C 453 624 445 608 433 594 C 421 579 404 567 384 557 C 363 547 336 543 304 543 C 271 543 244 547 223 557 C 202 567 186 579 174 594 C 162 608 153 624 149 642 C 145 660 143 677 143 693 L 236 693 Z" horiz-adv-x="590" unicode="ĕ" />
<glyph d="M 487 279 L 246 279 L 246 123 L 670 123 L 670 0 L 103 0 L 103 653 L 647 653 L 647 529 L 246 529 L 246 402 L 487 402 L 487 279 Z M 302 798 C 302 816 308 831 322 845 C 336 858 353 865 374 865 C 395 865 413 858 427 845 C 441 831 448 816 448 798 C 448 779 441 763 427 751 C 413 738 395 732 374 732 C 353 732 336 738 322 751 C 308 763 302 779 302 798 Z" horiz-adv-x="711" unicode="Ė" />
<glyph d="M 529 57 C 501 36 467 19 426 5 C 385 -8 343 -15 299 -15 C 257 -15 221 -8 189 5 C 157 19 131 37 109 61 C 87 84 71 111 60 142 C 49 173 44 206 44 240 C 44 276 50 311 63 343 C 75 375 93 403 116 427 C 139 451 166 469 198 483 C 230 497 265 504 303 504 C 333 504 362 499 391 490 C 420 480 446 465 470 445 C 493 425 512 399 526 367 C 540 335 548 296 548 252 C 548 248 548 243 548 237 C 548 231 547 222 546 211 L 175 211 C 180 176 194 147 218 125 C 242 103 274 92 316 92 C 342 92 369 96 396 106 C 423 115 446 127 466 142 L 529 57 Z M 302 402 C 284 402 268 399 254 394 C 240 388 229 381 219 372 C 209 362 200 351 194 339 C 187 327 182 314 178 300 L 413 300 C 413 317 409 332 402 345 C 395 357 386 368 376 377 C 365 385 353 392 340 396 C 327 400 314 402 302 402 Z M 231 625 C 231 643 237 658 251 672 C 265 685 282 692 303 692 C 324 692 342 685 356 672 C 370 658 377 643 377 625 C 377 606 370 590 356 578 C 342 565 324 559 303 559 C 282 559 265 565 251 578 C 237 590 231 606 231 625 Z" horiz-adv-x="590" unicode="ė" />
<glyph d="M 487 279 L 246 279 L 246 123 L 670 123 L 670 0 L 627 0 C 619 -3 609 -8 597 -14 C 585 -20 574 -27 563 -35 C 552 -43 543 -52 535 -62 C 527 -72 524 -83 524 -96 C 524 -110 529 -121 540 -129 C 550 -137 565 -141 585 -141 C 593 -141 602 -140 612 -138 C 622 -136 632 -135 644 -133 L 655 -213 C 621 -222 590 -227 561 -227 C 517 -227 482 -217 456 -198 C 430 -178 418 -153 418 -122 C 418 -108 420 -96 425 -84 C 429 -72 436 -61 444 -51 C 452 -41 461 -31 471 -23 C 481 -14 491 -6 502 0 L 103 0 L 103 653 L 647 653 L 647 529 L 246 529 L 246 402 L 487 402 L 487 279 Z" horiz-adv-x="711" unicode="Ę" />
<glyph d="M 529 57 C 497 32 457 13 409 0 C 401 -3 391 -8 379 -14 C 367 -20 356 -27 345 -35 C 334 -43 325 -52 317 -62 C 309 -72 306 -83 306 -96 C 306 -110 311 -121 322 -129 C 332 -137 347 -141 367 -141 C 375 -141 384 -140 394 -138 C 404 -136 414 -135 426 -133 L 437 -213 C 403 -222 372 -227 343 -227 C 299 -227 264 -217 238 -198 C 212 -178 200 -153 200 -122 C 200 -98 206 -78 219 -60 C 232 -42 247 -26 265 -13 C 229 -9 197 0 169 15 C 141 29 118 48 100 71 C 82 93 68 119 58 148 C 48 177 44 208 44 240 C 44 276 50 311 63 343 C 75 375 93 403 116 427 C 139 451 166 469 198 483 C 230 497 265 504 303 504 C 333 504 362 499 391 490 C 420 480 446 465 470 445 C 493 425 512 399 526 367 C 540 335 548 296 548 252 C 548 248 548 243 548 237 C 548 231 547 222 546 211 L 175 211 C 180 176 194 147 218 125 C 242 103 274 92 316 92 C 342 92 369 96 396 106 C 423 115 446 127 466 142 L 529 57 Z M 302 402 C 284 402 268 399 254 394 C 240 388 229 381 219 372 C 209 362 200 351 194 339 C 187 327 182 314 178 300 L 413 300 C 413 317 409 332 402 345 C 395 357 386 368 376 377 C 365 385 353 392 340 396 C 327 400 314 402 302 402 Z" horiz-adv-x="590" unicode="ę" />
<glyph d="M 487 279 L 246 279 L 246 123 L 670 123 L 670 0 L 103 0 L 103 653 L 647 653 L 647 529 L 246 529 L 246 402 L 487 402 L 487 279 Z M 375 790 L 441 865 L 546 865 L 441 726 L 309 726 L 203 865 L 308 865 L 375 790 Z" horiz-adv-x="711" unicode="Ě" />
<glyph d="M 529 57 C 501 36 467 19 426 5 C 385 -8 343 -15 299 -15 C 257 -15 221 -8 189 5 C 157 19 131 37 109 61 C 87 84 71 111 60 142 C 49 173 44 206 44 240 C 44 276 50 311 63 343 C 75 375 93 403 116 427 C 139 451 166 469 198 483 C 230 497 265 504 303 504 C 333 504 362 499 391 490 C 420 480 446 465 470 445 C 493 425 512 399 526 367 C 540 335 548 296 548 252 C 548 248 548 243 548 237 C 548 231 547 222 546 211 L 175 211 C 180 176 194 147 218 125 C 242 103 274 92 316 92 C 342 92 369 96 396 106 C 423 115 446 127 466 142 L 529 57 Z M 302 402 C 284 402 268 399 254 394 C 240 388 229 381 219 372 C 209 362 200 351 194 339 C 187 327 182 314 178 300 L 413 300 C 413 317 409 332 402 345 C 395 357 386 368 376 377 C 365 385 353 392 340 396 C 327 400 314 402 302 402 Z M 237 694 L 304 617 L 370 694 L 475 694 L 370 553 L 238 553 L 132 694 L 237 694 Z" horiz-adv-x="590" unicode="ě" />
<glyph d="M 622 467 C 608 479 592 491 574 501 C 556 511 538 520 519 527 C 500 534 481 539 462 543 C 442 547 424 549 408 549 C 376 549 348 543 322 531 C 296 519 273 503 255 483 C 236 463 221 439 211 412 C 201 385 196 356 196 326 C 196 297 200 269 210 243 C 219 216 233 192 252 172 C 270 151 293 134 321 122 C 349 110 381 104 418 104 C 448 104 478 107 508 115 C 538 123 563 134 584 148 L 584 258 L 387 258 L 387 376 L 718 376 L 718 83 C 696 67 673 52 648 40 C 623 28 597 17 571 8 C 545 0 518 -7 491 -12 C 463 -16 437 -19 412 -19 C 360 -19 311 -10 267 8 C 222 26 183 50 151 82 C 118 113 92 150 74 192 C 56 234 47 279 47 327 C 47 375 56 420 75 462 C 93 504 119 540 151 572 C 183 603 221 628 265 646 C 309 664 356 673 407 673 C 459 673 511 663 565 643 C 619 623 669 594 717 556 L 622 467 Z M 341 865 L 473 865 L 578 726 L 473 726 L 407 800 L 340 726 L 235 726 L 341 865 Z" horiz-adv-x="801" unicode="Ĝ" />
<glyph d="M 420 55 C 400 34 378 18 354 7 C 330 -3 306 -9 282 -9 C 249 -9 218 -3 190 9 C 161 21 136 38 114 60 C 92 82 75 108 63 139 C 51 170 45 205 45 243 C 45 283 51 319 63 351 C 75 383 92 410 114 433 C 136 455 161 473 190 485 C 218 497 249 504 282 504 C 298 504 313 501 329 496 C 344 491 358 485 371 477 C 384 469 396 461 406 452 C 416 443 425 435 433 427 C 433 436 433 446 435 458 C 436 470 438 480 440 490 L 564 490 C 558 460 555 435 554 413 C 553 391 553 370 553 350 L 553 -23 C 553 -51 547 -77 537 -102 C 526 -126 510 -148 489 -167 C 468 -185 442 -200 411 -211 C 379 -221 343 -227 301 -227 C 245 -227 198 -219 161 -204 C 124 -188 93 -170 69 -148 L 139 -71 C 158 -85 180 -97 206 -107 C 232 -117 263 -122 301 -122 C 340 -122 370 -112 390 -94 C 410 -76 420 -54 420 -28 L 420 55 Z M 301 103 C 321 103 342 107 362 117 C 382 127 402 140 420 157 L 420 336 C 415 340 409 346 402 352 C 394 358 386 364 376 370 C 366 376 354 381 342 385 C 329 389 315 391 301 391 C 269 391 243 377 221 351 C 199 325 188 289 188 243 C 188 221 191 202 197 185 C 203 168 211 153 221 141 C 231 129 243 119 257 113 C 271 106 285 103 301 103 Z M 249 694 L 381 694 L 486 553 L 381 553 L 315 629 L 248 553 L 143 553 L 249 694 Z" horiz-adv-x="632" unicode="ĝ" />
<glyph d="M 622 467 C 608 479 592 491 574 501 C 556 511 538 520 519 527 C 500 534 481 539 462 543 C 442 547 424 549 408 549 C 376 549 348 543 322 531 C 296 519 273 503 255 483 C 236 463 221 439 211 412 C 201 385 196 356 196 326 C 196 297 200 269 210 243 C 219 216 233 192 252 172 C 270 151 293 134 321 122 C 349 110 381 104 418 104 C 448 104 478 107 508 115 C 538 123 563 134 584 148 L 584 258 L 387 258 L 387 376 L 718 376 L 718 83 C 696 67 673 52 648 40 C 623 28 597 17 571 8 C 545 0 518 -7 491 -12 C 463 -16 437 -19 412 -19 C 360 -19 311 -10 267 8 C 222 26 183 50 151 82 C 118 113 92 150 74 192 C 56 234 47 279 47 327 C 47 375 56 420 75 462 C 93 504 119 540 151 572 C 183 603 221 628 265 646 C 309 664 356 673 407 673 C 459 673 511 663 565 643 C 619 623 669 594 717 556 L 622 467 Z M 339 864 C 339 856 339 847 341 839 C 343 831 346 823 351 817 C 356 811 363 806 372 802 C 381 798 393 796 407 796 C 421 796 432 798 441 802 C 449 806 456 811 461 817 C 466 823 469 831 471 839 C 473 847 474 856 474 864 L 567 864 C 567 848 564 831 560 814 C 556 796 548 780 536 766 C 524 751 507 739 487 730 C 466 720 439 716 407 716 C 374 716 347 720 326 730 C 305 739 289 751 277 766 C 265 780 256 796 252 814 C 248 831 246 848 246 864 L 339 864 Z" horiz-adv-x="801" unicode="Ğ" />
<glyph d="M 420 55 C 400 34 378 18 354 7 C 330 -3 306 -9 282 -9 C 249 -9 218 -3 190 9 C 161 21 136 38 114 60 C 92 82 75 108 63 139 C 51 170 45 205 45 243 C 45 283 51 319 63 351 C 75 383 92 410 114 433 C 136 455 161 473 190 485 C 218 497 249 504 282 504 C 298 504 313 501 329 496 C 344 491 358 485 371 477 C 384 469 396 461 406 452 C 416 443 425 435 433 427 C 433 436 433 446 435 458 C 436 470 438 480 440 490 L 564 490 C 558 460 555 435 554 413 C 553 391 553 370 553 350 L 553 -23 C 553 -51 547 -77 537 -102 C 526 -126 510 -148 489 -167 C 468 -185 442 -200 411 -211 C 379 -221 343 -227 301 -227 C 245 -227 198 -219 161 -204 C 124 -188 93 -170 69 -148 L 139 -71 C 158 -85 180 -97 206 -107 C 232 -117 263 -122 301 -122 C 340 -122 370 -112 390 -94 C 410 -76 420 -54 420 -28 L 420 55 Z M 301 103 C 321 103 342 107 362 117 C 382 127 402 140 420 157 L 420 336 C 415 340 409 346 402 352 C 394 358 386 364 376 370 C 366 376 354 381 342 385 C 329 389 315 391 301 391 C 269 391 243 377 221 351 C 199 325 188 289 188 243 C 188 221 191 202 197 185 C 203 168 211 153 221 141 C 231 129 243 119 257 113 C 271 106 285 103 301 103 Z M 247 693 C 247 684 247 675 249 667 C 251 659 254 651 259 645 C 264 638 271 633 280 629 C 289 625 301 623 315 623 C 329 623 340 625 349 629 C 357 633 364 638 369 645 C 374 651 377 659 379 667 C 381 675 382 684 382 693 L 475 693 C 475 677 472 660 468 642 C 464 624 456 608 444 594 C 432 579 415 567 395 557 C 374 547 347 543 315 543 C 282 543 255 547 234 557 C 213 567 197 579 185 594 C 173 608 164 624 160 642 C 156 660 154 677 154 693 L 247 693 Z" horiz-adv-x="632" unicode="ğ" />
<glyph d="M 622 467 C 608 479 592 491 574 501 C 556 511 538 520 519 527 C 500 534 481 539 462 543 C 442 547 424 549 408 549 C 376 549 348 543 322 531 C 296 519 273 503 255 483 C 236 463 221 439 211 412 C 201 385 196 356 196 326 C 196 297 200 269 210 243 C 219 216 233 192 252 172 C 270 151 293 134 321 122 C 349 110 381 104 418 104 C 448 104 478 107 508 115 C 538 123 563 134 584 148 L 584 258 L 387 258 L 387 376 L 718 376 L 718 83 C 696 67 673 52 648 40 C 623 28 597 17 571 8 C 545 0 518 -7 491 -12 C 463 -16 437 -19 412 -19 C 360 -19 311 -10 267 8 C 222 26 183 50 151 82 C 118 113 92 150 74 192 C 56 234 47 279 47 327 C 47 375 56 420 75 462 C 93 504 119 540 151 572 C 183 603 221 628 265 646 C 309 664 356 673 407 673 C 459 673 511 663 565 643 C 619 623 669 594 717 556 L 622 467 Z M 334 798 C 334 816 340 831 354 845 C 368 858 385 865 406 865 C 427 865 445 858 459 845 C 473 831 480 816 480 798 C 480 779 473 763 459 751 C 445 738 427 732 406 732 C 385 732 368 738 354 751 C 340 763 334 779 334 798 Z" horiz-adv-x="801" unicode="Ġ" />
<glyph d="M 420 55 C 400 34 378 18 354 7 C 330 -3 306 -9 282 -9 C 249 -9 218 -3 190 9 C 161 21 136 38 114 60 C 92 82 75 108 63 139 C 51 170 45 205 45 243 C 45 283 51 319 63 351 C 75 383 92 410 114 433 C 136 455 161 473 190 485 C 218 497 249 504 282 504 C 298 504 313 501 329 496 C 344 491 358 485 371 477 C 384 469 396 461 406 452 C 416 443 425 435 433 427 C 433 436 433 446 435 458 C 436 470 438 480 440 490 L 564 490 C 558 460 555 435 554 413 C 553 391 553 370 553 350 L 553 -23 C 553 -51 547 -77 537 -102 C 526 -126 510 -148 489 -167 C 468 -185 442 -200 411 -211 C 379 -221 343 -227 301 -227 C 245 -227 198 -219 161 -204 C 124 -188 93 -170 69 -148 L 139 -71 C 158 -85 180 -97 206 -107 C 232 -117 263 -122 301 -122 C 340 -122 370 -112 390 -94 C 410 -76 420 -54 420 -28 L 420 55 Z M 301 103 C 321 103 342 107 362 117 C 382 127 402 140 420 157 L 420 336 C 415 340 409 346 402 352 C 394 358 386 364 376 370 C 366 376 354 381 342 385 C 329 389 315 391 301 391 C 269 391 243 377 221 351 C 199 325 188 289 188 243 C 188 221 191 202 197 185 C 203 168 211 153 221 141 C 231 129 243 119 257 113 C 271 106 285 103 301 103 Z M 242 625 C 242 643 248 658 262 672 C 276 685 293 692 314 692 C 335 692 353 685 367 672 C 381 658 388 643 388 625 C 388 606 381 590 367 578 C 353 565 335 559 314 559 C 293 559 276 565 262 578 C 248 590 242 606 242 625 Z" horiz-adv-x="632" unicode="ġ" />
<glyph d="M 622 467 C 608 479 592 491 574 501 C 556 511 538 520 519 527 C 500 534 481 539 462 543 C 442 547 424 549 408 549 C 376 549 348 543 322 531 C 296 519 273 503 255 483 C 236 463 221 439 211 412 C 201 385 196 356 196 326 C 196 297 200 269 210 243 C 219 216 233 192 252 172 C 270 151 293 134 321 122 C 349 110 381 104 418 104 C 448 104 478 107 508 115 C 538 123 563 134 584 148 L 584 258 L 387 258 L 387 376 L 718 376 L 718 83 C 696 67 673 52 648 40 C 623 28 597 17 571 8 C 545 0 518 -7 491 -12 C 463 -16 437 -19 412 -19 C 360 -19 311 -10 267 8 C 222 26 183 50 151 82 C 118 113 92 150 74 192 C 56 234 47 279 47 327 C 47 375 56 420 75 462 C 93 504 119 540 151 572 C 183 603 221 628 265 646 C 309 664 356 673 407 673 C 459 673 511 663 565 643 C 619 623 669 594 717 556 L 622 467 Z M 479 -41 C 485 -48 493 -59 503 -74 C 512 -89 517 -109 517 -133 C 517 -169 502 -198 472 -220 C 442 -242 401 -254 349 -254 C 321 -254 291 -249 257 -240 L 268 -165 C 278 -166 288 -167 298 -169 C 307 -171 316 -172 325 -172 C 348 -172 366 -167 378 -159 C 390 -151 397 -139 397 -123 C 397 -109 394 -97 389 -88 C 383 -79 379 -72 375 -67 L 479 -41 Z" horiz-adv-x="801" unicode="Ģ" />
<glyph d="M 258 549 C 254 553 249 557 244 563 C 238 568 233 574 229 582 C 224 589 220 597 217 607 C 213 617 212 628 212 641 C 212 676 226 705 254 727 C 282 749 322 761 374 761 C 382 761 391 760 399 760 C 407 759 417 757 428 754 L 428 678 C 421 679 414 680 407 680 C 399 680 393 681 387 681 C 350 681 332 665 332 633 C 332 617 335 605 342 595 C 349 585 356 577 364 569 L 258 549 Z M 420 55 C 400 34 378 18 354 7 C 330 -3 306 -9 282 -9 C 249 -9 218 -3 190 9 C 161 21 136 38 114 60 C 92 82 75 108 63 139 C 51 170 45 205 45 243 C 45 283 51 319 63 351 C 75 383 92 410 114 433 C 136 455 161 473 190 485 C 218 497 249 504 282 504 C 298 504 313 501 329 496 C 344 491 358 485 371 477 C 384 469 396 461 406 452 C 416 443 425 435 433 427 C 433 436 433 446 435 458 C 436 470 438 480 440 490 L 564 490 C 558 460 555 435 554 413 C 553 391 553 370 553 350 L 553 -23 C 553 -51 547 -77 537 -102 C 526 -126 510 -148 489 -167 C 468 -185 442 -200 411 -211 C 379 -221 343 -227 301 -227 C 245 -227 198 -219 161 -204 C 124 -188 93 -170 69 -148 L 139 -71 C 158 -85 180 -97 206 -107 C 232 -117 263 -122 301 -122 C 340 -122 370 -112 390 -94 C 410 -76 420 -54 420 -28 L 420 55 Z M 301 103 C 321 103 342 107 362 117 C 382 127 402 140 420 157 L 420 336 C 415 340 409 346 402 352 C 394 358 386 364 376 370 C 366 376 354 381 342 385 C 329 389 315 391 301 391 C 269 391 243 377 221 351 C 199 325 188 289 188 243 C 188 221 191 202 197 185 C 203 168 211 153 221 141 C 231 129 243 119 257 113 C 271 106 285 103 301 103 Z" horiz-adv-x="632" unicode="ģ" />
<glyph d="M 103 0 L 103 653 L 247 653 L 247 411 L 555 411 L 555 653 L 699 653 L 699 0 L 555 0 L 555 290 L 247 290 L 247 0 L 103 0 Z M 334 865 L 466 865 L 571 726 L 466 726 L 400 800 L 333 726 L 228 726 L 334 865 Z" horiz-adv-x="802" unicode="Ĥ" />
<glyph d="M 77 0 L 77 700 L 210 700 L 210 437 C 227 454 247 469 271 483 C 294 497 321 504 351 504 C 379 504 404 499 427 491 C 449 482 469 470 485 454 C 501 438 514 420 523 398 C 532 376 537 353 537 328 L 537 0 L 403 0 L 403 323 C 403 341 395 357 380 371 C 364 384 345 391 321 391 C 297 391 276 384 256 371 C 236 357 221 343 210 328 L 210 0 L 77 0 Z M 81 904 L 213 904 L 318 765 L 213 765 L 147 839 L 80 765 L -25 765 L 81 904 Z" horiz-adv-x="608" unicode="ĥ" />
<glyph d="M 21 564 L 116 564 L 116 653 L 260 653 L 260 564 L 564 564 L 564 653 L 707 653 L 707 564 L 803 564 L 803 460 L 707 460 L 707 0 L 564 0 L 564 249 L 260 249 L 260 0 L 116 0 L 116 460 L 21 460 L 21 564 Z M 564 367 L 564 460 L 260 460 L 260 367 L 564 367 Z" horiz-adv-x="824" unicode="Ħ" />
<glyph d="M 338 552 L 210 552 L 210 437 C 227 454 247 469 271 483 C 294 497 321 504 351 504 C 379 504 404 499 427 491 C 449 482 469 470 485 454 C 501 438 514 420 523 398 C 532 376 537 353 537 328 L 537 0 L 403 0 L 403 323 C 403 341 395 357 380 371 C 364 384 345 391 321 391 C 297 391 276 384 256 371 C 236 357 221 343 210 328 L 210 0 L 77 0 L 77 552 L 3 552 L 3 640 L 77 640 L 77 700 L 210 700 L 210 640 L 338 640 L 338 552 Z" horiz-adv-x="608" unicode="ħ" />
<glyph d="M 103 0 L 103 653 L 246 653 L 246 0 L 103 0 Z M -18 764 C 2 800 23 825 43 840 C 63 854 85 862 109 862 C 124 862 137 859 149 855 C 160 850 171 844 181 837 C 190 831 199 825 207 820 C 215 814 224 812 233 812 C 245 812 256 817 265 827 C 274 837 282 847 290 858 L 364 818 C 344 783 324 758 304 742 C 283 726 261 718 237 718 C 223 718 210 720 199 725 C 187 729 177 735 168 741 C 158 748 149 754 141 760 C 133 765 124 768 115 768 C 103 768 93 762 85 752 C 77 742 69 731 62 721 L -18 764 Z" horiz-adv-x="349" unicode="Ĩ" />
<glyph d="M 77 0 L 77 488 L 210 488 L 210 0 L 77 0 Z M -49 590 C -28 626 -8 652 12 667 C 32 681 54 689 78 689 C 93 689 106 686 118 682 C 129 677 140 671 150 664 C 159 657 168 651 176 646 C 184 641 193 639 202 639 C 214 639 225 643 234 653 C 243 663 251 673 259 685 L 333 645 C 313 610 293 585 273 569 C 252 553 230 545 206 545 C 192 545 179 547 168 552 C 156 556 146 562 137 568 C 127 575 118 581 110 587 C 102 592 93 595 84 595 C 72 595 62 589 54 579 C 46 568 38 557 31 547 L -49 590 Z" horiz-adv-x="287" unicode="ĩ" />
<glyph d="M 103 0 L 103 653 L 246 653 L 246 0 L 103 0 Z M 309 838 L 309 745 L 40 745 L 40 838 L 309 838 Z" horiz-adv-x="349" unicode="Ī" />
<glyph d="M 77 0 L 77 488 L 210 488 L 210 0 L 77 0 Z M 278 665 L 278 572 L 9 572 L 9 665 L 278 665 Z" horiz-adv-x="287" unicode="ī" />
<glyph d="M 103 0 L 103 653 L 246 653 L 246 0 L 103 0 Z M 107 864 C 107 856 107 847 109 839 C 111 831 114 823 119 817 C 124 811 131 806 140 802 C 149 798 161 796 175 796 C 189 796 200 798 209 802 C 217 806 224 811 229 817 C 234 823 237 831 239 839 C 241 847 242 856 242 864 L 335 864 C 335 848 332 831 328 814 C 324 796 316 780 304 766 C 292 751 275 739 255 730 C 234 720 207 716 175 716 C 142 716 115 720 94 730 C 73 739 57 751 45 766 C 33 780 24 796 20 814 C 16 831 14 848 14 864 L 107 864 Z" horiz-adv-x="349" unicode="Ĭ" />
<glyph d="M 77 0 L 77 488 L 210 488 L 210 0 L 77 0 Z M 76 693 C 76 684 76 675 78 667 C 80 659 83 651 88 645 C 93 638 100 633 109 629 C 118 625 130 623 144 623 C 158 623 169 625 178 629 C 186 633 193 638 198 645 C 203 651 206 659 208 667 C 210 675 211 684 211 693 L 304 693 C 304 677 301 660 297 642 C 293 624 285 608 273 594 C 261 579 244 567 224 557 C 203 547 176 543 144 543 C 111 543 84 547 63 557 C 42 567 26 579 14 594 C 2 608 -6 624 -10 642 C -14 660 -17 677 -17 693 L 76 693 Z" horiz-adv-x="287" unicode="ĭ" />
<glyph d="M 246 0 C 238 -3 228 -8 216 -14 C 204 -20 193 -27 182 -35 C 171 -43 162 -52 154 -62 C 146 -72 143 -83 143 -96 C 143 -110 148 -121 159 -129 C 169 -137 184 -141 204 -141 C 212 -141 221 -140 231 -138 C 241 -136 251 -135 263 -133 L 274 -213 C 240 -222 209 -227 180 -227 C 136 -227 101 -217 75 -198 C 49 -178 37 -153 37 -122 C 37 -108 39 -96 44 -84 C 48 -72 55 -61 63 -51 C 71 -41 80 -31 90 -23 C 100 -14 110 -6 121 0 L 103 0 L 103 653 L 246 653 L 246 0 Z" horiz-adv-x="349" unicode="Į" />
<glyph d="M 77 488 L 210 488 L 210 0 C 202 -3 192 -8 180 -14 C 168 -20 157 -27 146 -35 C 135 -43 126 -52 118 -62 C 110 -72 107 -83 107 -96 C 107 -110 112 -121 123 -129 C 134 -137 149 -141 168 -141 C 177 -141 186 -140 196 -138 C 206 -136 216 -135 227 -133 L 238 -213 C 204 -222 173 -227 145 -227 C 100 -227 65 -217 39 -198 C 13 -178 1 -153 1 -122 C 1 -108 3 -96 8 -84 C 12 -72 19 -61 27 -51 C 35 -41 44 -31 54 -23 C 64 -14 74 -6 85 0 L 77 0 L 77 488 Z M 143 565 C 120 565 101 572 86 586 C 71 600 64 616 64 636 C 64 656 71 673 86 687 C 101 701 120 709 143 709 C 165 709 184 701 200 687 C 215 672 223 655 223 636 C 223 616 215 600 200 586 C 184 572 165 565 143 565 Z" horiz-adv-x="287" unicode="į" />
<glyph d="M 103 0 L 103 653 L 246 653 L 246 0 L 103 0 Z M 102 798 C 102 816 108 831 122 845 C 136 858 153 865 174 865 C 195 865 213 858 227 845 C 241 831 248 816 248 798 C 248 779 241 763 227 751 C 213 738 195 732 174 732 C 153 732 136 738 122 751 C 108 763 102 779 102 798 Z" horiz-adv-x="349" unicode="İ" />
<glyph d="M 77 0 L 77 488 L 210 488 L 210 0 L 77 0 Z" horiz-adv-x="287" unicode="ı" />
<glyph d="M 103 0 L 103 653 L 246 653 L 246 0 L 103 0 Z M 908 653 L 908 236 C 908 195 901 159 887 127 C 873 95 853 69 829 47 C 804 25 774 9 740 -2 C 706 -13 668 -19 628 -19 C 586 -19 549 -13 519 -1 C 489 10 463 24 441 42 C 419 60 402 79 388 100 C 374 121 363 141 355 160 L 476 223 C 481 210 488 197 496 183 C 504 169 515 156 527 144 C 539 132 553 123 569 115 C 585 107 605 104 627 104 C 667 104 699 115 725 137 C 751 159 764 192 764 236 L 764 653 L 908 653 Z" horiz-adv-x="999" unicode="Ĳ" />
<glyph d="M 77 0 L 77 488 L 210 488 L 210 0 L 77 0 Z M 64 636 C 64 656 71 673 86 687 C 101 701 120 709 143 709 C 165 709 184 701 200 687 C 215 672 223 655 223 636 C 223 616 215 600 200 586 C 184 572 165 565 143 565 C 120 565 101 572 86 586 C 71 600 64 616 64 636 Z M 272 -129 C 282 -126 293 -123 304 -120 C 315 -116 325 -112 334 -106 C 342 -100 349 -92 355 -82 C 361 -72 364 -59 364 -44 L 364 488 L 497 488 L 497 -44 C 497 -78 491 -106 479 -130 C 467 -153 451 -172 433 -187 C 415 -201 394 -212 372 -218 C 350 -224 328 -228 308 -228 L 272 -129 Z M 350 636 C 350 656 357 673 372 687 C 387 701 406 709 430 709 C 452 709 471 701 487 687 C 502 672 510 655 510 636 C 510 616 502 600 487 586 C 471 572 452 565 430 565 C 406 565 387 572 372 586 C 357 600 350 616 350 636 Z" horiz-adv-x="575" unicode="ĳ" />
<glyph d="M 559 653 L 559 236 C 559 195 552 159 538 127 C 524 95 504 69 480 47 C 455 25 425 9 391 -2 C 357 -13 319 -19 279 -19 C 237 -19 200 -13 170 -1 C 140 10 114 24 92 42 C 70 60 53 79 39 100 C 25 121 14 141 6 160 L 127 223 C 132 210 139 197 147 183 C 155 169 166 156 178 144 C 190 132 204 123 220 115 C 236 107 256 104 278 104 C 318 104 350 115 376 137 C 402 159 415 192 415 236 L 415 653 L 559 653 Z M 423 865 L 555 865 L 660 726 L 555 726 L 489 800 L 422 726 L 317 726 L 423 865 Z" horiz-adv-x="650" unicode="Ĵ" />
<glyph d="M -15 -129 C -4 -126 6 -123 17 -120 C 28 -116 38 -112 47 -106 C 55 -100 62 -92 68 -82 C 74 -72 77 -59 77 -44 L 77 488 L 210 488 L 210 -44 C 210 -78 204 -106 192 -130 C 180 -153 164 -172 146 -187 C 128 -201 107 -212 85 -218 C 63 -224 41 -228 21 -228 L -15 -129 Z M 78 694 L 210 694 L 315 553 L 210 553 L 144 629 L 77 553 L -28 553 L 78 694 Z" horiz-adv-x="287" unicode="ĵ" />
<glyph d="M 247 369 L 546 653 L 726 653 L 454 398 L 775 0 L 594 0 L 352 304 L 247 205 L 247 0 L 103 0 L 103 653 L 247 653 L 247 369 Z M 466 -41 C 472 -48 480 -59 490 -74 C 499 -89 504 -109 504 -133 C 504 -169 489 -198 459 -220 C 429 -242 388 -254 336 -254 C 308 -254 278 -249 244 -240 L 255 -165 C 265 -166 275 -167 285 -169 C 294 -171 303 -172 312 -172 C 335 -172 353 -167 365 -159 C 377 -151 384 -139 384 -123 C 384 -109 381 -97 376 -88 C 370 -79 366 -72 362 -67 L 466 -41 Z" horiz-adv-x="772" unicode="Ķ" />
<glyph d="M 563 488 L 372 310 L 583 0 L 418 0 L 277 221 L 211 160 L 211 0 L 77 0 L 77 700 L 211 700 L 211 311 L 388 488 L 563 488 Z M 353 -41 C 357 -45 361 -49 367 -55 C 372 -61 377 -67 382 -75 C 386 -82 390 -90 394 -100 C 397 -110 399 -121 399 -133 C 399 -169 385 -198 357 -220 C 329 -242 289 -254 237 -254 C 229 -254 220 -253 212 -252 C 204 -251 194 -249 183 -246 L 183 -170 C 190 -171 197 -172 204 -172 C 211 -172 218 -173 224 -173 C 261 -173 280 -157 280 -125 C 280 -110 276 -98 269 -88 C 262 -78 255 -69 248 -61 L 353 -41 Z" horiz-adv-x="584" unicode="ķ" />
<glyph d="M 563 488 L 372 310 L 583 0 L 418 0 L 277 221 L 211 160 L 211 0 L 77 0 L 77 488 L 211 488 L 211 311 L 388 488 L 563 488 Z" horiz-adv-x="584" unicode="ĸ" />
<glyph d="M 246 653 L 246 123 L 630 123 L 630 0 L 103 0 L 103 653 L 246 653 Z M 189 864 L 332 864 L 208 726 L 89 726 L 189 864 Z" horiz-adv-x="649" unicode="Ĺ" />
<glyph d="M 79 0 L 79 700 L 213 700 L 213 0 L 79 0 Z M 160 903 L 303 903 L 179 765 L 60 765 L 160 903 Z" horiz-adv-x="292" unicode="ĺ" />
<glyph d="M 246 653 L 246 123 L 630 123 L 630 0 L 103 0 L 103 653 L 246 653 Z M 405 -41 C 411 -48 419 -59 429 -74 C 438 -89 443 -109 443 -133 C 443 -169 428 -198 398 -220 C 368 -242 327 -254 275 -254 C 247 -254 217 -249 183 -240 L 194 -165 C 204 -166 214 -167 224 -169 C 233 -171 242 -172 251 -172 C 274 -172 292 -167 304 -159 C 316 -151 323 -139 323 -123 C 323 -109 320 -97 315 -88 C 309 -79 305 -72 301 -67 L 405 -41 Z" horiz-adv-x="649" unicode="Ļ" />
<glyph d="M 79 0 L 79 700 L 213 700 L 213 0 L 79 0 Z M 208 -41 C 212 -45 216 -49 222 -55 C 227 -61 232 -67 237 -75 C 241 -82 245 -90 249 -100 C 252 -110 254 -121 254 -133 C 254 -169 240 -198 212 -220 C 184 -242 144 -254 92 -254 C 84 -254 75 -253 67 -252 C 59 -251 49 -249 38 -246 L 38 -170 C 45 -171 52 -172 59 -172 C 66 -172 73 -173 79 -173 C 116 -173 135 -157 135 -125 C 135 -110 131 -98 124 -88 C 117 -78 110 -69 103 -61 L 208 -41 Z" horiz-adv-x="292" unicode="ļ" />
<glyph d="M 246 653 L 246 123 L 630 123 L 630 0 L 103 0 L 103 653 L 246 653 Z M 386 464 L 386 700 L 504 700 C 504 651 500 608 493 572 C 485 535 472 499 454 464 L 386 464 Z" horiz-adv-x="649" unicode="Ľ" />
<glyph d="M 79 0 L 79 700 L 213 700 L 213 0 L 79 0 Z M 278 464 L 278 700 L 396 700 C 396 651 392 608 384 572 C 376 535 364 499 346 464 L 278 464 Z" horiz-adv-x="292" unicode="ľ" />
<glyph d="M 246 653 L 246 123 L 630 123 L 630 0 L 103 0 L 103 653 L 246 653 Z M 418 402 C 418 420 424 435 438 449 C 452 462 469 469 490 469 C 511 469 529 462 543 449 C 557 435 564 420 564 402 C 564 383 557 367 543 355 C 529 342 511 336 490 336 C 469 336 452 342 438 355 C 424 367 418 383 418 402 Z" horiz-adv-x="666" unicode="Ŀ" />
<glyph d="M 79 0 L 79 700 L 213 700 L 213 0 L 79 0 Z M 248 361 C 248 379 254 394 268 408 C 282 421 299 428 320 428 C 341 428 359 421 373 408 C 387 394 394 379 394 361 C 394 342 387 326 373 314 C 359 301 341 295 320 295 C 299 295 282 301 268 314 C 254 326 248 342 248 361 Z" horiz-adv-x="372" unicode="ŀ" />
<glyph d="M 34 289 L 131 345 L 131 653 L 274 653 L 274 427 L 469 540 L 469 425 L 274 312 L 274 123 L 658 123 L 658 0 L 131 0 L 131 229 L 34 173 L 34 289 Z" horiz-adv-x="677" unicode="Ł" />
<glyph d="M 18 342 L 97 385 L 97 700 L 230 700 L 230 459 L 304 500 L 321 399 L 230 348 L 230 0 L 97 0 L 97 275 L 36 241 L 18 342 Z" horiz-adv-x="327" unicode="ł" />
<glyph d="M 704 653 L 704 0 L 580 0 L 248 404 L 247 404 L 247 0 L 103 0 L 103 653 L 226 653 L 559 248 L 560 248 L 560 653 L 704 653 Z M 416 864 L 559 864 L 435 726 L 316 726 L 416 864 Z" horiz-adv-x="807" unicode="Ń" />
<glyph d="M 196 424 C 214 446 237 464 263 480 C 289 496 322 504 360 504 C 384 504 407 499 429 491 C 451 482 470 470 486 454 C 502 438 514 420 524 398 C 533 376 538 353 538 328 L 538 0 L 404 0 L 404 323 C 404 341 396 357 381 371 C 366 384 347 391 323 391 C 299 391 277 384 259 371 C 241 357 225 343 211 328 L 211 0 L 78 0 L 78 349 C 78 369 77 391 75 413 C 73 435 69 460 64 488 L 186 488 C 188 478 189 468 191 457 C 193 446 194 435 196 424 Z M 449 698 L 341 552 L 224 552 L 314 698 L 449 698 Z" horiz-adv-x="610" unicode="ń" />
<glyph d="M 704 653 L 704 0 L 580 0 L 248 404 L 247 404 L 247 0 L 103 0 L 103 653 L 226 653 L 559 248 L 560 248 L 560 653 L 704 653 Z M 473 -41 C 479 -48 487 -59 497 -74 C 506 -89 511 -109 511 -133 C 511 -169 496 -198 466 -220 C 436 -242 395 -254 343 -254 C 315 -254 285 -249 251 -240 L 262 -165 C 272 -166 282 -167 292 -169 C 301 -171 310 -172 319 -172 C 342 -172 360 -167 372 -159 C 384 -151 391 -139 391 -123 C 391 -109 388 -97 383 -88 C 377 -79 373 -72 369 -67 L 473 -41 Z" horiz-adv-x="807" unicode="Ņ" />
<glyph d="M 196 424 C 214 446 237 464 263 480 C 289 496 322 504 360 504 C 384 504 407 499 429 491 C 451 482 470 470 486 454 C 502 438 514 420 524 398 C 533 376 538 353 538 328 L 538 0 L 404 0 L 404 323 C 404 341 396 357 381 371 C 366 384 347 391 323 391 C 299 391 277 384 259 371 C 241 357 225 343 211 328 L 211 0 L 78 0 L 78 349 C 78 369 77 391 75 413 C 73 435 69 460 64 488 L 186 488 C 188 478 189 468 191 457 C 193 446 194 435 196 424 Z M 357 -41 C 361 -45 365 -49 371 -55 C 376 -61 381 -67 386 -75 C 390 -82 394 -90 398 -100 C 401 -110 403 -121 403 -133 C 403 -169 389 -198 361 -220 C 333 -242 293 -254 241 -254 C 233 -254 224 -253 216 -252 C 208 -251 198 -249 187 -246 L 187 -170 C 194 -171 201 -172 208 -172 C 215 -172 222 -173 228 -173 C 265 -173 284 -157 284 -125 C 284 -110 280 -98 273 -88 C 266 -78 259 -69 252 -61 L 357 -41 Z" horiz-adv-x="610" unicode="ņ" />
<glyph d="M 704 653 L 704 0 L 580 0 L 248 404 L 247 404 L 247 0 L 103 0 L 103 653 L 226 653 L 559 248 L 560 248 L 560 653 L 704 653 Z M 403 790 L 469 865 L 574 865 L 469 726 L 337 726 L 231 865 L 336 865 L 403 790 Z" horiz-adv-x="807" unicode="Ň" />
<glyph d="M 196 424 C 214 446 237 464 263 480 C 289 496 322 504 360 504 C 384 504 407 499 429 491 C 451 482 470 470 486 454 C 502 438 514 420 524 398 C 533 376 538 353 538 328 L 538 0 L 404 0 L 404 323 C 404 341 396 357 381 371 C 366 384 347 391 323 391 C 299 391 277 384 259 371 C 241 357 225 343 211 328 L 211 0 L 78 0 L 78 349 C 78 369 77 391 75 413 C 73 435 69 460 64 488 L 186 488 C 188 478 189 468 191 457 C 193 446 194 435 196 424 Z M 237 694 L 304 617 L 370 694 L 475 694 L 370 553 L 238 553 L 132 694 L 237 694 Z" horiz-adv-x="610" unicode="ň" />
<glyph d="M -50 576 C -42 578 -33 581 -23 586 C -13 591 -3 597 5 604 C 14 611 22 619 28 628 C 34 636 37 645 37 655 L 37 661 C 33 659 30 658 26 658 C 22 657 18 657 14 657 C 0 657 -13 662 -23 674 C -33 685 -38 699 -38 715 C -38 733 -31 748 -17 760 C -3 772 14 778 35 778 C 58 778 78 769 96 752 C 114 734 123 712 123 685 C 123 660 118 638 109 620 C 100 602 89 586 75 573 C 61 559 47 548 31 540 C 15 531 0 524 -15 519 L -50 576 Z M 196 424 C 214 446 237 464 263 480 C 289 496 322 504 360 504 C 384 504 407 499 429 491 C 451 482 470 470 486 454 C 502 438 514 420 524 398 C 533 376 538 353 538 328 L 538 0 L 404 0 L 404 323 C 404 341 396 357 381 371 C 366 384 347 391 323 391 C 299 391 277 384 259 371 C 241 357 225 343 211 328 L 211 0 L 78 0 L 78 349 C 78 369 77 391 75 413 C 73 435 69 460 64 488 L 186 488 C 188 478 189 468 191 457 C 193 446 194 435 196 424 Z" horiz-adv-x="610" unicode="ŉ" />
<glyph d="M 704 653 L 704 28 C 704 -12 697 -48 683 -80 C 669 -112 649 -138 625 -160 C 600 -182 570 -198 536 -210 C 502 -221 464 -227 424 -227 L 424 -104 C 463 -104 495 -93 520 -71 C 545 -49 558 -18 560 24 L 248 404 L 247 404 L 247 0 L 103 0 L 103 653 L 226 653 L 559 248 L 560 248 L 560 653 L 704 653 Z" horiz-adv-x="807" unicode="Ŋ" />
<glyph d="M 538 -44 C 538 -78 532 -106 520 -130 C 508 -153 492 -172 474 -187 C 455 -201 435 -212 413 -218 C 391 -224 369 -228 349 -228 L 312 -129 C 322 -126 333 -123 344 -120 C 355 -116 365 -112 374 -106 C 383 -100 390 -92 396 -82 C 401 -72 404 -59 404 -44 L 404 323 C 404 341 396 357 381 371 C 366 384 347 391 323 391 C 299 391 277 384 259 371 C 241 357 225 343 211 328 L 211 0 L 78 0 L 78 349 C 78 369 77 391 75 413 C 73 435 69 460 64 488 L 186 488 C 188 478 189 468 191 457 C 193 446 194 435 196 424 C 214 446 237 464 263 480 C 289 496 322 504 360 504 C 384 504 407 499 429 491 C 451 482 470 470 486 454 C 502 438 514 420 524 398 C 533 376 538 353 538 328 L 538 -44 Z" horiz-adv-x="610" unicode="ŋ" />
<glyph d="M 47 328 C 47 375 56 420 75 462 C 94 504 120 540 154 572 C 187 603 226 628 271 646 C 315 664 364 673 416 673 C 468 673 516 664 562 646 C 607 628 646 603 680 572 C 714 540 740 504 760 462 C 779 420 789 375 789 328 C 789 279 779 233 760 191 C 740 149 714 112 680 81 C 646 49 607 25 562 7 C 516 -11 468 -20 416 -20 C 364 -20 315 -11 271 7 C 226 25 187 49 154 81 C 120 112 94 149 75 191 C 56 233 47 279 47 328 Z M 197 328 C 197 297 202 268 214 241 C 225 213 240 189 260 169 C 280 149 303 133 330 121 C 356 109 385 103 416 103 C 447 103 476 109 503 121 C 530 133 554 149 574 169 C 594 189 609 213 621 241 C 633 268 639 297 639 328 C 639 358 633 386 621 413 C 609 440 594 464 574 484 C 554 504 530 519 503 531 C 476 543 447 549 416 549 C 385 549 356 543 330 531 C 303 519 280 504 260 484 C 240 464 225 440 214 413 C 202 386 197 358 197 328 Z M 551 838 L 551 745 L 282 745 L 282 838 L 551 838 Z" horiz-adv-x="835" unicode="Ō" />
<glyph d="M 44 246 C 44 282 50 315 63 347 C 75 379 93 406 117 429 C 140 452 168 470 201 484 C 233 497 269 504 309 504 C 349 504 385 497 418 484 C 450 470 478 452 502 429 C 525 406 543 379 556 347 C 569 315 576 282 576 246 C 576 210 569 176 556 144 C 543 112 525 84 502 61 C 478 37 450 19 418 5 C 385 -8 349 -15 309 -15 C 269 -15 233 -8 201 5 C 168 19 140 37 117 61 C 93 84 75 112 63 144 C 50 176 44 210 44 246 Z M 181 246 C 181 226 183 206 189 188 C 195 170 203 154 214 140 C 225 126 239 115 255 107 C 271 99 289 95 309 95 C 329 95 348 99 364 107 C 380 115 394 126 405 140 C 416 154 425 170 431 188 C 437 206 440 226 440 246 C 440 266 437 284 431 302 C 425 320 416 335 405 349 C 394 363 380 373 364 381 C 348 389 329 393 309 393 C 289 393 271 389 255 381 C 239 373 225 363 214 349 C 203 335 195 320 189 302 C 183 284 181 266 181 246 Z M 444 665 L 444 572 L 175 572 L 175 665 L 444 665 Z" horiz-adv-x="620" unicode="ō" />
<glyph d="M 47 328 C 47 375 56 420 75 462 C 94 504 120 540 154 572 C 187 603 226 628 271 646 C 315 664 364 673 416 673 C 468 673 516 664 562 646 C 607 628 646 603 680 572 C 714 540 740 504 760 462 C 779 420 789 375 789 328 C 789 279 779 233 760 191 C 740 149 714 112 680 81 C 646 49 607 25 562 7 C 516 -11 468 -20 416 -20 C 364 -20 315 -11 271 7 C 226 25 187 49 154 81 C 120 112 94 149 75 191 C 56 233 47 279 47 328 Z M 197 328 C 197 297 202 268 214 241 C 225 213 240 189 260 169 C 280 149 303 133 330 121 C 356 109 385 103 416 103 C 447 103 476 109 503 121 C 530 133 554 149 574 169 C 594 189 609 213 621 241 C 633 268 639 297 639 328 C 639 358 633 386 621 413 C 609 440 594 464 574 484 C 554 504 530 519 503 531 C 476 543 447 549 416 549 C 385 549 356 543 330 531 C 303 519 280 504 260 484 C 240 464 225 440 214 413 C 202 386 197 358 197 328 Z M 349 864 C 349 856 349 847 351 839 C 353 831 356 823 361 817 C 366 811 373 806 382 802 C 391 798 403 796 417 796 C 431 796 442 798 451 802 C 459 806 466 811 471 817 C 476 823 479 831 481 839 C 483 847 484 856 484 864 L 577 864 C 577 848 574 831 570 814 C 566 796 558 780 546 766 C 534 751 517 739 497 730 C 476 720 449 716 417 716 C 384 716 357 720 336 730 C 315 739 299 751 287 766 C 275 780 266 796 262 814 C 258 831 256 848 256 864 L 349 864 Z" horiz-adv-x="835" unicode="Ŏ" />
<glyph d="M 44 246 C 44 282 50 315 63 347 C 75 379 93 406 117 429 C 140 452 168 470 201 484 C 233 497 269 504 309 504 C 349 504 385 497 418 484 C 450 470 478 452 502 429 C 525 406 543 379 556 347 C 569 315 576 282 576 246 C 576 210 569 176 556 144 C 543 112 525 84 502 61 C 478 37 450 19 418 5 C 385 -8 349 -15 309 -15 C 269 -15 233 -8 201 5 C 168 19 140 37 117 61 C 93 84 75 112 63 144 C 50 176 44 210 44 246 Z M 181 246 C 181 226 183 206 189 188 C 195 170 203 154 214 140 C 225 126 239 115 255 107 C 271 99 289 95 309 95 C 329 95 348 99 364 107 C 380 115 394 126 405 140 C 416 154 425 170 431 188 C 437 206 440 226 440 246 C 440 266 437 284 431 302 C 425 320 416 335 405 349 C 394 363 380 373 364 381 C 348 389 329 393 309 393 C 289 393 271 389 255 381 C 239 373 225 363 214 349 C 203 335 195 320 189 302 C 183 284 181 266 181 246 Z M 242 693 C 242 684 242 675 244 667 C 246 659 249 651 254 645 C 259 638 266 633 275 629 C 284 625 296 623 310 623 C 324 623 335 625 344 629 C 352 633 359 638 364 645 C 369 651 372 659 374 667 C 376 675 377 684 377 693 L 470 693 C 470 677 467 660 463 642 C 459 624 451 608 439 594 C 427 579 410 567 390 557 C 369 547 342 543 310 543 C 277 543 250 547 229 557 C 208 567 192 579 180 594 C 168 608 159 624 155 642 C 151 660 149 677 149 693 L 242 693 Z" horiz-adv-x="620" unicode="ŏ" />
<glyph d="M 47 328 C 47 375 56 420 75 462 C 94 504 120 540 154 572 C 187 603 226 628 271 646 C 315 664 364 673 416 673 C 468 673 516 664 562 646 C 607 628 646 603 680 572 C 714 540 740 504 760 462 C 779 420 789 375 789 328 C 789 279 779 233 760 191 C 740 149 714 112 680 81 C 646 49 607 25 562 7 C 516 -11 468 -20 416 -20 C 364 -20 315 -11 271 7 C 226 25 187 49 154 81 C 120 112 94 149 75 191 C 56 233 47 279 47 328 Z M 197 328 C 197 297 202 268 214 241 C 225 213 240 189 260 169 C 280 149 303 133 330 121 C 356 109 385 103 416 103 C 447 103 476 109 503 121 C 530 133 554 149 574 169 C 594 189 609 213 621 241 C 633 268 639 297 639 328 C 639 358 633 386 621 413 C 609 440 594 464 574 484 C 554 504 530 519 503 531 C 476 543 447 549 416 549 C 385 549 356 543 330 531 C 303 519 280 504 260 484 C 240 464 225 440 214 413 C 202 386 197 358 197 328 Z M 608 867 L 537 724 L 454 724 L 496 867 L 608 867 Z M 425 867 L 354 724 L 271 724 L 313 867 L 425 867 Z" horiz-adv-x="835" unicode="Ő" />
<glyph d="M 44 246 C 44 282 50 315 63 347 C 75 379 93 406 117 429 C 140 452 168 470 201 484 C 233 497 269 504 309 504 C 349 504 385 497 418 484 C 450 470 478 452 502 429 C 525 406 543 379 556 347 C 569 315 576 282 576 246 C 576 210 569 176 556 144 C 543 112 525 84 502 61 C 478 37 450 19 418 5 C 385 -8 349 -15 309 -15 C 269 -15 233 -8 201 5 C 168 19 140 37 117 61 C 93 84 75 112 63 144 C 50 176 44 210 44 246 Z M 181 246 C 181 226 183 206 189 188 C 195 170 203 154 214 140 C 225 126 239 115 255 107 C 271 99 289 95 309 95 C 329 95 348 99 364 107 C 380 115 394 126 405 140 C 416 154 425 170 431 188 C 437 206 440 226 440 246 C 440 266 437 284 431 302 C 425 320 416 335 405 349 C 394 363 380 373 364 381 C 348 389 329 393 309 393 C 289 393 271 389 255 381 C 239 373 225 363 214 349 C 203 335 195 320 189 302 C 183 284 181 266 181 246 Z M 501 694 L 430 551 L 347 551 L 389 694 L 501 694 Z M 318 694 L 247 551 L 164 551 L 206 694 L 318 694 Z" horiz-adv-x="620" unicode="ő" />
<glyph d="M 1024 279 L 783 279 L 783 123 L 1207 123 L 1207 0 L 640 0 L 640 75 C 610 43 575 19 536 3 C 496 -12 455 -20 411 -20 C 359 -20 312 -11 268 7 C 224 25 185 49 152 81 C 119 112 93 149 75 191 C 56 233 47 279 47 328 C 47 375 56 420 75 462 C 93 504 119 540 152 572 C 185 603 224 628 268 646 C 312 664 359 673 411 673 C 455 673 496 665 536 650 C 575 634 610 610 640 577 L 640 653 L 1184 653 L 1184 529 L 783 529 L 783 402 L 1024 402 L 1024 279 Z M 197 328 C 197 297 202 268 213 241 C 224 213 239 189 259 169 C 278 149 301 133 327 121 C 353 109 381 103 411 103 C 443 103 474 109 502 121 C 530 133 555 149 576 169 C 597 189 614 213 626 241 C 638 268 644 297 644 328 C 644 358 638 386 626 413 C 614 440 597 464 576 484 C 555 504 530 519 502 531 C 474 543 443 549 411 549 C 381 549 353 543 327 531 C 301 519 278 504 259 484 C 239 464 224 440 213 413 C 202 386 197 358 197 328 Z" horiz-adv-x="1248" unicode="Œ" />
<glyph d="M 926 57 C 898 36 865 19 825 5 C 785 -8 743 -15 698 -15 C 655 -15 617 -6 583 10 C 549 26 523 49 504 77 C 482 48 453 25 419 9 C 385 -6 348 -15 309 -15 C 271 -15 235 -8 203 5 C 171 19 143 37 119 61 C 95 84 76 112 63 144 C 49 176 43 210 43 246 C 43 282 49 315 63 347 C 76 379 95 406 119 429 C 143 452 171 470 203 484 C 235 497 271 504 309 504 C 349 504 386 495 422 478 C 457 461 485 438 507 409 C 528 438 555 461 589 478 C 622 495 658 504 697 504 C 727 504 757 499 787 490 C 817 480 843 466 866 446 C 889 426 908 400 922 368 C 936 336 944 297 944 253 C 944 248 944 243 944 237 C 944 231 943 222 942 211 L 571 211 C 576 177 591 148 615 126 C 639 103 671 92 709 92 C 739 92 768 96 794 106 C 820 116 843 128 863 142 L 926 57 Z M 699 402 C 663 402 636 392 616 372 C 596 352 582 328 575 300 L 809 300 C 809 317 805 332 799 345 C 792 357 783 368 773 377 C 763 385 751 392 738 396 C 724 400 711 402 699 402 Z M 180 246 C 180 226 183 206 189 188 C 195 170 203 154 214 140 C 225 126 239 115 255 107 C 271 99 289 95 309 95 C 329 95 348 99 364 107 C 380 115 393 126 405 140 C 416 154 425 170 431 188 C 437 206 440 226 440 246 C 440 266 437 284 431 302 C 425 320 416 335 405 349 C 393 363 380 373 364 381 C 348 389 329 393 309 393 C 289 393 271 389 255 381 C 239 373 225 363 214 349 C 203 335 195 320 189 302 C 183 284 180 266 180 246 Z" horiz-adv-x="986" unicode="œ" />
<glyph d="M 103 0 L 103 653 L 465 653 C 511 653 550 646 582 634 C 613 621 639 604 661 582 C 678 564 691 543 701 520 C 710 497 715 473 715 447 C 715 405 703 368 679 336 C 655 304 623 280 583 263 L 736 0 L 572 0 L 440 240 L 246 240 L 246 0 L 103 0 Z M 246 532 L 246 361 L 480 361 C 505 361 526 369 544 385 C 562 401 571 421 571 447 C 571 469 563 488 548 504 C 536 516 524 524 510 527 C 496 530 483 532 470 532 L 246 532 Z M 403 864 L 546 864 L 422 726 L 303 726 L 403 864 Z" horiz-adv-x="780" unicode="Ŕ" />
<glyph d="M 296 376 C 278 376 263 370 251 358 C 238 346 225 331 212 314 L 212 0 L 78 0 L 78 350 C 78 370 77 392 75 414 C 73 436 69 460 64 488 L 186 488 C 188 477 189 465 191 453 C 193 440 194 427 196 415 C 210 439 227 460 247 478 C 267 495 292 504 324 504 C 336 504 350 502 364 499 C 378 495 390 490 399 484 L 362 362 C 354 365 344 368 330 371 C 316 374 305 376 296 376 Z M 351 698 L 243 552 L 126 552 L 216 698 L 351 698 Z" horiz-adv-x="409" unicode="ŕ" />
<glyph d="M 103 0 L 103 653 L 465 653 C 511 653 550 646 582 634 C 613 621 639 604 661 582 C 678 564 691 543 701 520 C 710 497 715 473 715 447 C 715 405 703 368 679 336 C 655 304 623 280 583 263 L 736 0 L 572 0 L 440 240 L 246 240 L 246 0 L 103 0 Z M 246 532 L 246 361 L 480 361 C 505 361 526 369 544 385 C 562 401 571 421 571 447 C 571 469 563 488 548 504 C 536 516 524 524 510 527 C 496 530 483 532 470 532 L 246 532 Z M 471 -41 C 477 -48 485 -59 495 -74 C 504 -89 509 -109 509 -133 C 509 -169 494 -198 464 -220 C 434 -242 393 -254 341 -254 C 313 -254 283 -249 249 -240 L 260 -165 C 270 -166 280 -167 290 -169 C 299 -171 308 -172 317 -172 C 340 -172 358 -167 370 -159 C 382 -151 389 -139 389 -123 C 389 -109 386 -97 381 -88 C 375 -79 371 -72 367 -67 L 471 -41 Z" horiz-adv-x="780" unicode="Ŗ" />
<glyph d="M 296 376 C 278 376 263 370 251 358 C 238 346 225 331 212 314 L 212 0 L 78 0 L 78 350 C 78 370 77 392 75 414 C 73 436 69 460 64 488 L 186 488 C 188 477 189 465 191 453 C 193 440 194 427 196 415 C 210 439 227 460 247 478 C 267 495 292 504 324 504 C 336 504 350 502 364 499 C 378 495 390 490 399 484 L 362 362 C 354 365 344 368 330 371 C 316 374 305 376 296 376 Z M 223 -41 C 227 -45 231 -49 237 -55 C 242 -61 247 -67 252 -75 C 256 -82 260 -90 264 -100 C 267 -110 269 -121 269 -133 C 269 -169 255 -198 227 -220 C 199 -242 159 -254 107 -254 C 99 -254 90 -253 82 -252 C 74 -251 64 -249 53 -246 L 53 -170 C 60 -171 67 -172 74 -172 C 81 -172 88 -173 94 -173 C 131 -173 150 -157 150 -125 C 150 -110 146 -98 139 -88 C 132 -78 125 -69 118 -61 L 223 -41 Z" horiz-adv-x="409" unicode="ŗ" />
<glyph d="M 103 0 L 103 653 L 465 653 C 511 653 550 646 582 634 C 613 621 639 604 661 582 C 678 564 691 543 701 520 C 710 497 715 473 715 447 C 715 405 703 368 679 336 C 655 304 623 280 583 263 L 736 0 L 572 0 L 440 240 L 246 240 L 246 0 L 103 0 Z M 246 532 L 246 361 L 480 361 C 505 361 526 369 544 385 C 562 401 571 421 571 447 C 571 469 563 488 548 504 C 536 516 524 524 510 527 C 496 530 483 532 470 532 L 246 532 Z M 390 790 L 456 865 L 561 865 L 456 726 L 324 726 L 218 865 L 323 865 L 390 790 Z" horiz-adv-x="780" unicode="Ř" />
<glyph d="M 296 376 C 278 376 263 370 251 358 C 238 346 225 331 212 314 L 212 0 L 78 0 L 78 350 C 78 370 77 392 75 414 C 73 436 69 460 64 488 L 186 488 C 188 477 189 465 191 453 C 193 440 194 427 196 415 C 210 439 227 460 247 478 C 267 495 292 504 324 504 C 336 504 350 502 364 499 C 378 495 390 490 399 484 L 362 362 C 354 365 344 368 330 371 C 316 374 305 376 296 376 Z M 139 694 L 206 617 L 272 694 L 377 694 L 272 553 L 140 553 L 34 694 L 139 694 Z" horiz-adv-x="409" unicode="ř" />
<glyph d="M 565 485 C 555 492 542 500 528 508 C 513 516 496 523 476 530 C 456 537 435 543 411 548 C 387 552 362 555 336 555 C 320 555 304 553 289 550 C 274 547 261 542 250 536 C 238 529 229 521 223 511 C 216 501 213 489 213 475 C 213 460 218 448 228 440 C 238 432 251 425 267 421 C 283 417 301 414 321 412 C 341 410 362 408 384 406 C 404 404 425 403 448 401 C 470 399 493 395 516 390 C 538 385 560 378 581 369 C 601 360 620 348 636 334 C 652 320 664 302 674 281 C 684 259 689 234 689 204 C 689 164 681 129 665 101 C 649 73 628 50 602 32 C 575 14 544 0 508 -7 C 472 -15 435 -20 395 -20 C 353 -20 314 -16 278 -8 C 242 0 210 9 180 21 C 150 33 124 47 100 63 C 76 78 54 93 36 109 L 117 207 C 131 195 147 183 165 171 C 183 158 204 146 228 135 C 251 124 277 115 305 108 C 333 100 363 97 397 97 C 417 97 437 99 455 103 C 473 107 488 112 502 120 C 516 128 526 137 534 149 C 542 161 546 174 546 190 C 546 206 542 219 534 229 C 526 239 514 247 500 253 C 485 259 468 263 448 267 C 428 270 405 273 381 275 C 345 277 308 280 272 285 C 235 289 202 298 172 311 C 142 324 117 343 98 367 C 79 391 70 424 70 466 C 70 505 78 538 95 565 C 111 591 133 613 159 629 C 185 645 214 656 246 663 C 278 669 309 673 340 673 C 374 673 406 670 437 664 C 468 658 497 651 523 643 C 549 634 573 624 594 614 C 615 604 633 594 647 585 L 565 485 Z M 378 864 L 521 864 L 397 726 L 278 726 L 378 864 Z" horiz-adv-x="730" unicode="Ś" />
<glyph d="M 444 359 C 416 371 387 382 355 390 C 323 398 294 403 268 403 C 242 403 222 399 208 391 C 194 383 187 371 187 356 C 187 346 190 338 196 332 C 202 326 209 321 219 318 C 228 315 238 313 250 312 C 261 311 272 310 283 310 C 305 308 329 306 357 303 C 384 300 409 293 433 283 C 457 273 477 258 493 238 C 509 218 518 190 518 155 C 518 125 512 100 500 79 C 488 57 471 39 451 25 C 430 11 405 0 377 -6 C 349 -13 318 -17 286 -17 C 258 -17 231 -14 207 -10 C 182 -5 159 0 139 8 C 118 15 99 23 82 32 C 65 40 50 49 38 57 L 85 152 C 97 144 110 137 126 129 C 141 121 157 114 175 108 C 193 101 211 96 230 92 C 249 88 268 86 288 86 C 319 86 343 91 360 101 C 376 111 385 125 385 143 C 385 154 381 163 375 170 C 368 177 359 182 349 186 C 339 190 328 192 316 194 C 304 195 292 196 282 197 C 255 198 228 200 201 203 C 174 206 150 212 128 222 C 106 231 89 245 75 264 C 61 282 55 308 55 342 C 55 372 61 398 73 419 C 85 440 102 457 122 470 C 142 483 164 492 189 498 C 213 503 238 506 263 506 C 285 506 307 504 330 500 C 352 496 374 492 394 487 C 414 482 433 476 450 470 C 467 464 481 458 491 454 L 444 359 Z M 423 698 L 315 552 L 198 552 L 288 698 L 423 698 Z" horiz-adv-x="557" unicode="ś" />
<glyph d="M 565 485 C 555 492 542 500 528 508 C 513 516 496 523 476 530 C 456 537 435 543 411 548 C 387 552 362 555 336 555 C 320 555 304 553 289 550 C 274 547 261 542 250 536 C 238 529 229 521 223 511 C 216 501 213 489 213 475 C 213 460 218 448 228 440 C 238 432 251 425 267 421 C 283 417 301 414 321 412 C 341 410 362 408 384 406 C 404 404 425 403 448 401 C 470 399 493 395 516 390 C 538 385 560 378 581 369 C 601 360 620 348 636 334 C 652 320 664 302 674 281 C 684 259 689 234 689 204 C 689 164 681 129 665 101 C 649 73 628 50 602 32 C 575 14 544 0 508 -7 C 472 -15 435 -20 395 -20 C 353 -20 314 -16 278 -8 C 242 0 210 9 180 21 C 150 33 124 47 100 63 C 76 78 54 93 36 109 L 117 207 C 131 195 147 183 165 171 C 183 158 204 146 228 135 C 251 124 277 115 305 108 C 333 100 363 97 397 97 C 417 97 437 99 455 103 C 473 107 488 112 502 120 C 516 128 526 137 534 149 C 542 161 546 174 546 190 C 546 206 542 219 534 229 C 526 239 514 247 500 253 C 485 259 468 263 448 267 C 428 270 405 273 381 275 C 345 277 308 280 272 285 C 235 289 202 298 172 311 C 142 324 117 343 98 367 C 79 391 70 424 70 466 C 70 505 78 538 95 565 C 111 591 133 613 159 629 C 185 645 214 656 246 663 C 278 669 309 673 340 673 C 374 673 406 670 437 664 C 468 658 497 651 523 643 C 549 634 573 624 594 614 C 615 604 633 594 647 585 L 565 485 Z M 299 865 L 431 865 L 536 726 L 431 726 L 365 800 L 298 726 L 193 726 L 299 865 Z" horiz-adv-x="730" unicode="Ŝ" />
<glyph d="M 444 359 C 416 371 387 382 355 390 C 323 398 294 403 268 403 C 242 403 222 399 208 391 C 194 383 187 371 187 356 C 187 346 190 338 196 332 C 202 326 209 321 219 318 C 228 315 238 313 250 312 C 261 311 272 310 283 310 C 305 308 329 306 357 303 C 384 300 409 293 433 283 C 457 273 477 258 493 238 C 509 218 518 190 518 155 C 518 125 512 100 500 79 C 488 57 471 39 451 25 C 430 11 405 0 377 -6 C 349 -13 318 -17 286 -17 C 258 -17 231 -14 207 -10 C 182 -5 159 0 139 8 C 118 15 99 23 82 32 C 65 40 50 49 38 57 L 85 152 C 97 144 110 137 126 129 C 141 121 157 114 175 108 C 193 101 211 96 230 92 C 249 88 268 86 288 86 C 319 86 343 91 360 101 C 376 111 385 125 385 143 C 385 154 381 163 375 170 C 368 177 359 182 349 186 C 339 190 328 192 316 194 C 304 195 292 196 282 197 C 255 198 228 200 201 203 C 174 206 150 212 128 222 C 106 231 89 245 75 264 C 61 282 55 308 55 342 C 55 372 61 398 73 419 C 85 440 102 457 122 470 C 142 483 164 492 189 498 C 213 503 238 506 263 506 C 285 506 307 504 330 500 C 352 496 374 492 394 487 C 414 482 433 476 450 470 C 467 464 481 458 491 454 L 444 359 Z M 212 694 L 344 694 L 449 553 L 344 553 L 278 629 L 211 553 L 106 553 L 212 694 Z" horiz-adv-x="557" unicode="ŝ" />
<glyph d="M 566 485 C 556 492 543 500 529 508 C 514 516 497 523 477 530 C 457 537 436 543 412 548 C 388 552 363 555 337 555 C 321 555 305 553 290 550 C 275 547 262 542 251 536 C 239 529 230 521 224 511 C 217 501 214 489 214 475 C 214 460 219 448 229 440 C 239 432 252 425 268 421 C 284 417 302 414 322 412 C 342 410 363 408 385 406 C 405 404 426 403 449 401 C 471 399 494 395 517 390 C 539 385 561 378 582 369 C 602 360 621 348 637 334 C 653 320 665 302 675 281 C 685 259 690 234 690 204 C 690 165 682 132 668 105 C 654 77 634 55 610 37 C 585 19 556 5 523 -3 C 489 -12 454 -17 417 -19 L 411 -32 C 422 -34 434 -37 447 -41 C 459 -45 471 -50 482 -57 C 492 -64 501 -73 508 -84 C 515 -94 519 -107 519 -122 C 519 -153 503 -178 471 -198 C 439 -217 397 -227 347 -227 C 323 -227 299 -224 277 -220 C 255 -216 232 -211 209 -206 L 228 -135 C 247 -138 265 -141 283 -144 C 301 -147 318 -149 336 -149 C 356 -149 372 -146 384 -140 C 396 -134 402 -126 402 -116 C 402 -109 399 -103 395 -99 C 391 -95 385 -91 379 -89 C 373 -87 366 -85 360 -84 C 353 -83 347 -83 343 -83 C 333 -83 326 -84 320 -86 L 307 -57 L 327 -16 C 293 -12 263 -5 235 2 C 207 10 181 20 157 32 C 133 43 111 55 91 69 C 71 82 53 95 37 109 L 118 207 C 132 195 148 183 166 171 C 184 158 205 146 229 135 C 252 124 278 115 306 108 C 334 100 364 97 398 97 C 418 97 438 99 456 103 C 474 107 489 112 503 120 C 517 128 527 137 535 149 C 543 161 547 174 547 190 C 547 206 543 219 535 229 C 527 239 515 247 501 253 C 486 259 469 263 449 267 C 429 270 406 273 382 275 C 346 277 309 280 273 285 C 236 289 203 298 173 311 C 143 324 118 343 99 367 C 80 391 71 424 71 466 C 71 505 79 538 96 565 C 112 591 134 613 160 629 C 186 645 215 656 247 663 C 279 669 310 673 341 673 C 375 673 407 670 438 664 C 469 658 498 651 524 643 C 550 634 574 624 595 614 C 616 604 634 594 648 585 L 566 485 Z" horiz-adv-x="730" unicode="Ş" />
<glyph d="M 444 359 C 416 371 387 382 355 390 C 323 398 294 403 268 403 C 242 403 222 399 208 391 C 194 383 187 371 187 356 C 187 346 190 338 196 332 C 202 326 209 321 219 318 C 228 315 238 313 250 312 C 261 311 272 310 283 310 C 305 308 329 306 357 303 C 384 300 409 293 433 283 C 457 273 477 258 493 238 C 509 218 518 190 518 155 C 518 129 513 107 504 87 C 494 67 481 51 465 37 C 449 23 429 11 407 3 C 384 -5 359 -11 333 -14 L 325 -32 C 336 -34 348 -37 361 -41 C 373 -45 385 -50 396 -57 C 406 -64 415 -73 422 -84 C 429 -94 433 -107 433 -122 C 433 -153 417 -178 385 -198 C 353 -217 311 -227 261 -227 C 237 -227 213 -224 191 -220 C 169 -216 146 -211 123 -206 L 142 -135 C 161 -138 179 -141 197 -144 C 215 -147 232 -149 250 -149 C 270 -149 286 -146 298 -140 C 310 -134 316 -126 316 -116 C 316 -109 313 -103 309 -99 C 305 -95 299 -91 293 -89 C 287 -87 280 -85 274 -84 C 267 -83 261 -83 257 -83 C 247 -83 240 -84 234 -86 L 221 -57 L 242 -15 C 196 -10 156 0 122 14 C 88 28 60 43 38 57 L 85 152 C 97 144 110 137 126 129 C 141 121 157 114 175 108 C 193 101 211 96 230 92 C 249 88 268 86 288 86 C 319 86 343 91 360 101 C 376 111 385 125 385 143 C 385 154 381 163 375 170 C 368 177 359 182 349 186 C 339 190 328 192 316 194 C 304 195 292 196 282 197 C 255 198 228 200 201 203 C 174 206 150 212 128 222 C 106 231 89 245 75 264 C 61 282 55 308 55 342 C 55 372 61 398 73 419 C 85 440 102 457 122 470 C 142 483 164 492 189 498 C 213 503 238 506 263 506 C 285 506 307 504 330 500 C 352 496 374 492 394 487 C 414 482 433 476 450 470 C 467 464 481 458 491 454 L 444 359 Z" horiz-adv-x="557" unicode="ş" />
<glyph d="M 565 485 C 555 492 542 500 528 508 C 513 516 496 523 476 530 C 456 537 435 543 411 548 C 387 552 362 555 336 555 C 320 555 304 553 289 550 C 274 547 261 542 250 536 C 238 529 229 521 223 511 C 216 501 213 489 213 475 C 213 460 218 448 228 440 C 238 432 251 425 267 421 C 283 417 301 414 321 412 C 341 410 362 408 384 406 C 404 404 425 403 448 401 C 470 399 493 395 516 390 C 538 385 560 378 581 369 C 601 360 620 348 636 334 C 652 320 664 302 674 281 C 684 259 689 234 689 204 C 689 164 681 129 665 101 C 649 73 628 50 602 32 C 575 14 544 0 508 -7 C 472 -15 435 -20 395 -20 C 353 -20 314 -16 278 -8 C 242 0 210 9 180 21 C 150 33 124 47 100 63 C 76 78 54 93 36 109 L 117 207 C 131 195 147 183 165 171 C 183 158 204 146 228 135 C 251 124 277 115 305 108 C 333 100 363 97 397 97 C 417 97 437 99 455 103 C 473 107 488 112 502 120 C 516 128 526 137 534 149 C 542 161 546 174 546 190 C 546 206 542 219 534 229 C 526 239 514 247 500 253 C 485 259 468 263 448 267 C 428 270 405 273 381 275 C 345 277 308 280 272 285 C 235 289 202 298 172 311 C 142 324 117 343 98 367 C 79 391 70 424 70 466 C 70 505 78 538 95 565 C 111 591 133 613 159 629 C 185 645 214 656 246 663 C 278 669 309 673 340 673 C 374 673 406 670 437 664 C 468 658 497 651 523 643 C 549 634 573 624 594 614 C 615 604 633 594 647 585 L 565 485 Z M 365 790 L 431 865 L 536 865 L 431 726 L 299 726 L 193 865 L 298 865 L 365 790 Z" horiz-adv-x="730" unicode="Š" />
<glyph d="M 444 359 C 416 371 387 382 355 390 C 323 398 294 403 268 403 C 242 403 222 399 208 391 C 194 383 187 371 187 356 C 187 346 190 338 196 332 C 202 326 209 321 219 318 C 228 315 238 313 250 312 C 261 311 272 310 283 310 C 305 308 329 306 357 303 C 384 300 409 293 433 283 C 457 273 477 258 493 238 C 509 218 518 190 518 155 C 518 125 512 100 500 79 C 488 57 471 39 451 25 C 430 11 405 0 377 -6 C 349 -13 318 -17 286 -17 C 258 -17 231 -14 207 -10 C 182 -5 159 0 139 8 C 118 15 99 23 82 32 C 65 40 50 49 38 57 L 85 152 C 97 144 110 137 126 129 C 141 121 157 114 175 108 C 193 101 211 96 230 92 C 249 88 268 86 288 86 C 319 86 343 91 360 101 C 376 111 385 125 385 143 C 385 154 381 163 375 170 C 368 177 359 182 349 186 C 339 190 328 192 316 194 C 304 195 292 196 282 197 C 255 198 228 200 201 203 C 174 206 150 212 128 222 C 106 231 89 245 75 264 C 61 282 55 308 55 342 C 55 372 61 398 73 419 C 85 440 102 457 122 470 C 142 483 164 492 189 498 C 213 503 238 506 263 506 C 285 506 307 504 330 500 C 352 496 374 492 394 487 C 414 482 433 476 450 470 C 467 464 481 458 491 454 L 444 359 Z M 211 694 L 278 617 L 344 694 L 449 694 L 344 553 L 212 553 L 106 694 L 211 694 Z" horiz-adv-x="557" unicode="š" />
<glyph d="M 26 653 L 642 653 L 642 529 L 406 529 L 406 0 L 390 -32 C 401 -34 413 -37 426 -41 C 438 -45 450 -50 461 -57 C 471 -64 480 -73 487 -84 C 494 -94 498 -107 498 -122 C 498 -153 482 -178 450 -198 C 418 -217 376 -227 326 -227 C 302 -227 278 -224 256 -220 C 234 -216 211 -211 188 -206 L 207 -135 C 226 -138 244 -141 262 -144 C 280 -147 297 -149 315 -149 C 335 -149 351 -146 363 -140 C 375 -134 381 -126 381 -116 C 381 -109 378 -103 374 -99 C 370 -95 364 -91 358 -89 C 352 -87 345 -85 339 -84 C 332 -83 326 -83 322 -83 C 312 -83 305 -84 299 -86 L 286 -57 L 315 0 L 263 0 L 263 529 L 26 529 L 26 653 Z" horiz-adv-x="668" unicode="Ţ" />
<glyph d="M 22 488 L 107 488 L 107 626 L 240 626 L 240 488 L 360 488 L 360 389 L 240 389 L 240 136 C 240 107 257 93 293 93 C 302 93 312 93 324 95 C 336 97 346 98 355 100 L 365 0 C 360 -4 353 -7 344 -9 C 334 -11 324 -13 314 -15 C 304 -16 294 -17 284 -18 C 274 -18 265 -19 259 -19 L 250 -19 L 244 -32 C 255 -34 267 -37 280 -41 C 292 -45 304 -50 315 -57 C 325 -64 334 -73 341 -84 C 348 -94 352 -107 352 -122 C 352 -153 336 -178 304 -198 C 272 -217 230 -227 180 -227 C 156 -227 132 -224 110 -220 C 88 -216 65 -211 42 -206 L 61 -135 C 80 -138 98 -141 116 -144 C 134 -147 151 -149 169 -149 C 189 -149 205 -146 217 -140 C 229 -134 235 -126 235 -116 C 235 -109 232 -103 228 -99 C 224 -95 218 -91 212 -89 C 206 -87 199 -85 193 -84 C 186 -83 180 -83 176 -83 C 166 -83 159 -84 153 -86 L 140 -57 L 170 3 C 152 13 137 28 125 48 C 113 68 107 94 107 126 L 107 389 L 22 389 L 22 488 Z" horiz-adv-x="403" unicode="ţ" />
<glyph d="M 26 653 L 642 653 L 642 529 L 406 529 L 406 0 L 263 0 L 263 529 L 26 529 L 26 653 Z M 334 790 L 400 865 L 505 865 L 400 726 L 268 726 L 162 865 L 267 865 L 334 790 Z" horiz-adv-x="668" unicode="Ť" />
<glyph d="M 22 488 L 107 488 L 107 626 L 240 626 L 240 488 L 360 488 L 360 389 L 240 389 L 240 136 C 240 107 257 93 293 93 C 302 93 312 93 324 95 C 336 97 346 98 355 100 L 365 0 C 360 -4 353 -7 344 -9 C 334 -11 324 -13 314 -15 C 304 -16 294 -17 284 -18 C 274 -18 265 -19 259 -19 C 241 -19 223 -16 205 -11 C 187 -6 170 1 156 13 C 141 24 129 39 120 57 C 111 75 107 98 107 126 L 107 389 L 22 389 L 22 488 Z M 298 546 L 298 782 L 416 782 C 416 733 412 690 404 654 C 396 617 384 581 366 546 L 298 546 Z" horiz-adv-x="403" unicode="ť" />
<glyph d="M 26 653 L 642 653 L 642 529 L 406 529 L 406 385 L 550 385 L 550 281 L 406 281 L 406 0 L 263 0 L 263 281 L 119 281 L 119 385 L 263 385 L 263 529 L 26 529 L 26 653 Z" horiz-adv-x="668" unicode="Ŧ" />
<glyph d="M 22 488 L 107 488 L 107 626 L 240 626 L 240 488 L 360 488 L 360 389 L 240 389 L 240 291 L 360 291 L 360 203 L 240 203 L 240 136 C 240 107 257 93 293 93 C 302 93 312 93 324 95 C 336 97 346 98 355 100 L 365 0 C 360 -4 353 -7 344 -9 C 334 -11 324 -13 314 -15 C 304 -16 294 -17 284 -18 C 274 -18 265 -19 259 -19 C 241 -19 223 -16 205 -11 C 187 -6 170 1 156 13 C 141 24 129 39 120 57 C 111 75 107 98 107 126 L 107 203 L 22 203 L 22 291 L 107 291 L 107 389 L 22 389 L 22 488 Z" horiz-adv-x="403" unicode="ŧ" />
<glyph d="M 687 653 L 687 235 C 687 194 679 158 664 126 C 649 94 628 68 602 46 C 576 24 544 8 508 -3 C 471 -14 431 -20 388 -20 C 346 -20 306 -14 270 -3 C 234 8 202 24 176 46 C 150 68 129 94 114 126 C 98 158 91 194 91 235 L 91 653 L 235 653 L 235 235 C 235 213 239 194 247 178 C 255 161 266 147 280 136 C 294 125 310 117 328 111 C 346 105 366 103 388 103 C 410 103 430 105 449 111 C 468 117 485 125 499 136 C 513 147 523 161 531 178 C 539 194 543 213 543 235 L 543 653 L 687 653 Z M 195 764 C 215 800 236 825 256 840 C 276 854 298 862 322 862 C 337 862 350 859 362 855 C 373 850 384 844 394 837 C 403 831 412 825 420 820 C 428 814 437 812 446 812 C 458 812 469 817 478 827 C 487 837 495 847 503 858 L 577 818 C 557 783 537 758 517 742 C 496 726 474 718 450 718 C 436 718 423 720 412 725 C 400 729 390 735 381 741 C 371 748 362 754 354 760 C 346 765 337 768 328 768 C 316 768 306 762 298 752 C 290 742 282 731 275 721 L 195 764 Z" horiz-adv-x="778" unicode="Ũ" />
<glyph d="M 413 63 C 393 41 371 23 345 7 C 319 -8 287 -16 249 -16 C 224 -16 201 -11 179 -3 C 157 5 139 17 123 33 C 107 49 94 67 85 89 C 75 111 71 134 71 160 L 71 488 L 205 488 L 205 165 C 205 145 212 129 227 116 C 242 103 262 97 286 97 C 310 97 331 103 349 116 C 367 129 384 144 398 160 L 398 488 L 531 488 L 531 138 C 531 118 531 96 533 74 C 534 52 537 27 543 0 L 419 0 C 417 8 416 19 415 31 C 414 43 413 53 413 63 Z M 111 590 C 131 626 152 652 172 667 C 192 681 214 689 238 689 C 253 689 266 686 278 682 C 289 677 300 671 310 664 C 319 657 328 651 336 646 C 344 641 353 639 362 639 C 374 639 385 643 394 653 C 403 663 411 673 419 685 L 493 645 C 473 610 453 585 433 569 C 412 553 390 545 366 545 C 352 545 339 547 328 552 C 316 556 306 562 297 568 C 287 575 278 581 270 587 C 262 592 253 595 244 595 C 232 595 222 589 214 579 C 206 568 198 557 191 547 L 111 590 Z" horiz-adv-x="609" unicode="ũ" />
<glyph d="M 687 653 L 687 235 C 687 194 679 158 664 126 C 649 94 628 68 602 46 C 576 24 544 8 508 -3 C 471 -14 431 -20 388 -20 C 346 -20 306 -14 270 -3 C 234 8 202 24 176 46 C 150 68 129 94 114 126 C 98 158 91 194 91 235 L 91 653 L 235 653 L 235 235 C 235 213 239 194 247 178 C 255 161 266 147 280 136 C 294 125 310 117 328 111 C 346 105 366 103 388 103 C 410 103 430 105 449 111 C 468 117 485 125 499 136 C 513 147 523 161 531 178 C 539 194 543 213 543 235 L 543 653 L 687 653 Z M 522 838 L 522 745 L 253 745 L 253 838 L 522 838 Z" horiz-adv-x="778" unicode="Ū" />
<glyph d="M 413 63 C 393 41 371 23 345 7 C 319 -8 287 -16 249 -16 C 224 -16 201 -11 179 -3 C 157 5 139 17 123 33 C 107 49 94 67 85 89 C 75 111 71 134 71 160 L 71 488 L 205 488 L 205 165 C 205 145 212 129 227 116 C 242 103 262 97 286 97 C 310 97 331 103 349 116 C 367 129 384 144 398 160 L 398 488 L 531 488 L 531 138 C 531 118 531 96 533 74 C 534 52 537 27 543 0 L 419 0 C 417 8 416 19 415 31 C 414 43 413 53 413 63 Z M 438 665 L 438 572 L 169 572 L 169 665 L 438 665 Z" horiz-adv-x="609" unicode="ū" />
<glyph d="M 687 653 L 687 235 C 687 194 679 158 664 126 C 649 94 628 68 602 46 C 576 24 544 8 508 -3 C 471 -14 431 -20 388 -20 C 346 -20 306 -14 270 -3 C 234 8 202 24 176 46 C 150 68 129 94 114 126 C 98 158 91 194 91 235 L 91 653 L 235 653 L 235 235 C 235 213 239 194 247 178 C 255 161 266 147 280 136 C 294 125 310 117 328 111 C 346 105 366 103 388 103 C 410 103 430 105 449 111 C 468 117 485 125 499 136 C 513 147 523 161 531 178 C 539 194 543 213 543 235 L 543 653 L 687 653 Z M 320 864 C 320 856 320 847 322 839 C 324 831 327 823 332 817 C 337 811 344 806 353 802 C 362 798 374 796 388 796 C 402 796 413 798 422 802 C 430 806 437 811 442 817 C 447 823 450 831 452 839 C 454 847 455 856 455 864 L 548 864 C 548 848 545 831 541 814 C 537 796 529 780 517 766 C 505 751 488 739 468 730 C 447 720 420 716 388 716 C 355 716 328 720 307 730 C 286 739 270 751 258 766 C 246 780 237 796 233 814 C 229 831 227 848 227 864 L 320 864 Z" horiz-adv-x="778" unicode="Ŭ" />
<glyph d="M 413 63 C 393 41 371 23 345 7 C 319 -8 287 -16 249 -16 C 224 -16 201 -11 179 -3 C 157 5 139 17 123 33 C 107 49 94 67 85 89 C 75 111 71 134 71 160 L 71 488 L 205 488 L 205 165 C 205 145 212 129 227 116 C 242 103 262 97 286 97 C 310 97 331 103 349 116 C 367 129 384 144 398 160 L 398 488 L 531 488 L 531 138 C 531 118 531 96 533 74 C 534 52 537 27 543 0 L 419 0 C 417 8 416 19 415 31 C 414 43 413 53 413 63 Z M 236 693 C 236 684 236 675 238 667 C 240 659 243 651 248 645 C 253 638 260 633 269 629 C 278 625 290 623 304 623 C 318 623 329 625 338 629 C 346 633 353 638 358 645 C 363 651 366 659 368 667 C 370 675 371 684 371 693 L 464 693 C 464 677 461 660 457 642 C 453 624 445 608 433 594 C 421 579 404 567 384 557 C 363 547 336 543 304 543 C 271 543 244 547 223 557 C 202 567 186 579 174 594 C 162 608 153 624 149 642 C 145 660 143 677 143 693 L 236 693 Z" horiz-adv-x="609" unicode="ŭ" />
<glyph d="M 687 653 L 687 235 C 687 194 679 158 664 126 C 649 94 628 68 602 46 C 576 24 544 8 508 -3 C 471 -14 431 -20 388 -20 C 346 -20 306 -14 270 -3 C 234 8 202 24 176 46 C 150 68 129 94 114 126 C 98 158 91 194 91 235 L 91 653 L 235 653 L 235 235 C 235 213 239 194 247 178 C 255 161 266 147 280 136 C 294 125 310 117 328 111 C 346 105 366 103 388 103 C 410 103 430 105 449 111 C 468 117 485 125 499 136 C 513 147 523 161 531 178 C 539 194 543 213 543 235 L 543 653 L 687 653 Z M 327 801 C 327 785 332 773 343 765 C 354 756 368 752 385 752 C 401 752 415 756 426 765 C 437 773 443 785 443 801 C 443 816 437 829 426 840 C 415 850 401 856 385 856 C 368 856 354 850 343 840 C 332 829 327 816 327 801 Z M 385 693 C 362 693 342 695 325 701 C 308 707 294 715 283 725 C 271 735 263 746 257 759 C 251 772 249 786 249 801 C 249 815 251 829 257 843 C 263 856 271 868 283 878 C 294 888 308 897 325 903 C 342 909 362 913 385 913 C 407 913 426 909 443 903 C 460 897 474 888 486 878 C 497 868 506 856 512 843 C 518 829 521 815 521 801 C 521 786 518 772 512 759 C 506 746 497 735 486 725 C 474 715 460 707 443 701 C 426 695 407 693 385 693 Z" horiz-adv-x="778" unicode="Ů" />
<glyph d="M 413 63 C 393 41 371 23 345 7 C 319 -8 287 -16 249 -16 C 224 -16 201 -11 179 -3 C 157 5 139 17 123 33 C 107 49 94 67 85 89 C 75 111 71 134 71 160 L 71 488 L 205 488 L 205 165 C 205 145 212 129 227 116 C 242 103 262 97 286 97 C 310 97 331 103 349 116 C 367 129 384 144 398 160 L 398 488 L 531 488 L 531 138 C 531 118 531 96 533 74 C 534 52 537 27 543 0 L 419 0 C 417 8 416 19 415 31 C 414 43 413 53 413 63 Z M 243 650 C 243 635 248 623 259 614 C 270 605 284 601 301 601 C 317 601 331 605 342 614 C 353 623 359 635 359 650 C 359 666 353 679 342 690 C 331 700 317 706 301 706 C 284 706 270 700 259 690 C 248 679 243 666 243 650 Z M 165 650 C 165 664 167 678 173 692 C 179 706 187 718 199 728 C 210 738 224 747 241 753 C 258 759 278 762 301 762 C 323 762 342 759 359 753 C 376 747 390 738 402 728 C 413 718 422 706 428 692 C 434 678 437 664 437 650 C 437 636 434 622 428 609 C 422 596 413 585 402 575 C 390 565 376 557 359 551 C 342 545 323 543 301 543 C 278 543 258 545 241 551 C 224 557 210 565 199 575 C 187 585 179 596 173 609 C 167 622 165 636 165 650 Z" horiz-adv-x="609" unicode="ů" />
<glyph d="M 687 653 L 687 235 C 687 194 679 158 664 126 C 649 94 628 68 602 46 C 576 24 544 8 508 -3 C 471 -14 431 -20 388 -20 C 346 -20 306 -14 270 -3 C 234 8 202 24 176 46 C 150 68 129 94 114 126 C 98 158 91 194 91 235 L 91 653 L 235 653 L 235 235 C 235 213 239 194 247 178 C 255 161 266 147 280 136 C 294 125 310 117 328 111 C 346 105 366 103 388 103 C 410 103 430 105 449 111 C 468 117 485 125 499 136 C 513 147 523 161 531 178 C 539 194 543 213 543 235 L 543 653 L 687 653 Z M 579 867 L 508 724 L 425 724 L 467 867 L 579 867 Z M 396 867 L 325 724 L 242 724 L 284 867 L 396 867 Z" horiz-adv-x="778" unicode="Ű" />
<glyph d="M 413 63 C 393 41 371 23 345 7 C 319 -8 287 -16 249 -16 C 224 -16 201 -11 179 -3 C 157 5 139 17 123 33 C 107 49 94 67 85 89 C 75 111 71 134 71 160 L 71 488 L 205 488 L 205 165 C 205 145 212 129 227 116 C 242 103 262 97 286 97 C 310 97 331 103 349 116 C 367 129 384 144 398 160 L 398 488 L 531 488 L 531 138 C 531 118 531 96 533 74 C 534 52 537 27 543 0 L 419 0 C 417 8 416 19 415 31 C 414 43 413 53 413 63 Z M 495 694 L 424 551 L 341 551 L 383 694 L 495 694 Z M 312 694 L 241 551 L 158 551 L 200 694 L 312 694 Z" horiz-adv-x="609" unicode="ű" />
</font>
</defs>
</svg>
